<svg xmlns="http://www.w3.org/2000/svg" xmlns:xlink="http://www.w3.org/1999/xlink" width="601" zoomAndPan="magnify" viewBox="0 0 450.75 386.250002" height="515" preserveAspectRatio="xMidYMid meet" version="1.0"><defs><clipPath id="50318a47cc"><path d="M 43 210 L 98 210 L 98 272 L 43 272 Z M 43 210 " clip-rule="nonzero"/></clipPath><clipPath id="a0db1e7abb"><path d="M 43.785156 226.71875 L 67.699219 210.722656 L 97.472656 255.230469 L 73.5625 271.230469 Z M 43.785156 226.71875 " clip-rule="nonzero"/></clipPath><clipPath id="5bd7cab529"><path d="M 26 187 L 65 187 L 65 223 L 26 223 Z M 26 187 " clip-rule="nonzero"/></clipPath><clipPath id="9390410186"><path d="M 20.054688 206.738281 L 130.964844 128.921875 L 238.015625 281.5 L 127.105469 359.316406 Z M 20.054688 206.738281 " clip-rule="nonzero"/></clipPath><clipPath id="87be0d7984"><path d="M 20.054688 206.738281 L 130.964844 128.921875 L 238.015625 281.5 L 127.105469 359.316406 Z M 20.054688 206.738281 " clip-rule="nonzero"/></clipPath><clipPath id="029051f31a"><path d="M 20.054688 206.738281 L 130.964844 128.921875 L 238.015625 281.5 L 127.105469 359.316406 Z M 20.054688 206.738281 " clip-rule="nonzero"/></clipPath><clipPath id="657e54e285"><path d="M 37 205 L 99 205 L 99 274 L 37 274 Z M 37 205 " clip-rule="nonzero"/></clipPath><clipPath id="531ddcfc48"><path d="M 20.054688 206.738281 L 130.964844 128.921875 L 238.015625 281.5 L 127.105469 359.316406 Z M 20.054688 206.738281 " clip-rule="nonzero"/></clipPath><clipPath id="2a8279c4b5"><path d="M 20.054688 206.738281 L 130.964844 128.921875 L 238.015625 281.5 L 127.105469 359.316406 Z M 20.054688 206.738281 " clip-rule="nonzero"/></clipPath><clipPath id="12cfcf69d8"><path d="M 20.054688 206.738281 L 130.964844 128.921875 L 238.015625 281.5 L 127.105469 359.316406 Z M 20.054688 206.738281 " clip-rule="nonzero"/></clipPath><clipPath id="e623e616f5"><path d="M 87 196 L 212 196 L 212 324 L 87 324 Z M 87 196 " clip-rule="nonzero"/></clipPath><clipPath id="e7077d97fd"><path d="M 20.054688 206.738281 L 130.964844 128.921875 L 238.015625 281.5 L 127.105469 359.316406 Z M 20.054688 206.738281 " clip-rule="nonzero"/></clipPath><clipPath id="6adc0b9972"><path d="M 20.054688 206.738281 L 130.964844 128.921875 L 238.015625 281.5 L 127.105469 359.316406 Z M 20.054688 206.738281 " clip-rule="nonzero"/></clipPath><clipPath id="e9348a3dc0"><path d="M 20.054688 206.738281 L 130.964844 128.921875 L 238.015625 281.5 L 127.105469 359.316406 Z M 20.054688 206.738281 " clip-rule="nonzero"/></clipPath><clipPath id="ef755ca30e"><path d="M 271.917969 182.359375 L 384.949219 182.359375 L 384.949219 296.140625 L 271.917969 296.140625 Z M 271.917969 182.359375 " clip-rule="nonzero"/></clipPath><clipPath id="46cb0363c5"><path d="M 196 121 L 265 121 L 265 177 L 196 177 Z M 196 121 " clip-rule="nonzero"/></clipPath><clipPath id="31e19602db"><path d="M 205.277344 121.773438 L 264.84375 134.601562 L 255.890625 176.183594 L 196.320312 163.355469 Z M 205.277344 121.773438 " clip-rule="nonzero"/></clipPath><clipPath id="62b72cf478"><path d="M 240 128 L 268 128 L 268 145 L 240 145 Z M 240 128 " clip-rule="nonzero"/></clipPath><clipPath id="877fe8bd6b"><path d="M 240.164062 132.390625 L 265.613281 128.183594 L 267.695312 140.785156 L 242.25 144.992188 Z M 240.164062 132.390625 " clip-rule="nonzero"/></clipPath><clipPath id="097dcaffd6"><path d="M 200 113 L 231 113 L 231 139 L 200 139 Z M 200 113 " clip-rule="nonzero"/></clipPath><clipPath id="0149ff3e70"><path d="M 206.859375 113.757812 L 230.859375 127.859375 L 224.390625 138.871094 L 200.390625 124.769531 Z M 206.859375 113.757812 " clip-rule="nonzero"/></clipPath><clipPath id="8221cbb225"><path d="M 196 153 L 256 153 L 256 190 L 196 190 Z M 196 153 " clip-rule="nonzero"/></clipPath><clipPath id="340f06e1bb"><path d="M 202.402344 153.539062 L 255.21875 172.410156 L 249.140625 189.429688 L 196.320312 170.5625 Z M 202.402344 153.539062 " clip-rule="nonzero"/></clipPath><clipPath id="ba4b2fee01"><path d="M 198.851562 171.484375 L 254.9375 171.484375 L 254.9375 207.601562 L 198.851562 207.601562 Z M 198.851562 171.484375 " clip-rule="nonzero"/></clipPath><clipPath id="c5203cdab8"><path d="M 183 47 L 304.910156 47 L 304.910156 210.828125 L 183 210.828125 Z M 183 47 " clip-rule="nonzero"/></clipPath><clipPath id="629074c0c6"><path d="M 142 126 L 184 126 L 184 196 L 142 196 Z M 142 126 " clip-rule="nonzero"/></clipPath><clipPath id="3b70a2263e"><path d="M 145.285156 196.347656 L 129.09375 136.367188 L 182.574219 121.929688 L 198.765625 181.914062 Z M 145.285156 196.347656 " clip-rule="nonzero"/></clipPath><clipPath id="e8ada8b30e"><path d="M 198.84375 181.890625 L 182.652344 121.910156 L 129.171875 136.34375 L 145.363281 196.328125 Z M 198.84375 181.890625 " clip-rule="nonzero"/></clipPath><clipPath id="6dcdf2be5f"><path d="M 198.84375 181.890625 L 182.652344 121.910156 L 129.171875 136.34375 L 145.363281 196.328125 Z M 198.84375 181.890625 " clip-rule="nonzero"/></clipPath><clipPath id="d9ec1135aa"><path d="M 200 304 L 258 304 L 258 325 L 200 325 Z M 200 304 " clip-rule="nonzero"/></clipPath><clipPath id="f21a212ebc"><path d="M 262.34375 311.980469 L 225.152344 346.734375 L 199.597656 319.390625 L 236.789062 284.632812 Z M 262.34375 311.980469 " clip-rule="nonzero"/></clipPath><clipPath id="9b5d324dd1"><path d="M 224.929688 346.941406 L 262.121094 312.1875 L 236.566406 284.84375 L 199.375 319.597656 Z M 224.929688 346.941406 " clip-rule="nonzero"/></clipPath><clipPath id="a777584075"><path d="M 224.929688 346.941406 L 262.121094 312.1875 L 236.566406 284.84375 L 199.375 319.597656 Z M 224.929688 346.941406 " clip-rule="nonzero"/></clipPath></defs><g clip-path="url(#50318a47cc)"><g clip-path="url(#a0db1e7abb)"><path fill="#ffffff" d="M 43.785156 226.71875 L 67.699219 210.722656 L 97.445312 255.1875 L 73.53125 271.183594 Z M 43.785156 226.71875 " fill-opacity="1" fill-rule="nonzero"/></g></g><g clip-path="url(#5bd7cab529)"><g clip-path="url(#9390410186)"><g clip-path="url(#87be0d7984)"><g clip-path="url(#029051f31a)"><path fill="#000000" d="M 53.597656 189.242188 C 52.277344 187.359375 50.140625 186.980469 48.261719 188.300781 L 28.523438 202.148438 C 26.957031 203.246094 26.269531 205.601562 27.59375 207.488281 L 38.390625 222.878906 L 64.082031 204.851562 L 53.285156 189.460938 Z M 38.835938 210.847656 L 37.269531 211.949219 L 31.980469 204.410156 L 33.546875 203.3125 Z M 42.59375 208.210938 L 41.027344 209.3125 L 35.738281 201.773438 L 37.304688 200.671875 Z M 46.667969 205.355469 L 45.101562 206.453125 L 39.8125 198.914062 L 41.378906 197.816406 Z M 50.742188 202.496094 L 49.175781 203.59375 L 43.886719 196.058594 L 45.453125 194.957031 Z M 54.5 199.859375 L 52.933594 200.957031 L 47.644531 193.417969 L 49.210938 192.320312 Z M 54.5 199.859375 " fill-opacity="1" fill-rule="nonzero"/></g></g></g></g><g clip-path="url(#657e54e285)"><g clip-path="url(#531ddcfc48)"><g clip-path="url(#2a8279c4b5)"><g clip-path="url(#12cfcf69d8)"><path fill="#000000" d="M 98.621094 256.082031 L 86.503906 226.148438 L 73.503906 207.617188 C 72.179688 205.734375 69.734375 205.578125 68.167969 206.675781 L 39.027344 227.117188 C 37.148438 228.4375 36.996094 230.886719 38.097656 232.457031 L 51.101562 250.988281 L 75.125 272.570312 C 76.539062 273.917969 78.453125 273.984375 80.019531 272.882812 L 97.566406 260.574219 C 98.820312 259.695312 99.410156 257.871094 98.621094 256.082031 Z M 56.707031 245.652344 L 48.113281 233.402344 C 46.789062 231.515625 47.160156 229.378906 49.042969 228.0625 L 65.648438 216.410156 C 67.527344 215.09375 69.660156 215.46875 70.984375 217.355469 L 79.578125 229.605469 C 80.898438 231.488281 80.527344 233.625 78.648438 234.941406 L 62.042969 246.59375 C 60.164062 247.914062 57.808594 247.222656 56.707031 245.652344 Z M 90.847656 259.664062 L 81.136719 266.476562 C 80.195312 267.136719 79.128906 266.949219 78.46875 266.003906 C 77.804688 265.0625 77.992188 263.996094 78.933594 263.335938 L 88.644531 256.519531 C 89.585938 255.863281 90.652344 256.050781 91.3125 256.992188 C 91.972656 257.933594 91.789062 259.003906 90.847656 259.664062 Z M 87.789062 251.96875 L 74.941406 260.980469 C 74 261.640625 72.933594 261.449219 72.273438 260.507812 C 71.613281 259.566406 71.796875 258.496094 72.738281 257.839844 L 85.582031 248.824219 C 86.523438 248.167969 87.589844 248.355469 88.25 249.296875 C 88.914062 250.238281 88.726562 251.308594 87.789062 251.96875 Z M 68.652344 256.015625 C 67.714844 256.675781 66.648438 256.488281 65.984375 255.546875 C 65.324219 254.601562 65.511719 253.535156 66.449219 252.875 L 82.742188 241.445312 C 83.683594 240.785156 84.75 240.972656 85.410156 241.917969 C 86.070312 242.859375 85.886719 243.925781 84.945312 244.585938 Z M 68.652344 256.015625 " fill-opacity="1" fill-rule="nonzero"/></g></g></g></g><g clip-path="url(#e623e616f5)"><g clip-path="url(#e7077d97fd)"><g clip-path="url(#6adc0b9972)"><g clip-path="url(#e9348a3dc0)"><path fill="#000000" d="M 196.390625 222.171875 C 178.980469 197.359375 148.273438 188.90625 127.90625 203.195312 C 107.542969 217.484375 104.726562 249.457031 122.136719 274.269531 C 139.546875 299.082031 170.253906 307.535156 190.621094 293.246094 C 195.632812 289.730469 199.449219 285.175781 202.292969 279.898438 C 200.03125 291.332031 193.902344 301.257812 184.503906 307.851562 C 161.628906 323.898438 126.523438 313.84375 106.472656 285.261719 L 94.128906 267.671875 L 87.863281 272.066406 L 100.203125 289.65625 C 122.683594 321.695312 162.5 333.132812 189.128906 314.445312 C 217.328125 294.664062 217.324219 252.011719 196.390625 222.171875 Z M 187.886719 264.699219 C 177.234375 272.171875 160.75 267.332031 151.273438 253.828125 C 141.796875 240.320312 142.859375 223.171875 153.511719 215.699219 C 165.101562 207.566406 181.308594 214.003906 190.125 226.570312 C 198.9375 239.132812 199.167969 256.785156 187.886719 264.699219 Z M 128.714844 269.652344 C 113.949219 248.609375 115.617188 221.660156 132.535156 209.792969 C 140.367188 204.296875 149.683594 202.914062 159.199219 205.144531 C 155.496094 205.867188 152.234375 207.21875 149.101562 209.417969 C 135.003906 219.308594 133.109375 241.261719 145.007812 258.222656 C 156.90625 275.183594 178.195312 280.871094 192.296875 270.980469 C 195.429688 268.78125 197.808594 266.175781 199.746094 262.941406 C 198.605469 272.644531 193.824219 281.15625 186.304688 286.429688 C 169.386719 298.300781 143.480469 290.699219 128.714844 269.652344 Z M 128.714844 269.652344 " fill-opacity="1" fill-rule="nonzero"/></g></g></g></g><g clip-path="url(#ef755ca30e)"><path fill="#000000" d="M 284.605469 234.839844 L 278.949219 234.839844 L 278.949219 247.554688 L 284.605469 247.554688 Z M 307.609375 234.839844 L 287.1875 234.839844 L 287.1875 247.554688 L 307.609375 247.554688 Z M 315.847656 234.839844 L 310.195312 234.839844 L 310.195312 247.554688 L 315.847656 247.554688 Z M 287.152344 196.074219 L 307.644531 196.074219 C 307.625 195.96875 307.609375 195.859375 307.609375 195.75 C 307.609375 194.378906 307.046875 193.132812 306.148438 192.230469 C 305.246094 191.324219 304 190.765625 302.632812 190.765625 L 292.167969 190.765625 C 290.800781 190.765625 289.558594 191.320312 288.652344 192.230469 C 287.75 193.132812 287.1875 194.378906 287.1875 195.75 C 287.1875 195.859375 287.175781 195.972656 287.152344 196.074219 Z M 278.949219 196.074219 L 284.648438 196.074219 C 284.621094 195.96875 284.605469 195.859375 284.605469 195.75 C 284.605469 193.667969 285.464844 191.769531 286.832031 190.402344 C 288.199219 189.03125 290.085938 188.179688 292.171875 188.179688 L 302.632812 188.179688 C 304.710938 188.179688 306.597656 189.03125 307.964844 190.402344 C 309.34375 191.769531 310.191406 193.667969 310.191406 195.75 C 310.191406 195.859375 310.175781 195.96875 310.148438 196.074219 L 315.847656 196.074219 L 315.847656 191.867188 C 315.847656 189.257812 314.777344 186.890625 313.066406 185.167969 C 311.347656 183.453125 308.976562 182.382812 306.378906 182.382812 L 288.417969 182.382812 C 285.820312 182.382812 283.449219 183.453125 281.738281 185.167969 C 280.019531 186.890625 278.949219 189.257812 278.949219 191.867188 Z M 284.605469 208.289062 L 278.949219 208.289062 L 278.949219 222.617188 L 284.605469 222.617188 Z M 307.609375 208.289062 L 287.1875 208.289062 L 287.1875 222.617188 L 307.609375 222.617188 Z M 315.847656 208.289062 L 310.195312 208.289062 L 310.195312 222.617188 L 315.847656 222.617188 Z M 310.195312 270.894531 L 315.847656 270.894531 L 315.847656 259.777344 L 310.195312 259.777344 Z M 287.1875 270.894531 L 307.609375 270.894531 L 307.609375 259.777344 L 287.1875 259.777344 Z M 278.949219 270.894531 L 284.605469 270.894531 L 284.605469 259.777344 L 278.949219 259.777344 Z M 307.59375 283.109375 L 287.203125 283.109375 C 287.289062 284.347656 287.824219 285.460938 288.652344 286.289062 C 289.558594 287.191406 290.800781 287.753906 292.167969 287.753906 L 302.632812 287.753906 C 304 287.753906 305.246094 287.191406 306.148438 286.289062 C 306.972656 285.460938 307.515625 284.347656 307.59375 283.109375 Z M 315.847656 283.109375 L 310.1875 283.109375 C 310.097656 285.058594 309.265625 286.816406 307.96875 288.113281 C 306.601562 289.484375 304.714844 290.335938 302.636719 290.335938 L 292.171875 290.335938 C 290.085938 290.335938 288.199219 289.484375 286.832031 288.113281 C 285.535156 286.816406 284.710938 285.058594 284.621094 283.109375 L 278.949219 283.109375 L 278.949219 286.648438 C 278.949219 289.257812 280.019531 291.625 281.738281 293.347656 C 283.449219 295.066406 285.820312 296.128906 288.417969 296.128906 L 306.382812 296.128906 C 308.976562 296.128906 311.351562 295.066406 313.070312 293.347656 C 314.78125 291.625 315.847656 289.257812 315.847656 286.648438 Z M 380.324219 226.835938 L 380.324219 230.617188 L 383.488281 230.617188 C 383.851562 230.617188 384.203125 230.425781 384.460938 230.128906 C 384.765625 229.785156 384.949219 229.285156 384.949219 228.730469 C 384.949219 228.171875 384.765625 227.675781 384.460938 227.324219 C 384.203125 227.03125 383.851562 226.839844 383.488281 226.839844 L 380.324219 226.839844 Z M 373.023438 226.835938 L 373.023438 230.617188 L 377.742188 230.617188 L 377.742188 226.835938 Z M 360.296875 278.515625 L 362.015625 278.515625 L 362.015625 281.09375 L 360.296875 281.09375 Z M 360.296875 272.753906 L 362.015625 272.753906 L 362.015625 275.335938 L 360.296875 275.335938 Z M 359.945312 191.371094 L 340.082031 191.371094 C 338.347656 191.371094 336.773438 192.082031 335.632812 193.222656 C 334.558594 194.308594 333.863281 195.773438 333.792969 197.394531 C 333.792969 197.410156 333.792969 197.429688 333.785156 197.453125 C 333.785156 197.527344 333.785156 197.609375 333.785156 197.679688 L 333.785156 206.679688 C 333.785156 206.761719 333.785156 206.839844 333.785156 206.914062 C 333.785156 206.9375 333.792969 206.957031 333.792969 206.972656 C 333.863281 208.59375 334.558594 210.058594 335.632812 211.144531 C 336.773438 212.285156 338.347656 212.996094 340.082031 212.996094 L 359.945312 212.996094 C 360.113281 212.996094 360.269531 212.925781 360.378906 212.8125 C 360.492188 212.703125 360.5625 212.550781 360.5625 212.382812 L 360.5625 191.988281 C 360.5625 191.820312 360.492188 191.664062 360.378906 191.554688 C 360.269531 191.441406 360.113281 191.371094 359.945312 191.371094 Z M 331.199219 205.710938 L 331.199219 198.652344 L 273.199219 198.652344 C 272.78125 198.652344 272.425781 198.777344 272.183594 198.96875 C 272.023438 199.085938 271.925781 199.230469 271.925781 199.363281 L 271.925781 205 C 271.925781 205.132812 272.023438 205.277344 272.183594 205.394531 C 272.425781 205.585938 272.78125 205.710938 273.199219 205.710938 Z M 363.144531 207.425781 L 363.144531 209.878906 L 371 209.878906 C 371.335938 209.878906 371.640625 209.742188 371.863281 209.519531 C 372.082031 209.292969 372.222656 208.984375 372.222656 208.648438 C 372.222656 208.3125 372.082031 208.007812 371.863281 207.785156 C 371.636719 207.566406 371.335938 207.425781 371 207.425781 Z M 363.144531 194.484375 L 363.144531 196.9375 L 371 196.9375 C 371.335938 196.9375 371.640625 196.800781 371.863281 196.578125 C 372.082031 196.351562 372.222656 196.050781 372.222656 195.714844 C 372.222656 195.378906 372.082031 195.070312 371.863281 194.84375 C 371.636719 194.625 371.335938 194.484375 371 194.484375 Z M 363.230469 223.722656 L 340.367188 223.722656 C 338.992188 223.722656 337.742188 224.289062 336.835938 225.199219 C 335.933594 226.105469 335.371094 227.351562 335.371094 228.730469 C 335.371094 230.105469 335.933594 231.351562 336.835938 232.261719 C 337.742188 233.171875 338.992188 233.734375 340.367188 233.734375 L 363.230469 233.734375 Z M 333.65625 232.253906 C 333.101562 231.199219 332.785156 229.996094 332.785156 228.730469 C 332.785156 227.460938 333.101562 226.261719 333.65625 225.207031 L 273.199219 225.207031 C 272.78125 225.207031 272.425781 225.320312 272.183594 225.511719 C 272.023438 225.636719 271.925781 225.777344 271.925781 225.910156 L 271.925781 231.542969 C 271.925781 231.683594 272.023438 231.824219 272.183594 231.949219 C 272.425781 232.140625 272.78125 232.253906 273.199219 232.253906 Z M 365.816406 226.835938 L 365.816406 230.617188 L 370.4375 230.617188 L 370.4375 226.835938 Z M 359.574219 247.722656 L 345.328125 247.722656 C 344.15625 247.722656 343.09375 248.199219 342.320312 248.976562 C 342.144531 249.152344 341.976562 249.351562 341.828125 249.5625 C 341.820312 249.578125 341.8125 249.589844 341.800781 249.605469 C 341.339844 250.289062 341.070312 251.109375 341.070312 251.988281 L 341.070312 255.351562 C 341.070312 256.230469 341.339844 257.050781 341.800781 257.730469 C 341.816406 257.746094 341.824219 257.761719 341.828125 257.777344 C 341.976562 257.980469 342.144531 258.179688 342.320312 258.363281 C 343.09375 259.132812 344.15625 259.617188 345.328125 259.617188 L 359.570312 259.617188 L 359.570312 247.722656 Z M 338.742188 257.1875 C 338.574219 256.601562 338.484375 255.988281 338.484375 255.351562 L 338.484375 251.988281 C 338.484375 251.347656 338.574219 250.726562 338.742188 250.140625 L 273.386719 250.140625 C 272.90625 250.140625 272.488281 250.273438 272.195312 250.484375 C 272.027344 250.601562 271.925781 250.734375 271.925781 250.851562 L 271.925781 256.488281 C 271.925781 256.601562 272.027344 256.730469 272.195312 256.855469 C 272.488281 257.066406 272.90625 257.191406 273.386719 257.191406 L 338.742188 257.191406 Z M 362.15625 250.621094 L 362.15625 256.707031 L 369.179688 256.707031 L 369.179688 250.621094 Z M 354.921875 269.257812 L 339.5625 269.257812 C 338.914062 269.257812 338.320312 269.53125 337.886719 269.960938 C 337.457031 270.394531 337.183594 270.988281 337.183594 271.640625 L 337.183594 282.363281 C 337.183594 283.015625 337.457031 283.609375 337.886719 284.042969 C 338.320312 284.472656 338.914062 284.746094 339.5625 284.746094 L 354.921875 284.746094 Z M 334.601562 280.523438 L 334.601562 273.472656 L 273.199219 273.472656 C 272.78125 273.472656 272.425781 273.597656 272.183594 273.789062 C 272.023438 273.90625 271.925781 274.050781 271.925781 274.183594 L 271.925781 279.820312 C 271.925781 279.953125 272.023438 280.097656 272.183594 280.214844 C 272.425781 280.40625 272.78125 280.523438 273.199219 280.523438 Z M 357.503906 270.917969 L 357.503906 283.085938 L 366.925781 283.085938 L 366.925781 270.917969 Z M 357.503906 270.917969 " fill-opacity="1" fill-rule="nonzero"/></g><g clip-path="url(#46cb0363c5)"><g clip-path="url(#31e19602db)"><path fill="#ffffff" d="M 205.277344 121.773438 L 264.882812 134.613281 L 255.929688 176.191406 L 196.320312 163.355469 Z M 205.277344 121.773438 " fill-opacity="1" fill-rule="nonzero"/></g></g><g clip-path="url(#62b72cf478)"><g clip-path="url(#877fe8bd6b)"><path fill="#ffffff" d="M 240.164062 132.390625 L 265.609375 128.183594 L 267.695312 140.785156 L 242.25 144.992188 Z M 240.164062 132.390625 " fill-opacity="1" fill-rule="nonzero"/></g></g><g clip-path="url(#097dcaffd6)"><g clip-path="url(#0149ff3e70)"><path fill="#ffffff" d="M 206.859375 113.757812 L 230.859375 127.859375 L 224.390625 138.871094 L 200.390625 124.769531 Z M 206.859375 113.757812 " fill-opacity="1" fill-rule="nonzero"/></g></g><g clip-path="url(#8221cbb225)"><g clip-path="url(#340f06e1bb)"><path fill="#ffffff" d="M 202.402344 153.539062 L 255.199219 172.402344 L 249.117188 189.421875 L 196.320312 170.5625 Z M 202.402344 153.539062 " fill-opacity="1" fill-rule="nonzero"/></g></g><g clip-path="url(#ba4b2fee01)"><path fill="#ffffff" d="M 198.851562 171.484375 L 255.003906 171.484375 L 255.003906 207.601562 L 198.851562 207.601562 Z M 198.851562 171.484375 " fill-opacity="1" fill-rule="nonzero"/></g><g clip-path="url(#c5203cdab8)"><path fill="#000000" d="M 289.105469 80.703125 C 291.480469 79.960938 293.953125 79.707031 296.433594 79.925781 L 296.929688 77.636719 C 294.179688 77.363281 291.417969 77.636719 288.746094 78.402344 Z M 229.265625 116.777344 L 231.308594 109.128906 C 231.289062 106.078125 231 103.042969 230.449219 100.050781 C 230.410156 99.839844 230.371094 99.621094 230.320312 99.414062 C 229.761719 98.601562 229.183594 97.804688 228.585938 97.042969 C 221.308594 87.667969 211.855469 81.402344 199.972656 79.730469 L 199.457031 86.390625 C 206.957031 87.53125 213.585938 90.941406 218.949219 96.226562 C 221.339844 98.585938 223.867188 102.894531 225.449219 106.238281 C 227.074219 109.6875 228.410156 113.398438 229.265625 116.777344 Z M 234.699219 96.414062 L 237.851562 84.652344 C 235.886719 80.003906 233.34375 75.554688 230.273438 71.429688 C 227.582031 67.820312 224.503906 64.472656 221.050781 61.453125 L 216.90625 66.628906 C 225.785156 74.464844 231.996094 84.898438 234.699219 96.414062 Z M 239.804688 77.332031 L 243.511719 63.4375 C 243.882812 62.058594 245.207031 61.339844 246.714844 61.738281 L 249.773438 50.285156 C 250.121094 48.96875 251.46875 48.1875 252.785156 48.539062 L 261.160156 50.789062 C 262.472656 51.136719 263.25 52.496094 262.902344 53.804688 L 259.832031 65.269531 C 261.277344 65.660156 262.042969 66.980469 261.6875 68.320312 L 257.609375 83.585938 C 265.902344 77.988281 275.386719 74.238281 285.386719 72.675781 C 286.28125 72.535156 287.152344 72.917969 287.679688 73.585938 C 291.808594 72.449219 296.210938 72.296875 300.398438 73.207031 C 301.726562 73.496094 302.574219 74.808594 302.285156 76.136719 L 300.757812 83.222656 C 300.46875 84.554688 299.160156 85.394531 297.835938 85.113281 C 295.113281 84.527344 292.460938 84.695312 289.859375 85.644531 L 289.941406 86.15625 C 290.152344 87.503906 289.234375 88.753906 287.894531 88.964844 C 278.144531 90.484375 269.070312 94.773438 261.675781 101.261719 C 272.285156 98.460938 283.65625 99.460938 293.667969 104.230469 C 294.734375 104.742188 295.273438 105.929688 295.003906 107.03125 C 298.226562 108.199219 301.265625 110.027344 303.796875 112.335938 L 303.796875 112.347656 C 304.792969 113.257812 304.875 114.804688 303.964844 115.804688 L 299.113281 121.183594 C 298.195312 122.191406 296.640625 122.261719 295.644531 121.351562 C 293.960938 119.8125 291.976562 118.714844 289.78125 118.117188 C 289.164062 119.246094 287.765625 119.707031 286.582031 119.15625 C 282.523438 117.226562 278.234375 116.257812 273.859375 116.21875 C 274.972656 118.6875 275.386719 121.347656 274.695312 123.921875 C 274.257812 125.550781 273.429688 127.011719 272.273438 128.292969 C 272.234375 128.472656 272.175781 128.640625 272.09375 128.820312 C 263.5625 147.183594 259.382812 161.9375 257.4375 174.589844 C 255.492188 187.285156 255.78125 197.910156 256.21875 207.988281 C 256.289062 209.410156 255.164062 210.574219 253.675781 210.558594 L 200.070312 210.808594 C 198.824219 210.820312 197.785156 209.878906 197.628906 208.667969 C 192.839844 172.15625 194.796875 143.925781 204.289062 108.472656 C 204.328125 108.332031 204.378906 108.191406 204.4375 108.050781 C 204.410156 107.070312 204.519531 106.101562 204.773438 105.144531 C 205.792969 101.324219 208.863281 98.726562 212.480469 97.097656 C 207.914062 93.621094 202.421875 91.5 196.617188 91.027344 C 195.304688 90.929688 194.304688 89.785156 194.355469 88.46875 C 192.15625 87.890625 189.921875 87.859375 187.679688 88.335938 C 186.339844 88.625 185.035156 87.789062 184.75 86.449219 L 183.222656 79.371094 C 182.945312 78.039062 183.78125 76.722656 185.105469 76.441406 C 188.464844 75.710938 191.988281 75.660156 195.378906 76.261719 C 195.714844 75.191406 196.753906 74.460938 197.910156 74.550781 C 208.636719 75.410156 218.617188 79.949219 226.34375 87.273438 C 223 80.167969 218.085938 73.835938 211.9375 68.878906 C 210.878906 68.03125 210.71875 66.480469 211.566406 65.410156 L 211.695312 65.25 C 209.890625 62.203125 207.101562 59.984375 203.730469 58.894531 C 202.433594 58.484375 201.726562 57.09375 202.144531 55.804688 L 204.347656 48.90625 C 204.765625 47.605469 206.148438 46.898438 207.4375 47.316406 C 212.261719 48.867188 216.519531 51.765625 219.761719 55.675781 C 220.558594 55.34375 221.515625 55.445312 222.234375 56.035156 C 229.523438 61.914062 235.476562 69.148438 239.804688 77.332031 Z M 251.457031 63.019531 L 255.089844 64 L 257.511719 54.914062 L 253.882812 53.933594 Z M 255.554688 91.257812 L 252.148438 104.023438 C 260.441406 94.007812 271.957031 87.089844 284.730469 84.527344 L 283.726562 77.964844 C 273.378906 79.984375 263.742188 84.527344 255.640625 91.195312 C 255.609375 91.21875 255.585938 91.234375 255.554688 91.257812 Z M 247.460938 121.554688 L 247.105469 122.90625 C 254.621094 114.546875 266.355469 110.269531 277.433594 111.488281 C 280.476562 111.828125 283.503906 112.558594 286.4375 113.707031 L 289.304688 107.683594 C 278.710938 103.394531 266.835938 103.644531 256.464844 108.300781 C 255.679688 108.652344 254.910156 109.03125 254.144531 109.429688 C 254.015625 109.601562 253.894531 109.769531 253.777344 109.941406 C 251.207031 113.496094 249.078125 117.386719 247.460938 121.554688 Z M 242.078125 122.632812 L 256.304688 69.425781 L 247.632812 67.097656 L 233.382812 120.40625 C 236.1875 121.363281 239.1875 122.132812 242.078125 122.632812 Z M 223.945312 115.9375 C 223.074219 113.085938 221.867188 110.046875 220.476562 107.25 C 220.128906 107.429688 219.808594 107.621094 219.539062 107.824219 L 219.539062 107.832031 C 219 108.230469 218.644531 108.671875 218.503906 109.164062 C 217.910156 111.378906 221.640625 114.4375 223.945312 115.9375 Z M 218.019531 102.980469 C 217.511719 102.210938 216.992188 101.492188 216.464844 100.835938 C 207.265625 103.804688 207.09375 110.257812 215.390625 117.253906 C 225.957031 126.164062 245.859375 131.496094 259.46875 129.078125 C 267.960938 127.570312 272.835938 123.332031 268.507812 116.636719 L 265.609375 117.273438 C 266.058594 118.722656 266.066406 120.242188 265.570312 121.652344 C 264.3125 125.210938 260.097656 127.398438 254.304688 128.070312 C 243.398438 129.3125 226.660156 125.183594 218.121094 117.695312 C 214.453125 114.488281 212.699219 110.820312 213.90625 107.390625 C 214.394531 106.011719 215.324219 104.828125 216.597656 103.871094 L 216.597656 103.878906 Z M 194.75 83.492188 L 194.929688 81.183594 C 192.855469 80.761719 190.691406 80.652344 188.589844 80.863281 L 189.078125 83.140625 C 190.992188 82.980469 192.875 83.089844 194.75 83.492188 Z M 292.933594 111.519531 L 291.9375 113.605469 C 293.730469 114.183594 295.457031 115.054688 297.035156 116.15625 L 298.589844 114.425781 C 296.859375 113.179688 294.957031 112.214844 292.933594 111.519531 Z M 260.960938 118.894531 C 258.460938 119.996094 256.097656 121.40625 253.960938 123.144531 C 257.839844 122.671875 261.550781 121.394531 260.960938 118.894531 Z M 207.433594 115.9375 C 199.636719 147.3125 198.179688 173.429688 202.226562 205.863281 L 251.21875 205.636719 C 250.839844 196.039062 250.730469 185.84375 252.574219 173.851562 C 254.355469 162.195312 257.96875 148.859375 264.925781 132.769531 C 256.691406 135.589844 245.324219 134.949219 235.015625 132.183594 C 224.332031 129.300781 212.917969 123.574219 207.433594 115.9375 Z M 214.929688 61.230469 L 216.421875 59.363281 C 214.28125 56.585938 211.441406 54.34375 208.238281 52.886719 L 207.523438 55.101562 C 210.460938 56.476562 213.015625 58.589844 214.929688 61.230469 Z M 214.929688 61.230469 " fill-opacity="1" fill-rule="nonzero"/></g><g clip-path="url(#629074c0c6)"><g clip-path="url(#3b70a2263e)"><g clip-path="url(#e8ada8b30e)"><g clip-path="url(#6dcdf2be5f)"><path fill="#000000" d="M 166.804688 126.464844 C 166.636719 126.640625 166.527344 126.851562 166.484375 127.09375 C 166.4375 127.332031 166.464844 127.566406 166.5625 127.792969 C 166.65625 128.019531 166.804688 128.199219 167.011719 128.335938 C 167.214844 128.472656 167.4375 128.539062 167.683594 128.542969 C 167.042969 128.445312 167.730469 128.589844 167.976562 128.605469 C 168.609375 128.691406 168.292969 128.640625 168.878906 128.730469 C 171.40625 129.113281 174.765625 129.632812 177.398438 130.273438 C 175.015625 131.527344 171.902344 132.09375 168.71875 133.179688 C 162.171875 135.511719 155.25 138.378906 150.984375 144.128906 C 148.855469 147.078125 147.144531 150.253906 145.851562 153.648438 C 144.554688 157.046875 143.722656 160.554688 143.34375 164.167969 C 142.203125 171.113281 142.195312 178.058594 143.320312 185.003906 C 143.839844 188.363281 144.457031 191.707031 145.09375 195.042969 C 145.164062 195.316406 145.316406 195.535156 145.542969 195.699219 C 145.769531 195.863281 146.023438 195.941406 146.300781 195.925781 C 146.582031 195.910156 146.828125 195.808594 147.035156 195.621094 C 147.242188 195.433594 147.371094 195.199219 147.414062 194.921875 C 146.492188 187.230469 144.261719 174.558594 146.070312 165.109375 C 147.125 156.628906 149.753906 149.078125 154.953125 143.429688 C 157.53125 140.664062 161.089844 138.875 165.125 137.027344 C 167.769531 135.933594 170.472656 135.007812 173.230469 134.25 C 174.511719 133.851562 175.847656 133.496094 177.105469 132.984375 C 174.636719 134.925781 171.730469 137.113281 169.398438 139.1875 C 169.171875 139.425781 169.046875 139.710938 169.019531 140.039062 C 168.992188 140.367188 169.070312 140.667969 169.257812 140.941406 C 169.441406 141.214844 169.691406 141.398438 170.007812 141.496094 C 170.324219 141.59375 170.636719 141.578125 170.941406 141.457031 C 173.667969 139.4375 175.082031 138.066406 177.414062 136.378906 C 179.238281 134.808594 181.535156 133.652344 182.984375 131.710938 C 184.277344 128.425781 179.476562 127.917969 177.300781 127.316406 C 174.296875 126.644531 171.257812 126.238281 168.183594 126.09375 C 167.300781 126.15625 167.632812 125.910156 166.804688 126.464844 Z M 166.804688 126.464844 " fill-opacity="1" fill-rule="nonzero"/></g></g></g></g><g clip-path="url(#d9ec1135aa)"><g clip-path="url(#f21a212ebc)"><g clip-path="url(#9b5d324dd1)"><g clip-path="url(#a777584075)"><path fill="#000000" d="M 257.066406 309.824219 C 256.988281 311.003906 256.285156 313.472656 255.71875 315.164062 C 255.03125 317.207031 254.035156 319.753906 252.316406 321.109375 C 251.707031 321.59375 250.597656 321.21875 250.554688 320.378906 C 250.441406 318.265625 251.46875 315.941406 252.140625 313.933594 C 237.820312 324.691406 217.453125 328.644531 200.949219 320.617188 C 199.941406 320.128906 200.410156 318.632812 201.527344 318.953125 C 218.0625 323.695312 236.519531 321.113281 249.632812 310.003906 C 249.058594 309.867188 248.488281 309.730469 247.914062 309.601562 C 245.601562 309.066406 243.199219 308.738281 241.15625 307.460938 C 239.800781 306.613281 240.363281 304.367188 241.886719 304.136719 C 244.136719 303.796875 246.363281 304.460938 248.566406 304.902344 C 250.804688 305.347656 253.058594 305.738281 255.28125 306.265625 C 256.832031 306.632812 257.148438 308.640625 257.066406 309.824219 Z M 257.066406 309.824219 " fill-opacity="1" fill-rule="nonzero"/></g></g></g></g></svg>