<svg xmlns="http://www.w3.org/2000/svg" xmlns:xlink="http://www.w3.org/1999/xlink" width="601" zoomAndPan="magnify" viewBox="0 0 450.75 386.250002" height="515" preserveAspectRatio="xMidYMid meet" version="1.0"><defs><clipPath id="4e66869a1f"><path d="M 0.3125 0 L 450.1875 0 L 450.1875 385.5 L 0.3125 385.5 Z M 0.3125 0 " clip-rule="nonzero"/></clipPath><clipPath id="841f20e565"><path d="M 136.660156 38.550781 L 300.601562 38.550781 L 300.601562 157.007812 L 136.660156 157.007812 Z M 136.660156 38.550781 " clip-rule="nonzero"/></clipPath><clipPath id="2e14523c9d"><path d="M 135 38.550781 L 300.410156 38.550781 L 300.410156 158 L 135 158 Z M 135 38.550781 " clip-rule="nonzero"/></clipPath><clipPath id="00885df29e"><path d="M 74.347656 85 L 178 85 L 178 275 L 74.347656 275 Z M 74.347656 85 " clip-rule="nonzero"/></clipPath><clipPath id="c953627b25"><path d="M 178 169.082031 L 341 169.082031 L 341 337.503906 L 178 337.503906 Z M 178 169.082031 " clip-rule="nonzero"/></clipPath></defs><g clip-path="url(#4e66869a1f)"><path fill="#ffffff" d="M 0.3125 0 L 450.1875 0 L 450.1875 385.5 L 0.3125 385.5 Z M 0.3125 0 " fill-opacity="1" fill-rule="nonzero"/><path fill="#f3f3f3" d="M 0.3125 0 L 450.1875 0 L 450.1875 385.5 L 0.3125 385.5 Z M 0.3125 0 " fill-opacity="1" fill-rule="nonzero"/></g><g clip-path="url(#841f20e565)"><path fill="#ffffff" d="M 136.660156 38.550781 L 300.464844 38.550781 L 300.464844 157.007812 L 136.660156 157.007812 Z M 136.660156 38.550781 " fill-opacity="1" fill-rule="nonzero"/></g><g clip-path="url(#2e14523c9d)"><path fill="#000000" d="M 139.171875 41.800781 L 297.027344 41.800781 L 297.027344 154.457031 L 139.171875 154.457031 L 139.171875 134.308594 L 135.921875 134.796875 L 135.921875 157.707031 L 300.28125 157.707031 L 300.28125 38.550781 L 135.921875 38.550781 L 135.921875 115.074219 L 139.171875 114.585938 Z M 139.171875 41.800781 " fill-opacity="1" fill-rule="nonzero"/></g><path fill="#000000" d="M 267.808594 63.9375 C 267.828125 63.9375 267.84375 63.933594 267.863281 63.933594 C 268.023438 63.925781 268.167969 63.867188 268.289062 63.777344 L 268.835938 72.238281 C 268.882812 72.925781 269.476562 73.445312 270.160156 73.402344 C 270.433594 73.382812 270.679688 73.277344 270.875 73.117188 C 271.070312 73.277344 271.316406 73.382812 271.589844 73.402344 C 272.277344 73.445312 272.871094 72.925781 272.914062 72.238281 L 273.460938 63.777344 C 273.582031 63.867188 273.730469 63.925781 273.890625 63.933594 C 273.90625 63.933594 273.925781 63.9375 273.941406 63.9375 C 274.363281 63.9375 274.71875 63.609375 274.746094 63.183594 C 275.175781 56.632812 273.691406 55.066406 273.390625 54.820312 C 273.246094 54.703125 273.078125 54.644531 272.90625 54.640625 C 272.878906 54.636719 272.851562 54.636719 272.824219 54.636719 L 268.929688 54.636719 C 268.902344 54.636719 268.875 54.636719 268.847656 54.640625 C 268.675781 54.644531 268.503906 54.703125 268.359375 54.820312 C 268.058594 55.066406 266.578125 56.628906 267.003906 63.183594 C 267.03125 63.609375 267.386719 63.9375 267.808594 63.9375 Z M 267.808594 63.9375 " fill-opacity="1" fill-rule="nonzero"/><path fill="#000000" d="M 273.144531 51.796875 C 273.144531 52.097656 273.085938 52.386719 272.972656 52.664062 C 272.855469 52.941406 272.691406 53.1875 272.480469 53.398438 C 272.265625 53.609375 272.019531 53.773438 271.742188 53.890625 C 271.464844 54.003906 271.175781 54.0625 270.875 54.0625 C 270.574219 54.0625 270.285156 54.003906 270.007812 53.890625 C 269.730469 53.773438 269.484375 53.609375 269.273438 53.398438 C 269.058594 53.1875 268.894531 52.941406 268.78125 52.664062 C 268.664062 52.386719 268.609375 52.097656 268.609375 51.796875 C 268.609375 51.496094 268.664062 51.207031 268.78125 50.929688 C 268.894531 50.652344 269.058594 50.40625 269.273438 50.195312 C 269.484375 49.980469 269.730469 49.816406 270.007812 49.703125 C 270.285156 49.585938 270.574219 49.53125 270.875 49.53125 C 271.175781 49.53125 271.464844 49.585938 271.742188 49.703125 C 272.019531 49.816406 272.265625 49.980469 272.480469 50.195312 C 272.691406 50.40625 272.855469 50.652344 272.972656 50.929688 C 273.085938 51.207031 273.144531 51.496094 273.144531 51.796875 Z M 273.144531 51.796875 " fill-opacity="1" fill-rule="nonzero"/><path fill="#000000" d="M 278.75 63.9375 C 278.765625 63.9375 278.785156 63.933594 278.804688 63.933594 C 278.964844 63.925781 279.109375 63.867188 279.230469 63.777344 L 279.777344 72.238281 C 279.824219 72.925781 280.414062 73.445312 281.101562 73.402344 C 281.375 73.382812 281.621094 73.277344 281.816406 73.117188 C 282.011719 73.277344 282.257812 73.382812 282.53125 73.402344 C 283.21875 73.445312 283.808594 72.925781 283.855469 72.238281 L 284.402344 63.777344 C 284.523438 63.867188 284.667969 63.925781 284.832031 63.933594 C 284.847656 63.933594 284.867188 63.9375 284.882812 63.9375 C 285.304688 63.9375 285.660156 63.609375 285.6875 63.183594 C 286.117188 56.632812 284.632812 55.066406 284.332031 54.820312 C 284.1875 54.703125 284.015625 54.644531 283.847656 54.640625 C 283.820312 54.636719 283.792969 54.636719 283.761719 54.636719 L 279.871094 54.636719 C 279.84375 54.636719 279.816406 54.636719 279.789062 54.640625 C 279.617188 54.644531 279.445312 54.703125 279.300781 54.820312 C 279 55.066406 277.515625 56.628906 277.945312 63.183594 C 277.972656 63.609375 278.328125 63.9375 278.75 63.9375 Z M 278.75 63.9375 " fill-opacity="1" fill-rule="nonzero"/><path fill="#000000" d="M 281.816406 54.0625 C 283.070312 54.0625 284.085938 53.046875 284.085938 51.796875 C 284.085938 50.542969 283.070312 49.53125 281.816406 49.53125 C 280.5625 49.53125 279.550781 50.542969 279.550781 51.796875 C 279.550781 53.046875 280.5625 54.0625 281.816406 54.0625 Z M 281.816406 54.0625 " fill-opacity="1" fill-rule="nonzero"/><path fill="#000000" d="M 204.917969 92.40625 C 204.613281 92.769531 204.332031 93.148438 204.054688 93.539062 L 201.324219 91.960938 L 199.828125 94.546875 L 202.566406 96.125 C 202.363281 96.554688 202.183594 96.992188 202.023438 97.441406 L 198.96875 96.621094 L 198.195312 99.507812 L 201.246094 100.324219 C 201.167969 100.789062 201.097656 101.257812 201.054688 101.734375 L 197.902344 101.734375 L 197.902344 104.722656 L 201.054688 104.722656 C 201.097656 105.199219 201.167969 105.667969 201.246094 106.132812 L 198.195312 106.949219 L 198.96875 109.832031 L 202.023438 109.015625 C 202.183594 109.464844 202.363281 109.902344 202.566406 110.328125 L 199.828125 111.90625 L 201.324219 114.496094 L 204.054688 112.917969 C 204.332031 113.308594 204.613281 113.6875 204.917969 114.050781 L 202.691406 116.277344 L 204.804688 118.390625 L 207.03125 116.164062 C 207.394531 116.46875 207.777344 116.753906 208.164062 117.027344 L 206.589844 119.757812 L 209.175781 121.25 L 210.757812 118.515625 C 211.1875 118.714844 211.625 118.894531 212.070312 119.058594 L 211.253906 122.109375 L 214.140625 122.882812 L 214.957031 119.832031 C 215.421875 119.914062 215.890625 119.980469 216.367188 120.023438 L 216.367188 123.175781 L 219.359375 123.175781 L 219.359375 120.023438 C 219.835938 119.980469 220.304688 119.914062 220.769531 119.832031 L 221.585938 122.882812 L 224.472656 122.109375 L 223.65625 119.058594 C 224.101562 118.894531 224.542969 118.714844 224.96875 118.515625 L 226.550781 121.25 L 229.136719 119.757812 L 227.5625 117.027344 C 227.949219 116.753906 228.332031 116.46875 228.695312 116.164062 L 230.921875 118.390625 L 233.035156 116.277344 L 230.808594 114.050781 C 231.113281 113.6875 231.398438 113.308594 231.671875 112.917969 L 234.402344 114.496094 L 235.898438 111.910156 L 233.160156 110.332031 C 233.363281 109.902344 233.542969 109.464844 233.703125 109.015625 L 236.757812 109.835938 L 237.53125 106.949219 L 234.480469 106.132812 C 234.558594 105.667969 234.628906 105.199219 234.671875 104.722656 L 237.824219 104.722656 L 237.824219 101.734375 L 234.671875 101.734375 C 234.628906 101.257812 234.558594 100.789062 234.480469 100.324219 L 237.53125 99.507812 L 236.757812 96.625 L 233.703125 97.441406 C 233.542969 96.992188 233.363281 96.554688 233.160156 96.128906 L 235.898438 94.550781 L 234.402344 91.960938 L 231.671875 93.539062 C 231.398438 93.148438 231.113281 92.769531 230.808594 92.40625 L 233.035156 90.179688 L 230.921875 88.066406 L 228.695312 90.292969 C 228.332031 89.988281 227.949219 89.703125 227.5625 89.429688 L 229.136719 86.699219 L 226.550781 85.207031 L 224.96875 87.941406 C 224.542969 87.742188 224.101562 87.5625 223.65625 87.398438 L 224.472656 84.347656 L 221.585938 83.574219 L 220.769531 86.625 C 220.304688 86.542969 219.835938 86.476562 219.359375 86.433594 L 219.359375 83.28125 L 216.367188 83.28125 L 216.367188 86.433594 C 215.890625 86.476562 215.421875 86.542969 214.957031 86.625 L 214.140625 83.574219 L 211.253906 84.347656 L 212.070312 87.398438 C 211.625 87.5625 211.183594 87.742188 210.757812 87.941406 L 209.175781 85.207031 L 206.589844 86.699219 L 208.164062 89.429688 C 207.777344 89.703125 207.394531 89.988281 207.03125 90.292969 L 204.804688 88.066406 L 202.691406 90.179688 Z M 217.863281 89.785156 C 225.292969 89.785156 231.316406 95.804688 231.316406 103.226562 C 231.316406 110.652344 225.292969 116.671875 217.863281 116.671875 C 210.433594 116.671875 204.410156 110.652344 204.410156 103.226562 C 204.410156 95.804688 210.433594 89.785156 217.863281 89.785156 Z M 217.863281 89.785156 " fill-opacity="1" fill-rule="nonzero"/><path fill="#000000" d="M 214.433594 96.636719 C 214.433594 98.53125 215.96875 100.066406 217.863281 100.066406 C 219.757812 100.066406 221.292969 98.53125 221.292969 96.636719 C 221.292969 94.746094 219.757812 93.210938 217.863281 93.210938 C 215.96875 93.210938 214.433594 94.746094 214.433594 96.636719 Z M 214.433594 96.636719 " fill-opacity="1" fill-rule="nonzero"/><path fill="#000000" d="M 221.292969 109.820312 C 221.292969 110.273438 221.207031 110.710938 221.03125 111.128906 C 220.855469 111.550781 220.609375 111.921875 220.289062 112.242188 C 219.964844 112.5625 219.59375 112.8125 219.175781 112.984375 C 218.753906 113.160156 218.316406 113.246094 217.863281 113.246094 C 217.410156 113.246094 216.972656 113.160156 216.550781 112.984375 C 216.132812 112.8125 215.761719 112.5625 215.4375 112.242188 C 215.117188 111.921875 214.871094 111.550781 214.695312 111.128906 C 214.519531 110.710938 214.433594 110.273438 214.433594 109.820312 C 214.433594 109.363281 214.519531 108.925781 214.695312 108.507812 C 214.871094 108.085938 215.117188 107.71875 215.4375 107.394531 C 215.761719 107.074219 216.132812 106.828125 216.550781 106.652344 C 216.972656 106.480469 217.410156 106.390625 217.863281 106.390625 C 218.316406 106.390625 218.753906 106.480469 219.175781 106.652344 C 219.59375 106.828125 219.964844 107.074219 220.289062 107.394531 C 220.609375 107.71875 220.855469 108.085938 221.03125 108.507812 C 221.207031 108.925781 221.292969 109.363281 221.292969 109.820312 Z M 221.292969 109.820312 " fill-opacity="1" fill-rule="nonzero"/><path fill="#000000" d="M 214.699219 103.226562 C 214.699219 101.335938 213.164062 99.800781 211.269531 99.800781 C 209.375 99.800781 207.839844 101.335938 207.839844 103.226562 C 207.839844 105.121094 209.375 106.65625 211.269531 106.65625 C 213.164062 106.65625 214.699219 105.121094 214.699219 103.226562 Z M 214.699219 103.226562 " fill-opacity="1" fill-rule="nonzero"/><path fill="#000000" d="M 221.027344 103.226562 C 221.027344 105.121094 222.5625 106.65625 224.457031 106.65625 C 226.351562 106.65625 227.886719 105.121094 227.886719 103.226562 C 227.886719 101.335938 226.351562 99.800781 224.457031 99.800781 C 222.5625 99.800781 221.027344 101.335938 221.027344 103.226562 Z M 221.027344 103.226562 " fill-opacity="1" fill-rule="nonzero"/><path fill="#000000" d="M 245.644531 108.898438 L 247.988281 108.898438 L 247.988281 121.585938 L 245.644531 121.585938 Z M 245.644531 108.898438 " fill-opacity="1" fill-rule="nonzero"/><path fill="#000000" d="M 250.101562 100.503906 L 252.445312 100.503906 L 252.445312 121.585938 L 250.101562 121.585938 Z M 250.101562 100.503906 " fill-opacity="1" fill-rule="nonzero"/><path fill="#000000" d="M 254.558594 104.214844 L 256.902344 104.214844 L 256.902344 121.585938 L 254.558594 121.585938 Z M 254.558594 104.214844 " fill-opacity="1" fill-rule="nonzero"/><path fill="#000000" d="M 259.011719 100.503906 L 261.359375 100.503906 L 261.359375 121.585938 L 259.011719 121.585938 Z M 259.011719 100.503906 " fill-opacity="1" fill-rule="nonzero"/><path fill="#000000" d="M 263.46875 106.945312 L 265.8125 106.945312 L 265.8125 121.585938 L 263.46875 121.585938 Z M 263.46875 106.945312 " fill-opacity="1" fill-rule="nonzero"/><path fill="#000000" d="M 243.375 123.148438 L 268.085938 123.148438 L 268.085938 123.929688 L 243.375 123.929688 Z M 243.375 123.148438 " fill-opacity="1" fill-rule="nonzero"/><path fill="#000000" d="M 234.105469 81.4375 L 235.726562 81.546875 C 235.777344 80.867188 237.0625 65.371094 254.625 63.515625 L 253.441406 66.226562 L 262.042969 62.703125 L 253.511719 59.007812 L 254.703125 61.882812 C 235.527344 63.773438 234.117188 81.253906 234.105469 81.4375 Z M 234.105469 81.4375 " fill-opacity="1" fill-rule="nonzero"/><path fill="#000000" d="M 196.675781 78.765625 L 203.40625 83.171875 L 199 76.445312 C 203.875 70.414062 203.507812 61.558594 197.902344 55.953125 C 191.898438 49.957031 182.171875 49.957031 176.171875 55.953125 C 170.171875 61.949219 170.171875 71.671875 176.171875 77.667969 C 181.777344 83.273438 190.640625 83.636719 196.675781 78.765625 Z M 192.445312 62.699219 L 193.984375 62.699219 L 193.984375 72.308594 L 192.445312 72.308594 Z M 189.519531 58.46875 L 191.058594 58.46875 L 191.058594 72.308594 L 189.519531 72.308594 Z M 186.59375 60.902344 L 188.132812 60.902344 L 188.132812 72.308594 L 186.59375 72.308594 Z M 183.667969 58.46875 L 185.207031 58.46875 L 185.207031 72.308594 L 183.667969 72.308594 Z M 180.742188 63.980469 L 182.28125 63.980469 L 182.28125 72.308594 L 180.742188 72.308594 Z M 179.253906 73.335938 L 195.476562 73.335938 L 195.476562 73.847656 L 179.253906 73.847656 Z M 179.253906 73.335938 " fill-opacity="1" fill-rule="nonzero"/><path fill="#000000" d="M 151.238281 147.960938 C 152.605469 147.960938 153.71875 146.847656 153.71875 145.480469 C 153.71875 144.976562 153.566406 144.507812 153.308594 144.117188 L 158.164062 139.621094 C 158.582031 139.949219 159.101562 140.148438 159.675781 140.148438 C 160.246094 140.148438 160.765625 139.949219 161.1875 139.621094 L 166.042969 144.117188 C 165.785156 144.507812 165.632812 144.976562 165.632812 145.480469 C 165.632812 146.847656 166.746094 147.960938 168.113281 147.960938 C 169.339844 147.960938 170.355469 147.058594 170.554688 145.886719 L 174.109375 145.886719 C 174.304688 147.058594 175.320312 147.960938 176.550781 147.960938 C 177.917969 147.960938 179.03125 146.847656 179.03125 145.480469 C 179.03125 144.972656 178.878906 144.503906 178.617188 144.109375 L 183.480469 139.582031 C 183.902344 139.90625 184.417969 140.105469 184.988281 140.105469 C 186.355469 140.105469 187.46875 138.992188 187.46875 137.625 C 187.46875 136.257812 186.355469 135.144531 184.988281 135.144531 C 183.621094 135.144531 182.507812 136.257812 182.507812 137.625 C 182.507812 138.132812 182.660156 138.601562 182.921875 138.996094 L 178.054688 143.523438 C 177.636719 143.199219 177.117188 143 176.550781 143 C 175.320312 143 174.304688 143.898438 174.109375 145.074219 L 170.554688 145.074219 C 170.355469 143.898438 169.339844 143 168.113281 143 C 167.542969 143 167.019531 143.203125 166.601562 143.527344 L 161.746094 139.03125 C 162.003906 138.640625 162.15625 138.171875 162.15625 137.667969 C 162.15625 136.300781 161.042969 135.191406 159.675781 135.191406 C 158.304688 135.191406 157.195312 136.300781 157.195312 137.667969 C 157.195312 138.171875 157.347656 138.640625 157.605469 139.03125 L 152.75 143.527344 C 152.328125 143.203125 151.808594 143 151.238281 143 C 149.867188 143 148.753906 144.113281 148.753906 145.480469 C 148.753906 146.847656 149.867188 147.960938 151.238281 147.960938 Z M 152.90625 145.480469 C 152.90625 146.398438 152.15625 147.148438 151.238281 147.148438 C 150.316406 147.148438 149.570312 146.398438 149.570312 145.480469 C 149.570312 144.558594 150.316406 143.8125 151.238281 143.8125 C 152.15625 143.8125 152.90625 144.558594 152.90625 145.480469 Z M 158.007812 137.667969 C 158.007812 136.75 158.753906 136.003906 159.675781 136.003906 C 160.59375 136.003906 161.34375 136.75 161.34375 137.667969 C 161.34375 138.589844 160.59375 139.335938 159.675781 139.335938 C 158.753906 139.335938 158.007812 138.589844 158.007812 137.667969 Z M 168.113281 143.8125 C 169.03125 143.8125 169.78125 144.558594 169.78125 145.480469 C 169.78125 146.398438 169.03125 147.148438 168.113281 147.148438 C 167.191406 147.148438 166.445312 146.398438 166.445312 145.480469 C 166.445312 144.558594 167.191406 143.8125 168.113281 143.8125 Z M 174.882812 145.480469 C 174.882812 144.558594 175.628906 143.8125 176.550781 143.8125 C 177.46875 143.8125 178.21875 144.558594 178.21875 145.480469 C 178.21875 146.398438 177.46875 147.148438 176.550781 147.148438 C 175.628906 147.148438 174.882812 146.398438 174.882812 145.480469 Z M 183.320312 137.625 C 183.320312 136.707031 184.066406 135.957031 184.988281 135.957031 C 185.90625 135.957031 186.65625 136.707031 186.65625 137.625 C 186.65625 138.546875 185.90625 139.292969 184.988281 139.292969 C 184.066406 139.292969 183.320312 138.546875 183.320312 137.625 Z M 183.320312 137.625 " fill-opacity="1" fill-rule="nonzero"/><path fill="#000000" d="M 284.640625 126.636719 C 285.214844 124.6875 285.554688 122.261719 285.554688 119.632812 C 285.554688 113.207031 281.023438 107.996094 281.023438 107.996094 C 281.023438 107.996094 276.488281 113.207031 276.488281 119.632812 C 276.488281 122.261719 276.828125 124.6875 277.402344 126.636719 L 276.144531 126.636719 L 274.085938 133.976562 L 279.871094 133.976562 L 279.871094 130.886719 C 280.128906 131.0625 280.394531 131.175781 280.671875 131.230469 L 280.671875 134.472656 L 281.375 134.472656 L 281.375 131.230469 C 281.648438 131.175781 281.917969 131.0625 282.175781 130.886719 L 282.175781 133.976562 L 287.957031 133.976562 L 285.902344 126.636719 Z M 281.023438 121.765625 C 279.597656 121.765625 278.441406 120.613281 278.441406 119.1875 C 278.441406 117.761719 279.597656 116.609375 281.023438 116.609375 C 282.449219 116.609375 283.601562 117.761719 283.601562 119.1875 C 283.601562 120.613281 282.449219 121.765625 281.023438 121.765625 Z M 281.023438 121.765625 " fill-opacity="1" fill-rule="nonzero"/><path fill="#000000" d="M 283.113281 135.140625 C 283.113281 135.140625 283.113281 136.621094 283.113281 137.339844 C 283.113281 138.058594 282.433594 139.484375 281.023438 140.613281 C 279.609375 139.484375 278.933594 138.058594 278.933594 137.339844 C 278.933594 136.621094 278.933594 135.140625 278.933594 135.140625 C 278.933594 135.140625 276.984375 136.238281 276.984375 137.847656 C 276.984375 139.457031 281.023438 146.3125 281.023438 146.3125 C 281.023438 146.3125 285.058594 139.457031 285.058594 137.847656 C 285.058594 136.238281 283.113281 135.140625 283.113281 135.140625 Z M 283.113281 135.140625 " fill-opacity="1" fill-rule="nonzero"/><path fill="#000000" d="M 282.132812 119.1875 C 282.132812 119.335938 282.105469 119.476562 282.050781 119.613281 C 281.992188 119.75 281.914062 119.867188 281.808594 119.972656 C 281.703125 120.078125 281.582031 120.15625 281.449219 120.214844 C 281.3125 120.269531 281.167969 120.296875 281.023438 120.296875 C 280.875 120.296875 280.734375 120.269531 280.597656 120.214844 C 280.460938 120.15625 280.339844 120.078125 280.234375 119.972656 C 280.132812 119.867188 280.050781 119.75 279.996094 119.613281 C 279.9375 119.476562 279.910156 119.335938 279.910156 119.1875 C 279.910156 119.039062 279.9375 118.898438 279.996094 118.761719 C 280.050781 118.625 280.132812 118.507812 280.234375 118.402344 C 280.339844 118.296875 280.460938 118.21875 280.597656 118.160156 C 280.734375 118.105469 280.875 118.078125 281.023438 118.078125 C 281.167969 118.078125 281.3125 118.105469 281.449219 118.160156 C 281.582031 118.21875 281.703125 118.296875 281.808594 118.402344 C 281.914062 118.507812 281.992188 118.625 282.050781 118.761719 C 282.105469 118.898438 282.132812 119.039062 282.132812 119.1875 Z M 282.132812 119.1875 " fill-opacity="1" fill-rule="nonzero"/><path fill="#000000" d="M 269.203125 138.582031 C 268.699219 138.582031 268.242188 138.753906 267.867188 139.035156 L 259.519531 132.714844 L 249.707031 132.714844 L 249.707031 133.933594 L 259.109375 133.933594 L 267.128906 140.003906 C 267.03125 140.253906 266.972656 140.523438 266.972656 140.808594 C 266.972656 142.039062 267.972656 143.039062 269.203125 143.039062 C 270.4375 143.039062 271.433594 142.039062 271.433594 140.808594 C 271.433594 139.578125 270.4375 138.582031 269.203125 138.582031 Z M 269.203125 138.582031 " fill-opacity="1" fill-rule="nonzero"/><path fill="#000000" d="M 231.640625 131.839844 L 247.878906 131.839844 L 247.878906 134.695312 L 231.640625 134.695312 Z M 231.640625 131.839844 " fill-opacity="1" fill-rule="nonzero"/><path fill="#000000" d="M 164.300781 47.964844 C 163.078125 48.011719 161.691406 48.070312 161.171875 47.992188 C 159.953125 47.8125 154.777344 47.757812 154.035156 47.882812 C 153.242188 48.011719 150.03125 48.28125 149.585938 48.1875 C 149.042969 48.007812 146.800781 48.125 145.511719 48.214844 L 145.59375 49.429688 C 147.085938 49.328125 148.890625 49.265625 149.199219 49.34375 C 149.945312 49.59375 153.867188 49.144531 154.234375 49.082031 C 154.773438 48.996094 159.851562 49.027344 160.988281 49.199219 C 161.625 49.292969 162.949219 49.238281 164.351562 49.183594 C 165.324219 49.144531 166.652344 49.089844 166.917969 49.148438 L 167.214844 47.964844 C 166.816406 47.867188 165.894531 47.898438 164.300781 47.964844 Z M 164.300781 47.964844 " fill-opacity="1" fill-rule="nonzero"/><path fill="#000000" d="M 149.199219 52.503906 C 149.941406 52.75 153.867188 52.304688 154.234375 52.242188 C 154.773438 52.152344 159.847656 52.1875 160.988281 52.359375 C 161.625 52.453125 162.949219 52.398438 164.355469 52.34375 C 165.324219 52.300781 166.652344 52.246094 166.917969 52.308594 L 167.210938 51.125 C 166.816406 51.027344 165.894531 51.058594 164.304688 51.125 C 163.078125 51.175781 161.691406 51.230469 161.171875 51.152344 C 159.953125 50.96875 154.773438 50.917969 154.035156 51.042969 C 153.242188 51.171875 150.03125 51.441406 149.585938 51.347656 C 149.042969 51.164062 146.800781 51.285156 145.511719 51.375 L 145.59375 52.589844 C 147.085938 52.488281 148.890625 52.425781 149.199219 52.503906 Z M 149.199219 52.503906 " fill-opacity="1" fill-rule="nonzero"/><path fill="#000000" d="M 149.199219 58.070312 C 149.941406 58.316406 153.867188 57.871094 154.234375 57.808594 C 154.773438 57.722656 159.847656 57.753906 160.988281 57.925781 C 161.625 58.019531 162.949219 57.964844 164.355469 57.910156 C 165.324219 57.871094 166.652344 57.816406 166.917969 57.875 L 167.210938 56.691406 C 166.816406 56.59375 165.894531 56.625 164.304688 56.691406 C 163.078125 56.742188 161.691406 56.796875 161.171875 56.71875 C 159.953125 56.535156 154.773438 56.484375 154.035156 56.609375 C 153.242188 56.738281 150.03125 57.007812 149.585938 56.914062 C 149.042969 56.730469 146.800781 56.851562 145.511719 56.941406 L 145.59375 58.15625 C 147.085938 58.054688 148.890625 57.996094 149.199219 58.070312 Z M 149.199219 58.070312 " fill-opacity="1" fill-rule="nonzero"/><path fill="#000000" d="M 164.300781 59.851562 C 163.078125 59.898438 161.691406 59.957031 161.171875 59.878906 C 159.953125 59.695312 154.777344 59.644531 154.035156 59.769531 C 153.242188 59.898438 150.03125 60.167969 149.585938 60.074219 C 149.042969 59.894531 146.800781 60.011719 145.511719 60.097656 L 145.59375 61.316406 C 147.085938 61.214844 148.890625 61.152344 149.199219 61.230469 C 149.945312 61.476562 153.867188 61.03125 154.234375 60.96875 C 154.773438 60.878906 159.851562 60.914062 160.988281 61.085938 C 161.625 61.179688 162.949219 61.125 164.351562 61.070312 C 165.324219 61.027344 166.652344 60.976562 166.917969 61.035156 L 167.214844 59.851562 C 166.816406 59.753906 165.894531 59.785156 164.300781 59.851562 Z M 164.300781 59.851562 " fill-opacity="1" fill-rule="nonzero"/><path fill="#000000" d="M 214.453125 49.117188 C 215.664062 49.308594 223.359375 48.933594 224.542969 48.839844 C 225.917969 48.730469 236.691406 48.789062 239.015625 48.953125 C 240.257812 49.042969 243.117188 48.988281 245.882812 48.933594 C 248.34375 48.886719 250.886719 48.835938 251.539062 48.914062 L 251.683594 47.703125 C 250.949219 47.617188 248.589844 47.660156 245.859375 47.714844 C 243.25 47.765625 240.285156 47.824219 239.105469 47.738281 C 236.6875 47.566406 225.914062 47.511719 224.449219 47.625 C 222.898438 47.75 215.613281 48.066406 214.644531 47.914062 C 213.554688 47.742188 207.199219 47.941406 206.480469 47.960938 L 206.519531 49.179688 C 209.300781 49.089844 213.714844 49 214.453125 49.117188 Z M 214.453125 49.117188 " fill-opacity="1" fill-rule="nonzero"/><path fill="#000000" d="M 214.453125 52.277344 C 215.660156 52.46875 223.359375 52.09375 224.542969 52 C 225.917969 51.890625 236.6875 51.949219 239.015625 52.113281 C 240.257812 52.203125 243.117188 52.148438 245.882812 52.09375 C 248.34375 52.042969 250.886719 51.996094 251.539062 52.074219 L 251.683594 50.863281 C 250.949219 50.777344 248.589844 50.820312 245.859375 50.875 C 243.117188 50.929688 240.289062 50.980469 239.105469 50.898438 C 236.6875 50.726562 225.914062 50.667969 224.449219 50.785156 C 222.898438 50.910156 215.605469 51.226562 214.644531 51.074219 C 213.554688 50.902344 207.199219 51.097656 206.480469 51.121094 L 206.519531 52.339844 C 209.304688 52.25 213.714844 52.160156 214.453125 52.277344 Z M 214.453125 52.277344 " fill-opacity="1" fill-rule="nonzero"/><path fill="#000000" d="M 210.144531 57.820312 C 210.890625 58.070312 214.8125 57.621094 215.179688 57.5625 C 215.71875 57.472656 220.792969 57.503906 221.933594 57.675781 C 222.570312 57.769531 223.894531 57.71875 225.296875 57.660156 C 226.269531 57.621094 227.601562 57.566406 227.863281 57.625 L 228.160156 56.445312 C 227.761719 56.34375 226.84375 56.375 225.25 56.441406 C 224.023438 56.492188 222.636719 56.546875 222.117188 56.46875 C 220.898438 56.289062 215.722656 56.234375 214.980469 56.359375 C 214.1875 56.492188 210.976562 56.761719 210.53125 56.664062 C 209.988281 56.484375 207.746094 56.601562 206.457031 56.691406 L 206.539062 57.90625 C 208.03125 57.804688 209.835938 57.746094 210.144531 57.820312 Z M 210.144531 57.820312 " fill-opacity="1" fill-rule="nonzero"/><path fill="#000000" d="M 210.144531 60.980469 C 210.894531 61.230469 214.8125 60.78125 215.179688 60.71875 C 215.71875 60.628906 220.796875 60.664062 221.933594 60.835938 C 222.570312 60.929688 223.894531 60.875 225.296875 60.820312 C 226.269531 60.78125 227.601562 60.726562 227.863281 60.785156 L 228.160156 59.601562 C 227.761719 59.503906 226.839844 59.535156 225.246094 59.601562 C 224.023438 59.652344 222.636719 59.707031 222.117188 59.628906 C 220.898438 59.449219 215.722656 59.394531 214.980469 59.519531 C 214.1875 59.648438 210.980469 59.917969 210.53125 59.824219 C 209.988281 59.644531 207.746094 59.761719 206.457031 59.851562 L 206.539062 61.066406 C 208.03125 60.964844 209.839844 60.90625 210.144531 60.980469 Z M 210.144531 60.980469 " fill-opacity="1" fill-rule="nonzero"/><g clip-path="url(#00885df29e)"><path fill="#000000" d="M 77.273438 168.195312 C 78.398438 169.019531 79.746094 169.445312 81.109375 169.445312 C 81.75 169.445312 82.394531 169.351562 83.019531 169.160156 L 85.21875 168.484375 L 83.550781 146.800781 L 85.585938 146.792969 L 88.066406 178.945312 L 87.679688 264.214844 C 87.65625 269.761719 92.136719 274.28125 97.6875 274.304688 C 103.238281 274.328125 107.761719 269.855469 107.789062 264.304688 L 108.125 190.046875 L 113.550781 189.628906 L 125.722656 265.84375 C 126.597656 271.324219 131.753906 275.054688 137.234375 274.179688 C 142.714844 273.304688 146.453125 268.15625 145.578125 262.675781 L 132.15625 178.613281 L 129.726562 146.601562 L 128.910156 135.851562 L 128.664062 132.601562 L 152.296875 129.046875 C 153.898438 128.804688 155.351562 127.976562 156.375 126.71875 L 175.375 103.371094 C 177.640625 100.585938 177.21875 96.492188 174.433594 94.226562 C 174.332031 94.144531 174.222656 94.074219 174.121094 93.996094 L 177.261719 86.757812 L 174.796875 85.691406 L 171.664062 92.910156 C 169.355469 92.429688 166.871094 93.214844 165.28125 95.167969 L 147.867188 116.566406 L 119.878906 120.773438 C 119.792969 120.789062 119.714844 120.808594 119.628906 120.824219 L 113.070312 121.332031 L 90.066406 123.101562 C 89.554688 123.140625 89.066406 123.246094 88.601562 123.394531 C 87.0625 123.804688 85.03125 124.738281 82.980469 126.820312 C 77.148438 132.75 74.40625 144.585938 74.605469 163.015625 C 74.628906 165.066406 75.617188 166.984375 77.273438 168.195312 Z M 77.273438 168.195312 " fill-opacity="1" fill-rule="nonzero"/></g><path fill="#000000" d="M 121.535156 93.949219 C 121.699219 94.523438 121.839844 95.105469 121.949219 95.695312 C 122.058594 96.28125 122.140625 96.875 122.191406 97.472656 C 122.242188 98.066406 122.265625 98.664062 122.257812 99.265625 C 122.253906 99.863281 122.214844 100.460938 122.148438 101.054688 C 122.085938 101.652344 121.988281 102.242188 121.867188 102.828125 C 121.742188 103.414062 121.589844 103.992188 121.410156 104.5625 C 121.230469 105.132812 121.019531 105.695312 120.785156 106.246094 C 120.550781 106.792969 120.285156 107.332031 120 107.855469 C 119.710938 108.382812 119.394531 108.890625 119.058594 109.386719 C 118.71875 109.878906 118.355469 110.355469 117.972656 110.8125 C 117.585938 111.273438 117.179688 111.710938 116.75 112.128906 C 116.320312 112.546875 115.871094 112.945312 115.40625 113.316406 C 114.9375 113.691406 114.453125 114.042969 113.949219 114.371094 C 113.449219 114.695312 112.933594 115 112.398438 115.273438 C 111.867188 115.550781 111.324219 115.800781 110.769531 116.023438 C 110.210938 116.246094 109.644531 116.441406 109.070312 116.609375 C 108.496094 116.773438 107.914062 116.914062 107.324219 117.023438 C 106.734375 117.132812 106.140625 117.214844 105.546875 117.265625 C 104.949219 117.316406 104.351562 117.339844 103.75 117.332031 C 103.152344 117.324219 102.554688 117.289062 101.957031 117.222656 C 101.363281 117.15625 100.773438 117.0625 100.1875 116.941406 C 99.597656 116.816406 99.019531 116.664062 98.449219 116.484375 C 97.878906 116.304688 97.316406 116.09375 96.765625 115.859375 C 96.214844 115.625 95.675781 115.363281 95.152344 115.074219 C 94.628906 114.785156 94.117188 114.472656 93.621094 114.132812 C 93.128906 113.792969 92.652344 113.433594 92.195312 113.046875 C 91.734375 112.664062 91.296875 112.253906 90.878906 111.828125 C 90.457031 111.398438 90.0625 110.949219 89.6875 110.484375 C 89.3125 110.015625 88.960938 109.53125 88.632812 109.03125 C 88.308594 108.527344 88.003906 108.011719 87.730469 107.480469 C 87.453125 106.949219 87.203125 106.40625 86.980469 105.851562 C 86.757812 105.292969 86.5625 104.730469 86.394531 104.152344 C 86.226562 103.578125 86.089844 102.996094 85.980469 102.40625 C 85.871094 101.820312 85.789062 101.226562 85.738281 100.628906 C 85.683594 100.035156 85.664062 99.4375 85.667969 98.835938 C 85.675781 98.238281 85.714844 97.640625 85.777344 97.046875 C 85.84375 96.453125 85.9375 95.859375 86.0625 95.273438 C 86.1875 94.6875 86.339844 94.109375 86.519531 93.539062 C 86.699219 92.96875 86.910156 92.40625 87.144531 91.859375 C 87.378906 91.308594 87.640625 90.769531 87.929688 90.246094 C 88.21875 89.71875 88.53125 89.210938 88.871094 88.714844 C 89.210938 88.222656 89.574219 87.746094 89.957031 87.289062 C 90.34375 86.828125 90.75 86.390625 91.179688 85.972656 C 91.609375 85.554688 92.054688 85.15625 92.523438 84.785156 C 92.992188 84.410156 93.476562 84.058594 93.976562 83.730469 C 94.480469 83.40625 94.996094 83.101562 95.527344 82.828125 C 96.0625 82.550781 96.605469 82.300781 97.160156 82.078125 C 97.71875 81.855469 98.28125 81.660156 98.859375 81.496094 C 99.433594 81.328125 100.015625 81.1875 100.605469 81.078125 C 101.195312 80.96875 101.785156 80.886719 102.382812 80.835938 C 102.980469 80.785156 103.578125 80.761719 104.179688 80.769531 C 104.777344 80.777344 105.375 80.8125 105.96875 80.878906 C 106.566406 80.945312 107.15625 81.039062 107.742188 81.164062 C 108.328125 81.285156 108.910156 81.4375 109.480469 81.617188 C 110.050781 81.800781 110.613281 82.007812 111.164062 82.242188 C 111.714844 82.476562 112.25 82.738281 112.777344 83.027344 C 113.300781 83.316406 113.8125 83.628906 114.304688 83.96875 C 114.800781 84.308594 115.277344 84.667969 115.734375 85.054688 C 116.195312 85.441406 116.632812 85.847656 117.050781 86.273438 C 117.46875 86.703125 117.867188 87.152344 118.242188 87.617188 C 118.617188 88.085938 118.96875 88.570312 119.292969 89.070312 C 119.621094 89.574219 119.921875 90.089844 120.199219 90.621094 C 120.476562 91.152344 120.726562 91.695312 120.949219 92.253906 C 121.171875 92.808594 121.367188 93.375 121.535156 93.949219 Z M 121.535156 93.949219 " fill-opacity="1" fill-rule="nonzero"/><path fill="#000000" d="M 267.089844 89.679688 C 267.089844 95.144531 271.519531 99.570312 276.988281 99.570312 C 282.453125 99.570312 286.882812 95.144531 286.882812 89.679688 C 286.882812 84.21875 282.453125 79.789062 276.988281 79.789062 C 271.519531 79.789062 267.089844 84.21875 267.089844 89.679688 Z M 276.988281 81.675781 C 281.402344 81.675781 285 85.265625 285 89.679688 C 285 91.550781 284.351562 93.269531 283.273438 94.632812 L 272.03125 83.398438 C 273.394531 82.320312 275.117188 81.675781 276.988281 81.675781 Z M 281.941406 95.964844 C 280.578125 97.042969 278.855469 97.6875 276.988281 97.6875 C 272.570312 97.6875 268.972656 94.09375 268.972656 89.679688 C 268.972656 87.8125 269.621094 86.09375 270.699219 84.730469 Z M 281.941406 95.964844 " fill-opacity="1" fill-rule="nonzero"/><path fill="#000000" d="M 176.261719 117.125 C 177.007812 117.375 180.929688 116.929688 181.296875 116.867188 C 181.835938 116.777344 186.910156 116.8125 188.050781 116.980469 C 188.6875 117.078125 190.011719 117.023438 191.414062 116.964844 C 192.386719 116.925781 193.714844 116.871094 193.980469 116.933594 L 194.273438 115.75 C 193.878906 115.652344 192.957031 115.683594 191.367188 115.746094 C 190.140625 115.796875 188.753906 115.855469 188.234375 115.777344 C 187.117188 115.609375 181.914062 115.527344 181.097656 115.664062 C 180.300781 115.796875 177.09375 116.066406 176.648438 115.96875 C 176.105469 115.789062 173.863281 115.910156 172.574219 115.996094 L 172.65625 117.210938 C 174.148438 117.113281 175.953125 117.050781 176.261719 117.125 Z M 176.261719 117.125 " fill-opacity="1" fill-rule="nonzero"/><path fill="#000000" d="M 176.261719 120.285156 C 177.007812 120.535156 180.929688 120.085938 181.296875 120.027344 C 181.835938 119.9375 186.914062 119.96875 188.050781 120.140625 C 188.6875 120.238281 190.007812 120.183594 191.414062 120.125 C 192.382812 120.085938 193.714844 120.03125 193.980469 120.09375 L 194.277344 118.910156 C 193.878906 118.808594 192.957031 118.84375 191.363281 118.90625 C 190.140625 118.957031 188.753906 119.011719 188.234375 118.9375 C 187.015625 118.753906 181.839844 118.703125 181.097656 118.824219 C 180.304688 118.957031 177.09375 119.226562 176.648438 119.128906 C 176.105469 118.949219 173.863281 119.070312 172.574219 119.15625 L 172.65625 120.371094 C 174.148438 120.273438 175.953125 120.210938 176.261719 120.285156 Z M 176.261719 120.285156 " fill-opacity="1" fill-rule="nonzero"/><path fill="#000000" d="M 176.261719 125.851562 C 177.007812 126.101562 180.929688 125.65625 181.296875 125.59375 C 181.835938 125.503906 186.914062 125.539062 188.050781 125.707031 C 188.6875 125.804688 190.007812 125.75 191.414062 125.691406 C 192.382812 125.652344 193.714844 125.597656 193.980469 125.660156 L 194.277344 124.476562 C 193.878906 124.375 192.957031 124.410156 191.363281 124.472656 C 190.140625 124.523438 188.753906 124.582031 188.234375 124.503906 C 187.015625 124.320312 181.839844 124.269531 181.097656 124.390625 C 180.304688 124.523438 177.09375 124.792969 176.648438 124.695312 C 176.105469 124.515625 173.863281 124.636719 172.574219 124.722656 L 172.65625 125.9375 C 174.148438 125.839844 175.953125 125.777344 176.261719 125.851562 Z M 176.261719 125.851562 " fill-opacity="1" fill-rule="nonzero"/><path fill="#000000" d="M 176.261719 129.011719 C 177.007812 129.257812 180.929688 128.8125 181.296875 128.753906 C 181.835938 128.664062 186.910156 128.695312 188.050781 128.867188 C 188.6875 128.960938 190.011719 128.910156 191.414062 128.851562 C 192.386719 128.8125 193.714844 128.757812 193.980469 128.820312 L 194.273438 127.636719 C 193.878906 127.535156 192.957031 127.570312 191.367188 127.632812 C 190.140625 127.683594 188.753906 127.738281 188.234375 127.664062 C 187.117188 127.496094 181.914062 127.414062 181.097656 127.550781 C 180.300781 127.683594 177.09375 127.953125 176.648438 127.855469 C 176.105469 127.675781 173.863281 127.796875 172.574219 127.882812 L 172.65625 129.097656 C 174.148438 129 175.953125 128.9375 176.261719 129.011719 Z M 176.261719 129.011719 " fill-opacity="1" fill-rule="nonzero"/><path fill="#000000" d="M 152.871094 69.679688 L 150.101562 72.445312 L 147.335938 69.679688 L 146.339844 70.671875 L 149.105469 73.4375 L 146.339844 76.203125 L 147.335938 77.199219 L 150.101562 74.433594 L 152.871094 77.199219 L 153.867188 76.203125 L 151.097656 73.4375 L 153.867188 70.671875 Z M 152.871094 69.679688 " fill-opacity="1" fill-rule="nonzero"/><path fill="#000000" d="M 164.511719 69.679688 L 161.746094 72.445312 L 158.976562 69.679688 L 157.980469 70.671875 L 160.75 73.4375 L 157.980469 76.203125 L 158.976562 77.199219 L 161.746094 74.433594 L 164.511719 77.199219 L 165.507812 76.203125 L 162.742188 73.4375 L 165.507812 70.671875 Z M 164.511719 69.679688 " fill-opacity="1" fill-rule="nonzero"/><path fill="#000000" d="M 214.640625 69.679688 L 211.871094 72.445312 L 209.105469 69.679688 L 208.109375 70.671875 L 210.875 73.4375 L 208.109375 76.203125 L 209.105469 77.199219 L 211.871094 74.433594 L 214.640625 77.199219 L 215.636719 76.203125 L 212.867188 73.4375 L 215.636719 70.671875 Z M 214.640625 69.679688 " fill-opacity="1" fill-rule="nonzero"/><path fill="#000000" d="M 226.28125 69.679688 L 223.515625 72.445312 L 220.746094 69.679688 L 219.75 70.671875 L 222.519531 73.4375 L 219.75 76.203125 L 220.746094 77.199219 L 223.515625 74.433594 L 226.28125 77.199219 L 227.277344 76.203125 L 224.511719 73.4375 L 227.277344 70.671875 Z M 226.28125 69.679688 " fill-opacity="1" fill-rule="nonzero"/><path fill="#000000" d="M 248.132812 85.277344 L 248.132812 88.050781 C 249.046875 88.46875 250.324219 88.632812 251.507812 88.652344 L 251.507812 90.765625 L 252.859375 90.765625 L 252.859375 88.578125 C 254.960938 88.25 256.164062 87.046875 256.164062 85.113281 C 256.164062 82.921875 254.46875 82.265625 252.859375 81.773438 L 252.859375 78.472656 C 253.171875 78.511719 253.464844 78.566406 253.644531 78.601562 C 253.917969 78.691406 253.972656 78.820312 253.972656 79.113281 L 253.972656 80.242188 L 255.707031 80.097656 L 255.707031 77.414062 C 254.941406 77.070312 253.847656 76.851562 252.859375 76.796875 L 252.859375 75.171875 L 251.507812 75.171875 L 251.507812 76.832031 C 249.484375 77.085938 248.167969 78.308594 248.167969 80.152344 C 248.167969 82.378906 249.886719 83.035156 251.507812 83.453125 L 251.507812 86.953125 C 251.015625 86.953125 250.46875 86.898438 250.214844 86.808594 C 249.941406 86.71875 249.886719 86.589844 249.886719 86.296875 L 249.886719 85.148438 Z M 252.859375 83.890625 C 253.464844 84.183594 253.847656 84.582031 253.847656 85.277344 C 253.847656 86.117188 253.445312 86.554688 252.859375 86.773438 Z M 250.433594 79.933594 C 250.433594 79.148438 250.890625 78.746094 251.507812 78.566406 L 251.507812 81.320312 C 250.835938 81.027344 250.433594 80.644531 250.433594 79.933594 Z M 250.433594 79.933594 " fill-opacity="1" fill-rule="nonzero"/><path fill="#000000" d="M 205.574219 139.996094 L 206.878906 139.242188 L 205.804688 137.386719 L 204.5 138.140625 C 204.335938 137.953125 204.15625 137.773438 203.96875 137.609375 L 204.722656 136.304688 L 202.867188 135.234375 L 202.113281 136.539062 C 201.878906 136.457031 201.636719 136.390625 201.390625 136.339844 L 201.390625 134.839844 L 199.246094 134.839844 L 199.246094 136.339844 C 198.996094 136.390625 198.757812 136.457031 198.519531 136.539062 L 197.765625 135.234375 L 195.910156 136.304688 L 196.664062 137.609375 C 196.476562 137.773438 196.300781 137.953125 196.132812 138.140625 L 194.828125 137.386719 L 193.757812 139.242188 L 195.0625 139.996094 C 194.980469 140.230469 194.914062 140.46875 194.863281 140.71875 L 193.359375 140.71875 L 193.359375 142.859375 L 194.863281 142.859375 C 194.914062 143.109375 194.980469 143.351562 195.0625 143.585938 L 193.757812 144.335938 L 194.828125 146.191406 L 196.132812 145.441406 C 196.300781 145.628906 196.476562 145.804688 196.664062 145.96875 L 195.910156 147.273438 L 197.765625 148.34375 L 198.519531 147.042969 C 198.753906 147.121094 198.996094 147.191406 199.246094 147.238281 L 199.246094 148.742188 L 201.390625 148.742188 L 201.390625 147.238281 C 201.636719 147.191406 201.878906 147.121094 202.113281 147.042969 L 202.867188 148.34375 L 204.722656 147.273438 L 203.96875 145.96875 C 204.15625 145.804688 204.335938 145.628906 204.5 145.441406 L 205.804688 146.191406 L 206.878906 144.335938 L 205.574219 143.585938 C 205.652344 143.351562 205.722656 143.109375 205.769531 142.859375 L 207.273438 142.859375 L 207.273438 140.71875 L 205.769531 140.71875 C 205.722656 140.46875 205.652344 140.230469 205.574219 139.996094 Z M 200.316406 145.910156 C 198.039062 145.910156 196.191406 144.066406 196.191406 141.789062 C 196.191406 139.511719 198.039062 137.667969 200.316406 137.667969 C 202.59375 137.667969 204.441406 139.511719 204.441406 141.789062 C 204.441406 144.066406 202.59375 145.910156 200.316406 145.910156 Z M 200.316406 145.910156 " fill-opacity="1" fill-rule="nonzero"/><path fill="#000000" d="M 201.574219 141.789062 C 201.574219 141.957031 201.542969 142.117188 201.480469 142.269531 C 201.417969 142.425781 201.324219 142.5625 201.207031 142.679688 C 201.089844 142.796875 200.953125 142.886719 200.800781 142.953125 C 200.644531 143.015625 200.484375 143.046875 200.316406 143.046875 C 200.148438 143.046875 199.988281 143.015625 199.835938 142.953125 C 199.679688 142.886719 199.546875 142.796875 199.425781 142.679688 C 199.308594 142.5625 199.21875 142.425781 199.152344 142.269531 C 199.089844 142.117188 199.058594 141.957031 199.058594 141.789062 C 199.058594 141.621094 199.089844 141.460938 199.152344 141.308594 C 199.21875 141.152344 199.308594 141.019531 199.425781 140.898438 C 199.546875 140.78125 199.679688 140.691406 199.835938 140.628906 C 199.988281 140.5625 200.148438 140.53125 200.316406 140.53125 C 200.484375 140.53125 200.644531 140.5625 200.800781 140.628906 C 200.953125 140.691406 201.089844 140.78125 201.207031 140.898438 C 201.324219 141.019531 201.417969 141.152344 201.480469 141.308594 C 201.542969 141.460938 201.574219 141.621094 201.574219 141.789062 Z M 201.574219 141.789062 " fill-opacity="1" fill-rule="nonzero"/><path fill="#000000" d="M 223.117188 139.996094 L 224.421875 139.242188 L 223.351562 137.386719 L 222.046875 138.140625 C 221.882812 137.953125 221.703125 137.773438 221.515625 137.609375 L 222.269531 136.304688 L 220.414062 135.234375 L 219.660156 136.539062 C 219.425781 136.457031 219.183594 136.390625 218.933594 136.339844 L 218.933594 134.839844 L 216.792969 134.839844 L 216.792969 136.339844 C 216.542969 136.390625 216.300781 136.457031 216.066406 136.539062 L 215.3125 135.234375 L 213.457031 136.304688 L 214.210938 137.609375 C 214.023438 137.773438 213.84375 137.953125 213.679688 138.140625 L 212.375 137.386719 L 211.304688 139.242188 L 212.609375 139.996094 C 212.527344 140.230469 212.460938 140.46875 212.410156 140.71875 L 210.90625 140.71875 L 210.90625 142.859375 L 212.410156 142.859375 C 212.460938 143.109375 212.527344 143.351562 212.609375 143.585938 L 211.304688 144.335938 L 212.375 146.191406 L 213.679688 145.441406 C 213.84375 145.628906 214.023438 145.804688 214.210938 145.96875 L 213.457031 147.273438 L 215.3125 148.34375 L 216.066406 147.042969 C 216.300781 147.121094 216.542969 147.191406 216.792969 147.238281 L 216.792969 148.742188 L 218.933594 148.742188 L 218.933594 147.238281 C 219.183594 147.191406 219.425781 147.121094 219.660156 147.042969 L 220.414062 148.34375 L 222.269531 147.273438 L 221.515625 145.96875 C 221.703125 145.804688 221.882812 145.628906 222.046875 145.441406 L 223.351562 146.191406 L 224.421875 144.335938 L 223.117188 143.585938 C 223.199219 143.351562 223.265625 143.109375 223.316406 142.859375 L 224.820312 142.859375 L 224.820312 140.71875 L 223.316406 140.71875 C 223.265625 140.46875 223.199219 140.230469 223.117188 139.996094 Z M 217.863281 145.910156 C 215.585938 145.910156 213.738281 144.066406 213.738281 141.789062 C 213.738281 139.511719 215.585938 137.667969 217.863281 137.667969 C 220.140625 137.667969 221.988281 139.511719 221.988281 141.789062 C 221.988281 144.066406 220.140625 145.910156 217.863281 145.910156 Z M 217.863281 145.910156 " fill-opacity="1" fill-rule="nonzero"/><path fill="#000000" d="M 219.121094 141.789062 C 219.121094 141.09375 218.558594 140.53125 217.863281 140.53125 C 217.167969 140.53125 216.605469 141.09375 216.605469 141.789062 C 216.605469 142.484375 217.167969 143.046875 217.863281 143.046875 C 218.558594 143.046875 219.121094 142.484375 219.121094 141.789062 Z M 219.121094 141.789062 " fill-opacity="1" fill-rule="nonzero"/><g clip-path="url(#c953627b25)"><path fill="#000000" d="M 263.660156 330.234375 C 265.605469 330.234375 267.179688 331.808594 267.179688 333.75 C 267.179688 335.53125 265.855469 337.003906 264.136719 337.238281 L 263.660156 337.269531 L 254.269531 337.269531 C 252.324219 337.269531 250.746094 335.695312 250.746094 333.75 C 250.746094 331.96875 252.070312 330.496094 253.789062 330.265625 L 254.269531 330.234375 Z M 273.050781 320.851562 C 274.996094 320.851562 276.574219 322.425781 276.574219 324.367188 C 276.574219 326.148438 275.246094 327.621094 273.527344 327.855469 L 273.050781 327.886719 L 244.878906 327.886719 C 242.933594 327.886719 241.355469 326.3125 241.355469 324.367188 C 241.355469 322.585938 242.679688 321.113281 244.398438 320.882812 L 244.878906 320.851562 Z M 277.746094 311.46875 C 279.691406 311.46875 281.269531 313.042969 281.269531 314.984375 C 281.269531 316.765625 279.941406 318.238281 278.222656 318.472656 L 277.746094 318.503906 L 240.183594 318.503906 C 238.238281 318.503906 236.660156 316.929688 236.660156 314.984375 C 236.660156 313.203125 237.984375 311.730469 239.703125 311.5 L 240.183594 311.46875 Z M 258.964844 203.5625 C 284.25 203.5625 304.746094 224.042969 304.746094 249.304688 C 304.746094 260.089844 298.308594 271.75 285.707031 284.421875 C 283.101562 287.039062 281.546875 290.5 281.304688 294.160156 L 281.269531 295.164062 L 281.269531 303.257812 C 281.265625 306.292969 278.957031 308.789062 276 309.089844 L 275.398438 309.121094 L 242.53125 309.121094 C 239.492188 309.121094 236.992188 306.8125 236.691406 303.855469 L 236.660156 303.257812 L 236.660156 295.167969 C 236.660156 291.140625 235.066406 287.277344 232.222656 284.421875 C 219.621094 271.75 213.183594 260.089844 213.183594 249.304688 C 213.183594 224.042969 233.679688 203.5625 258.964844 203.5625 Z M 216.832031 287.46875 C 218.09375 288.726562 218.199219 290.703125 217.148438 292.082031 L 216.832031 292.445312 L 206.871094 302.394531 C 205.496094 303.769531 203.265625 303.769531 201.890625 302.394531 C 200.628906 301.136719 200.523438 299.160156 201.574219 297.78125 L 201.890625 297.421875 L 211.851562 287.46875 C 213.226562 286.09375 215.457031 286.09375 216.832031 287.46875 Z M 306.117188 287.152344 L 306.476562 287.46875 L 316.4375 297.421875 C 317.8125 298.792969 317.8125 301.023438 316.4375 302.394531 C 315.179688 303.65625 313.199219 303.761719 311.820312 302.710938 L 311.457031 302.394531 L 301.496094 292.445312 C 300.121094 291.070312 300.121094 288.84375 301.496094 287.46875 C 302.757812 286.207031 304.738281 286.101562 306.117188 287.152344 Z M 258.964844 210.601562 C 237.570312 210.601562 220.226562 227.929688 220.226562 249.304688 C 220.226562 257.882812 225.800781 267.980469 237.21875 279.460938 C 241.09375 283.355469 243.382812 288.535156 243.671875 293.996094 L 243.703125 295.167969 L 243.699219 302.085938 L 274.226562 302.085938 L 274.226562 295.160156 C 274.230469 290.0625 275.980469 285.144531 279.148438 281.207031 L 279.90625 280.3125 L 280.710938 279.460938 C 292.128906 267.980469 297.703125 257.882812 297.703125 249.304688 C 297.703125 227.929688 280.359375 210.601562 258.964844 210.601562 Z M 195.777344 241.652344 C 197.71875 241.652344 199.296875 243.226562 199.296875 245.171875 C 199.296875 246.953125 197.972656 248.425781 196.253906 248.65625 L 195.777344 248.691406 L 181.6875 248.691406 C 179.742188 248.691406 178.167969 247.113281 178.167969 245.171875 C 178.167969 243.390625 179.492188 241.917969 181.210938 241.683594 L 181.6875 241.652344 Z M 336.640625 241.652344 C 338.585938 241.652344 340.164062 243.226562 340.164062 245.171875 C 340.164062 246.953125 338.839844 248.425781 337.117188 248.65625 L 336.640625 248.691406 L 322.554688 248.691406 C 320.609375 248.691406 319.03125 247.113281 319.03125 245.171875 C 319.03125 243.390625 320.359375 241.917969 322.078125 241.683594 L 322.554688 241.652344 Z M 263.660156 217.636719 C 278.570312 217.636719 290.660156 229.714844 290.660156 244.613281 C 290.660156 246.558594 289.082031 248.132812 287.136719 248.132812 C 285.191406 248.132812 283.617188 246.558594 283.617188 244.613281 C 283.617188 233.601562 274.679688 224.675781 263.660156 224.675781 C 261.714844 224.675781 260.136719 223.101562 260.136719 221.15625 C 260.136719 219.214844 261.714844 217.636719 263.660156 217.636719 Z M 206.511719 187.632812 L 206.871094 187.949219 L 216.832031 197.898438 C 218.207031 199.273438 218.207031 201.5 216.832031 202.875 C 215.570312 204.136719 213.59375 204.238281 212.210938 203.191406 L 211.851562 202.875 L 201.890625 192.921875 C 200.515625 191.550781 200.515625 189.320312 201.890625 187.949219 C 203.152344 186.6875 205.128906 186.582031 206.511719 187.632812 Z M 316.4375 187.949219 C 317.699219 189.207031 317.804688 191.183594 316.753906 192.5625 L 316.4375 192.921875 L 306.476562 202.875 C 305.101562 204.25 302.875 204.25 301.496094 202.875 C 300.238281 201.617188 300.132812 199.640625 301.183594 198.257812 L 301.496094 197.898438 L 311.457031 187.949219 C 312.835938 186.574219 315.0625 186.574219 316.4375 187.949219 Z M 259.164062 168.9375 C 260.949219 168.9375 262.421875 170.257812 262.65625 171.976562 L 262.6875 172.453125 L 262.6875 186.527344 C 262.6875 188.472656 261.109375 190.046875 259.164062 190.046875 C 257.382812 190.046875 255.910156 188.722656 255.675781 187.007812 L 255.644531 186.527344 L 255.644531 172.453125 C 255.644531 170.511719 257.21875 168.9375 259.164062 168.9375 Z M 259.164062 168.9375 " fill-opacity="1" fill-rule="nonzero"/></g></svg>