<svg xmlns="http://www.w3.org/2000/svg" xmlns:xlink="http://www.w3.org/1999/xlink" width="601" zoomAndPan="magnify" viewBox="0 0 450.75 386.250002" height="515" preserveAspectRatio="xMidYMid meet" version="1.0"><defs><filter x="0%" y="0%" width="100%" height="100%" id="bd65410718"><feColorMatrix values="0 0 0 0 1 0 0 0 0 1 0 0 0 0 1 0 0 0 1 0" color-interpolation-filters="sRGB"/></filter><clipPath id="e3b7e9470a"><path d="M 422 262 L 428.871094 262 L 428.871094 269 L 422 269 Z M 422 262 " clip-rule="nonzero"/></clipPath><clipPath id="b64cbf2fa0"><path d="M 421 271 L 428.871094 271 L 428.871094 279 L 421 279 Z M 421 271 " clip-rule="nonzero"/></clipPath><clipPath id="dc4de44d84"><path d="M 260 7.175781 L 278 7.175781 L 278 44 L 260 44 Z M 260 7.175781 " clip-rule="nonzero"/></clipPath><clipPath id="3ab007f547"><path d="M 23.910156 91 L 34 91 L 34 102 L 23.910156 102 Z M 23.910156 91 " clip-rule="nonzero"/></clipPath><mask id="b0a54b1aaf"><g filter="url(#bd65410718)"><rect x="-45.075" width="540.9" fill="#000000" y="-38.625" height="463.500002" fill-opacity="0.1"/></g></mask><clipPath id="bae92e9fe4"><rect x="0" width="203" y="0" height="191"/></clipPath></defs><path fill="#e5e0fc" d="M 100.46875 145.828125 C 82.636719 144.242188 63.871094 152.128906 53.882812 166.972656 C 43.898438 181.816406 44.050781 203.304688 55.496094 217.03125 C 65.265625 228.738281 81.671875 234.328125 89.117188 247.648438 C 97.957031 263.421875 90.761719 283.019531 91.320312 301.089844 C 92.25 331.273438 116.691406 357.390625 145.441406 366.457031 C 174.191406 375.523438 205.921875 369.933594 233.492188 357.699219 C 251.449219 349.71875 269.78125 336.800781 273.378906 317.457031 C 274.710938 310.28125 273.84375 302.859375 274.558594 295.59375 C 275.269531 288.328125 278.125 280.566406 284.484375 276.992188 C 292.917969 272.242188 303.742188 276.839844 310.722656 283.515625 C 317.699219 290.191406 322.722656 298.886719 330.386719 304.785156 C 346.949219 317.546875 372.628906 313.078125 387.421875 298.296875 C 402.214844 283.515625 407.304688 261.125 405.503906 240.257812 C 404.140625 224.515625 397.503906 207.1875 382.738281 201.628906 C 377.871094 199.796875 372.378906 199.363281 368.128906 196.378906 C 361.585938 191.785156 360.066406 182.5625 361.308594 174.644531 C 362.515625 166.726562 365.835938 159.242188 366.734375 151.292969 C 368.8125 132.847656 355.726562 113.875 337.765625 109.277344 C 323.097656 105.519531 306.9375 110.488281 292.734375 105.242188 C 278.683594 100.054688 269.875 86.207031 263.421875 72.667969 C 256.941406 59.128906 251.359375 44.503906 240.097656 34.628906 C 229.246094 25.09375 213.644531 21.242188 199.625 24.628906 C 185.605469 28.011719 173.449219 38.539062 168.144531 51.984375 C 163.179688 64.5625 164.019531 78.597656 165.753906 92.011719 C 168.359375 112.195312 174.875 144.335938 154.960938 158.652344 C 147.675781 163.898438 139.703125 162.160156 132.226562 158.21875 C 121.589844 152.691406 112.8125 146.914062 100.46875 145.828125 Z M 100.46875 145.828125 " fill-opacity="1" fill-rule="nonzero"/><path fill="#000000" d="M 145.191406 49.78125 L 81.519531 49.78125 C 76.523438 49.78125 72.429688 53.878906 72.429688 58.878906 L 72.429688 113.316406 C 72.429688 118.28125 76.523438 122.351562 81.519531 122.351562 L 145.191406 122.351562 C 150.15625 122.351562 154.21875 118.253906 154.21875 113.316406 L 154.21875 58.847656 C 154.21875 53.847656 150.15625 49.78125 145.191406 49.78125 Z M 140.695312 56.269531 C 143.050781 56.269531 144.914062 58.132812 144.914062 60.464844 C 144.914062 62.792969 143.050781 64.6875 140.695312 64.6875 C 138.398438 64.6875 136.507812 62.761719 136.507812 60.464844 C 136.507812 58.164062 138.371094 56.269531 140.695312 56.269531 Z M 129.3125 56.269531 C 131.671875 56.269531 133.53125 58.132812 133.53125 60.464844 C 133.53125 62.792969 131.671875 64.6875 129.3125 64.6875 C 127.019531 64.6875 125.125 62.761719 125.125 60.464844 C 125.125 58.164062 126.988281 56.269531 129.3125 56.269531 Z M 117.929688 56.269531 C 120.226562 56.269531 122.148438 58.132812 122.148438 60.464844 C 122.148438 62.792969 120.226562 64.6875 117.929688 64.6875 C 115.636719 64.6875 113.742188 62.761719 113.742188 60.464844 C 113.742188 58.164062 115.605469 56.269531 117.929688 56.269531 Z M 151.394531 113.285156 C 151.394531 116.699219 148.605469 119.496094 145.191406 119.496094 L 81.519531 119.496094 C 78.042969 119.496094 75.316406 116.699219 75.316406 113.285156 L 75.316406 71.394531 L 86.636719 71.394531 C 86.976562 71.394531 87.316406 71.238281 87.597656 71.019531 L 91.195312 67.855469 L 99.445312 67.855469 L 102.484375 70.988281 C 102.734375 71.238281 103.105469 71.425781 103.507812 71.425781 L 151.394531 71.425781 Z M 151.394531 113.285156 " fill-opacity="0.1" fill-rule="nonzero"/><path fill="#6644a8" d="M 140.601562 44.96875 L 76.898438 44.96875 C 71.902344 44.96875 67.808594 49.066406 67.808594 54.066406 L 67.808594 108.5 C 67.808594 113.46875 71.902344 117.539062 76.898438 117.539062 L 140.570312 117.539062 C 145.535156 117.539062 149.597656 113.4375 149.597656 108.5 L 149.597656 54.035156 C 149.628906 49.035156 145.535156 44.96875 140.601562 44.96875 Z M 136.074219 51.457031 C 138.429688 51.457031 140.292969 53.320312 140.292969 55.648438 C 140.292969 57.949219 138.429688 59.871094 136.074219 59.871094 C 133.777344 59.871094 131.886719 57.949219 131.886719 55.648438 C 131.886719 53.320312 133.777344 51.457031 136.074219 51.457031 Z M 124.691406 51.457031 C 127.046875 51.457031 128.910156 53.320312 128.910156 55.648438 C 128.910156 57.949219 127.046875 59.871094 124.691406 59.871094 C 122.394531 59.871094 120.503906 57.949219 120.503906 55.648438 C 120.503906 53.320312 122.394531 51.457031 124.691406 51.457031 Z M 113.308594 51.457031 C 115.605469 51.457031 117.527344 53.320312 117.527344 55.648438 C 117.527344 57.949219 115.605469 59.871094 113.308594 59.871094 C 111.015625 59.871094 109.121094 57.949219 109.121094 55.648438 C 109.121094 53.320312 111.015625 51.457031 113.308594 51.457031 Z M 146.773438 108.46875 C 146.773438 111.886719 143.984375 114.679688 140.570312 114.679688 L 76.898438 114.679688 C 73.421875 114.679688 70.695312 111.886719 70.695312 108.46875 L 70.695312 66.613281 L 82.015625 66.613281 C 82.355469 66.613281 82.695312 66.457031 82.976562 66.238281 L 86.574219 63.070312 L 94.824219 63.070312 L 97.863281 66.207031 C 98.113281 66.457031 98.484375 66.640625 98.886719 66.640625 L 146.773438 66.640625 Z M 146.773438 108.46875 " fill-opacity="1" fill-rule="nonzero"/><path fill="#000000" d="M 99.785156 315.839844 L 84.308594 300.28125 L 81.394531 303.234375 L 77.859375 299.722656 C 78.011719 299.570312 78.136719 299.351562 78.324219 299.132812 C 86.109375 288.484375 85.488281 273.855469 76.214844 264.601562 C 71.253906 259.695312 64.644531 256.933594 57.667969 256.933594 C 50.628906 256.933594 44.019531 259.667969 39.089844 264.601562 C 28.855469 274.882812 28.855469 291.589844 39.089844 301.804688 C 44.082031 306.773438 50.6875 309.472656 57.667969 309.472656 C 63.3125 309.472656 68.738281 307.394531 73.578125 303.945312 C 73.796875 303.824219 73.980469 303.667969 74.167969 303.480469 L 77.609375 306.992188 L 74.695312 309.847656 L 90.234375 325.375 C 91.535156 326.675781 93.179688 327.328125 95.011719 327.328125 C 96.839844 327.328125 98.515625 326.617188 99.753906 325.375 C 102.421875 322.734375 102.421875 318.449219 99.785156 315.839844 Z M 71.933594 297.457031 C 68.183594 301.277344 63.125 303.417969 57.667969 303.417969 C 52.207031 303.417969 47.121094 301.339844 43.371094 297.519531 C 39.554688 293.730469 37.476562 288.605469 37.476562 283.203125 C 37.476562 277.738281 39.554688 272.675781 43.371094 268.917969 C 47.121094 265.101562 52.179688 262.957031 57.667969 262.957031 C 63.125 262.957031 68.183594 265.039062 71.933594 268.859375 C 75.75 272.644531 77.828125 277.769531 77.828125 283.171875 C 77.859375 288.636719 75.78125 293.730469 71.933594 297.457031 Z M 78.664062 305.933594 L 75.253906 302.519531 C 76.152344 301.773438 76.089844 301.804688 76.898438 300.8125 L 80.402344 304.257812 Z M 78.664062 305.933594 " fill-opacity="0.1" fill-rule="nonzero"/><path fill="#6644a8" d="M 95.628906 313.761719 L 80.152344 298.203125 L 77.238281 301.152344 L 73.703125 297.644531 C 73.859375 297.488281 73.980469 297.269531 74.167969 297.054688 C 81.953125 286.402344 81.332031 271.777344 72.058594 262.523438 C 67.097656 257.617188 60.488281 254.851562 53.511719 254.851562 C 46.472656 254.851562 39.863281 257.585938 34.933594 262.523438 C 24.699219 272.800781 24.699219 289.507812 34.933594 299.722656 C 39.925781 304.691406 46.53125 307.394531 53.511719 307.394531 C 59.15625 307.394531 64.582031 305.3125 69.421875 301.867188 C 69.640625 301.742188 69.824219 301.585938 70.011719 301.402344 L 73.453125 304.910156 L 70.539062 307.765625 L 86.078125 323.292969 C 87.378906 324.597656 89.023438 325.25 90.855469 325.25 C 92.683594 325.25 94.359375 324.535156 95.597656 323.292969 C 98.265625 320.652344 98.265625 316.367188 95.628906 313.761719 Z M 67.777344 295.375 C 64.027344 299.195312 58.96875 301.339844 53.511719 301.339844 C 48.050781 301.339844 42.964844 299.257812 39.214844 295.4375 C 35.398438 291.648438 33.320312 286.527344 33.320312 281.125 C 33.320312 275.65625 35.398438 270.597656 39.214844 266.839844 C 42.964844 263.019531 48.023438 260.878906 53.511719 260.878906 C 58.96875 260.878906 64.027344 262.957031 67.777344 266.777344 C 71.59375 270.566406 73.671875 275.6875 73.671875 281.09375 C 73.703125 286.558594 71.625 291.648438 67.777344 295.375 Z M 74.507812 303.855469 L 71.097656 300.4375 C 71.996094 299.691406 71.933594 299.722656 72.742188 298.730469 L 76.246094 302.175781 Z M 74.507812 303.855469 " fill-opacity="1" fill-rule="nonzero"/><path fill="#6644a8" d="M 324.894531 165.359375 C 324.492188 165.359375 324.089844 165.203125 323.808594 164.894531 C 323.191406 164.273438 323.191406 163.308594 323.808594 162.6875 L 338.449219 148.03125 C 339.070312 147.410156 340.03125 147.410156 340.652344 148.03125 C 341.273438 148.652344 341.273438 149.617188 340.652344 150.238281 L 326.011719 164.894531 C 325.703125 165.203125 325.296875 165.359375 324.894531 165.359375 Z M 324.894531 165.359375 " fill-opacity="1" fill-rule="nonzero"/><path fill="#6644a8" d="M 339.566406 165.359375 C 339.164062 165.359375 338.757812 165.203125 338.480469 164.894531 L 323.839844 150.238281 C 323.21875 149.617188 323.21875 148.652344 323.839844 148.03125 C 324.460938 147.410156 325.421875 147.410156 326.042969 148.03125 L 340.683594 162.6875 C 341.300781 163.308594 341.300781 164.273438 340.683594 164.894531 C 340.339844 165.203125 339.9375 165.359375 339.566406 165.359375 Z M 339.566406 165.359375 " fill-opacity="1" fill-rule="nonzero"/><path fill="#6644a8" d="M 263.949219 96.359375 C 259.019531 96.359375 255.019531 92.355469 255.019531 87.417969 C 255.019531 82.480469 259.019531 78.441406 263.949219 78.441406 C 268.882812 78.441406 272.914062 82.480469 272.914062 87.417969 C 272.945312 92.355469 268.914062 96.359375 263.949219 96.359375 Z M 263.949219 81.546875 C 260.726562 81.546875 258.121094 84.1875 258.121094 87.417969 C 258.121094 90.644531 260.726562 93.253906 263.949219 93.253906 C 267.175781 93.253906 269.8125 90.644531 269.8125 87.417969 C 269.84375 84.1875 267.207031 81.546875 263.949219 81.546875 Z M 263.949219 81.546875 " fill-opacity="1" fill-rule="nonzero"/><path fill="#6644a8" d="M 190.039062 113.8125 C 186.195312 113.8125 183.0625 110.675781 183.0625 106.824219 C 183.0625 102.972656 186.195312 99.835938 190.039062 99.835938 C 193.886719 99.835938 197.019531 102.972656 197.019531 106.824219 C 197.050781 110.675781 193.917969 113.8125 190.039062 113.8125 Z M 190.039062 102.261719 C 187.527344 102.261719 185.480469 104.308594 185.480469 106.824219 C 185.480469 109.339844 187.527344 111.390625 190.039062 111.390625 C 192.554688 111.390625 194.601562 109.339844 194.601562 106.824219 C 194.632812 104.308594 192.585938 102.261719 190.039062 102.261719 Z M 190.039062 102.261719 " fill-opacity="1" fill-rule="nonzero"/><path fill="#6644a8" d="M 190.878906 58.785156 C 190.566406 58.785156 190.289062 58.660156 190.070312 58.445312 L 185.855469 54.222656 C 185.386719 53.753906 185.386719 53.042969 185.855469 52.574219 C 186.320312 52.109375 187.03125 52.109375 187.496094 52.574219 L 191.714844 56.796875 C 192.179688 57.265625 192.179688 57.980469 191.714844 58.445312 C 191.46875 58.660156 191.1875 58.785156 190.878906 58.785156 Z M 190.878906 58.785156 " fill-opacity="1" fill-rule="nonzero"/><path fill="#6644a8" d="M 200.492188 49.160156 C 200.183594 49.160156 199.902344 49.035156 199.6875 48.816406 L 195.46875 44.59375 C 195.003906 44.128906 195.003906 43.414062 195.46875 42.949219 C 195.933594 42.484375 196.648438 42.484375 197.113281 42.949219 L 201.332031 47.171875 C 201.796875 47.636719 201.796875 48.351562 201.332031 48.816406 C 201.082031 49.035156 200.804688 49.160156 200.492188 49.160156 Z M 200.492188 49.160156 " fill-opacity="1" fill-rule="nonzero"/><path fill="#6644a8" d="M 186.660156 49.160156 C 186.351562 49.160156 186.070312 49.035156 185.855469 48.816406 C 185.386719 48.351562 185.386719 47.636719 185.855469 47.171875 L 190.070312 42.949219 C 190.539062 42.484375 191.25 42.484375 191.714844 42.949219 C 192.179688 43.414062 192.179688 44.128906 191.714844 44.59375 L 187.496094 48.816406 C 187.25 49.035156 186.96875 49.160156 186.660156 49.160156 Z M 186.660156 49.160156 " fill-opacity="1" fill-rule="nonzero"/><path fill="#6644a8" d="M 196.273438 58.785156 C 195.964844 58.785156 195.6875 58.660156 195.46875 58.445312 C 195.003906 57.980469 195.003906 57.265625 195.46875 56.796875 L 199.6875 52.574219 C 200.152344 52.109375 200.863281 52.109375 201.332031 52.574219 C 201.796875 53.042969 201.796875 53.753906 201.332031 54.222656 L 197.113281 58.445312 C 196.863281 58.660156 196.585938 58.785156 196.273438 58.785156 Z M 196.273438 58.785156 " fill-opacity="1" fill-rule="nonzero"/><path fill="#6644a8" d="M 398.898438 89.621094 C 398.585938 89.621094 398.308594 89.496094 398.089844 89.28125 L 393.875 85.058594 C 393.410156 84.589844 393.410156 83.875 393.875 83.410156 C 394.339844 82.945312 395.050781 82.945312 395.515625 83.410156 L 399.734375 87.632812 C 400.199219 88.101562 400.199219 88.8125 399.734375 89.28125 C 399.488281 89.496094 399.207031 89.621094 398.898438 89.621094 Z M 398.898438 89.621094 " fill-opacity="1" fill-rule="nonzero"/><path fill="#6644a8" d="M 408.511719 79.996094 C 408.203125 79.996094 407.921875 79.871094 407.707031 79.652344 L 403.488281 75.429688 C 403.023438 74.964844 403.023438 74.25 403.488281 73.785156 C 403.953125 73.320312 404.667969 73.320312 405.132812 73.785156 L 409.351562 78.007812 C 409.816406 78.472656 409.816406 79.1875 409.351562 79.652344 C 409.101562 79.902344 408.792969 79.996094 408.511719 79.996094 Z M 408.511719 79.996094 " fill-opacity="1" fill-rule="nonzero"/><path fill="#6644a8" d="M 394.679688 79.996094 C 394.371094 79.996094 394.089844 79.871094 393.875 79.652344 C 393.410156 79.1875 393.410156 78.472656 393.875 78.007812 L 398.089844 73.785156 C 398.558594 73.320312 399.269531 73.320312 399.734375 73.785156 C 400.199219 74.25 400.199219 74.964844 399.734375 75.429688 L 395.515625 79.652344 C 395.269531 79.902344 394.988281 79.996094 394.679688 79.996094 Z M 394.679688 79.996094 " fill-opacity="1" fill-rule="nonzero"/><path fill="#6644a8" d="M 404.292969 89.621094 C 403.984375 89.621094 403.707031 89.496094 403.488281 89.28125 C 403.023438 88.8125 403.023438 88.101562 403.488281 87.632812 L 407.707031 83.410156 C 408.171875 82.945312 408.886719 82.945312 409.351562 83.410156 C 409.816406 83.875 409.816406 84.589844 409.351562 85.058594 L 405.132812 89.28125 C 404.882812 89.496094 404.574219 89.621094 404.292969 89.621094 Z M 404.292969 89.621094 " fill-opacity="1" fill-rule="nonzero"/><path fill="#6644a8" d="M 417.785156 278.515625 C 417.476562 278.515625 417.195312 278.390625 416.980469 278.171875 L 412.761719 273.949219 C 412.296875 273.484375 412.296875 272.769531 412.761719 272.304688 C 413.226562 271.839844 413.941406 271.839844 414.40625 272.304688 L 418.625 276.527344 C 419.089844 276.992188 419.089844 277.707031 418.625 278.171875 C 418.375 278.421875 418.066406 278.515625 417.785156 278.515625 Z M 417.785156 278.515625 " fill-opacity="1" fill-rule="nonzero"/><g clip-path="url(#e3b7e9470a)"><path fill="#6644a8" d="M 427.402344 268.890625 C 427.089844 268.890625 426.8125 268.765625 426.59375 268.546875 L 422.375 264.324219 C 421.910156 263.859375 421.910156 263.144531 422.375 262.679688 C 422.84375 262.210938 423.554688 262.210938 424.019531 262.679688 L 428.238281 266.902344 C 428.703125 267.367188 428.703125 268.082031 428.238281 268.546875 C 427.992188 268.796875 427.679688 268.890625 427.402344 268.890625 Z M 427.402344 268.890625 " fill-opacity="1" fill-rule="nonzero"/></g><path fill="#6644a8" d="M 413.566406 268.890625 C 413.257812 268.890625 412.980469 268.765625 412.761719 268.546875 C 412.296875 268.082031 412.296875 267.367188 412.761719 266.902344 L 416.980469 262.679688 C 417.445312 262.210938 418.160156 262.210938 418.625 262.679688 C 419.089844 263.144531 419.089844 263.859375 418.625 264.324219 L 414.40625 268.546875 C 414.15625 268.796875 413.847656 268.890625 413.566406 268.890625 Z M 413.566406 268.890625 " fill-opacity="1" fill-rule="nonzero"/><g clip-path="url(#b64cbf2fa0)"><path fill="#6644a8" d="M 423.152344 278.515625 C 422.84375 278.515625 422.5625 278.390625 422.34375 278.171875 C 421.878906 277.707031 421.878906 276.992188 422.34375 276.527344 L 426.5625 272.304688 C 427.027344 271.839844 427.742188 271.839844 428.207031 272.304688 C 428.671875 272.769531 428.671875 273.484375 428.207031 273.949219 L 423.988281 278.171875 C 423.773438 278.421875 423.460938 278.515625 423.152344 278.515625 Z M 423.152344 278.515625 " fill-opacity="1" fill-rule="nonzero"/></g><path fill="#6644a8" d="M 80.371094 225.695312 C 80.058594 225.695312 79.78125 225.570312 79.5625 225.351562 L 75.347656 221.128906 C 74.882812 220.664062 74.882812 219.949219 75.347656 219.484375 C 75.8125 219.019531 76.523438 219.019531 76.988281 219.484375 L 81.207031 223.707031 C 81.671875 224.171875 81.671875 224.886719 81.207031 225.351562 C 80.960938 225.570312 80.648438 225.695312 80.371094 225.695312 Z M 80.371094 225.695312 " fill-opacity="1" fill-rule="nonzero"/><path fill="#6644a8" d="M 89.984375 216.066406 C 89.675781 216.066406 89.394531 215.945312 89.179688 215.726562 L 84.960938 211.503906 C 84.496094 211.039062 84.496094 210.324219 84.960938 209.859375 C 85.425781 209.390625 86.140625 209.390625 86.605469 209.859375 L 90.824219 214.082031 C 91.289062 214.546875 91.289062 215.261719 90.824219 215.726562 C 90.574219 215.945312 90.265625 216.066406 89.984375 216.066406 Z M 89.984375 216.066406 " fill-opacity="1" fill-rule="nonzero"/><path fill="#6644a8" d="M 76.152344 216.066406 C 75.84375 216.066406 75.5625 215.945312 75.347656 215.726562 C 74.882812 215.261719 74.882812 214.546875 75.347656 214.082031 L 79.5625 209.859375 C 80.03125 209.390625 80.742188 209.390625 81.207031 209.859375 C 81.671875 210.324219 81.671875 211.039062 81.207031 211.503906 L 76.988281 215.726562 C 76.742188 215.945312 76.433594 216.066406 76.152344 216.066406 Z M 76.152344 216.066406 " fill-opacity="1" fill-rule="nonzero"/><path fill="#6644a8" d="M 85.765625 225.695312 C 85.457031 225.695312 85.179688 225.570312 84.960938 225.351562 C 84.496094 224.886719 84.496094 224.171875 84.960938 223.707031 L 89.179688 219.484375 C 89.644531 219.019531 90.359375 219.019531 90.824219 219.484375 C 91.289062 219.949219 91.289062 220.664062 90.824219 221.128906 L 86.605469 225.351562 C 86.355469 225.570312 86.046875 225.695312 85.765625 225.695312 Z M 85.765625 225.695312 " fill-opacity="1" fill-rule="nonzero"/><path fill="#000000" d="M 361.460938 77.789062 L 309.046875 77.789062 C 308.363281 77.789062 307.835938 78.316406 307.835938 79 L 307.835938 110.921875 C 307.835938 111.605469 308.363281 112.132812 309.046875 112.132812 L 315.03125 112.132812 L 315.03125 125.238281 C 315.03125 125.765625 315.34375 126.203125 315.808594 126.355469 C 315.964844 126.449219 316.085938 126.449219 316.210938 126.449219 C 316.582031 126.449219 316.925781 126.292969 317.171875 126.015625 L 327.964844 112.164062 L 361.492188 112.164062 C 362.144531 112.164062 362.640625 111.636719 362.640625 110.953125 L 362.640625 79 C 362.609375 78.316406 362.082031 77.789062 361.460938 77.789062 Z M 321.234375 98.410156 C 318.382812 98.410156 316.054688 96.171875 316.054688 93.378906 C 316.054688 90.644531 318.382812 88.410156 321.234375 88.410156 C 324.058594 88.410156 326.351562 90.644531 326.351562 93.378906 C 326.351562 96.140625 324.027344 98.410156 321.234375 98.410156 Z M 335.625 98.410156 C 332.773438 98.410156 330.445312 96.171875 330.445312 93.378906 C 330.445312 90.644531 332.773438 88.410156 335.625 88.410156 C 338.449219 88.410156 340.773438 90.644531 340.773438 93.378906 C 340.773438 96.140625 338.449219 98.410156 335.625 98.410156 Z M 349.273438 98.410156 C 346.421875 98.410156 344.125 96.171875 344.125 93.378906 C 344.125 90.644531 346.421875 88.410156 349.273438 88.410156 C 352.125 88.410156 354.390625 90.644531 354.390625 93.378906 C 354.390625 96.140625 352.125 98.410156 349.273438 98.410156 Z M 349.273438 98.410156 " fill-opacity="0.1" fill-rule="nonzero"/><path fill="#6644a8" d="M 357.460938 73.785156 L 305.046875 73.785156 C 304.363281 73.785156 303.835938 74.3125 303.835938 74.996094 L 303.835938 106.917969 C 303.835938 107.601562 304.363281 108.128906 305.046875 108.128906 L 311.03125 108.128906 L 311.03125 121.234375 C 311.03125 121.761719 311.339844 122.195312 311.808594 122.351562 C 311.960938 122.445312 312.085938 122.445312 312.210938 122.445312 C 312.582031 122.445312 312.921875 122.289062 313.171875 122.007812 L 323.964844 108.160156 L 357.492188 108.160156 C 358.144531 108.160156 358.640625 107.632812 358.640625 106.949219 L 358.640625 74.996094 C 358.609375 74.3125 358.082031 73.785156 357.460938 73.785156 Z M 317.234375 94.371094 C 314.382812 94.371094 312.054688 92.136719 312.054688 89.34375 C 312.054688 86.609375 314.382812 84.375 317.234375 84.375 C 320.058594 84.375 322.351562 86.609375 322.351562 89.34375 C 322.351562 92.136719 320.027344 94.371094 317.234375 94.371094 Z M 331.625 94.371094 C 328.773438 94.371094 326.445312 92.136719 326.445312 89.34375 C 326.445312 86.609375 328.773438 84.375 331.625 84.375 C 334.449219 84.375 336.773438 86.609375 336.773438 89.34375 C 336.742188 92.136719 334.417969 94.371094 331.625 94.371094 Z M 345.242188 94.371094 C 342.386719 94.371094 340.09375 92.136719 340.09375 89.34375 C 340.09375 86.609375 342.386719 84.375 345.242188 84.375 C 348.09375 84.375 350.359375 86.609375 350.359375 89.34375 C 350.390625 92.136719 348.09375 94.371094 345.242188 94.371094 Z M 345.242188 94.371094 " fill-opacity="1" fill-rule="nonzero"/><path fill="#000000" d="M 65.636719 144.367188 C 65.980469 143.996094 65.980469 143.40625 65.636719 143.0625 C 65.265625 142.691406 64.675781 142.691406 64.335938 143.0625 C 61.234375 146.199219 56.117188 146.199219 53.015625 143.0625 C 52.644531 142.691406 52.054688 142.691406 51.710938 143.0625 C 51.371094 143.4375 51.371094 144.027344 51.710938 144.367188 C 53.636719 146.292969 56.148438 147.253906 58.691406 147.253906 C 61.234375 147.253906 63.714844 146.292969 65.636719 144.367188 Z M 65.636719 144.367188 " fill-opacity="0.1" fill-rule="nonzero"/><path fill="#000000" d="M 79.285156 156.726562 C 67.902344 168.121094 49.386719 168.121094 38.035156 156.726562 C 37.664062 156.355469 37.074219 156.355469 36.730469 156.726562 C 36.359375 157.097656 36.359375 157.6875 36.730469 158.03125 C 42.78125 164.085938 50.71875 167.097656 58.660156 167.097656 C 66.601562 167.097656 74.539062 164.085938 80.585938 158.03125 C 80.929688 157.65625 80.929688 157.066406 80.585938 156.726562 C 80.214844 156.386719 79.65625 156.386719 79.285156 156.726562 Z M 79.285156 156.726562 " fill-opacity="0.1" fill-rule="nonzero"/><path fill="#000000" d="M 43.554688 149.894531 C 43.214844 150.265625 43.214844 150.859375 43.554688 151.199219 C 47.710938 155.359375 53.203125 157.441406 58.660156 157.441406 C 64.117188 157.441406 69.609375 155.359375 73.765625 151.199219 C 74.136719 150.828125 74.136719 150.265625 73.765625 149.894531 C 73.390625 149.523438 72.832031 149.523438 72.460938 149.894531 C 64.832031 157.535156 52.457031 157.535156 44.859375 149.894531 C 44.484375 149.554688 43.898438 149.554688 43.554688 149.894531 Z M 43.554688 149.894531 " fill-opacity="0.1" fill-rule="nonzero"/><path fill="#6644a8" d="M 64.179688 142.132812 C 64.523438 141.757812 64.523438 141.167969 64.179688 140.828125 C 63.808594 140.453125 63.21875 140.453125 62.878906 140.828125 C 59.777344 143.964844 54.660156 143.964844 51.558594 140.828125 C 51.183594 140.453125 50.597656 140.453125 50.253906 140.828125 C 49.914062 141.199219 49.914062 141.789062 50.253906 142.132812 C 52.179688 144.058594 54.691406 145.019531 57.234375 145.019531 C 59.746094 145.019531 62.257812 144.058594 64.179688 142.132812 Z M 64.179688 142.132812 " fill-opacity="1" fill-rule="nonzero"/><path fill="#6644a8" d="M 77.859375 154.492188 C 66.476562 165.886719 47.960938 165.886719 36.609375 154.492188 C 36.234375 154.117188 35.648438 154.117188 35.304688 154.492188 C 34.933594 154.863281 34.933594 155.453125 35.304688 155.792969 C 41.351562 161.851562 49.292969 164.863281 57.234375 164.863281 C 65.171875 164.863281 73.113281 161.851562 79.160156 155.792969 C 79.503906 155.421875 79.503906 154.832031 79.160156 154.492188 C 78.789062 154.148438 78.199219 154.148438 77.859375 154.492188 Z M 77.859375 154.492188 " fill-opacity="1" fill-rule="nonzero"/><path fill="#6644a8" d="M 42.128906 147.691406 C 41.789062 148.0625 41.789062 148.652344 42.128906 148.996094 C 46.285156 153.15625 51.773438 155.234375 57.234375 155.234375 C 62.691406 155.234375 68.183594 153.15625 72.335938 148.996094 C 72.710938 148.621094 72.710938 148.0625 72.335938 147.691406 C 71.964844 147.316406 71.40625 147.316406 71.035156 147.691406 C 63.40625 155.328125 51.03125 155.328125 43.429688 147.691406 C 43.058594 147.316406 42.46875 147.316406 42.128906 147.691406 Z M 42.128906 147.691406 " fill-opacity="1" fill-rule="nonzero"/><path fill="#6644a8" d="M 44.640625 204.980469 C 44.640625 205.351562 44.570312 205.710938 44.429688 206.050781 C 44.285156 206.394531 44.085938 206.695312 43.824219 206.957031 C 43.5625 207.21875 43.261719 207.421875 42.917969 207.5625 C 42.574219 207.707031 42.21875 207.777344 41.851562 207.777344 C 41.480469 207.777344 41.125 207.707031 40.78125 207.5625 C 40.441406 207.421875 40.136719 207.21875 39.875 206.957031 C 39.613281 206.695312 39.414062 206.394531 39.269531 206.050781 C 39.128906 205.710938 39.058594 205.351562 39.058594 204.980469 C 39.058594 204.613281 39.128906 204.253906 39.269531 203.914062 C 39.414062 203.570312 39.613281 203.269531 39.875 203.007812 C 40.136719 202.742188 40.441406 202.542969 40.78125 202.398438 C 41.125 202.257812 41.480469 202.1875 41.851562 202.1875 C 42.21875 202.1875 42.574219 202.257812 42.917969 202.398438 C 43.261719 202.542969 43.5625 202.742188 43.824219 203.007812 C 44.085938 203.269531 44.285156 203.570312 44.429688 203.914062 C 44.570312 204.253906 44.640625 204.613281 44.640625 204.980469 Z M 44.640625 204.980469 " fill-opacity="1" fill-rule="nonzero"/><path fill="#6644a8" d="M 44.640625 215.539062 C 44.640625 215.910156 44.570312 216.265625 44.429688 216.609375 C 44.285156 216.953125 44.085938 217.253906 43.824219 217.515625 C 43.5625 217.777344 43.261719 217.980469 42.917969 218.121094 C 42.574219 218.265625 42.21875 218.335938 41.851562 218.335938 C 41.480469 218.335938 41.125 218.265625 40.78125 218.121094 C 40.441406 217.980469 40.136719 217.777344 39.875 217.515625 C 39.613281 217.253906 39.414062 216.953125 39.269531 216.609375 C 39.128906 216.265625 39.058594 215.910156 39.058594 215.539062 C 39.058594 215.167969 39.128906 214.8125 39.269531 214.46875 C 39.414062 214.128906 39.613281 213.824219 39.875 213.5625 C 40.136719 213.300781 40.441406 213.101562 40.78125 212.957031 C 41.125 212.816406 41.480469 212.746094 41.851562 212.746094 C 42.21875 212.746094 42.574219 212.816406 42.917969 212.957031 C 43.261719 213.101562 43.5625 213.300781 43.824219 213.5625 C 44.085938 213.824219 44.285156 214.128906 44.429688 214.46875 C 44.570312 214.8125 44.640625 215.167969 44.640625 215.539062 Z M 44.640625 215.539062 " fill-opacity="1" fill-rule="nonzero"/><path fill="#6644a8" d="M 44.640625 226.097656 C 44.640625 226.46875 44.570312 226.824219 44.429688 227.167969 C 44.285156 227.511719 44.085938 227.8125 43.824219 228.074219 C 43.5625 228.335938 43.261719 228.539062 42.917969 228.679688 C 42.574219 228.820312 42.21875 228.894531 41.851562 228.894531 C 41.480469 228.894531 41.125 228.820312 40.78125 228.679688 C 40.441406 228.539062 40.136719 228.335938 39.875 228.074219 C 39.613281 227.8125 39.414062 227.511719 39.269531 227.167969 C 39.128906 226.824219 39.058594 226.46875 39.058594 226.097656 C 39.058594 225.726562 39.128906 225.371094 39.269531 225.027344 C 39.414062 224.6875 39.613281 224.382812 39.875 224.121094 C 40.136719 223.859375 40.441406 223.65625 40.78125 223.515625 C 41.125 223.375 41.480469 223.304688 41.851562 223.304688 C 42.21875 223.304688 42.574219 223.375 42.917969 223.515625 C 43.261719 223.65625 43.5625 223.859375 43.824219 224.121094 C 44.085938 224.382812 44.285156 224.6875 44.429688 225.027344 C 44.570312 225.371094 44.640625 225.726562 44.640625 226.097656 Z M 44.640625 226.097656 " fill-opacity="1" fill-rule="nonzero"/><path fill="#6644a8" d="M 392.664062 116.605469 C 392.664062 116.976562 392.59375 117.332031 392.453125 117.675781 C 392.308594 118.019531 392.109375 118.320312 391.847656 118.582031 C 391.585938 118.84375 391.28125 119.046875 390.941406 119.1875 C 390.597656 119.332031 390.242188 119.402344 389.871094 119.402344 C 389.503906 119.402344 389.144531 119.332031 388.804688 119.1875 C 388.460938 119.046875 388.160156 118.84375 387.898438 118.582031 C 387.636719 118.320312 387.433594 118.019531 387.292969 117.675781 C 387.152344 117.332031 387.082031 116.976562 387.082031 116.605469 C 387.082031 116.234375 387.152344 115.878906 387.292969 115.535156 C 387.433594 115.195312 387.636719 114.890625 387.898438 114.628906 C 388.160156 114.367188 388.460938 114.167969 388.804688 114.023438 C 389.144531 113.882812 389.503906 113.8125 389.871094 113.8125 C 390.242188 113.8125 390.597656 113.882812 390.941406 114.023438 C 391.28125 114.167969 391.585938 114.367188 391.847656 114.628906 C 392.109375 114.890625 392.308594 115.195312 392.453125 115.535156 C 392.59375 115.878906 392.664062 116.234375 392.664062 116.605469 Z M 392.664062 116.605469 " fill-opacity="1" fill-rule="nonzero"/><path fill="#6644a8" d="M 392.664062 127.164062 C 392.664062 127.535156 392.59375 127.890625 392.453125 128.234375 C 392.308594 128.574219 392.109375 128.878906 391.847656 129.140625 C 391.585938 129.402344 391.28125 129.605469 390.941406 129.746094 C 390.597656 129.886719 390.242188 129.957031 389.871094 129.957031 C 389.503906 129.957031 389.144531 129.886719 388.804688 129.746094 C 388.460938 129.605469 388.160156 129.402344 387.898438 129.140625 C 387.636719 128.878906 387.433594 128.574219 387.292969 128.234375 C 387.152344 127.890625 387.082031 127.535156 387.082031 127.164062 C 387.082031 126.792969 387.152344 126.4375 387.292969 126.09375 C 387.433594 125.753906 387.636719 125.449219 387.898438 125.1875 C 388.160156 124.925781 388.460938 124.722656 388.804688 124.582031 C 389.144531 124.441406 389.503906 124.371094 389.871094 124.371094 C 390.242188 124.371094 390.597656 124.441406 390.941406 124.582031 C 391.28125 124.722656 391.585938 124.925781 391.847656 125.1875 C 392.109375 125.449219 392.308594 125.753906 392.453125 126.09375 C 392.59375 126.4375 392.664062 126.792969 392.664062 127.164062 Z M 392.664062 127.164062 " fill-opacity="1" fill-rule="nonzero"/><path fill="#6644a8" d="M 392.664062 137.722656 C 392.664062 138.09375 392.59375 138.449219 392.453125 138.792969 C 392.308594 139.132812 392.109375 139.4375 391.847656 139.699219 C 391.585938 139.960938 391.28125 140.164062 390.941406 140.304688 C 390.597656 140.445312 390.242188 140.515625 389.871094 140.515625 C 389.503906 140.515625 389.144531 140.445312 388.804688 140.304688 C 388.460938 140.164062 388.160156 139.960938 387.898438 139.699219 C 387.636719 139.4375 387.433594 139.132812 387.292969 138.792969 C 387.152344 138.449219 387.082031 138.09375 387.082031 137.722656 C 387.082031 137.351562 387.152344 136.996094 387.292969 136.652344 C 387.433594 136.308594 387.636719 136.007812 387.898438 135.746094 C 388.160156 135.484375 388.460938 135.28125 388.804688 135.140625 C 389.144531 135 389.503906 134.925781 389.871094 134.925781 C 390.242188 134.925781 390.597656 135 390.941406 135.140625 C 391.28125 135.28125 391.585938 135.484375 391.847656 135.746094 C 392.109375 136.007812 392.308594 136.308594 392.453125 136.652344 C 392.59375 136.996094 392.664062 137.351562 392.664062 137.722656 Z M 392.664062 137.722656 " fill-opacity="1" fill-rule="nonzero"/><path fill="#6644a8" d="M 249.496094 26.117188 L 258.273438 37.421875 L 251.730469 37.421875 L 242.984375 26.117188 L 251.730469 14.847656 L 258.273438 14.847656 Z M 249.496094 26.117188 " fill-opacity="1" fill-rule="nonzero"/><path fill="#6644a8" d="M 285.289062 26.117188 L 276.511719 37.421875 L 283.054688 37.421875 L 291.832031 26.117188 L 283.054688 14.847656 L 276.511719 14.847656 Z M 285.289062 26.117188 " fill-opacity="1" fill-rule="nonzero"/><g clip-path="url(#dc4de44d84)"><path fill="#6644a8" d="M 264.664062 43.074219 L 277.566406 7.332031 L 273.132812 7.332031 L 260.226562 43.074219 Z M 264.664062 43.074219 " fill-opacity="1" fill-rule="nonzero"/></g><path fill="#6644a8" d="M 60.675781 99.652344 C 59.839844 99.652344 59.125 98.96875 59.125 98.097656 L 59.125 64.375 C 59.125 63.539062 59.808594 62.824219 60.675781 62.824219 C 61.542969 62.824219 62.226562 63.507812 62.226562 64.375 L 62.226562 98.097656 C 62.226562 98.9375 61.511719 99.652344 60.675781 99.652344 Z M 60.675781 99.652344 " fill-opacity="1" fill-rule="nonzero"/><path fill="#6644a8" d="M 422.097656 247.246094 C 421.382812 247.246094 420.824219 246.65625 420.824219 245.941406 L 420.824219 217.839844 C 420.824219 217.125 421.414062 216.566406 422.097656 216.566406 C 422.8125 216.566406 423.398438 217.15625 423.398438 217.839844 L 423.398438 245.941406 C 423.398438 246.6875 422.8125 247.246094 422.097656 247.246094 Z M 422.097656 247.246094 " fill-opacity="1" fill-rule="nonzero"/><path fill="#6644a8" d="M 422.097656 214.640625 C 421.382812 214.640625 420.824219 214.050781 420.824219 213.335938 L 420.824219 203.117188 C 420.824219 202.40625 421.414062 201.847656 422.097656 201.847656 C 422.8125 201.847656 423.398438 202.4375 423.398438 203.117188 L 423.398438 213.335938 C 423.398438 214.082031 422.8125 214.640625 422.097656 214.640625 Z M 422.097656 214.640625 " fill-opacity="1" fill-rule="nonzero"/><path fill="#6644a8" d="M 214.265625 79.996094 C 214.265625 80.367188 214.191406 80.722656 214.050781 81.066406 C 213.910156 81.40625 213.707031 81.710938 213.445312 81.972656 C 213.183594 82.234375 212.882812 82.433594 212.539062 82.578125 C 212.199219 82.71875 211.84375 82.789062 211.472656 82.789062 C 211.101562 82.789062 210.746094 82.71875 210.402344 82.578125 C 210.0625 82.433594 209.761719 82.234375 209.5 81.972656 C 209.238281 81.710938 209.035156 81.40625 208.894531 81.066406 C 208.75 80.722656 208.679688 80.367188 208.679688 79.996094 C 208.679688 79.625 208.75 79.269531 208.894531 78.925781 C 209.035156 78.582031 209.238281 78.28125 209.5 78.019531 C 209.761719 77.757812 210.0625 77.554688 210.402344 77.414062 C 210.746094 77.269531 211.101562 77.199219 211.472656 77.199219 C 211.84375 77.199219 212.199219 77.269531 212.539062 77.414062 C 212.882812 77.554688 213.183594 77.757812 213.445312 78.019531 C 213.707031 78.28125 213.910156 78.582031 214.050781 78.925781 C 214.191406 79.269531 214.265625 79.625 214.265625 79.996094 Z M 214.265625 79.996094 " fill-opacity="1" fill-rule="nonzero"/><path fill="#6644a8" d="M 203.71875 79.996094 C 203.71875 80.367188 203.648438 80.722656 203.507812 81.066406 C 203.363281 81.40625 203.164062 81.710938 202.902344 81.972656 C 202.640625 82.234375 202.335938 82.433594 201.996094 82.578125 C 201.652344 82.71875 201.296875 82.789062 200.925781 82.789062 C 200.558594 82.789062 200.199219 82.71875 199.859375 82.578125 C 199.515625 82.433594 199.214844 82.234375 198.953125 81.972656 C 198.691406 81.710938 198.488281 81.40625 198.347656 81.066406 C 198.207031 80.722656 198.136719 80.367188 198.136719 79.996094 C 198.136719 79.625 198.207031 79.269531 198.347656 78.925781 C 198.488281 78.582031 198.691406 78.28125 198.953125 78.019531 C 199.214844 77.757812 199.515625 77.554688 199.859375 77.414062 C 200.199219 77.269531 200.558594 77.199219 200.925781 77.199219 C 201.296875 77.199219 201.652344 77.269531 201.996094 77.414062 C 202.335938 77.554688 202.640625 77.757812 202.902344 78.019531 C 203.164062 78.28125 203.363281 78.582031 203.507812 78.925781 C 203.648438 79.269531 203.71875 79.625 203.71875 79.996094 Z M 203.71875 79.996094 " fill-opacity="1" fill-rule="nonzero"/><path fill="#6644a8" d="M 193.171875 79.996094 C 193.171875 80.367188 193.101562 80.722656 192.960938 81.066406 C 192.820312 81.40625 192.617188 81.710938 192.355469 81.972656 C 192.09375 82.234375 191.792969 82.433594 191.449219 82.578125 C 191.109375 82.71875 190.753906 82.789062 190.382812 82.789062 C 190.011719 82.789062 189.65625 82.71875 189.3125 82.578125 C 188.972656 82.433594 188.671875 82.234375 188.40625 81.972656 C 188.144531 81.710938 187.945312 81.40625 187.804688 81.066406 C 187.660156 80.722656 187.589844 80.367188 187.589844 79.996094 C 187.589844 79.625 187.660156 79.269531 187.804688 78.925781 C 187.945312 78.582031 188.144531 78.28125 188.40625 78.019531 C 188.667969 77.757812 188.972656 77.554688 189.3125 77.414062 C 189.65625 77.269531 190.011719 77.199219 190.382812 77.199219 C 190.753906 77.199219 191.109375 77.269531 191.449219 77.414062 C 191.792969 77.554688 192.09375 77.757812 192.355469 78.019531 C 192.617188 78.28125 192.820312 78.582031 192.960938 78.925781 C 193.101562 79.269531 193.171875 79.625 193.171875 79.996094 Z M 193.171875 79.996094 " fill-opacity="1" fill-rule="nonzero"/><path fill="#000000" d="M 399.984375 305.21875 C 400.292969 304.910156 400.292969 304.414062 399.984375 304.132812 C 399.671875 303.824219 399.175781 303.824219 398.898438 304.132812 C 396.261719 306.773438 391.980469 306.773438 389.375 304.132812 C 389.066406 303.824219 388.570312 303.824219 388.289062 304.132812 C 387.980469 304.445312 387.980469 304.941406 388.289062 305.21875 C 389.902344 306.835938 392.042969 307.640625 394.152344 307.640625 C 396.230469 307.640625 398.371094 306.835938 399.984375 305.21875 Z M 399.984375 305.21875 " fill-opacity="0.1" fill-rule="nonzero"/><path fill="#000000" d="M 411.488281 315.621094 C 401.90625 325.21875 386.335938 325.21875 376.785156 315.621094 C 376.472656 315.3125 375.976562 315.3125 375.699219 315.621094 C 375.386719 315.933594 375.386719 316.429688 375.699219 316.710938 C 380.785156 321.800781 387.484375 324.347656 394.152344 324.347656 C 400.820312 324.347656 407.519531 321.800781 412.605469 316.710938 C 412.917969 316.398438 412.917969 315.902344 412.605469 315.621094 C 412.265625 315.3125 411.769531 315.3125 411.488281 315.621094 Z M 411.488281 315.621094 " fill-opacity="0.1" fill-rule="nonzero"/><path fill="#000000" d="M 381.40625 309.878906 C 381.09375 310.1875 381.09375 310.6875 381.40625 310.964844 C 384.910156 314.472656 389.53125 316.214844 394.121094 316.214844 C 398.710938 316.214844 403.332031 314.472656 406.839844 310.964844 C 407.148438 310.65625 407.148438 310.15625 406.839844 309.878906 C 406.527344 309.566406 406.03125 309.566406 405.753906 309.878906 C 399.332031 316.304688 388.910156 316.304688 382.523438 309.878906 C 382.210938 309.566406 381.714844 309.566406 381.40625 309.878906 Z M 381.40625 309.878906 " fill-opacity="0.1" fill-rule="nonzero"/><path fill="#6644a8" d="M 398.773438 303.324219 C 399.085938 303.015625 399.085938 302.519531 398.773438 302.238281 C 398.464844 301.929688 397.96875 301.929688 397.6875 302.238281 C 395.050781 304.878906 390.773438 304.878906 388.167969 302.238281 C 387.855469 301.929688 387.359375 301.929688 387.082031 302.238281 C 386.769531 302.550781 386.769531 303.046875 387.082031 303.324219 C 388.695312 304.941406 390.835938 305.75 392.941406 305.75 C 395.019531 305.75 397.160156 304.941406 398.773438 303.324219 Z M 398.773438 303.324219 " fill-opacity="1" fill-rule="nonzero"/><path fill="#6644a8" d="M 410.28125 313.730469 C 400.695312 323.324219 385.128906 323.324219 375.574219 313.730469 C 375.265625 313.417969 374.769531 313.417969 374.488281 313.730469 C 374.210938 314.039062 374.179688 314.535156 374.488281 314.816406 C 379.574219 319.910156 386.273438 322.453125 392.941406 322.453125 C 399.613281 322.453125 406.3125 319.910156 411.398438 314.816406 C 411.707031 314.503906 411.707031 314.007812 411.398438 313.730469 C 411.054688 313.449219 410.558594 313.449219 410.28125 313.730469 Z M 410.28125 313.730469 " fill-opacity="1" fill-rule="nonzero"/><path fill="#6644a8" d="M 380.195312 307.984375 C 379.886719 308.292969 379.886719 308.792969 380.195312 309.070312 C 383.699219 312.578125 388.320312 314.320312 392.910156 314.320312 C 397.503906 314.320312 402.125 312.578125 405.628906 309.070312 C 405.9375 308.761719 405.9375 308.261719 405.628906 307.984375 C 405.316406 307.703125 404.820312 307.671875 404.542969 307.984375 C 398.121094 314.410156 387.703125 314.410156 381.3125 307.984375 C 381.003906 307.703125 380.507812 307.703125 380.195312 307.984375 Z M 380.195312 307.984375 " fill-opacity="1" fill-rule="nonzero"/><g clip-path="url(#3ab007f547)"><path fill="#6644a8" d="M 28.636719 101.109375 C 26.03125 101.109375 23.921875 99 23.921875 96.390625 C 23.921875 93.78125 26.03125 91.640625 28.636719 91.640625 C 31.242188 91.640625 33.382812 93.78125 33.382812 96.390625 C 33.382812 99 31.273438 101.109375 28.636719 101.109375 Z M 28.636719 101.109375 " fill-opacity="1" fill-rule="nonzero"/></g><path fill="#6644a8" d="M 55.433594 40.960938 C 51.710938 40.960938 48.671875 37.917969 48.671875 34.191406 C 48.671875 30.433594 51.710938 27.390625 55.433594 27.390625 C 59.1875 27.390625 62.226562 30.433594 62.226562 34.191406 C 62.226562 37.917969 59.15625 40.960938 55.433594 40.960938 Z M 55.433594 40.960938 " fill-opacity="1" fill-rule="nonzero"/><path fill="#6644a8" d="M 125.09375 149.554688 C 120.164062 149.554688 116.164062 145.546875 116.164062 140.609375 C 116.164062 135.671875 120.164062 131.636719 125.09375 131.636719 C 130.027344 131.636719 134.058594 135.671875 134.058594 140.609375 C 134.089844 145.546875 130.058594 149.554688 125.09375 149.554688 Z M 125.09375 134.742188 C 121.871094 134.742188 119.265625 137.378906 119.265625 140.609375 C 119.265625 143.839844 121.871094 146.449219 125.09375 146.449219 C 128.320312 146.449219 130.957031 143.839844 130.957031 140.609375 C 130.988281 137.378906 128.351562 134.742188 125.09375 134.742188 Z M 125.09375 134.742188 " fill-opacity="1" fill-rule="nonzero"/><path fill="#000000" d="M 397.007812 212.558594 C 396.136719 216.378906 394.121094 219.359375 390.710938 221.472656 C 387.234375 223.613281 383.609375 224.203125 379.667969 223.179688 C 379.140625 223.054688 378.582031 222.683594 378.085938 223.179688 C 377.496094 223.738281 377.3125 223.304688 377.125 222.804688 C 376.566406 221.347656 376.007812 219.917969 375.417969 218.488281 C 375.078125 217.714844 375.355469 217.464844 376.164062 217.558594 C 377.683594 217.746094 379.234375 217.898438 380.785156 218.085938 C 381.09375 218.117188 381.53125 218.117188 381.5 218.550781 C 381.46875 219.359375 382.058594 219.171875 382.460938 219.203125 C 384.816406 219.359375 386.863281 218.488281 388.816406 217.277344 C 399.488281 207.1875 384.601562 191.722656 372.722656 205.695312 C 369.371094 209.671875 369.402344 210.324219 373.09375 214.050781 C 375.234375 216.222656 375.203125 216.191406 373 218.273438 C 372.410156 218.832031 371.945312 218.863281 371.324219 218.367188 C 369.742188 217.21875 368.191406 215.976562 366.765625 214.609375 C 366.363281 214.234375 366.054688 214.082031 365.710938 214.113281 C 365.402344 214.082031 365.058594 214.234375 364.65625 214.609375 C 363.230469 215.976562 361.679688 217.1875 360.097656 218.367188 C 359.445312 218.832031 359.011719 218.832031 358.421875 218.273438 C 356.222656 216.222656 356.191406 216.222656 358.328125 214.050781 C 361.988281 210.324219 362.050781 209.671875 358.703125 205.695312 C 346.824219 191.722656 331.9375 207.1875 342.605469 217.277344 C 344.558594 218.488281 346.605469 219.359375 348.964844 219.203125 C 349.367188 219.171875 349.957031 219.390625 349.925781 218.550781 C 349.894531 218.117188 350.328125 218.117188 350.636719 218.085938 C 352.1875 217.898438 353.707031 217.746094 355.257812 217.558594 C 356.066406 217.464844 356.3125 217.714844 356.003906 218.488281 C 355.414062 219.917969 354.855469 221.378906 354.296875 222.804688 C 354.113281 223.304688 353.925781 223.738281 353.335938 223.179688 C 352.808594 222.683594 352.28125 223.054688 351.753906 223.179688 C 347.816406 224.171875 344.1875 223.613281 340.714844 221.472656 C 337.300781 219.359375 335.285156 216.378906 334.417969 212.558594 C 331.90625 199.019531 346.730469 190.820312 357.304688 198.894531 C 359.789062 200.726562 362.238281 202.621094 364.472656 204.765625 C 364.9375 205.199219 365.339844 205.449219 365.742188 205.417969 C 366.144531 205.449219 366.550781 205.230469 367.015625 204.765625 C 369.246094 202.621094 371.699219 200.726562 374.179688 198.894531 C 384.660156 190.820312 399.488281 199.019531 397.007812 212.558594 Z M 397.007812 212.558594 " fill-opacity="0.1" fill-rule="nonzero"/><path fill="#6644a8" d="M 392.355469 209.546875 C 391.484375 213.367188 389.46875 216.347656 386.058594 218.460938 C 382.582031 220.601562 378.957031 221.191406 375.015625 220.167969 C 374.488281 220.042969 373.929688 219.671875 373.433594 220.167969 C 372.84375 220.726562 372.660156 220.292969 372.472656 219.792969 C 371.914062 218.335938 371.355469 216.90625 370.765625 215.476562 C 370.425781 214.703125 370.707031 214.453125 371.511719 214.546875 C 373.03125 214.734375 374.582031 214.886719 376.132812 215.074219 C 376.441406 215.105469 376.878906 215.105469 376.847656 215.539062 C 376.816406 216.347656 377.40625 216.160156 377.808594 216.191406 C 380.164062 216.347656 382.210938 215.476562 384.164062 214.265625 C 394.835938 204.175781 379.949219 188.710938 368.070312 202.683594 C 364.71875 206.660156 364.75 207.3125 368.441406 211.039062 C 370.582031 213.210938 370.550781 213.179688 368.347656 215.261719 C 367.757812 215.820312 367.292969 215.851562 366.671875 215.355469 C 365.089844 214.203125 363.539062 212.960938 362.113281 211.597656 C 361.710938 211.222656 361.402344 211.070312 361.058594 211.101562 C 360.75 211.070312 360.40625 211.222656 360.003906 211.597656 C 358.578125 212.960938 357.027344 214.175781 355.445312 215.355469 C 354.792969 215.820312 354.359375 215.820312 353.769531 215.261719 C 351.570312 213.210938 351.539062 213.210938 353.675781 211.039062 C 357.335938 207.3125 357.398438 206.660156 354.050781 202.683594 C 342.171875 188.710938 327.285156 204.175781 337.953125 214.265625 C 339.90625 215.476562 341.953125 216.347656 344.3125 216.191406 C 344.714844 216.160156 345.304688 216.378906 345.273438 215.539062 C 345.242188 215.105469 345.675781 215.105469 345.984375 215.074219 C 347.535156 214.886719 349.054688 214.734375 350.605469 214.546875 C 351.414062 214.453125 351.660156 214.703125 351.351562 215.476562 C 350.761719 216.90625 350.203125 218.367188 349.644531 219.792969 C 349.460938 220.292969 349.273438 220.726562 348.683594 220.167969 C 348.15625 219.671875 347.628906 220.042969 347.101562 220.167969 C 343.164062 221.160156 339.535156 220.601562 336.0625 218.460938 C 332.648438 216.347656 330.632812 213.367188 329.765625 209.546875 C 327.253906 196.007812 342.078125 187.808594 352.652344 195.882812 C 355.136719 197.714844 357.585938 199.609375 359.820312 201.753906 C 360.285156 202.1875 360.6875 202.4375 361.089844 202.40625 C 361.492188 202.4375 361.898438 202.21875 362.363281 201.753906 C 364.59375 199.609375 367.046875 197.714844 369.527344 195.882812 C 380.039062 187.839844 394.867188 196.007812 392.355469 209.546875 Z M 392.355469 209.546875 " fill-opacity="1" fill-rule="nonzero"/><path fill="#6644a8" d="M 136.324219 332.050781 C 136.324219 331.273438 136.941406 330.652344 137.71875 330.652344 L 224.683594 330.652344 C 225.460938 330.652344 226.082031 331.273438 226.082031 332.050781 C 226.082031 332.828125 225.460938 333.445312 224.683594 333.445312 L 137.71875 333.445312 C 136.941406 333.445312 136.324219 332.828125 136.324219 332.050781 Z M 136.324219 332.050781 " fill-opacity="1" fill-rule="nonzero"/><path fill="#6644a8" d="M 198.167969 346.179688 C 198.167969 345.402344 198.789062 344.78125 199.5625 344.78125 L 212.308594 344.78125 C 213.085938 344.78125 213.707031 345.402344 213.707031 346.179688 C 213.707031 346.957031 213.085938 347.578125 212.308594 347.578125 L 199.5625 347.578125 C 198.789062 347.605469 198.167969 346.957031 198.167969 346.179688 Z M 198.167969 346.179688 " fill-opacity="1" fill-rule="nonzero"/><path fill="#6644a8" d="M 161.507812 346.179688 C 161.507812 345.402344 162.128906 344.78125 162.902344 344.78125 L 190.691406 344.78125 C 191.46875 344.78125 192.085938 345.402344 192.085938 346.179688 C 192.085938 346.957031 191.46875 347.578125 190.691406 347.578125 L 162.902344 347.578125 C 162.128906 347.605469 161.507812 346.957031 161.507812 346.179688 Z M 161.507812 346.179688 " fill-opacity="1" fill-rule="nonzero"/><path fill="#6644a8" d="M 232.59375 332.050781 C 232.59375 329.441406 234.703125 327.328125 237.308594 327.328125 C 239.914062 327.328125 242.054688 329.441406 242.054688 332.050781 C 242.054688 334.660156 239.914062 336.800781 237.308594 336.800781 C 234.703125 336.800781 232.59375 334.660156 232.59375 332.050781 Z M 232.59375 332.050781 " fill-opacity="1" fill-rule="nonzero"/><path fill="#6644a8" d="M 145.6875 346.179688 C 145.6875 343.570312 147.796875 341.457031 150.402344 341.457031 C 153.007812 341.457031 155.148438 343.570312 155.148438 346.179688 C 155.148438 348.789062 153.007812 350.929688 150.402344 350.929688 C 147.796875 350.929688 145.6875 348.816406 145.6875 346.179688 Z M 145.6875 346.179688 " fill-opacity="1" fill-rule="nonzero"/><g mask="url(#b0a54b1aaf)"><g transform="matrix(1, 0, 0, 1, 117, 136)"><g clip-path="url(#bae92e9fe4)"><path fill="#000000" d="M 35.296875 65.503906 C 34.457031 64.511719 34.613281 63.050781 35.574219 62.210938 C 36.566406 61.40625 38.023438 61.53125 38.863281 62.523438 L 42.273438 66.558594 C 43.578125 26.347656 72.265625 7.683594 73.535156 6.875 C 74.621094 6.195312 76.050781 6.503906 76.730469 7.589844 C 77.445312 8.679688 77.105469 10.136719 76.019531 10.820312 C 75.738281 11.007812 48.320312 28.832031 46.925781 66.46875 L 50.304688 62.492188 C 51.113281 61.53125 52.601562 61.40625 53.5625 62.242188 C 54.554688 63.050781 54.679688 64.542969 53.84375 65.503906 L 46.304688 74.417969 C 45.871094 74.914062 45.21875 75.222656 44.539062 75.222656 C 43.855469 75.222656 43.203125 74.914062 42.738281 74.386719 Z M 35.296875 65.503906 " fill-opacity="1" fill-rule="nonzero"/><path fill="#000000" d="M 197.96875 127.578125 C 198.558594 128.042969 198.902344 128.789062 198.839844 129.535156 L 198.15625 142.824219 C 198.09375 144.066406 197.070312 145.03125 195.832031 145.03125 L 195.707031 145.03125 C 194.433594 144.96875 193.441406 143.882812 193.503906 142.609375 L 193.816406 136.675781 C 187.953125 143.167969 172.691406 157.480469 149.742188 161.085938 C 149.617188 161.085938 149.492188 161.117188 149.371094 161.117188 C 148.253906 161.117188 147.261719 160.277344 147.074219 159.128906 C 146.886719 157.855469 147.757812 156.675781 149.027344 156.457031 C 170.058594 153.195312 184.511719 139.84375 190.15625 133.757812 L 185.6875 135.09375 C 184.449219 135.433594 183.144531 134.75 182.773438 133.507812 C 182.402344 132.269531 183.113281 130.996094 184.355469 130.621094 L 195.863281 127.175781 C 196.574219 126.957031 197.382812 127.113281 197.96875 127.578125 Z M 197.96875 127.578125 " fill-opacity="1" fill-rule="nonzero"/><path fill="#000000" d="M 200.140625 72.894531 L 200.140625 72.925781 C 200.109375 88.917969 194.929688 104.039062 185.128906 116.679688 C 185.066406 116.773438 184.976562 116.867188 184.882812 116.957031 C 171.792969 133.632812 152.253906 143.445312 131.257812 144.066406 L 131.257812 146.398438 L 134.265625 146.398438 C 137.957031 146.398438 140.933594 149.378906 140.933594 153.074219 L 140.933594 182.417969 C 140.933594 186.113281 137.957031 189.09375 134.265625 189.09375 L 9.863281 189.09375 C 6.171875 189.09375 3.195312 186.113281 3.195312 182.417969 L 3.195312 153.074219 C 3.195312 149.378906 6.171875 146.398438 9.863281 146.398438 L 12.902344 146.398438 L 12.902344 135.25 L 9.863281 135.25 C 6.171875 135.25 3.195312 132.238281 3.195312 128.574219 L 3.195312 99.226562 C 3.195312 95.53125 6.171875 92.519531 9.863281 92.519531 L 60.605469 92.519531 C 58.773438 86.15625 57.78125 79.570312 57.78125 72.894531 C 57.78125 56.53125 63.332031 41.46875 72.605469 29.453125 C 72.605469 29.421875 72.605469 29.390625 72.605469 29.390625 C 72.699219 29.265625 72.792969 29.171875 72.886719 29.078125 C 85.941406 12.375 106.195312 1.628906 128.960938 1.628906 C 151.664062 1.628906 171.917969 12.34375 184.945312 28.988281 C 185.066406 29.109375 185.222656 29.203125 185.316406 29.390625 C 185.316406 29.390625 185.316406 29.421875 185.347656 29.453125 C 194.589844 41.5 200.140625 56.5625 200.140625 72.894531 Z M 200.140625 72.894531 " fill-opacity="1" fill-rule="nonzero"/></g></g></g><path fill="#58d9a2" d="M 272.417969 170.886719 C 280.296875 169.023438 287.367188 166.476562 293.289062 163.339844 C 300.984375 173.804688 305.664062 186.535156 306.132812 200.355469 L 276.078125 200.355469 C 275.921875 189.734375 274.621094 179.765625 272.417969 170.886719 Z M 272.417969 170.886719 " fill-opacity="1" fill-rule="nonzero"/><path fill="#58d9a2" d="M 251.730469 231.316406 L 251.730469 229.015625 C 251.730469 225.320312 248.753906 222.339844 245.0625 222.339844 L 242.085938 222.339844 L 242.085938 205.042969 L 271.394531 205.042969 C 271.238281 214.980469 269.96875 224.699219 267.765625 233.488281 C 262.617188 232.464844 257.25 231.75 251.730469 231.316406 Z M 251.730469 231.316406 " fill-opacity="1" fill-rule="nonzero"/><path fill="#ffffff" d="M 133.902344 294.164062 C 136.011719 294.164062 137.75 295.875 137.75 298.015625 C 137.75 300.160156 136.042969 301.867188 133.902344 301.867188 C 131.761719 301.867188 130.058594 300.160156 130.058594 298.015625 C 130.058594 295.875 131.792969 294.164062 133.902344 294.164062 Z M 133.902344 294.164062 " fill-opacity="1" fill-rule="nonzero"/><path fill="#ffffff" d="M 157.289062 294.164062 C 159.398438 294.164062 161.132812 295.875 161.132812 298.015625 C 161.132812 300.160156 159.429688 301.867188 157.289062 301.867188 C 155.148438 301.867188 153.441406 300.160156 153.441406 298.015625 C 153.441406 295.875 155.179688 294.164062 157.289062 294.164062 Z M 157.289062 294.164062 " fill-opacity="1" fill-rule="nonzero"/><path fill="#ffffff" d="M 251.730469 258.363281 L 251.730469 236.003906 C 256.816406 236.40625 261.777344 237.058594 266.554688 237.992188 C 261.160156 255.847656 251.976562 267.492188 242.085938 269.105469 L 242.085938 265.070312 L 245.0625 265.070312 C 248.722656 265.039062 251.730469 262.027344 251.730469 258.363281 Z M 251.730469 258.363281 " fill-opacity="1" fill-rule="nonzero"/><path fill="#ffffff" d="M 276.046875 205.011719 L 306.164062 205.011719 C 305.695312 218.460938 301.324219 231.160156 293.351562 242.027344 C 287.492188 238.890625 280.296875 236.3125 272.292969 234.421875 C 274.589844 225.320312 275.890625 215.261719 276.046875 205.011719 Z M 276.046875 205.011719 " fill-opacity="1" fill-rule="nonzero"/><path fill="#58d9a2" d="M 271.113281 238.953125 C 278.433594 240.660156 285.039062 242.992188 290.46875 245.753906 C 281.195312 256.714844 268.820312 264.261719 255.109375 267.492188 C 261.71875 261.527344 267.300781 251.714844 271.113281 238.953125 Z M 271.113281 238.953125 " fill-opacity="1" fill-rule="nonzero"/><path fill="#ffffff" d="M 255.234375 137.96875 C 269.160156 141.324219 281.410156 149.023438 290.40625 159.613281 C 284.917969 162.441406 278.433594 164.738281 271.207031 166.414062 C 267.515625 153.960938 261.964844 144.027344 255.234375 137.96875 Z M 255.234375 137.96875 " fill-opacity="1" fill-rule="nonzero"/><path fill="#58d9a2" d="M 204.773438 222.339844 L 176.238281 222.339844 C 174.503906 216.75 173.507812 210.945312 173.324219 205.042969 L 203.410156 205.042969 C 203.5 210.914062 203.964844 216.71875 204.773438 222.339844 Z M 204.773438 222.339844 " fill-opacity="1" fill-rule="nonzero"/><path fill="#58d9a2" d="M 208.277344 166.414062 C 201.050781 164.707031 194.570312 162.410156 189.078125 159.613281 C 198.074219 149.023438 210.324219 141.324219 224.25 137.96875 C 217.519531 144.027344 211.96875 153.960938 208.277344 166.414062 Z M 208.277344 166.414062 " fill-opacity="1" fill-rule="nonzero"/><path fill="#ffffff" d="M 203.410156 200.355469 L 173.355469 200.355469 C 173.820312 186.535156 178.535156 173.773438 186.195312 163.339844 C 192.117188 166.476562 199.191406 169.023438 207.066406 170.886719 C 204.867188 179.765625 203.5625 189.734375 203.410156 200.355469 Z M 203.410156 200.355469 " fill-opacity="1" fill-rule="nonzero"/><path fill="#58d9a2" d="M 242.085938 169.832031 L 242.085938 136.292969 C 252.226562 137.941406 261.191406 150.082031 266.492188 167.410156 C 258.863281 168.867188 250.644531 169.707031 242.085938 169.832031 Z M 242.085938 169.832031 " fill-opacity="1" fill-rule="nonzero"/><path fill="#ffffff" d="M 242.085938 174.488281 C 251.078125 174.363281 259.730469 173.464844 267.765625 171.910156 C 269.96875 180.511719 271.300781 190.199219 271.457031 200.386719 L 242.085938 200.386719 Z M 242.085938 174.488281 " fill-opacity="1" fill-rule="nonzero"/><path fill="#ffffff" d="M 237.433594 136.292969 L 237.433594 169.832031 C 228.871094 169.707031 220.621094 168.867188 213.023438 167.410156 C 218.296875 150.050781 227.289062 137.910156 237.433594 136.292969 Z M 237.433594 136.292969 " fill-opacity="1" fill-rule="nonzero"/><path fill="#58d9a2" d="M 211.75 171.878906 C 219.753906 173.433594 228.4375 174.332031 237.433594 174.457031 L 237.433594 200.324219 L 208.0625 200.324219 C 208.214844 190.199219 209.550781 180.511719 211.75 171.878906 Z M 211.75 171.878906 " fill-opacity="1" fill-rule="nonzero"/><path fill="#ffffff" d="M 208.0625 205.011719 L 237.402344 205.011719 L 237.402344 222.308594 L 209.488281 222.308594 C 208.648438 216.75 208.152344 210.945312 208.0625 205.011719 Z M 208.0625 205.011719 " fill-opacity="1" fill-rule="nonzero"/><path fill="#ffffff" d="M 133.902344 240.320312 C 136.011719 240.320312 137.75 242.027344 137.75 244.171875 C 137.75 246.3125 136.042969 248.019531 133.902344 248.019531 C 131.761719 248.019531 130.058594 246.3125 130.058594 244.171875 C 130.058594 242.027344 131.792969 240.320312 133.902344 240.320312 Z M 133.902344 240.320312 " fill-opacity="1" fill-rule="nonzero"/><path fill="#aa96f3" d="M 118.613281 229.015625 L 118.613281 258.363281 C 118.613281 259.480469 119.511719 260.378906 120.628906 260.378906 L 245.0625 260.378906 C 246.179688 260.378906 247.078125 259.480469 247.078125 258.363281 L 247.078125 229.015625 C 247.078125 227.898438 246.179688 227 245.0625 227 L 239.789062 227 C 239.789062 227 239.757812 227 239.757812 227 C 239.757812 227 239.726562 227 239.726562 227 L 120.660156 227 C 119.542969 227 118.613281 227.898438 118.613281 229.015625 Z M 235.664062 248.175781 C 235.664062 246.902344 236.71875 245.847656 237.992188 245.847656 C 239.261719 245.847656 240.316406 246.902344 240.316406 248.175781 L 240.316406 252.585938 C 240.316406 253.859375 239.261719 254.914062 237.992188 254.914062 C 236.71875 254.914062 235.664062 253.859375 235.664062 252.585938 Z M 235.664062 234.792969 C 235.664062 233.519531 236.71875 232.464844 237.992188 232.464844 C 239.261719 232.464844 240.316406 233.519531 240.316406 234.792969 L 240.316406 239.203125 C 240.316406 240.476562 239.261719 241.53125 237.992188 241.53125 C 236.71875 241.53125 235.664062 240.476562 235.664062 239.203125 Z M 225.707031 248.175781 C 225.707031 246.902344 226.761719 245.847656 228.035156 245.847656 C 229.304688 245.847656 230.359375 246.902344 230.359375 248.175781 L 230.359375 252.585938 C 230.359375 253.859375 229.304688 254.914062 228.035156 254.914062 C 226.761719 254.914062 225.707031 253.859375 225.707031 252.585938 Z M 225.707031 234.792969 C 225.707031 233.519531 226.761719 232.464844 228.035156 232.464844 C 229.304688 232.464844 230.359375 233.519531 230.359375 234.792969 L 230.359375 239.203125 C 230.359375 240.476562 229.304688 241.53125 228.035156 241.53125 C 226.761719 241.53125 225.707031 240.476562 225.707031 239.203125 Z M 215.722656 248.175781 C 215.722656 246.902344 216.777344 245.847656 218.046875 245.847656 C 219.320312 245.847656 220.375 246.902344 220.375 248.175781 L 220.375 252.585938 C 220.375 253.859375 219.320312 254.914062 218.046875 254.914062 C 216.777344 254.914062 215.722656 253.859375 215.722656 252.585938 Z M 215.722656 234.792969 C 215.722656 233.519531 216.777344 232.464844 218.046875 232.464844 C 219.320312 232.464844 220.375 233.519531 220.375 234.792969 L 220.375 239.203125 C 220.375 240.476562 219.320312 241.53125 218.046875 241.53125 C 216.777344 241.53125 215.722656 240.476562 215.722656 239.203125 Z M 205.765625 248.175781 C 205.765625 246.902344 206.820312 245.847656 208.089844 245.847656 C 209.363281 245.847656 210.417969 246.902344 210.417969 248.175781 L 210.417969 252.585938 C 210.417969 253.859375 209.363281 254.914062 208.089844 254.914062 C 206.820312 254.914062 205.765625 253.859375 205.765625 252.585938 Z M 205.765625 234.792969 C 205.765625 233.519531 206.820312 232.464844 208.089844 232.464844 C 209.363281 232.464844 210.417969 233.519531 210.417969 234.792969 L 210.417969 239.203125 C 210.417969 240.476562 209.363281 241.53125 208.089844 241.53125 C 206.820312 241.53125 205.765625 240.476562 205.765625 239.203125 Z M 172.515625 243.675781 C 172.515625 242.402344 173.570312 241.34375 174.84375 241.34375 L 195.035156 241.34375 C 196.304688 241.34375 197.359375 242.402344 197.359375 243.675781 C 197.359375 244.945312 196.304688 246.003906 195.035156 246.003906 L 174.84375 246.003906 C 173.570312 246.003906 172.515625 244.976562 172.515625 243.675781 Z M 148.789062 244.140625 C 148.789062 239.449219 152.605469 235.632812 157.289062 235.632812 C 161.972656 235.632812 165.785156 239.449219 165.785156 244.140625 C 165.785156 248.828125 161.972656 252.648438 157.289062 252.648438 C 152.605469 252.648438 148.789062 248.828125 148.789062 244.140625 Z M 125.40625 244.140625 C 125.40625 239.449219 129.21875 235.632812 133.902344 235.632812 C 138.585938 235.632812 142.402344 239.449219 142.402344 244.140625 C 142.402344 248.828125 138.585938 252.648438 133.902344 252.648438 C 129.21875 252.648438 125.40625 248.828125 125.40625 244.140625 Z M 125.40625 244.140625 " fill-opacity="1" fill-rule="nonzero"/><path fill="#ffffff" d="M 157.289062 240.320312 C 159.398438 240.320312 161.132812 242.027344 161.132812 244.171875 C 161.132812 246.3125 159.429688 248.019531 157.289062 248.019531 C 155.148438 248.019531 153.441406 246.3125 153.441406 244.171875 C 153.441406 242.027344 155.179688 240.320312 157.289062 240.320312 Z M 157.289062 240.320312 " fill-opacity="1" fill-rule="nonzero"/><path fill="#ffffff" d="M 128.320312 265.039062 L 237.371094 265.039062 L 237.371094 276.1875 L 128.320312 276.1875 Z M 128.320312 265.039062 " fill-opacity="1" fill-rule="nonzero"/><path fill="#aa96f3" d="M 125.996094 280.84375 L 120.628906 280.84375 C 119.511719 280.84375 118.613281 281.746094 118.613281 282.863281 L 118.613281 312.207031 C 118.613281 313.324219 119.511719 314.226562 120.628906 314.226562 L 245.03125 314.226562 C 246.148438 314.226562 247.046875 313.324219 247.046875 312.207031 L 247.046875 282.863281 C 247.046875 281.746094 246.148438 280.84375 245.03125 280.84375 Z M 235.664062 302.054688 C 235.664062 300.78125 236.71875 299.722656 237.992188 299.722656 C 239.261719 299.722656 240.316406 300.78125 240.316406 302.054688 L 240.316406 306.460938 C 240.316406 307.734375 239.261719 308.792969 237.992188 308.792969 C 236.71875 308.792969 235.664062 307.734375 235.664062 306.460938 Z M 235.664062 288.636719 C 235.664062 287.363281 236.71875 286.308594 237.992188 286.308594 C 239.261719 286.308594 240.316406 287.363281 240.316406 288.636719 L 240.316406 293.046875 C 240.316406 294.320312 239.261719 295.375 237.992188 295.375 C 236.71875 295.375 235.664062 294.320312 235.664062 293.046875 Z M 225.707031 302.054688 C 225.707031 300.78125 226.761719 299.722656 228.035156 299.722656 C 229.304688 299.722656 230.359375 300.78125 230.359375 302.054688 L 230.359375 306.460938 C 230.359375 307.734375 229.304688 308.792969 228.035156 308.792969 C 226.761719 308.792969 225.707031 307.734375 225.707031 306.460938 Z M 225.707031 288.636719 C 225.707031 287.363281 226.761719 286.308594 228.035156 286.308594 C 229.304688 286.308594 230.359375 287.363281 230.359375 288.636719 L 230.359375 293.046875 C 230.359375 294.320312 229.304688 295.375 228.035156 295.375 C 226.761719 295.375 225.707031 294.320312 225.707031 293.046875 Z M 215.722656 302.054688 C 215.722656 300.78125 216.777344 299.722656 218.046875 299.722656 C 219.320312 299.722656 220.375 300.78125 220.375 302.054688 L 220.375 306.460938 C 220.375 307.734375 219.320312 308.792969 218.046875 308.792969 C 216.777344 308.792969 215.722656 307.734375 215.722656 306.460938 Z M 215.722656 288.636719 C 215.722656 287.363281 216.777344 286.308594 218.046875 286.308594 C 219.320312 286.308594 220.375 287.363281 220.375 288.636719 L 220.375 293.046875 C 220.375 294.320312 219.320312 295.375 218.046875 295.375 C 216.777344 295.375 215.722656 294.320312 215.722656 293.046875 Z M 205.765625 302.054688 C 205.765625 300.78125 206.820312 299.722656 208.089844 299.722656 C 209.363281 299.722656 210.417969 300.78125 210.417969 302.054688 L 210.417969 306.460938 C 210.417969 307.734375 209.363281 308.792969 208.089844 308.792969 C 206.820312 308.792969 205.765625 307.734375 205.765625 306.460938 Z M 205.765625 288.636719 C 205.765625 287.363281 206.820312 286.308594 208.089844 286.308594 C 209.363281 286.308594 210.417969 287.363281 210.417969 288.636719 L 210.417969 293.046875 C 210.417969 294.320312 209.363281 295.375 208.089844 295.375 C 206.820312 295.375 205.765625 294.320312 205.765625 293.046875 Z M 172.515625 297.550781 C 172.515625 296.277344 173.570312 295.222656 174.84375 295.222656 L 195.035156 295.222656 C 196.304688 295.222656 197.359375 296.277344 197.359375 297.550781 C 197.359375 298.824219 196.304688 299.878906 195.035156 299.878906 L 174.84375 299.878906 C 173.570312 299.878906 172.515625 298.824219 172.515625 297.550781 Z M 148.789062 298.015625 C 148.789062 293.328125 152.605469 289.507812 157.289062 289.507812 C 161.972656 289.507812 165.785156 293.328125 165.785156 298.015625 C 165.785156 302.703125 161.972656 306.523438 157.289062 306.523438 C 152.605469 306.492188 148.789062 302.675781 148.789062 298.015625 Z M 125.40625 298.015625 C 125.40625 293.328125 129.21875 289.507812 133.902344 289.507812 C 138.585938 289.507812 142.402344 293.328125 142.402344 298.015625 C 142.402344 302.703125 138.585938 306.523438 133.902344 306.523438 C 129.21875 306.492188 125.40625 302.675781 125.40625 298.015625 Z M 125.40625 298.015625 " fill-opacity="1" fill-rule="nonzero"/><path fill="#6644a8" d="M 113.960938 229.015625 L 113.960938 258.363281 C 113.960938 262.058594 116.9375 265.039062 120.628906 265.039062 L 123.667969 265.039062 L 123.667969 276.1875 L 120.628906 276.1875 C 116.9375 276.1875 113.960938 279.167969 113.960938 282.863281 L 113.960938 312.207031 C 113.960938 315.902344 116.9375 318.882812 120.628906 318.882812 L 245.03125 318.882812 C 248.722656 318.882812 251.699219 315.902344 251.699219 312.207031 L 251.699219 282.863281 C 251.699219 279.167969 248.722656 276.1875 245.03125 276.1875 L 241.992188 276.1875 L 241.992188 273.855469 C 262.988281 273.234375 282.527344 263.390625 295.648438 246.71875 C 295.742188 246.625 295.804688 246.5625 295.894531 246.46875 C 305.695312 233.832031 310.90625 218.675781 310.90625 202.683594 C 310.90625 202.683594 310.90625 202.683594 310.90625 202.652344 C 310.90625 186.320312 305.386719 171.257812 296.113281 159.242188 C 296.113281 159.210938 296.113281 159.179688 296.082031 159.148438 C 295.988281 158.992188 295.863281 158.867188 295.742188 158.746094 C 282.714844 142.101562 262.460938 131.386719 239.757812 131.386719 C 216.992188 131.386719 196.738281 142.132812 183.683594 158.839844 C 183.589844 158.929688 183.496094 159.023438 183.402344 159.148438 C 183.402344 159.179688 183.402344 159.179688 183.371094 159.210938 C 174.097656 171.257812 168.546875 186.320312 168.546875 202.652344 C 168.546875 209.359375 169.539062 215.945312 171.371094 222.308594 L 120.660156 222.308594 C 116.96875 222.339844 113.960938 225.320312 113.960938 229.015625 Z M 207.066406 170.886719 C 204.867188 179.765625 203.5625 189.734375 203.410156 200.355469 L 173.355469 200.355469 C 173.820312 186.535156 178.535156 173.773438 186.195312 163.339844 C 192.117188 166.476562 199.191406 169.023438 207.066406 170.886719 Z M 203.410156 205.011719 C 203.5 210.914062 203.964844 216.71875 204.773438 222.308594 L 176.238281 222.308594 C 174.503906 216.71875 173.507812 210.914062 173.324219 205.011719 Z M 224.25 137.96875 C 217.519531 144.027344 211.96875 153.960938 208.277344 166.414062 C 201.050781 164.707031 194.570312 162.410156 189.078125 159.613281 C 198.105469 149.023438 210.324219 141.324219 224.25 137.96875 Z M 237.433594 169.832031 C 228.871094 169.707031 220.621094 168.867188 213.023438 167.410156 C 218.328125 150.082031 227.289062 137.910156 237.433594 136.292969 Z M 237.433594 200.355469 L 208.0625 200.355469 C 208.246094 190.171875 209.550781 180.511719 211.75 171.878906 C 219.753906 173.433594 228.4375 174.332031 237.433594 174.457031 Z M 237.433594 222.339844 L 209.488281 222.339844 C 208.648438 216.75 208.183594 210.945312 208.0625 205.042969 L 237.402344 205.042969 L 237.402344 222.339844 Z M 266.492188 167.410156 C 258.894531 168.867188 250.644531 169.707031 242.085938 169.832031 L 242.085938 136.292969 C 252.195312 137.910156 261.191406 150.050781 266.492188 167.410156 Z M 242.085938 200.355469 L 242.085938 174.488281 C 251.078125 174.363281 259.730469 173.464844 267.765625 171.910156 C 269.96875 180.511719 271.300781 190.199219 271.457031 200.386719 L 242.085938 200.386719 Z M 271.394531 205.011719 C 271.238281 214.949219 269.96875 224.667969 267.765625 233.457031 C 262.617188 232.433594 257.25 231.71875 251.730469 231.316406 L 251.730469 229.015625 C 251.730469 225.320312 248.753906 222.339844 245.0625 222.339844 L 242.085938 222.339844 L 242.085938 205.042969 L 271.394531 205.042969 Z M 290.375 159.613281 C 284.886719 162.441406 278.402344 164.738281 271.175781 166.414062 C 267.484375 153.960938 261.933594 144.027344 255.203125 137.96875 C 269.160156 141.324219 281.382812 149.023438 290.375 159.613281 Z M 306.164062 200.355469 L 276.109375 200.355469 C 275.953125 189.734375 274.652344 179.765625 272.449219 170.886719 C 280.328125 169.023438 287.398438 166.476562 293.320312 163.339844 C 300.984375 173.804688 305.664062 186.535156 306.164062 200.355469 Z M 272.292969 234.453125 C 274.589844 225.351562 275.859375 215.292969 276.046875 205.042969 L 306.164062 205.042969 C 305.695312 218.488281 301.324219 231.191406 293.351562 242.058594 C 287.492188 238.921875 280.296875 236.3125 272.292969 234.453125 Z M 255.078125 267.492188 C 261.71875 261.558594 267.300781 251.714844 271.113281 238.953125 C 278.433594 240.660156 285.039062 242.992188 290.46875 245.753906 C 281.164062 256.714844 268.789062 264.261719 255.078125 267.492188 Z M 242.085938 265.039062 L 245.0625 265.039062 C 248.753906 265.039062 251.730469 262.058594 251.730469 258.363281 L 251.730469 236.003906 C 256.816406 236.40625 261.777344 237.058594 266.554688 237.992188 C 261.160156 255.847656 251.976562 267.492188 242.085938 269.105469 Z M 125.996094 280.84375 L 245.0625 280.84375 C 246.179688 280.84375 247.078125 281.746094 247.078125 282.863281 L 247.078125 312.207031 C 247.078125 313.324219 246.179688 314.226562 245.0625 314.226562 L 120.660156 314.226562 C 119.542969 314.226562 118.644531 313.324219 118.644531 312.207031 L 118.644531 282.863281 C 118.644531 281.746094 119.542969 280.84375 120.660156 280.84375 Z M 128.320312 276.1875 L 128.320312 265.039062 L 237.371094 265.039062 L 237.371094 276.1875 Z M 118.613281 229.015625 C 118.613281 227.898438 119.511719 227 120.628906 227 L 239.695312 227 C 239.695312 227 239.726562 227 239.726562 227 C 239.726562 227 239.757812 227 239.757812 227 L 245.03125 227 C 246.148438 227 247.046875 227.898438 247.046875 229.015625 L 247.046875 258.363281 C 247.046875 259.480469 246.148438 260.378906 245.03125 260.378906 L 120.628906 260.378906 C 119.511719 260.378906 118.613281 259.480469 118.613281 258.363281 Z M 118.613281 229.015625 " fill-opacity="1" fill-rule="nonzero"/><path fill="#6644a8" d="M 237.992188 232.464844 C 239.261719 232.464844 240.316406 233.519531 240.316406 234.792969 L 240.316406 239.203125 C 240.316406 240.476562 239.261719 241.53125 237.992188 241.53125 C 236.71875 241.53125 235.664062 240.476562 235.664062 239.203125 L 235.664062 234.792969 C 235.664062 233.488281 236.6875 232.464844 237.992188 232.464844 Z M 237.992188 232.464844 " fill-opacity="1" fill-rule="nonzero"/><path fill="#6644a8" d="M 228.035156 232.464844 C 229.304688 232.464844 230.359375 233.519531 230.359375 234.792969 L 230.359375 239.203125 C 230.359375 240.476562 229.304688 241.53125 228.035156 241.53125 C 226.761719 241.53125 225.707031 240.476562 225.707031 239.203125 L 225.707031 234.792969 C 225.707031 233.488281 226.730469 232.464844 228.035156 232.464844 Z M 228.035156 232.464844 " fill-opacity="1" fill-rule="nonzero"/><path fill="#6644a8" d="M 218.046875 232.464844 C 219.320312 232.464844 220.375 233.519531 220.375 234.792969 L 220.375 239.203125 C 220.375 240.476562 219.320312 241.53125 218.046875 241.53125 C 216.777344 241.53125 215.722656 240.476562 215.722656 239.203125 L 215.722656 234.792969 C 215.722656 233.488281 216.777344 232.464844 218.046875 232.464844 Z M 218.046875 232.464844 " fill-opacity="1" fill-rule="nonzero"/><path fill="#6644a8" d="M 208.089844 232.464844 C 209.363281 232.464844 210.417969 233.519531 210.417969 234.792969 L 210.417969 239.203125 C 210.417969 240.476562 209.363281 241.53125 208.089844 241.53125 C 206.820312 241.53125 205.765625 240.476562 205.765625 239.203125 L 205.765625 234.792969 C 205.765625 233.488281 206.820312 232.464844 208.089844 232.464844 Z M 208.089844 232.464844 " fill-opacity="1" fill-rule="nonzero"/><path fill="#6644a8" d="M 237.992188 245.847656 C 239.261719 245.847656 240.316406 246.902344 240.316406 248.175781 L 240.316406 252.585938 C 240.316406 253.859375 239.261719 254.914062 237.992188 254.914062 C 236.71875 254.914062 235.664062 253.859375 235.664062 252.585938 L 235.664062 248.175781 C 235.664062 246.902344 236.6875 245.847656 237.992188 245.847656 Z M 237.992188 245.847656 " fill-opacity="1" fill-rule="nonzero"/><path fill="#6644a8" d="M 228.035156 245.847656 C 229.304688 245.847656 230.359375 246.902344 230.359375 248.175781 L 230.359375 252.585938 C 230.359375 253.859375 229.304688 254.914062 228.035156 254.914062 C 226.761719 254.914062 225.707031 253.859375 225.707031 252.585938 L 225.707031 248.175781 C 225.707031 246.902344 226.730469 245.847656 228.035156 245.847656 Z M 228.035156 245.847656 " fill-opacity="1" fill-rule="nonzero"/><path fill="#6644a8" d="M 218.046875 245.847656 C 219.320312 245.847656 220.375 246.902344 220.375 248.175781 L 220.375 252.585938 C 220.375 253.859375 219.320312 254.914062 218.046875 254.914062 C 216.777344 254.914062 215.722656 253.859375 215.722656 252.585938 L 215.722656 248.175781 C 215.722656 246.902344 216.777344 245.847656 218.046875 245.847656 Z M 218.046875 245.847656 " fill-opacity="1" fill-rule="nonzero"/><path fill="#6644a8" d="M 208.089844 245.847656 C 209.363281 245.847656 210.417969 246.902344 210.417969 248.175781 L 210.417969 252.585938 C 210.417969 253.859375 209.363281 254.914062 208.089844 254.914062 C 206.820312 254.914062 205.765625 253.859375 205.765625 252.585938 L 205.765625 248.175781 C 205.765625 246.902344 206.820312 245.847656 208.089844 245.847656 Z M 208.089844 245.847656 " fill-opacity="1" fill-rule="nonzero"/><path fill="#6644a8" d="M 125.40625 244.140625 C 125.40625 248.828125 129.21875 252.648438 133.902344 252.648438 C 138.585938 252.648438 142.402344 248.828125 142.402344 244.140625 C 142.402344 239.449219 138.585938 235.632812 133.902344 235.632812 C 129.21875 235.664062 125.40625 239.449219 125.40625 244.140625 Z M 130.058594 244.140625 C 130.058594 242.027344 131.761719 240.289062 133.902344 240.289062 C 136.042969 240.289062 137.75 241.996094 137.75 244.140625 C 137.75 246.28125 136.042969 247.988281 133.902344 247.988281 C 131.761719 247.988281 130.058594 246.25 130.058594 244.140625 Z M 130.058594 244.140625 " fill-opacity="1" fill-rule="nonzero"/><path fill="#6644a8" d="M 148.789062 244.140625 C 148.789062 248.828125 152.605469 252.648438 157.289062 252.648438 C 161.972656 252.648438 165.785156 248.828125 165.785156 244.140625 C 165.785156 239.449219 161.972656 235.632812 157.289062 235.632812 C 152.605469 235.664062 148.789062 239.449219 148.789062 244.140625 Z M 153.441406 244.140625 C 153.441406 242.027344 155.148438 240.289062 157.289062 240.289062 C 159.429688 240.289062 161.132812 241.996094 161.132812 244.140625 C 161.132812 246.28125 159.429688 247.988281 157.289062 247.988281 C 155.148438 247.988281 153.441406 246.25 153.441406 244.140625 Z M 153.441406 244.140625 " fill-opacity="1" fill-rule="nonzero"/><path fill="#6644a8" d="M 174.84375 241.34375 L 195.035156 241.34375 C 196.304688 241.34375 197.359375 242.402344 197.359375 243.675781 C 197.359375 244.945312 196.304688 246.003906 195.035156 246.003906 L 174.84375 246.003906 C 173.570312 246.003906 172.515625 244.945312 172.515625 243.675781 C 172.515625 242.402344 173.570312 241.34375 174.84375 241.34375 Z M 174.84375 241.34375 " fill-opacity="1" fill-rule="nonzero"/><path fill="#6644a8" d="M 237.992188 286.308594 C 239.261719 286.308594 240.316406 287.363281 240.316406 288.636719 L 240.316406 293.046875 C 240.316406 294.320312 239.261719 295.375 237.992188 295.375 C 236.71875 295.375 235.664062 294.320312 235.664062 293.046875 L 235.664062 288.636719 C 235.664062 287.363281 236.6875 286.308594 237.992188 286.308594 Z M 237.992188 286.308594 " fill-opacity="1" fill-rule="nonzero"/><path fill="#6644a8" d="M 228.035156 286.308594 C 229.304688 286.308594 230.359375 287.363281 230.359375 288.636719 L 230.359375 293.046875 C 230.359375 294.320312 229.304688 295.375 228.035156 295.375 C 226.761719 295.375 225.707031 294.320312 225.707031 293.046875 L 225.707031 288.636719 C 225.707031 287.363281 226.730469 286.308594 228.035156 286.308594 Z M 228.035156 286.308594 " fill-opacity="1" fill-rule="nonzero"/><path fill="#6644a8" d="M 218.046875 286.308594 C 219.320312 286.308594 220.375 287.363281 220.375 288.636719 L 220.375 293.046875 C 220.375 294.320312 219.320312 295.375 218.046875 295.375 C 216.777344 295.375 215.722656 294.320312 215.722656 293.046875 L 215.722656 288.636719 C 215.722656 287.363281 216.777344 286.308594 218.046875 286.308594 Z M 218.046875 286.308594 " fill-opacity="1" fill-rule="nonzero"/><path fill="#6644a8" d="M 208.089844 286.308594 C 209.363281 286.308594 210.417969 287.363281 210.417969 288.636719 L 210.417969 293.046875 C 210.417969 294.320312 209.363281 295.375 208.089844 295.375 C 206.820312 295.375 205.765625 294.320312 205.765625 293.046875 L 205.765625 288.636719 C 205.765625 287.363281 206.820312 286.308594 208.089844 286.308594 Z M 208.089844 286.308594 " fill-opacity="1" fill-rule="nonzero"/><path fill="#6644a8" d="M 237.992188 299.722656 C 239.261719 299.722656 240.316406 300.78125 240.316406 302.054688 L 240.316406 306.460938 C 240.316406 307.734375 239.261719 308.792969 237.992188 308.792969 C 236.71875 308.792969 235.664062 307.734375 235.664062 306.460938 L 235.664062 302.054688 C 235.664062 300.75 236.6875 299.722656 237.992188 299.722656 Z M 237.992188 299.722656 " fill-opacity="1" fill-rule="nonzero"/><path fill="#6644a8" d="M 228.035156 299.722656 C 229.304688 299.722656 230.359375 300.78125 230.359375 302.054688 L 230.359375 306.460938 C 230.359375 307.734375 229.304688 308.792969 228.035156 308.792969 C 226.761719 308.792969 225.707031 307.734375 225.707031 306.460938 L 225.707031 302.054688 C 225.707031 300.75 226.730469 299.722656 228.035156 299.722656 Z M 228.035156 299.722656 " fill-opacity="1" fill-rule="nonzero"/><path fill="#6644a8" d="M 218.046875 299.722656 C 219.320312 299.722656 220.375 300.78125 220.375 302.054688 L 220.375 306.460938 C 220.375 307.734375 219.320312 308.792969 218.046875 308.792969 C 216.777344 308.792969 215.722656 307.734375 215.722656 306.460938 L 215.722656 302.054688 C 215.722656 300.75 216.777344 299.722656 218.046875 299.722656 Z M 218.046875 299.722656 " fill-opacity="1" fill-rule="nonzero"/><path fill="#6644a8" d="M 208.089844 299.722656 C 209.363281 299.722656 210.417969 300.78125 210.417969 302.054688 L 210.417969 306.460938 C 210.417969 307.734375 209.363281 308.792969 208.089844 308.792969 C 206.820312 308.792969 205.765625 307.734375 205.765625 306.460938 L 205.765625 302.054688 C 205.765625 300.75 206.820312 299.722656 208.089844 299.722656 Z M 208.089844 299.722656 " fill-opacity="1" fill-rule="nonzero"/><path fill="#6644a8" d="M 125.40625 298.015625 C 125.40625 302.703125 129.21875 306.523438 133.902344 306.523438 C 138.585938 306.523438 142.402344 302.703125 142.402344 298.015625 C 142.402344 293.328125 138.585938 289.507812 133.902344 289.507812 C 129.21875 289.507812 125.40625 293.328125 125.40625 298.015625 Z M 130.058594 298.015625 C 130.058594 295.90625 131.761719 294.164062 133.902344 294.164062 C 136.042969 294.164062 137.75 295.875 137.75 298.015625 C 137.75 300.160156 136.042969 301.867188 133.902344 301.867188 C 131.761719 301.867188 130.058594 300.128906 130.058594 298.015625 Z M 130.058594 298.015625 " fill-opacity="1" fill-rule="nonzero"/><path fill="#6644a8" d="M 148.789062 298.015625 C 148.789062 302.703125 152.605469 306.523438 157.289062 306.523438 C 161.972656 306.523438 165.785156 302.703125 165.785156 298.015625 C 165.785156 293.328125 161.972656 289.507812 157.289062 289.507812 C 152.605469 289.507812 148.789062 293.328125 148.789062 298.015625 Z M 153.441406 298.015625 C 153.441406 295.90625 155.148438 294.164062 157.289062 294.164062 C 159.429688 294.164062 161.132812 295.875 161.132812 298.015625 C 161.132812 300.160156 159.429688 301.867188 157.289062 301.867188 C 155.148438 301.867188 153.441406 300.128906 153.441406 298.015625 Z M 153.441406 298.015625 " fill-opacity="1" fill-rule="nonzero"/><path fill="#6644a8" d="M 174.84375 295.222656 L 195.035156 295.222656 C 196.304688 295.222656 197.359375 296.277344 197.359375 297.550781 C 197.359375 298.824219 196.304688 299.878906 195.035156 299.878906 L 174.84375 299.878906 C 173.570312 299.878906 172.515625 298.824219 172.515625 297.550781 C 172.515625 296.277344 173.570312 295.222656 174.84375 295.222656 Z M 174.84375 295.222656 " fill-opacity="1" fill-rule="nonzero"/><path fill="#6644a8" d="M 186.816406 140.609375 C 186.535156 140.796875 159.117188 158.621094 157.722656 196.257812 L 161.074219 192.28125 C 161.910156 191.289062 163.367188 191.195312 164.359375 192.003906 C 165.351562 192.839844 165.445312 194.300781 164.640625 195.292969 L 157.101562 204.175781 C 156.667969 204.703125 156.015625 204.980469 155.335938 204.980469 C 154.652344 204.980469 154 204.671875 153.566406 204.144531 L 146.125 195.261719 C 145.285156 194.269531 145.410156 192.808594 146.402344 191.972656 C 147.394531 191.132812 148.851562 191.257812 149.691406 192.25 L 153.101562 196.320312 C 154.402344 156.105469 183.09375 137.410156 184.363281 136.636719 C 185.449219 135.953125 186.878906 136.261719 187.589844 137.347656 C 188.210938 138.46875 187.902344 139.925781 186.816406 140.609375 Z M 186.816406 140.609375 " fill-opacity="1" fill-rule="nonzero"/><path fill="#6644a8" d="M 259.792969 286.277344 C 280.824219 283.019531 295.277344 269.664062 300.921875 263.546875 L 296.453125 264.882812 C 295.214844 265.253906 293.941406 264.542969 293.570312 263.332031 C 293.199219 262.089844 293.910156 260.816406 295.121094 260.441406 L 306.628906 257.027344 C 307.339844 256.808594 308.148438 256.964844 308.738281 257.429688 C 309.324219 257.894531 309.667969 258.609375 309.636719 259.386719 L 308.953125 272.675781 C 308.890625 273.917969 307.867188 274.882812 306.628906 274.882812 C 306.597656 274.882812 306.535156 274.882812 306.503906 274.882812 C 305.230469 274.820312 304.238281 273.734375 304.300781 272.429688 L 304.613281 266.496094 C 298.71875 272.988281 283.488281 287.332031 260.539062 290.90625 C 260.414062 290.9375 260.289062 290.9375 260.167969 290.9375 C 259.050781 290.9375 258.058594 290.128906 257.871094 288.980469 C 257.652344 287.644531 258.554688 286.464844 259.792969 286.277344 Z M 259.792969 286.277344 " fill-opacity="1" fill-rule="nonzero"/></svg>