<svg id="svg" version="1.1" xmlns="http://www.w3.org/2000/svg" xmlns:xlink="http://www.w3.org/1999/xlink" width="400" height="342.7050053248136" viewBox="0, 0, 400,342.7050053248136"><g id="svgg"><path id="path0" d="M48.882 43.603 C 48.161 43.779,47.149 44.667,46.777 45.450 C 46.457 46.126,46.429 47.493,46.481 59.930 C 46.546 75.249,46.432 74.105,48.005 75.280 L 48.594 75.719 184.254 75.773 C 258.868 75.802,319.915 75.788,319.915 75.742 C 319.915 75.695,319.396 74.617,318.762 73.345 C 317.332 70.476,316.042 66.661,315.408 63.426 L 314.925 60.960 313.977 61.794 C 312.850 62.786,311.113 63.366,309.805 63.186 L 308.919 63.065 307.474 65.292 C 305.949 67.641,305.649 67.845,304.832 67.084 C 304.240 66.532,304.151 66.797,305.747 64.362 L 307.127 62.255 306.324 61.410 C 301.643 56.490,309.011 48.966,313.971 53.600 L 314.524 54.117 314.660 51.819 C 314.786 49.683,315.042 47.933,315.673 44.888 L 315.927 43.663 319.899 43.663 C 325.017 43.663,325.905 44.032,326.857 46.551 L 327.175 47.391 327.075 46.451 C 326.967 45.437,326.514 44.691,325.584 43.996 L 324.995 43.557 187.152 43.528 C 111.337 43.512,49.116 43.546,48.882 43.603 M293.084 51.384 C 295.087 52.396,295.271 53.206,295.171 60.596 C 295.094 66.273,294.973 66.836,293.637 67.789 L 292.971 68.264 192.043 68.318 L 91.115 68.372 90.311 67.920 C 88.637 66.979,88.579 66.684,88.649 59.448 C 88.720 52.203,88.692 52.322,90.526 51.384 L 91.464 50.905 191.800 50.905 L 292.136 50.905 293.084 51.384 M72.991 55.591 L 76.764 59.105 75.341 59.168 L 73.918 59.231 73.860 63.215 L 73.802 67.199 68.743 67.256 L 63.685 67.313 63.685 63.273 L 63.685 59.233 62.469 59.169 L 61.252 59.105 65.073 55.536 C 67.174 53.573,68.966 51.992,69.056 52.022 C 69.145 52.052,70.916 53.658,72.991 55.591 M308.463 53.999 C 305.062 55.722,305.604 60.782,309.296 61.776 C 312.091 62.529,314.857 60.113,314.514 57.219 C 314.167 54.289,311.107 52.661,308.463 53.999 M326.990 66.986 C 326.930 73.672,326.849 74.055,325.258 75.127 C 324.378 75.720,324.654 75.773,325.604 75.194 C 327.077 74.296,327.170 73.788,327.103 67.041 L 327.043 61.022 326.990 66.986 M337.806 69.586 C 336.838 69.940,335.889 71.346,335.889 72.428 C 335.889 75.808,340.800 76.567,341.861 73.351 C 342.639 70.996,340.184 68.717,337.806 69.586 M25.346 131.416 L 25.346 142.066 57.155 142.066 C 74.649 142.066,90.416 142.003,92.192 141.926 L 95.421 141.787 95.421 131.418 L 95.421 121.050 74.299 120.908 C 62.682 120.831,46.916 120.767,39.262 120.767 L 25.346 120.767 25.346 131.416 M91.110 131.470 L 91.054 139.830 60.437 139.884 L 29.819 139.938 29.819 131.524 L 29.819 123.110 60.492 123.110 L 91.166 123.110 91.110 131.470 M33.963 130.235 C 33.266 130.932,33.261 132.037,33.950 132.837 C 35.087 134.159,37.274 133.280,37.274 131.501 C 37.274 130.438,36.497 129.712,35.357 129.712 C 34.716 129.712,34.347 129.851,33.963 130.235 M58.802 130.227 C 57.438 131.679,58.937 133.951,60.844 133.322 C 62.195 132.876,62.528 131.291,61.502 130.192 C 60.863 129.507,59.462 129.526,58.802 130.227 M82.951 130.235 C 81.650 131.536,82.967 133.836,84.784 133.437 C 86.992 132.952,86.610 129.712,84.345 129.712 C 83.704 129.712,83.336 129.851,82.951 130.235 M25.346 156.283 L 25.346 166.880 58.200 166.821 C 76.270 166.789,92.037 166.765,93.237 166.768 L 95.421 166.773 95.421 156.230 L 95.421 145.687 60.383 145.687 L 25.346 145.687 25.346 156.283 M91.161 156.230 L 91.161 164.643 60.490 164.643 L 29.819 164.643 29.819 156.230 L 29.819 147.817 60.490 147.817 L 91.161 147.817 91.161 156.230 M34.062 155.042 C 32.429 156.675,34.618 159.380,36.440 157.980 C 37.895 156.863,37.151 154.420,35.357 154.420 C 34.898 154.420,34.487 154.617,34.062 155.042 M59.181 154.743 C 58.026 155.370,58.026 157.406,59.180 158.023 C 59.916 158.417,61.011 158.300,61.502 157.774 C 63.104 156.058,61.241 153.624,59.181 154.743 M83.051 155.042 C 82.385 155.708,82.256 156.468,82.676 157.256 C 83.602 158.994,86.262 158.387,86.262 156.436 C 86.262 155.418,85.313 154.420,84.345 154.420 C 83.887 154.420,83.476 154.617,83.051 155.042 M319.078 162.679 C 314.610 162.753,315.016 162.238,315.016 167.838 L 315.016 172.471 314.359 172.602 C 313.180 172.838,311.197 174.950,311.184 175.985 C 311.178 176.446,311.646 176.026,312.132 175.133 C 312.727 174.042,313.803 173.163,314.546 173.163 C 315.003 173.163,315.008 173.206,315.065 177.689 L 315.122 182.215 316.081 182.322 L 317.039 182.428 317.101 184.292 L 317.162 186.155 316.328 186.155 C 315.870 186.155,315.385 186.288,315.251 186.449 C 314.829 186.957,314.912 205.312,315.338 205.738 C 315.706 206.106,368.288 206.369,372.098 206.022 L 373.908 205.857 373.964 196.297 C 374.026 185.631,374.102 186.155,372.498 186.155 L 371.459 186.155 371.459 184.345 L 371.459 182.535 372.481 182.535 C 373.044 182.535,373.619 182.420,373.759 182.279 C 374.191 181.848,374.121 162.967,373.687 162.800 C 373.359 162.674,325.663 162.568,319.078 162.679 M369.535 165.481 C 369.673 165.741,369.755 168.421,369.755 172.718 L 369.755 179.543 369.256 179.870 C 368.566 180.322,319.900 180.262,319.446 179.809 C 318.992 179.355,318.930 166.263,319.379 165.578 L 319.712 165.069 344.513 165.069 C 368.815 165.069,369.319 165.078,369.535 165.481 M25.346 181.097 L 25.346 191.693 53.971 191.693 L 82.596 191.693 84.644 190.628 L 86.692 189.563 58.255 189.563 L 29.819 189.563 29.819 181.150 L 29.819 172.737 60.495 172.737 L 91.171 172.737 91.113 180.564 L 91.054 188.392 92.545 188.392 C 93.365 188.392,94.348 188.461,94.728 188.546 L 95.421 188.701 95.421 179.654 L 95.421 170.607 93.237 170.612 C 92.037 170.615,76.270 170.591,58.200 170.559 L 25.346 170.501 25.346 181.097 M342.583 171.736 C 342.207 171.946,342.171 173.609,342.535 173.972 C 342.719 174.157,344.191 174.228,347.817 174.228 C 351.442 174.228,352.915 174.157,353.099 173.972 C 353.379 173.692,353.441 172.349,353.192 171.961 C 353.007 171.673,343.072 171.462,342.583 171.736 M310.858 176.800 C 310.780 177.043,310.779 177.304,310.855 177.379 C 311.014 177.539,311.387 177.015,311.392 176.624 C 311.397 176.192,311.010 176.320,310.858 176.800 M310.379 178.488 C 310.211 179.148,310.223 179.340,310.433 179.340 C 310.661 179.340,310.969 178.468,310.969 177.822 C 310.969 177.293,310.567 177.746,310.379 178.488 M34.273 179.613 C 33.280 180.376,33.186 181.675,34.062 182.551 C 35.600 184.089,38.049 182.259,37.026 180.337 C 36.650 179.631,36.178 179.353,35.357 179.353 C 34.947 179.353,34.459 179.470,34.273 179.613 M59.139 179.581 C 58.923 179.706,58.613 180.127,58.451 180.515 C 57.566 182.633,60.573 184.204,61.786 182.257 C 62.843 180.560,60.875 178.572,59.139 179.581 M83.262 179.613 C 82.268 180.376,82.175 181.675,83.051 182.551 C 84.798 184.298,87.420 181.716,85.740 179.903 C 85.164 179.282,83.887 179.132,83.262 179.613 M369.282 188.830 C 369.912 189.271,370.040 202.666,369.420 203.286 C 369.120 203.587,366.558 203.621,344.406 203.621 L 319.726 203.621 319.394 203.147 C 319.112 202.744,319.063 201.719,319.063 196.239 C 319.063 189.726,319.156 188.827,319.849 188.648 C 321.061 188.334,368.825 188.510,369.282 188.830 M342.535 195.357 C 342.197 195.694,342.205 197.373,342.545 197.587 C 342.980 197.861,353.008 197.656,353.192 197.370 C 353.441 196.979,353.379 195.637,353.099 195.357 C 352.915 195.172,351.442 195.101,347.817 195.101 C 344.191 195.101,342.719 195.172,342.535 195.357 M25.346 205.964 L 25.346 216.613 47.485 216.613 C 60.957 216.613,69.672 216.536,69.746 216.415 C 69.814 216.305,69.951 215.778,70.051 215.243 L 70.233 214.271 50.026 214.271 L 29.819 214.271 29.819 205.857 L 29.819 197.444 52.883 197.444 L 75.948 197.444 76.997 196.379 L 78.046 195.314 51.696 195.314 L 25.346 195.314 25.346 205.964 M34.575 204.363 C 32.994 205.038,33.027 207.126,34.628 207.795 C 36.502 208.578,38.156 206.311,36.794 204.825 C 36.181 204.155,35.427 203.998,34.575 204.363 M59.531 204.244 C 58.224 204.793,57.858 206.411,58.823 207.375 C 59.937 208.490,61.783 207.861,62.103 206.257 C 62.342 205.061,60.681 203.761,59.531 204.244 M317.146 206.709 C 317.146 206.992,320.293 207.029,344.196 207.029 C 368.098 207.029,371.246 206.992,371.246 206.709 C 371.246 206.427,368.098 206.390,344.196 206.390 C 320.293 206.390,317.146 206.427,317.146 206.709 M317.146 207.455 C 317.146 207.596,326.305 207.668,344.196 207.668 C 362.087 207.668,371.246 207.596,371.246 207.455 C 371.246 207.314,362.087 207.242,344.196 207.242 C 326.305 207.242,317.146 207.314,317.146 207.455 M330.741 208.040 C 338.276 208.071,350.545 208.071,358.004 208.040 C 365.463 208.009,359.297 207.984,344.302 207.984 C 329.308 207.984,323.205 208.009,330.741 208.040 M330.618 208.892 C 338.086 208.923,350.306 208.923,357.774 208.892 C 365.242 208.861,359.132 208.836,344.196 208.836 C 329.260 208.836,323.150 208.861,330.618 208.892 M317.146 209.573 C 317.146 209.684,316.691 209.804,316.134 209.839 L 315.122 209.904 315.016 214.803 C 314.957 217.497,314.957 221.858,315.016 224.494 L 315.122 229.286 316.294 229.425 C 319.174 229.766,373.331 229.621,373.680 229.271 C 374.064 228.887,374.191 210.620,373.814 210.023 C 373.696 209.837,373.051 209.653,372.167 209.555 C 369.991 209.313,317.146 209.331,317.146 209.573 M369.499 212.396 C 369.833 212.730,369.866 226.019,369.535 226.638 C 369.319 227.042,368.815 227.050,344.513 227.050 L 319.712 227.050 319.379 226.542 C 318.893 225.800,318.995 212.661,319.489 212.349 C 319.998 212.027,369.177 212.074,369.499 212.396 M342.535 218.786 C 342.394 218.927,342.279 219.435,342.279 219.915 C 342.279 221.310,342.236 221.299,347.817 221.299 C 353.398 221.299,353.355 221.310,353.355 219.915 C 353.355 218.519,353.398 218.530,347.817 218.530 C 344.191 218.530,342.719 218.602,342.535 218.786 M25.346 230.917 L 25.346 241.600 28.701 241.461 C 30.546 241.385,37.913 241.322,45.073 241.321 L 58.091 241.321 57.760 240.202 L 57.430 239.084 43.624 239.140 L 29.819 239.197 29.819 230.778 L 29.819 222.360 48.548 222.415 L 67.277 222.471 67.919 221.353 L 68.562 220.234 46.954 220.234 L 25.346 220.234 25.346 230.917 M92.918 220.390 L 92.013 220.472 92.013 221.908 L 92.013 223.344 93.717 224.229 L 95.421 225.115 95.421 222.675 L 95.421 220.234 94.622 220.272 C 94.183 220.292,93.416 220.345,92.918 220.390 M34.062 229.590 C 32.811 230.841,33.598 232.787,35.357 232.787 C 36.499 232.787,37.274 231.974,37.274 230.775 C 37.274 229.970,36.210 228.967,35.357 228.967 C 34.898 228.967,34.487 229.165,34.062 229.590 M59.063 229.344 C 58.386 229.876,58.107 230.753,58.386 231.470 L 58.614 232.055 58.966 231.528 C 59.160 231.238,59.630 230.591,60.011 230.089 C 60.391 229.587,60.703 229.129,60.703 229.072 C 60.703 228.811,59.484 229.014,59.063 229.344 M315.257 233.299 C 314.875 233.760,314.637 252.259,315.008 252.705 C 315.371 253.143,373.323 253.216,373.759 252.780 C 374.239 252.299,374.114 233.508,373.629 233.249 C 372.949 232.884,315.560 232.934,315.257 233.299 M369.535 235.982 C 369.673 236.241,369.755 238.921,369.755 243.219 L 369.755 250.043 369.256 250.370 C 368.566 250.823,319.900 250.763,319.446 250.309 C 318.992 249.855,318.930 236.763,319.379 236.078 L 319.712 235.570 344.513 235.570 C 368.815 235.570,369.319 235.578,369.535 235.982 M342.652 242.184 C 342.211 242.447,342.128 244.067,342.535 244.473 C 342.719 244.657,344.191 244.728,347.817 244.728 C 353.334 244.728,353.357 244.723,353.351 243.461 C 353.345 242.039,353.465 242.072,347.985 242.013 C 344.812 241.980,342.890 242.041,342.652 242.184 M25.346 255.558 L 25.346 266.241 43.983 266.241 L 62.620 266.241 62.623 265.548 C 62.624 265.168,62.683 264.641,62.754 264.377 L 62.882 263.898 46.351 263.898 L 29.819 263.898 29.819 255.591 L 29.819 247.284 45.474 247.284 C 54.084 247.284,61.129 247.239,61.129 247.184 C 61.129 247.128,60.918 246.649,60.660 246.119 L 60.192 245.154 46.124 245.154 C 38.386 245.153,30.546 245.090,28.701 245.014 L 25.346 244.875 25.346 255.558 M259.071 254.047 C 259.148 255.892,259.211 258.815,259.211 260.543 L 259.212 263.685 267.093 263.685 C 271.427 263.685,274.973 263.608,274.973 263.513 C 274.973 263.419,274.446 260.690,273.802 257.449 C 273.158 254.209,272.630 251.411,272.630 251.231 C 272.630 250.944,273.621 250.905,280.937 250.905 C 285.506 250.905,289.244 250.981,289.244 251.074 C 289.244 251.166,288.683 254.042,287.996 257.464 L 286.749 263.685 294.706 263.685 L 302.662 263.685 302.662 257.188 L 302.662 250.692 280.797 250.692 L 258.932 250.692 259.071 254.047 M34.581 253.877 C 33.301 254.416,33.028 256.271,34.095 257.170 C 35.458 258.316,37.252 257.521,37.267 255.763 C 37.279 254.363,35.834 253.349,34.581 253.877 M59.508 253.883 C 58.920 254.120,58.147 255.113,58.147 255.630 C 58.147 257.469,60.284 258.385,61.571 257.098 C 63.084 255.585,61.480 253.086,59.508 253.883 M270.181 257.295 L 270.181 258.040 266.134 258.040 L 262.087 258.040 262.017 257.546 C 261.860 256.434,261.878 256.429,266.183 256.492 L 270.181 256.550 270.181 257.295 M299.763 256.922 C 300.376 257.895,299.835 258.040,295.610 258.040 L 291.693 258.040 291.623 257.546 C 291.466 256.436,291.495 256.429,295.659 256.491 C 299.074 256.543,299.556 256.593,299.763 256.922 M343.270 260.666 C 342.500 261.518,343.095 262.833,344.251 262.833 C 344.970 262.833,345.474 262.314,345.474 261.573 C 345.474 260.433,344.022 259.836,343.270 260.666 " stroke="none" fill="#68b6f6" fill-rule="evenodd"></path><path id="path1" d="M327.153 67.039 C 327.149 74.120,327.080 74.421,325.247 75.346 L 324.297 75.825 306.877 75.825 C 297.296 75.825,289.457 75.868,289.457 75.919 C 289.457 76.208,290.666 79.363,291.318 80.777 L 292.080 82.428 318.634 82.428 L 345.189 82.428 346.189 82.935 L 347.190 83.441 347.706 82.561 C 350.843 77.208,352.378 68.522,351.259 62.460 L 350.973 60.916 339.065 60.916 L 327.157 60.916 327.153 67.039 M352.183 61.320 C 353.256 61.816,354.150 62.760,354.553 63.821 L 354.865 64.643 354.748 63.922 C 354.505 62.418,352.962 60.925,351.651 60.925 C 351.475 60.925,351.715 61.103,352.183 61.320 M332.260 69.751 C 334.096 70.700,334.486 72.853,333.107 74.424 C 331.578 76.165,329.212 75.828,328.123 73.714 C 326.854 71.251,329.766 68.461,332.260 69.751 M340.354 69.751 C 343.134 71.188,342.161 75.399,339.049 75.399 C 336.072 75.399,334.792 72.142,336.987 70.155 C 337.857 69.367,339.282 69.196,340.354 69.751 M59.212 98.296 L 59.212 120.767 63.259 120.767 L 67.306 120.767 67.306 103.082 C 67.306 84.264,67.283 84.712,68.314 83.548 C 69.383 82.341,61.435 82.428,170.729 82.428 C 263.410 82.428,271.175 82.401,271.052 82.082 C 270.778 81.368,269.649 76.685,269.649 76.264 L 269.649 75.825 164.430 75.825 L 59.212 75.825 59.212 98.296 M354.681 87.568 C 354.624 89.976,354.748 89.875,351.840 89.880 C 350.831 89.882,349.562 89.944,349.018 90.018 L 348.030 90.154 348.030 92.706 L 348.030 95.257 347.444 95.118 C 346.076 94.791,343.510 94.738,341.014 94.985 C 338.419 95.242,338.250 95.232,335.360 94.672 C 330.982 93.824,329.293 94.197,327.864 96.330 C 325.931 99.214,327.443 103.883,331.587 107.826 C 333.672 109.809,334.087 109.837,335.783 108.099 C 337.189 106.658,338.504 106.232,341.623 106.207 C 344.410 106.185,344.894 106.416,346.474 108.529 C 348.374 111.071,348.758 111.210,350.266 109.904 C 351.380 108.940,351.391 108.937,352.005 109.367 C 353.034 110.087,352.710 112.124,351.232 114.234 L 350.373 115.461 350.373 118.075 L 350.373 120.690 351.229 121.837 L 352.085 122.985 351.602 123.454 C 349.404 125.587,343.871 130.561,343.747 130.516 C 343.661 130.484,342.712 129.308,341.638 127.902 C 340.564 126.496,339.652 125.312,339.611 125.271 C 339.468 125.125,336.614 126.159,335.011 126.938 C 329.948 129.398,325.299 134.106,322.557 139.550 L 321.826 141.001 339.290 141.001 L 356.754 141.001 356.851 141.480 C 356.904 141.744,357.139 144.404,357.373 147.391 L 357.798 152.822 359.048 154.102 C 362.131 157.257,362.328 160.495,359.414 160.095 L 358.466 159.966 358.466 161.346 L 358.466 162.726 364.167 162.726 C 370.556 162.726,370.731 162.691,371.968 161.162 C 373.254 159.573,372.407 154.717,369.122 144.835 C 365.497 133.932,363.167 130.408,356.395 125.589 L 354.856 124.494 354.851 117.521 C 354.846 111.042,354.878 110.431,355.302 108.895 C 355.890 106.760,355.913 103.681,355.351 102.130 C 355.015 101.202,354.950 100.066,354.847 93.291 C 354.782 89.015,354.707 86.440,354.681 87.568 M337.220 110.166 C 336.957 110.292,336.741 110.520,336.741 110.672 C 336.741 110.884,336.883 110.868,337.341 110.605 C 337.896 110.287,337.996 110.287,338.652 110.615 C 339.470 111.022,339.510 111.031,339.510 110.792 C 339.510 110.312,337.859 109.861,337.220 110.166 M342.849 110.205 C 341.982 110.523,341.722 110.696,341.879 110.853 C 341.932 110.906,342.356 110.815,342.820 110.649 C 343.897 110.266,344.171 110.264,344.888 110.638 C 345.496 110.955,345.689 110.774,345.187 110.357 C 344.704 109.957,343.705 109.892,342.849 110.205 M337.859 111.749 C 337.486 111.900,337.527 112.661,337.915 112.810 C 338.431 113.008,338.903 112.492,338.646 112.012 C 338.425 111.598,338.321 111.563,337.859 111.749 M343.122 111.938 C 342.672 112.480,343.412 113.122,343.911 112.623 C 344.260 112.275,344.027 111.608,343.557 111.608 C 343.469 111.608,343.273 111.757,343.122 111.938 M339.297 117.342 C 339.297 117.740,340.252 118.211,341.059 118.211 C 341.915 118.211,343.131 117.708,343.131 117.353 C 343.131 117.066,342.985 117.092,342.383 117.487 C 341.714 117.925,340.498 117.923,339.825 117.482 C 339.535 117.292,339.297 117.229,339.297 117.342 M29.606 143.876 L 29.606 145.687 60.277 145.687 L 90.948 145.687 90.948 143.876 L 90.948 142.066 60.277 142.066 L 29.606 142.066 29.606 143.876 M319.959 145.948 C 318.684 150.035,318.343 152.077,318.333 155.698 C 318.325 158.548,318.446 159.560,319.079 161.928 L 319.292 162.726 320.881 162.726 C 322.385 162.726,322.471 162.701,322.478 162.247 C 322.497 161.043,321.109 143.432,320.983 143.286 C 320.906 143.195,320.445 144.393,319.959 145.948 M337.577 149.930 C 335.928 151.579,337.564 154.377,339.810 153.751 C 342.487 153.004,341.934 149.308,339.146 149.308 C 338.384 149.308,338.078 149.429,337.577 149.930 M29.696 167.059 C 29.635 167.217,29.614 168.055,29.649 168.923 L 29.712 170.501 60.330 170.555 L 90.948 170.608 90.948 168.691 L 90.948 166.773 60.377 166.773 C 34.981 166.773,29.787 166.822,29.696 167.059 M90.096 188.616 C 88.117 189.041,86.413 189.681,84.400 190.756 L 82.645 191.693 56.126 191.693 L 29.606 191.693 29.606 193.504 L 29.606 195.314 53.805 195.314 L 78.004 195.314 76.706 196.702 C 72.598 201.093,70.619 205.521,70.395 210.818 C 70.265 213.887,70.104 215.438,69.840 216.134 L 69.659 216.613 49.633 216.613 L 29.606 216.613 29.606 218.424 L 29.606 220.234 49.084 220.234 L 68.562 220.234 67.881 221.459 C 67.428 222.275,66.050 223.836,63.753 226.136 C 57.712 232.184,56.239 235.539,57.673 239.988 L 58.101 241.318 43.907 241.372 L 29.712 241.427 29.712 243.237 L 29.712 245.048 44.953 245.103 L 60.193 245.157 60.661 246.120 C 60.918 246.650,61.129 247.128,61.129 247.184 C 61.129 247.239,54.084 247.284,45.474 247.284 L 29.819 247.284 29.819 255.591 L 29.819 263.898 46.316 263.898 L 62.813 263.898 62.918 263.206 C 63.339 260.410,64.174 255.460,64.265 255.224 C 64.406 254.857,68.838 251.182,70.507 250.049 C 72.857 248.453,73.404 248.300,77.316 248.138 C 88.081 247.693,91.454 242.455,91.103 226.731 C 90.953 220.022,90.676 219.192,87.437 215.765 C 85.321 213.527,84.893 212.720,85.254 211.658 C 85.724 210.276,86.629 210.266,88.374 211.622 C 90.008 212.894,90.197 212.468,89.545 208.987 C 89.111 206.673,89.256 205.855,90.198 205.299 C 91.031 204.808,91.369 204.004,91.386 202.471 L 91.399 201.384 92.174 203.250 C 93.063 205.391,93.010 205.359,96.372 205.772 C 101.518 206.404,103.823 204.649,104.096 199.894 C 104.518 192.524,97.655 186.995,90.096 188.616 M309.478 214.461 L 309.478 233.014 205.018 233.014 C 147.565 233.014,100.517 233.086,100.468 233.174 C 100.419 233.261,100.720 234.265,101.138 235.404 L 101.898 237.475 112.522 237.534 L 123.147 237.593 123.661 238.191 L 124.175 238.788 124.175 245.689 C 124.175 255.168,125.017 254.313,115.676 254.313 C 110.058 254.313,109.052 254.360,109.052 254.619 C 109.052 255.019,111.606 258.087,112.078 258.254 C 112.851 258.528,113.998 258.133,113.857 257.641 C 113.329 255.796,113.759 255.432,115.000 256.672 C 115.595 257.267,115.655 257.287,115.655 256.885 C 115.655 255.306,117.125 255.271,118.559 256.816 C 120.031 258.402,120.020 258.682,118.409 260.809 C 117.699 261.747,116.913 262.877,116.662 263.321 C 114.963 266.328,110.662 266.134,106.303 262.855 L 105.151 261.988 104.251 262.818 C 102.143 264.761,101.670 264.663,100.220 261.981 C 99.655 260.937,99.496 260.753,99.570 261.235 C 99.910 263.447,100.874 268.219,101.420 270.394 C 103.635 279.211,101.458 285.149,94.726 288.654 L 93.610 289.235 94.675 289.239 C 98.343 289.253,109.423 286.971,115.974 284.851 C 129.539 280.462,134.198 274.240,129.369 266.965 C 128.261 265.295,127.400 264.875,123.990 264.339 C 122.424 264.092,121.021 263.820,120.873 263.734 C 120.688 263.627,121.422 262.652,123.235 260.596 L 125.865 257.614 125.872 248.616 L 125.879 239.617 217.572 239.617 L 309.265 239.617 309.258 246.379 C 309.249 254.689,309.011 256.452,307.710 257.881 C 306.586 259.115,306.496 258.796,306.496 253.568 L 306.496 248.775 280.937 248.775 L 255.378 248.775 255.378 257.500 C 255.378 265.944,255.392 266.233,255.795 266.449 C 256.535 266.845,306.035 266.641,306.288 266.241 C 306.399 266.065,306.491 264.422,306.493 262.590 L 306.496 259.259 307.208 259.126 C 309.375 258.719,310.117 256.019,310.117 248.544 L 310.117 243.663 312.460 243.663 C 314.661 243.663,314.803 243.638,314.803 243.237 C 314.803 242.837,314.661 242.812,312.460 242.812 L 310.117 242.812 310.117 241.214 L 310.117 239.617 312.567 239.617 L 315.016 239.617 315.016 236.571 C 315.016 234.486,315.097 233.444,315.272 233.269 C 315.470 233.071,314.902 233.014,312.716 233.014 L 309.904 233.014 309.904 226.624 L 309.904 220.234 312.354 220.234 C 314.365 220.234,314.803 220.178,314.803 219.922 C 314.803 219.669,314.344 219.598,312.407 219.549 L 310.011 219.489 309.956 208.040 L 309.900 196.592 312.352 196.592 C 313.844 196.592,314.803 196.509,314.803 196.379 C 314.803 196.250,313.886 196.166,312.477 196.166 C 311.198 196.166,310.000 196.108,309.815 196.037 C 309.509 195.920,309.478 197.630,309.478 214.461 M94.782 206.756 C 94.278 206.946,93.256 207.704,93.362 207.810 C 93.415 207.863,93.826 207.709,94.276 207.467 C 95.298 206.920,96.116 206.919,97.316 207.463 C 98.369 207.941,98.713 207.881,97.915 207.358 C 96.959 206.732,95.562 206.463,94.782 206.756 M96.089 208.803 C 95.669 209.310,96.354 210.008,96.821 209.548 C 97.219 209.156,97.098 208.520,96.625 208.520 C 96.460 208.520,96.219 208.647,96.089 208.803 M93.919 216.708 C 94.633 217.468,95.541 217.741,95.960 217.321 C 96.397 216.885,96.217 216.724,95.673 217.064 C 95.305 217.294,95.140 217.252,94.495 216.759 C 93.559 216.046,93.272 216.020,93.919 216.708 M317.146 231.310 L 317.146 233.014 344.302 233.014 L 371.459 233.014 371.459 231.310 L 371.459 229.606 344.302 229.606 L 317.146 229.606 317.146 231.310 M302.662 257.188 L 302.662 263.685 294.706 263.685 L 286.749 263.685 287.996 257.464 C 288.683 254.042,289.244 251.166,289.244 251.074 C 289.244 250.981,285.506 250.905,280.937 250.905 C 273.621 250.905,272.630 250.944,272.630 251.231 C 272.630 251.411,273.158 254.209,273.802 257.449 C 274.446 260.690,274.973 263.419,274.973 263.513 C 274.973 263.608,271.427 263.685,267.093 263.685 L 259.212 263.685 259.211 260.543 C 259.211 258.815,259.148 255.892,259.071 254.047 L 258.932 250.692 280.797 250.692 L 302.662 250.692 302.662 257.188 M316.933 254.846 L 316.933 256.656 315.868 256.656 L 314.803 256.656 314.803 261.010 C 314.803 265.307,314.810 265.373,315.317 265.963 L 315.831 266.560 344.373 266.560 L 372.916 266.560 373.465 266.044 L 374.015 265.527 374.015 261.092 L 374.015 256.656 372.737 256.656 L 371.459 256.656 371.459 254.846 L 371.459 253.035 344.196 253.035 L 316.933 253.035 316.933 254.846 M36.794 254.431 C 37.328 255.038,37.436 256.321,37.001 256.887 C 35.873 258.356,33.440 257.635,33.440 255.833 C 33.440 253.898,35.550 253.017,36.794 254.431 M53.414 254.006 C 54.026 254.434,54.108 256.698,53.535 257.331 C 52.932 257.998,42.550 257.922,42.078 257.248 C 41.488 256.404,41.726 254.334,42.471 253.837 C 42.979 253.498,52.907 253.650,53.414 254.006 M60.983 253.912 C 62.313 254.592,62.588 256.082,61.571 257.098 C 59.849 258.821,57.103 256.550,58.602 254.644 C 59.306 253.749,60.154 253.488,60.983 253.912 M282.055 256.182 C 282.271 256.371,282.428 256.810,282.428 257.222 C 282.428 258.687,280.767 259.343,279.888 258.225 C 278.644 256.643,280.543 254.853,282.055 256.182 M338.864 260.689 C 339.172 261.266,339.138 262.039,338.782 262.526 C 338.429 263.009,330.574 263.282,329.438 262.850 C 328.800 262.607,328.585 261.064,329.116 260.532 C 329.609 260.040,338.593 260.184,338.864 260.689 M345.084 260.629 C 345.562 261.062,345.591 262.046,345.139 262.498 C 344.387 263.251,342.918 262.651,342.918 261.592 C 342.918 260.453,344.240 259.865,345.084 260.629 M358.850 260.532 C 359.153 260.836,359.183 262.167,358.897 262.620 C 358.547 263.173,349.594 263.087,349.184 262.526 C 348.828 262.039,348.793 261.266,349.102 260.689 C 349.373 260.184,358.357 260.040,358.850 260.532 " stroke="none" fill="#44336c" fill-rule="evenodd"></path><path id="path2" d="M65.257 55.459 L 61.611 58.892 62.648 58.957 L 63.685 59.021 63.685 63.057 L 63.685 67.093 68.685 67.093 L 73.686 67.093 73.744 63.099 L 73.802 59.105 75.100 58.999 L 76.398 58.892 73.110 55.804 C 71.301 54.105,69.615 52.560,69.362 52.370 C 68.915 52.034,68.805 52.117,65.257 55.459 M308.413 52.675 C 307.368 53.004,305.585 54.850,305.264 55.935 C 303.895 60.569,308.284 64.540,312.568 62.545 C 318.760 59.661,314.952 50.614,308.413 52.675 M312.391 53.905 C 314.748 55.046,315.421 58.435,313.684 60.413 C 310.993 63.477,306.080 61.738,306.080 57.721 C 306.080 54.490,309.423 52.468,312.391 53.905 M69.269 82.995 C 68.885 83.185,68.357 83.638,68.098 84.002 L 67.625 84.665 67.568 102.716 L 67.512 120.767 81.466 120.767 L 95.421 120.767 95.421 131.416 L 95.421 142.066 93.291 142.066 L 91.161 142.066 91.161 143.876 L 91.161 145.687 93.291 145.687 L 95.421 145.687 95.421 156.230 L 95.421 166.773 93.291 166.773 L 91.161 166.773 91.161 168.690 L 91.161 170.607 93.291 170.607 L 95.421 170.607 95.421 179.659 C 95.421 188.136,95.444 188.712,95.793 188.716 C 96.941 188.732,99.767 190.309,101.210 191.739 C 105.439 195.930,105.230 203.984,100.852 205.567 C 100.442 205.715,100.107 205.889,100.108 205.953 C 100.109 206.018,100.252 207.268,100.426 208.733 C 100.965 213.275,100.811 215.122,99.895 215.122 C 99.482 215.122,98.380 216.281,98.006 217.109 C 97.474 218.285,96.372 219.302,95.084 219.805 C 94.079 220.198,94.065 220.215,94.728 220.224 L 95.421 220.234 95.421 222.710 L 95.421 225.185 96.694 226.546 C 97.901 227.837,99.125 229.994,99.910 232.215 L 100.192 233.014 204.719 233.014 L 309.246 233.014 309.320 208.040 C 309.401 180.723,309.396 180.849,310.679 176.997 C 311.563 174.344,313.051 172.524,314.337 172.524 C 314.802 172.524,314.803 172.511,314.803 168.037 C 314.803 162.459,314.683 162.726,317.180 162.726 L 319.116 162.726 318.991 162.141 C 318.922 161.818,318.709 160.836,318.518 159.957 C 317.721 156.296,318.297 150.802,320.038 145.457 C 320.556 143.866,320.980 142.212,320.980 141.783 C 320.980 141.181,321.065 141.001,321.353 141.000 C 321.597 141.000,321.980 140.506,322.466 139.563 C 325.194 134.266,329.635 129.648,334.363 127.188 C 336.008 126.332,338.839 125.240,339.412 125.240 C 339.551 125.240,340.542 126.385,341.615 127.785 C 342.687 129.185,343.635 130.374,343.721 130.428 C 343.859 130.513,345.673 128.899,350.451 124.436 C 352.078 122.917,352.073 122.951,350.814 121.419 L 350.212 120.687 347.790 123.010 C 346.457 124.288,345.015 125.661,344.584 126.061 L 343.800 126.787 342.724 125.108 C 342.132 124.185,341.646 123.176,341.644 122.867 C 341.641 122.397,341.521 122.283,340.908 122.168 C 337.936 121.610,335.744 118.169,334.930 112.780 C 334.434 109.493,334.430 109.478,334.040 109.478 C 331.641 109.478,326.941 102.790,326.945 99.381 C 326.949 95.126,329.885 93.429,335.271 94.565 C 337.557 95.048,339.888 95.106,342.469 94.745 C 344.147 94.511,346.579 94.696,347.758 95.149 C 348.012 95.246,348.048 94.486,347.991 90.177 C 347.917 84.583,347.836 84.214,346.470 83.196 L 345.869 82.748 207.918 82.699 C 81.165 82.654,69.911 82.678,69.269 82.995 M300.490 107.391 C 300.860 107.761,300.860 139.098,300.490 139.468 C 300.118 139.839,224.270 139.839,223.898 139.468 C 223.528 139.098,223.528 107.761,223.898 107.391 C 224.270 107.019,300.118 107.019,300.490 107.391 M240.980 115.422 C 238.019 116.767,238.460 121.222,241.634 122.021 C 242.855 122.328,243.991 121.980,244.972 120.999 C 247.671 118.300,244.475 113.835,240.980 115.422 M255.774 118.618 C 255.348 118.963,255.272 119.218,255.272 120.289 C 255.272 122.455,253.526 122.258,272.644 122.258 L 289.433 122.258 289.764 121.784 C 290.304 121.014,290.200 119.361,289.573 118.734 L 289.050 118.211 272.664 118.211 C 256.847 118.211,256.260 118.225,255.774 118.618 M29.819 131.416 L 29.819 139.723 60.383 139.723 L 90.948 139.723 90.948 131.416 L 90.948 123.110 60.383 123.110 L 29.819 123.110 29.819 131.416 M238.832 124.457 C 236.316 125.385,234.931 127.550,234.931 130.556 C 234.931 133.101,234.306 132.907,242.509 132.907 C 250.816 132.907,250.143 133.141,250.016 130.299 C 249.882 127.277,248.612 125.338,246.212 124.491 C 245.107 124.102,239.863 124.077,238.832 124.457 M212.340 155.857 C 212.332 173.183,212.247 186.066,212.142 185.806 C 211.646 184.576,215.619 184.665,160.746 184.665 L 110.510 184.665 109.888 185.287 L 109.265 185.910 109.265 156.427 L 109.265 126.944 112.087 126.944 C 114.269 126.945,169.606 126.169,191.642 125.829 L 195.318 125.772 192.707 126.641 C 189.516 127.702,189.310 128.034,190.967 129.450 L 191.968 130.306 175.214 147.098 L 158.461 163.890 149.570 155.001 C 144.680 150.113,140.537 146.113,140.362 146.113 C 139.814 146.113,120.128 165.954,120.128 166.506 C 120.128 166.770,120.168 166.986,120.217 166.986 C 120.266 166.986,120.466 167.047,120.661 167.122 C 120.927 167.224,123.448 164.828,130.687 157.596 L 140.359 147.933 148.188 155.714 C 159.659 167.116,158.219 166.087,160.071 164.201 C 160.770 163.488,168.511 155.805,177.272 147.126 L 193.203 131.346 194.099 132.208 C 196.140 134.173,196.274 134.050,197.229 129.326 L 197.969 125.672 203.617 125.612 C 206.723 125.579,209.960 125.530,210.809 125.502 L 212.354 125.453 212.340 155.857 M255.713 126.000 C 255.484 126.229,255.378 126.733,255.378 127.586 C 255.378 129.662,253.910 129.499,272.630 129.499 C 291.286 129.499,289.883 129.649,289.883 127.663 C 289.883 125.443,291.790 125.666,272.745 125.666 C 257.849 125.666,256.011 125.702,255.713 126.000 M195.949 127.955 C 195.855 128.395,195.666 129.306,195.530 129.981 L 195.283 131.208 193.805 129.895 C 192.993 129.172,192.384 128.525,192.453 128.456 C 192.617 128.291,195.561 127.185,195.877 127.169 C 196.048 127.160,196.069 127.396,195.949 127.955 M36.295 129.742 C 37.113 130.115,37.572 131.257,37.271 132.169 C 36.658 134.027,34.057 134.031,33.444 132.175 C 32.886 130.482,34.638 128.987,36.295 129.742 M53.498 129.852 C 54.025 130.329,54.050 132.587,53.535 133.157 C 53.035 133.709,42.841 133.758,42.294 133.212 C 41.733 132.650,41.831 130.253,42.433 129.831 C 43.162 129.320,52.931 129.339,53.498 129.852 M61.571 130.122 C 62.032 130.583,62.194 130.947,62.194 131.523 C 62.194 133.349,60.049 134.203,58.743 132.897 C 58.167 132.322,58.107 132.146,58.214 131.353 C 58.454 129.559,60.323 128.874,61.571 130.122 M78.381 129.925 C 78.918 130.462,78.975 132.360,78.476 133.073 C 78.071 133.651,67.986 133.829,67.224 133.271 C 66.596 132.812,66.487 130.531,67.066 129.953 C 67.749 129.269,77.701 129.245,78.381 129.925 M85.391 129.809 C 87.186 130.737,86.438 133.546,84.395 133.546 C 82.430 133.546,81.605 131.295,83.107 130.031 C 83.824 129.428,84.522 129.360,85.391 129.809 M29.819 156.230 L 29.819 164.430 60.383 164.430 L 90.948 164.430 90.948 156.230 L 90.948 148.030 60.383 148.030 L 29.819 148.030 29.819 156.230 M36.095 154.509 C 38.104 155.349,37.522 158.466,35.357 158.466 C 33.224 158.466,32.609 155.372,34.572 154.518 C 35.412 154.153,35.244 154.154,36.095 154.509 M60.904 154.420 C 61.406 154.420,62.194 155.591,62.194 156.337 C 62.194 158.442,59.407 159.221,58.456 157.382 C 57.684 155.888,58.964 153.941,60.454 154.343 C 60.610 154.385,60.813 154.420,60.904 154.420 M85.083 154.509 C 87.208 155.397,86.446 158.759,84.202 158.395 C 82.083 158.051,81.621 155.361,83.538 154.527 C 84.404 154.151,84.231 154.153,85.083 154.509 M53.552 154.754 C 54.114 155.316,54.016 157.713,53.414 158.135 C 52.786 158.574,43.455 158.623,42.599 158.192 C 41.894 157.836,41.672 155.156,42.309 154.691 C 42.914 154.249,53.104 154.306,53.552 154.754 M78.476 154.893 C 78.975 155.606,78.918 157.504,78.381 158.040 C 77.980 158.442,77.671 158.466,73.088 158.466 C 66.791 158.466,66.667 158.420,66.667 156.038 C 66.667 154.424,66.682 154.420,72.737 154.420 C 78.083 154.420,78.148 154.425,78.476 154.893 M319.735 165.312 C 319.185 165.515,318.993 179.184,319.531 179.723 C 319.902 180.094,368.915 180.094,369.286 179.723 C 369.663 179.347,369.653 165.517,369.276 165.396 C 368.752 165.229,320.184 165.146,319.735 165.312 M325.942 171.195 C 327.349 172.462,326.427 174.654,324.488 174.654 C 323.688 174.654,322.684 173.588,322.684 172.739 C 322.684 170.960,324.648 170.030,325.942 171.195 M365.902 170.916 C 367.667 171.829,366.952 174.654,364.956 174.654 C 362.913 174.654,362.231 171.900,364.028 170.904 C 364.694 170.535,365.170 170.538,365.902 170.916 M339.936 171.885 C 340.551 172.500,340.487 173.459,339.796 174.003 C 339.153 174.509,338.544 174.428,337.966 173.760 C 336.868 172.489,338.750 170.698,339.936 171.885 M353.236 171.932 C 353.418 172.193,353.568 172.651,353.568 172.950 C 353.568 174.406,353.435 174.441,347.911 174.441 C 342.379 174.441,342.066 174.364,342.066 172.997 C 342.066 171.485,342.162 171.459,347.817 171.459 C 352.833 171.459,352.909 171.466,353.236 171.932 M358.040 171.885 C 358.655 172.500,358.592 173.459,357.901 174.003 C 357.258 174.509,356.648 174.428,356.070 173.760 C 354.992 172.513,356.876 170.720,358.040 171.885 M29.819 181.150 L 29.819 189.350 58.520 189.340 L 87.220 189.330 89.031 188.841 L 90.841 188.351 90.897 180.651 L 90.953 172.950 60.386 172.950 L 29.819 172.950 29.819 181.150 M313.650 173.575 C 311.214 175.180,310.337 179.075,310.181 188.978 L 310.070 195.953 312.437 195.953 L 314.803 195.953 314.803 191.466 C 314.803 186.364,314.854 186.155,316.088 186.155 L 316.933 186.155 316.933 184.345 L 316.933 182.535 316.203 182.535 C 314.850 182.535,314.803 182.367,314.803 177.514 C 314.803 172.795,314.808 172.812,313.650 173.575 M36.603 179.665 C 37.843 180.708,37.579 182.464,36.088 183.087 C 34.094 183.920,32.340 181.265,33.930 179.820 C 34.858 178.976,35.724 178.926,36.603 179.665 M53.414 179.458 C 53.814 179.738,53.887 179.989,53.887 181.070 C 53.887 183.304,54.246 183.174,48.115 183.174 C 41.746 183.174,41.960 183.239,41.960 181.275 C 41.960 179.393,41.998 179.368,45.061 179.286 C 52.071 179.099,52.926 179.117,53.414 179.458 M61.715 179.877 C 62.661 180.966,62.182 182.652,60.774 183.187 C 59.151 183.804,57.572 181.789,58.444 180.215 C 59.106 179.022,60.818 178.845,61.715 179.877 M78.381 179.553 C 78.918 180.089,78.975 181.987,78.476 182.700 C 78.148 183.168,78.083 183.174,72.751 183.174 C 66.645 183.174,66.885 183.242,66.714 181.466 C 66.533 179.578,66.833 179.366,69.809 179.286 C 77.384 179.082,77.927 179.098,78.381 179.553 M85.778 179.878 C 86.437 180.537,86.514 180.722,86.405 181.395 C 86.053 183.560,83.346 183.977,82.518 181.994 C 81.619 179.843,84.120 178.220,85.778 179.878 M300.537 188.711 C 300.856 189.217,300.811 214.972,300.490 215.293 C 300.118 215.665,224.270 215.665,223.898 215.293 C 223.704 215.100,223.642 211.827,223.642 201.867 L 223.642 188.698 224.121 188.504 C 225.038 188.134,300.301 188.338,300.537 188.711 M319.531 188.967 C 319.236 189.262,319.161 202.684,319.452 203.143 C 319.587 203.355,324.744 203.399,344.529 203.356 L 369.436 203.301 369.492 196.298 C 369.532 191.307,369.478 189.211,369.306 189.003 C 368.971 188.599,319.934 188.564,319.531 188.967 M366.379 194.815 C 367.479 195.986,366.668 198.084,365.098 198.129 C 362.584 198.200,362.109 194.911,364.537 194.238 C 365.211 194.051,365.848 194.250,366.379 194.815 M325.802 194.560 C 327.413 195.689,326.578 198.083,324.572 198.083 C 323.623 198.083,322.684 197.130,322.684 196.166 C 322.684 194.688,324.585 193.708,325.802 194.560 M339.801 195.330 C 340.862 196.165,340.230 197.985,338.933 197.830 C 337.565 197.666,337.224 195.782,338.449 195.162 C 339.139 194.813,339.145 194.814,339.801 195.330 M353.236 195.362 C 353.659 195.966,353.659 196.792,353.236 197.397 C 352.909 197.863,352.833 197.870,347.817 197.870 C 342.801 197.870,342.724 197.863,342.398 197.397 C 341.941 196.744,341.982 195.824,342.492 195.314 C 343.189 194.617,352.744 194.659,353.236 195.362 M357.905 195.330 C 358.895 196.109,358.392 197.870,357.179 197.870 C 355.712 197.870,355.261 195.649,356.617 195.103 C 357.273 194.838,357.282 194.840,357.905 195.330 M310.117 207.987 L 310.117 219.382 312.460 219.382 L 314.803 219.382 314.803 214.836 C 314.803 209.771,314.855 209.585,316.257 209.585 L 316.933 209.585 316.933 207.774 L 316.933 205.964 316.088 205.964 C 314.860 205.964,314.803 205.739,314.803 200.866 L 314.803 196.592 312.460 196.592 L 310.117 196.592 310.117 207.987 M29.819 205.964 L 29.819 214.271 49.943 214.271 L 70.066 214.271 70.167 213.791 C 70.223 213.528,70.302 212.138,70.343 210.703 L 70.417 208.094 69.009 208.094 C 67.151 208.094,66.877 207.872,66.730 206.248 C 66.553 204.303,66.888 204.047,69.604 204.047 L 71.690 204.047 72.278 202.847 C 72.914 201.551,73.887 200.001,74.969 198.562 L 75.649 197.657 52.734 197.657 L 29.819 197.657 29.819 205.964 M232.588 197.805 C 231.603 198.157,231.322 200.964,232.209 201.585 C 233.064 202.184,276.202 202.078,276.968 201.475 C 277.767 200.847,277.789 198.962,277.006 198.180 L 276.484 197.657 254.696 197.674 C 242.712 197.683,232.764 197.742,232.588 197.805 M36.454 204.277 C 37.145 204.647,37.554 205.861,37.273 206.710 C 36.698 208.454,34.345 208.575,33.550 206.901 C 32.712 205.134,34.699 203.338,36.454 204.277 M53.498 204.399 C 54.025 204.877,54.050 207.134,53.535 207.704 C 53.039 208.252,43.206 208.303,42.433 207.762 C 41.821 207.334,41.739 205.070,42.312 204.436 C 42.824 203.870,52.876 203.837,53.498 204.399 M61.571 204.669 C 63.369 206.467,60.817 209.271,58.891 207.614 C 58.516 207.291,58.294 206.842,58.214 206.240 C 57.960 204.351,60.204 203.302,61.571 204.669 M231.991 205.154 C 231.645 205.500,231.667 206.707,232.025 207.004 C 232.237 207.179,238.352 207.229,254.762 207.189 L 277.210 207.135 277.277 206.322 C 277.403 204.784,279.231 204.899,254.543 204.899 C 237.486 204.899,232.187 204.959,231.991 205.154 M319.531 212.396 C 318.993 212.935,319.185 226.604,319.735 226.807 C 320.184 226.974,368.752 226.891,369.276 226.723 C 369.788 226.559,369.647 212.638,369.130 212.361 C 368.497 212.022,319.871 212.057,319.531 212.396 M325.658 217.994 C 326.794 218.582,326.951 220.231,325.956 221.123 C 324.067 222.817,321.511 220.096,323.306 218.301 C 324.004 217.603,324.722 217.510,325.658 217.994 M366.196 218.107 C 367.276 218.957,367.113 220.789,365.902 221.416 C 363.857 222.473,361.940 219.923,363.562 218.301 C 364.317 217.546,365.383 217.467,366.196 218.107 M353.185 218.701 C 353.543 219.059,353.543 220.770,353.185 221.129 C 352.885 221.429,344.534 221.661,343.175 221.407 C 341.976 221.184,341.667 218.984,342.770 218.527 C 343.529 218.212,352.852 218.368,353.185 218.701 M339.973 218.883 C 340.458 219.322,340.477 220.393,340.010 220.910 C 339.241 221.759,337.593 221.081,337.593 219.915 C 337.593 218.767,339.115 218.107,339.973 218.883 M358.077 218.883 C 358.562 219.322,358.582 220.393,358.114 220.910 C 357.345 221.759,355.698 221.081,355.698 219.915 C 355.698 218.767,357.220 218.107,358.077 218.883 M310.117 226.624 L 310.117 233.014 313.525 233.014 L 316.933 233.014 316.933 231.310 L 316.933 229.606 316.341 229.606 C 314.860 229.606,314.803 229.421,314.803 224.589 L 314.803 220.234 312.460 220.234 L 310.117 220.234 310.117 226.624 M29.819 230.777 L 29.819 238.978 43.504 238.978 L 57.188 238.978 57.188 237.114 C 57.188 235.334,57.702 233.368,58.410 232.442 C 58.527 232.288,58.513 232.022,58.375 231.764 C 57.728 230.555,58.751 228.882,60.136 228.882 C 60.892 228.882,66.880 223.484,66.880 222.803 C 66.880 222.646,61.248 222.577,48.349 222.577 L 29.819 222.577 29.819 230.777 M36.575 229.219 C 38.115 230.497,37.319 232.898,35.357 232.898 C 33.825 232.898,32.851 231.376,33.535 230.053 C 34.139 228.885,35.668 228.466,36.575 229.219 M53.667 229.379 C 54.079 230.150,53.938 232.111,53.434 232.615 C 52.934 233.115,42.846 233.048,42.226 232.541 C 41.877 232.255,41.868 229.569,42.215 229.223 C 42.711 228.727,53.396 228.873,53.667 229.379 M319.735 235.812 C 319.185 236.015,318.993 249.685,319.531 250.224 C 319.902 250.595,368.915 250.595,369.286 250.224 C 369.663 249.847,369.653 236.018,369.276 235.897 C 368.752 235.729,320.184 235.646,319.735 235.812 M103.201 241.421 C 103.949 243.592,104.756 245.813,104.996 246.354 C 105.876 248.344,104.372 252.726,100.984 258.040 L 99.491 260.383 100.384 262.065 C 101.475 264.118,101.745 264.323,102.734 263.851 C 105.467 262.547,108.839 257.635,108.839 254.957 L 108.839 254.100 115.821 254.100 C 125.096 254.100,124.217 255.007,124.130 245.520 L 124.068 238.774 123.478 238.183 L 122.887 237.593 112.365 237.532 L 101.842 237.472 103.201 241.421 M325.942 241.696 C 327.349 242.962,326.427 245.154,324.488 245.154 C 323.688 245.154,322.684 244.089,322.684 243.240 C 322.684 241.461,324.648 240.530,325.942 241.696 M365.902 241.417 C 367.667 242.330,366.952 245.154,364.956 245.154 C 362.957 245.154,362.201 242.391,363.941 241.448 C 364.698 241.037,365.153 241.030,365.902 241.417 M339.936 242.386 C 340.170 242.620,340.362 243.084,340.362 243.417 C 340.362 244.655,338.749 245.256,337.979 244.305 C 336.897 242.970,338.727 241.176,339.936 242.386 M353.236 242.433 C 353.693 243.085,353.651 244.006,353.142 244.515 C 352.740 244.917,352.432 244.941,347.817 244.941 C 342.389 244.941,342.066 244.860,342.066 243.498 C 342.066 241.985,342.162 241.960,347.817 241.960 C 352.833 241.960,352.909 241.966,353.236 242.433 M358.040 242.386 C 358.655 243.000,358.592 243.960,357.901 244.504 C 357.258 245.009,356.648 244.928,356.070 244.260 C 354.972 242.990,356.854 241.199,358.040 242.386 M280.133 256.136 C 279.256 256.750,279.655 258.525,280.686 258.598 C 282.212 258.706,282.988 257.256,281.935 256.267 C 281.353 255.720,280.785 255.679,280.133 256.136 " stroke="none" fill="#edeef7" fill-rule="evenodd"></path><path id="path3" d="M315.673 44.888 C 315.042 47.933,314.786 49.683,314.660 51.819 L 314.524 54.117 313.865 53.525 C 313.502 53.199,313.608 53.363,314.101 53.889 C 316.198 56.130,316.255 59.070,314.247 61.372 C 313.438 62.298,313.438 62.299,314.178 61.613 L 314.919 60.927 315.405 63.410 C 316.046 66.678,317.321 70.441,318.796 73.417 L 319.989 75.825 321.816 75.816 C 324.535 75.802,325.713 75.271,326.518 73.695 C 326.995 72.760,327.404 48.537,326.970 46.944 C 326.213 44.171,325.118 43.663,319.899 43.663 L 315.927 43.663 315.673 44.888 M90.526 51.384 C 88.692 52.322,88.720 52.203,88.649 59.448 C 88.579 66.684,88.637 66.979,90.311 67.920 L 91.115 68.372 192.043 68.318 L 292.971 68.264 293.637 67.789 C 294.973 66.836,295.094 66.273,295.171 60.596 C 295.271 53.206,295.087 52.396,293.084 51.384 L 292.136 50.905 191.800 50.905 L 91.464 50.905 90.526 51.384 M309.744 52.336 C 310.067 52.385,310.594 52.385,310.916 52.336 C 311.238 52.287,310.974 52.247,310.330 52.247 C 309.686 52.247,309.422 52.287,309.744 52.336 M66.550 54.153 L 65.708 55.059 66.613 54.217 C 67.455 53.434,67.617 53.248,67.455 53.248 C 67.421 53.248,67.013 53.655,66.550 54.153 M306.376 53.940 L 305.751 54.633 306.443 54.007 C 307.088 53.424,307.233 53.248,307.069 53.248 C 307.032 53.248,306.720 53.560,306.376 53.940 M71.557 54.366 C 72.439 55.307,72.630 55.476,72.630 55.316 C 72.630 55.282,72.175 54.826,71.619 54.304 L 70.607 53.355 71.557 54.366 M63.259 57.188 C 62.741 57.716,62.366 58.147,62.425 58.147 C 62.483 58.147,62.954 57.716,63.472 57.188 C 63.989 56.661,64.365 56.230,64.306 56.230 C 64.247 56.230,63.776 56.661,63.259 57.188 M74.751 57.348 C 75.274 57.905,75.729 58.360,75.763 58.360 C 75.923 58.360,75.754 58.169,74.814 57.286 L 73.802 56.337 74.751 57.348 M304.850 57.721 C 304.850 58.248,304.892 58.464,304.943 58.200 C 304.993 57.937,304.993 57.505,304.943 57.242 C 304.892 56.978,304.850 57.194,304.850 57.721 M61.931 59.153 C 62.314 59.201,62.889 59.200,63.209 59.151 C 63.529 59.103,63.216 59.064,62.513 59.065 C 61.810 59.066,61.549 59.106,61.931 59.153 M73.837 59.141 C 73.759 59.219,73.695 61.038,73.695 63.184 L 73.695 67.085 68.637 67.148 L 63.578 67.211 68.690 67.205 L 73.802 67.199 73.860 63.215 L 73.918 59.231 75.351 59.157 L 76.784 59.082 75.382 59.041 C 74.610 59.018,73.916 59.063,73.837 59.141 M306.709 60.131 C 306.709 60.167,307.021 60.479,307.401 60.823 L 308.094 61.448 307.468 60.756 C 306.885 60.111,306.709 59.966,306.709 60.131 M309.851 63.196 C 310.114 63.247,310.546 63.247,310.809 63.196 C 311.073 63.145,310.857 63.104,310.330 63.104 C 309.803 63.104,309.587 63.145,309.851 63.196 M276.426 82.588 C 279.392 82.621,284.184 82.621,287.076 82.588 C 289.967 82.554,287.540 82.527,281.683 82.527 C 275.825 82.527,273.460 82.554,276.426 82.588 M338.181 95.145 C 338.446 95.196,338.830 95.194,339.033 95.141 C 339.237 95.088,339.020 95.046,338.552 95.048 C 338.083 95.051,337.916 95.094,338.181 95.145 M223.898 107.391 C 223.528 107.761,223.528 139.098,223.898 139.468 C 224.270 139.839,300.118 139.839,300.490 139.468 C 300.860 139.098,300.860 107.761,300.490 107.391 C 300.118 107.019,224.270 107.019,223.898 107.391 M243.779 115.416 C 246.141 116.489,246.730 119.242,244.972 120.999 C 243.586 122.385,241.510 122.505,240.184 121.275 C 237.241 118.546,240.168 113.776,243.779 115.416 M289.573 118.734 C 290.200 119.361,290.304 121.014,289.764 121.784 L 289.433 122.258 272.644 122.258 C 253.526 122.258,255.272 122.455,255.272 120.289 C 255.272 118.024,253.709 118.211,272.664 118.211 L 289.050 118.211 289.573 118.734 M74.281 120.926 C 78.176 120.959,84.550 120.959,88.445 120.926 C 92.340 120.894,89.153 120.867,81.363 120.867 C 73.573 120.867,70.386 120.894,74.281 120.926 M90.998 131.362 L 90.948 139.722 60.330 139.776 L 29.712 139.831 60.337 139.884 C 84.715 139.925,90.982 139.882,91.064 139.669 C 91.120 139.523,91.140 135.713,91.108 131.203 L 91.049 123.003 90.998 131.362 M246.212 124.491 C 248.612 125.338,249.882 127.277,250.016 130.299 C 250.143 133.141,250.816 132.907,242.509 132.907 C 234.306 132.907,234.931 133.101,234.931 130.556 C 234.931 127.550,236.316 125.385,238.832 124.457 C 239.863 124.077,245.107 124.102,246.212 124.491 M289.662 126.078 C 289.784 126.304,289.883 127.018,289.883 127.663 C 289.883 129.649,291.286 129.499,272.630 129.499 C 253.910 129.499,255.378 129.662,255.378 127.586 C 255.378 125.483,253.727 125.666,272.745 125.666 C 289.035 125.666,289.447 125.676,289.662 126.078 M34.984 129.646 C 35.189 129.700,35.524 129.700,35.729 129.646 C 35.935 129.593,35.767 129.549,35.357 129.549 C 34.947 129.549,34.779 129.593,34.984 129.646 M59.800 129.650 C 60.065 129.701,60.448 129.699,60.652 129.646 C 60.856 129.593,60.639 129.551,60.170 129.553 C 59.702 129.556,59.535 129.599,59.800 129.650 M83.972 129.646 C 84.177 129.700,84.513 129.700,84.718 129.646 C 84.923 129.593,84.755 129.549,84.345 129.549 C 83.935 129.549,83.767 129.593,83.972 129.646 M92.173 142.010 C 92.788 142.053,93.794 142.053,94.409 142.010 C 95.024 141.967,94.521 141.932,93.291 141.932 C 92.061 141.932,91.558 141.967,92.173 142.010 M60.330 147.977 L 90.948 148.031 90.948 156.230 L 90.948 164.429 60.330 164.483 L 29.712 164.538 60.437 164.591 L 91.161 164.643 91.161 156.230 L 91.161 147.817 60.437 147.869 L 29.712 147.922 60.330 147.977 M34.984 158.400 C 35.189 158.454,35.524 158.454,35.729 158.400 C 35.935 158.347,35.767 158.303,35.357 158.303 C 34.947 158.303,34.779 158.347,34.984 158.400 M314.894 167.945 C 314.894 170.522,314.925 171.547,314.962 170.222 C 315.000 168.898,314.999 166.789,314.962 165.537 C 314.924 164.284,314.894 165.367,314.894 167.945 M329.446 165.220 C 329.710 165.270,330.141 165.270,330.405 165.220 C 330.668 165.169,330.453 165.127,329.925 165.127 C 329.398 165.127,329.183 165.169,329.446 165.220 M337.913 165.226 C 355.740 165.372,369.492 165.374,369.403 165.229 C 369.348 165.141,360.707 165.092,350.200 165.119 C 339.693 165.147,334.164 165.195,337.913 165.226 M369.592 172.535 C 369.562 176.749,369.459 179.568,369.330 179.724 C 369.213 179.865,369.262 179.855,369.439 179.703 C 369.716 179.464,369.753 178.464,369.702 172.513 L 369.642 165.602 369.592 172.535 M319.158 172.524 C 319.158 176.214,319.187 177.724,319.222 175.879 C 319.258 174.034,319.258 171.014,319.222 169.169 C 319.187 167.324,319.158 168.834,319.158 172.524 M346.391 171.618 C 347.656 171.656,349.669 171.656,350.864 171.618 C 352.058 171.580,351.022 171.549,348.562 171.549 C 346.102 171.549,345.125 171.580,346.391 171.618 M342.115 172.950 C 342.115 173.360,342.159 173.528,342.213 173.323 C 342.266 173.118,342.266 172.782,342.213 172.577 C 342.159 172.372,342.115 172.540,342.115 172.950 M353.404 172.950 C 353.404 173.360,353.448 173.528,353.501 173.323 C 353.555 173.118,353.555 172.782,353.501 172.577 C 353.448 172.372,353.404 172.540,353.404 172.950 M60.335 172.897 L 90.958 172.951 90.900 180.705 C 90.868 184.969,90.913 188.413,91.001 188.359 C 91.089 188.305,91.161 184.768,91.161 180.499 L 91.161 172.737 60.437 172.789 L 29.712 172.842 60.335 172.897 M314.893 177.529 C 314.893 179.989,314.924 180.967,314.962 179.701 C 315.000 178.435,315.000 176.422,314.962 175.228 C 314.924 174.034,314.893 175.069,314.893 177.529 M353.018 174.011 C 352.897 174.132,350.706 174.246,347.810 174.281 L 342.812 174.343 347.844 174.392 C 352.099 174.433,352.917 174.392,353.142 174.121 C 353.437 173.766,353.345 173.684,353.018 174.011 M332.199 180.138 C 338.896 180.170,349.919 180.170,356.693 180.138 C 363.467 180.107,357.987 180.082,344.515 180.082 C 331.044 180.082,325.501 180.107,332.199 180.138 M316.126 182.468 L 316.917 182.559 316.991 184.358 L 317.066 186.157 317.053 184.292 L 317.039 182.428 316.187 182.403 L 315.335 182.377 316.126 182.468 M309.358 190.735 C 309.358 193.781,309.388 194.997,309.424 193.438 C 309.461 191.879,309.461 189.387,309.424 187.900 C 309.388 186.413,309.358 187.689,309.358 190.735 M309.995 191.054 C 309.995 193.690,310.026 194.768,310.063 193.450 C 310.101 192.133,310.101 189.976,310.063 188.658 C 310.026 187.340,309.995 188.419,309.995 191.054 M314.894 191.374 C 314.894 193.951,314.925 194.976,314.962 193.652 C 315.000 192.327,314.999 190.219,314.962 188.966 C 314.924 187.713,314.894 188.797,314.894 191.374 M224.121 188.504 L 223.642 188.698 223.642 201.867 C 223.642 211.827,223.704 215.100,223.898 215.293 C 224.270 215.665,300.118 215.665,300.490 215.293 C 300.811 214.972,300.856 189.217,300.537 188.711 C 300.301 188.338,225.038 188.134,224.121 188.504 M332.199 188.658 C 338.896 188.689,349.919 188.689,356.693 188.658 C 363.467 188.627,357.987 188.601,344.515 188.601 C 331.044 188.601,325.501 188.627,332.199 188.658 M369.273 188.943 C 369.467 189.191,369.552 191.105,369.595 196.184 L 369.655 203.088 369.705 196.139 C 369.751 189.738,369.726 189.166,369.382 188.897 C 369.053 188.639,369.040 188.644,369.273 188.943 M44.159 189.510 C 52.105 189.541,65.044 189.541,72.913 189.510 C 80.782 189.479,74.281 189.454,58.466 189.454 C 42.652 189.454,36.214 189.479,44.159 189.510 M319.158 196.166 C 319.158 199.856,319.187 201.366,319.222 199.521 C 319.258 197.676,319.258 194.657,319.222 192.812 C 319.187 190.966,319.158 192.476,319.158 196.166 M347.800 195.048 C 351.343 195.091,352.886 195.185,353.125 195.371 C 353.422 195.603,353.427 195.590,353.169 195.261 C 352.903 194.922,352.419 194.893,347.844 194.937 L 342.812 194.986 347.800 195.048 M342.115 196.379 C 342.115 196.789,342.159 196.957,342.213 196.752 C 342.266 196.547,342.266 196.211,342.213 196.006 C 342.159 195.801,342.115 195.969,342.115 196.379 M353.404 196.379 C 353.404 196.789,353.448 196.957,353.501 196.752 C 353.555 196.547,353.555 196.211,353.501 196.006 C 353.448 195.801,353.404 195.969,353.404 196.379 M314.893 200.958 C 314.893 203.419,314.924 204.396,314.962 203.130 C 315.000 201.864,315.000 199.852,314.962 198.657 C 314.924 197.463,314.893 198.498,314.893 200.958 M41.267 197.604 C 47.622 197.635,58.022 197.635,64.377 197.604 C 70.732 197.572,65.532 197.547,52.822 197.547 C 40.112 197.547,34.912 197.572,41.267 197.604 M277.006 198.180 C 277.789 198.962,277.767 200.847,276.968 201.475 C 276.202 202.078,233.064 202.184,232.209 201.585 C 231.322 200.964,231.603 198.157,232.588 197.805 C 232.764 197.742,242.712 197.683,254.696 197.674 L 276.484 197.657 277.006 198.180 M346.486 197.816 C 347.686 197.854,349.651 197.854,350.852 197.816 C 352.053 197.778,351.070 197.747,348.669 197.747 C 346.267 197.747,345.285 197.778,346.486 197.816 M332.002 203.568 C 338.826 203.599,349.992 203.599,356.816 203.568 C 363.640 203.536,358.056 203.511,344.409 203.511 C 330.761 203.511,325.178 203.536,332.002 203.568 M277.091 205.203 C 277.230 205.371,277.314 205.874,277.277 206.322 L 277.210 207.135 254.762 207.189 C 238.352 207.229,232.237 207.179,232.025 207.004 C 231.667 206.707,231.645 205.500,231.991 205.154 C 232.406 204.740,276.747 204.788,277.091 205.203 M316.933 207.761 L 316.933 209.559 316.134 209.642 L 315.335 209.726 316.241 209.762 L 317.146 209.798 317.146 207.881 C 317.146 206.826,317.098 205.964,317.039 205.964 C 316.981 205.964,316.933 206.773,316.933 207.761 M314.894 214.909 C 314.894 217.545,314.925 218.624,314.962 217.306 C 314.999 215.988,314.999 213.831,314.962 212.513 C 314.925 211.195,314.894 212.274,314.894 214.909 M369.169 212.371 C 369.511 212.569,369.546 213.175,369.592 219.553 L 369.642 226.518 369.702 219.621 C 369.761 212.736,369.707 212.129,369.037 212.147 C 368.905 212.151,368.964 212.251,369.169 212.371 M319.158 219.595 C 319.158 223.285,319.187 224.795,319.222 222.950 C 319.258 221.105,319.258 218.086,319.222 216.241 C 319.187 214.396,319.158 215.905,319.158 219.595 M345.421 218.476 C 346.739 218.514,348.895 218.514,350.213 218.476 C 351.531 218.439,350.453 218.408,347.817 218.408 C 345.181 218.408,344.103 218.439,345.421 218.476 M314.893 224.494 C 314.893 227.013,314.924 228.043,314.962 226.784 C 315.000 225.524,315.000 223.464,314.962 222.204 C 314.924 220.945,314.893 221.976,314.893 224.494 M345.421 221.458 C 346.739 221.496,348.895 221.496,350.213 221.458 C 351.531 221.421,350.453 221.390,347.817 221.390 C 345.181 221.390,344.103 221.421,345.421 221.458 M36.422 222.521 C 53.988 222.667,67.093 222.669,67.093 222.524 C 67.093 222.436,58.682 222.387,48.403 222.414 C 38.123 222.442,32.732 222.490,36.422 222.521 M350.266 226.837 L 331.097 226.947 350.200 226.999 C 362.762 227.032,369.349 226.977,369.436 226.837 C 369.508 226.720,369.538 226.647,369.501 226.676 C 369.465 226.704,360.809 226.777,350.266 226.837 M329.446 226.987 C 329.710 227.038,330.141 227.038,330.405 226.987 C 330.668 226.937,330.453 226.895,329.925 226.895 C 329.398 226.895,329.183 226.937,329.446 226.987 M316.232 229.546 L 316.916 229.632 316.988 231.376 L 317.059 233.120 317.103 231.257 L 317.146 229.393 316.347 229.427 C 315.573 229.460,315.569 229.464,316.232 229.546 M329.446 235.720 C 329.710 235.771,330.141 235.771,330.405 235.720 C 330.668 235.669,330.453 235.628,329.925 235.628 C 329.398 235.628,329.183 235.669,329.446 235.720 M337.913 235.726 C 355.740 235.873,369.492 235.874,369.403 235.729 C 369.348 235.642,360.707 235.592,350.200 235.620 C 339.693 235.648,334.164 235.695,337.913 235.726 M369.592 243.035 C 369.562 247.249,369.459 250.069,369.330 250.224 C 369.213 250.365,369.262 250.356,369.439 250.203 C 369.716 249.964,369.753 248.965,369.702 243.014 L 369.642 236.102 369.592 243.035 M319.158 243.024 C 319.158 246.715,319.187 248.224,319.222 246.379 C 319.258 244.534,319.258 241.515,319.222 239.670 C 319.187 237.825,319.158 239.334,319.158 243.024 M36.703 239.137 C 40.548 239.170,46.778 239.170,50.548 239.137 C 54.317 239.105,51.171 239.078,43.557 239.078 C 35.942 239.078,32.858 239.105,36.703 239.137 M342.115 243.450 C 342.115 243.860,342.159 244.028,342.213 243.823 C 342.266 243.618,342.266 243.283,342.213 243.078 C 342.159 242.873,342.115 243.040,342.115 243.450 M353.404 243.450 C 353.404 243.860,353.448 244.028,353.501 243.823 C 353.555 243.618,353.555 243.283,353.501 243.078 C 353.448 242.873,353.404 243.040,353.404 243.450 M345.314 244.887 C 346.691 244.925,348.943 244.925,350.319 244.887 C 351.696 244.850,350.570 244.820,347.817 244.820 C 345.064 244.820,343.938 244.850,345.314 244.887 M332.199 250.639 C 338.896 250.670,349.919 250.670,356.693 250.639 C 363.467 250.608,357.987 250.582,344.515 250.582 C 331.044 250.582,325.501 250.608,332.199 250.639 M112.207 254.260 C 114.118 254.295,117.185 254.295,119.023 254.259 C 120.861 254.224,119.297 254.195,115.548 254.195 C 111.800 254.195,110.296 254.224,112.207 254.260 " stroke="none" fill="#ffffff" fill-rule="evenodd"></path><path id="path4" d="M351.084 61.543 C 352.446 68.353,351.082 76.801,347.684 82.599 C 347.214 83.400,347.101 83.482,346.797 83.239 C 346.606 83.086,346.781 83.378,347.186 83.888 L 347.923 84.814 347.998 87.434 L 348.072 90.054 350.660 89.958 C 352.084 89.905,353.545 89.817,353.907 89.762 L 354.567 89.663 354.705 86.631 C 354.933 81.647,354.870 64.953,354.620 64.052 C 354.106 62.200,350.737 59.811,351.084 61.543 M305.872 64.211 C 305.161 65.309,304.579 66.356,304.579 66.538 C 304.579 67.051,305.577 67.627,305.941 67.325 C 306.308 67.020,308.932 63.057,308.817 62.982 C 308.771 62.951,308.380 62.767,307.949 62.571 L 307.165 62.215 305.872 64.211 M329.351 69.852 C 327.001 71.286,327.477 74.627,330.146 75.427 C 332.138 76.023,334.278 74.007,333.884 71.905 C 333.503 69.874,331.100 68.786,329.351 69.852 M269.649 76.264 C 269.649 76.685,270.778 81.368,271.052 82.081 C 271.175 82.401,263.364 82.433,170.683 82.490 L 70.181 82.552 180.973 82.543 C 241.908 82.539,291.826 82.472,291.902 82.396 C 291.978 82.320,291.761 81.697,291.418 81.012 C 291.076 80.327,290.482 78.879,290.097 77.796 L 289.399 75.825 279.524 75.825 C 269.697 75.825,269.649 75.827,269.649 76.264 M305.501 82.588 C 312.861 82.619,324.842 82.619,332.125 82.588 C 339.408 82.557,333.387 82.531,318.743 82.531 C 304.100 82.531,298.141 82.557,305.501 82.588 M67.407 104.153 C 67.407 113.349,67.433 117.111,67.465 112.513 C 67.497 107.915,67.497 100.391,67.465 95.793 C 67.433 91.195,67.407 94.957,67.407 104.153 M343.610 94.721 C 343.932 94.770,344.460 94.770,344.782 94.721 C 345.104 94.672,344.840 94.633,344.196 94.633 C 343.552 94.633,343.288 94.672,343.610 94.721 M339.714 106.278 C 337.864 106.510,336.468 107.197,335.536 108.334 C 335.116 108.846,334.649 109.265,334.498 109.265 C 334.295 109.265,334.271 109.419,334.406 109.851 C 334.508 110.173,334.747 111.491,334.937 112.780 C 335.733 118.151,337.932 121.610,340.908 122.168 C 341.521 122.283,341.641 122.397,341.644 122.867 C 341.646 123.176,342.132 124.185,342.724 125.108 L 343.800 126.787 344.584 126.061 C 345.015 125.661,346.445 124.300,347.762 123.037 C 349.079 121.774,350.230 120.785,350.318 120.840 C 350.407 120.895,350.450 119.715,350.414 118.217 L 350.350 115.494 351.221 114.251 C 352.710 112.124,353.037 110.089,352.005 109.367 C 351.391 108.937,351.380 108.940,350.266 109.904 C 348.758 111.210,348.374 111.071,346.474 108.529 C 344.811 106.305,343.362 105.823,339.714 106.278 M330.777 107.202 C 330.777 107.239,331.089 107.550,331.470 107.894 L 332.162 108.520 331.536 107.827 C 330.953 107.182,330.777 107.037,330.777 107.202 M339.031 110.380 C 339.294 110.509,339.510 110.695,339.510 110.792 C 339.510 111.031,339.470 111.022,338.652 110.615 C 337.996 110.287,337.896 110.287,337.341 110.605 C 336.883 110.868,336.741 110.884,336.741 110.672 C 336.741 110.000,337.946 109.846,339.031 110.380 M345.187 110.357 C 345.689 110.774,345.496 110.955,344.888 110.638 C 344.171 110.264,343.897 110.266,342.820 110.649 C 342.032 110.930,341.617 110.921,341.908 110.630 C 342.541 109.997,344.552 109.830,345.187 110.357 M338.646 112.012 C 338.903 112.492,338.431 113.008,337.915 112.810 C 337.527 112.661,337.486 111.900,337.859 111.749 C 338.321 111.563,338.425 111.598,338.646 112.012 M343.992 111.938 C 344.442 112.480,343.702 113.122,343.203 112.623 C 342.854 112.275,343.087 111.608,343.557 111.608 C 343.645 111.608,343.841 111.757,343.992 111.938 M341.108 117.827 C 341.523 117.827,342.097 117.674,342.383 117.487 C 342.985 117.092,343.131 117.066,343.131 117.353 C 343.131 118.077,340.615 118.471,339.771 117.879 C 339.119 117.423,339.170 117.053,339.825 117.482 C 340.115 117.672,340.692 117.827,341.108 117.827 M203.617 125.612 L 197.969 125.672 197.229 129.326 C 196.274 134.050,196.140 134.173,194.099 132.208 L 193.203 131.346 177.272 147.126 C 168.511 155.805,160.770 163.488,160.071 164.201 C 158.219 166.087,159.659 167.116,148.188 155.714 L 140.359 147.933 130.687 157.596 C 123.448 164.828,120.927 167.224,120.661 167.122 C 120.466 167.047,120.266 166.986,120.217 166.986 C 120.168 166.986,120.128 166.770,120.128 166.506 C 120.128 165.954,139.814 146.113,140.362 146.113 C 140.537 146.113,144.680 150.113,149.570 155.001 L 158.461 163.890 175.214 147.098 L 191.968 130.306 190.967 129.450 C 189.310 128.034,189.516 127.702,192.707 126.641 L 195.318 125.772 191.642 125.829 C 169.606 126.169,114.269 126.945,112.087 126.944 L 109.265 126.944 109.265 156.427 L 109.265 185.910 109.888 185.287 L 110.510 184.665 160.746 184.665 C 215.619 184.665,211.646 184.576,212.142 185.806 C 212.247 186.066,212.332 173.183,212.340 155.857 L 212.354 125.453 210.809 125.502 C 209.960 125.530,206.723 125.579,203.617 125.612 M194.106 127.756 C 193.266 128.072,192.522 128.387,192.453 128.456 C 192.384 128.525,192.993 129.172,193.805 129.895 L 195.283 131.208 195.530 129.981 C 195.666 129.306,195.855 128.395,195.949 127.955 C 196.156 126.994,196.137 126.992,194.106 127.756 M42.433 129.831 C 41.831 130.253,41.733 132.650,42.294 133.212 C 42.841 133.758,53.035 133.709,53.535 133.157 C 54.050 132.587,54.025 130.329,53.498 129.852 C 52.931 129.339,43.162 129.320,42.433 129.831 M67.066 129.953 C 66.487 130.531,66.596 132.812,67.224 133.271 C 67.986 133.829,78.071 133.651,78.476 133.073 C 78.975 132.360,78.918 130.462,78.381 129.925 C 77.701 129.245,67.749 129.269,67.066 129.953 M320.996 141.906 C 321.006 142.404,321.365 147.268,321.795 152.716 L 322.577 162.620 340.522 162.674 L 358.466 162.729 358.466 161.347 L 358.466 159.966 359.414 160.095 C 362.328 160.495,362.131 157.257,359.048 154.102 L 357.798 152.822 357.373 147.391 C 357.139 144.404,356.904 141.744,356.851 141.480 L 356.754 141.001 338.867 141.001 L 320.980 141.001 320.996 141.906 M91.023 143.876 C 91.023 144.931,91.059 145.389,91.103 144.895 C 91.148 144.400,91.149 143.538,91.105 142.978 C 91.061 142.418,91.024 142.822,91.023 143.876 M340.637 149.737 C 341.728 150.595,341.861 152.234,340.911 153.127 C 339.313 154.627,336.954 153.657,336.954 151.499 C 336.954 149.622,339.153 148.570,340.637 149.737 M42.309 154.691 C 41.672 155.156,41.894 157.836,42.599 158.192 C 43.455 158.623,52.786 158.574,53.414 158.135 C 54.016 157.713,54.114 155.316,53.552 154.754 C 53.104 154.306,42.914 154.249,42.309 154.691 M66.998 154.893 C 66.650 155.390,66.578 156.268,66.797 157.362 C 66.996 158.357,67.618 158.466,73.088 158.466 C 78.801 158.466,78.807 158.464,78.807 156.490 C 78.807 154.361,78.979 154.420,72.737 154.420 C 67.391 154.420,67.326 154.425,66.998 154.893 M91.022 168.690 C 91.022 169.686,91.059 170.093,91.104 169.595 C 91.149 169.097,91.149 168.283,91.104 167.785 C 91.059 167.287,91.022 167.694,91.022 168.690 M323.701 170.930 C 322.498 171.601,322.315 173.040,323.306 174.031 C 324.347 175.072,326.051 174.684,326.506 173.304 C 327.067 171.606,325.248 170.068,323.701 170.930 M364.028 170.904 C 362.231 171.900,362.913 174.654,364.956 174.654 C 366.952 174.654,367.667 171.829,365.902 170.916 C 365.170 170.538,364.694 170.535,364.028 170.904 M338.035 172.020 C 337.495 172.706,337.476 173.193,337.966 173.760 C 338.836 174.766,340.362 174.240,340.362 172.934 C 340.362 171.584,338.846 170.989,338.035 172.020 M356.220 171.982 C 354.987 173.216,356.534 175.078,357.901 174.003 C 358.592 173.459,358.655 172.500,358.040 171.885 C 357.471 171.315,356.854 171.348,356.220 171.982 M45.061 179.286 C 41.998 179.368,41.960 179.393,41.960 181.275 C 41.960 183.239,41.746 183.174,48.115 183.174 C 54.246 183.174,53.887 183.304,53.887 181.070 C 53.887 178.973,54.225 179.042,45.061 179.286 M69.809 179.286 C 66.833 179.366,66.533 179.578,66.714 181.466 C 66.885 183.242,66.645 183.174,72.751 183.174 C 78.977 183.174,78.807 183.232,78.807 181.103 C 78.807 178.985,79.062 179.036,69.809 179.286 M310.117 179.553 C 310.117 179.670,310.261 179.766,310.437 179.766 C 310.612 179.766,310.756 179.670,310.756 179.553 C 310.756 179.436,310.612 179.340,310.437 179.340 C 310.261 179.340,310.117 179.436,310.117 179.553 M309.904 180.192 C 309.904 180.309,310.048 180.405,310.224 180.405 C 310.399 180.405,310.543 180.309,310.543 180.192 C 310.543 180.075,310.399 179.979,310.224 179.979 C 310.048 179.979,309.904 180.075,309.904 180.192 M309.691 182.446 C 309.691 183.113,310.191 183.040,310.292 182.358 C 310.337 182.051,310.247 181.896,310.025 181.896 C 309.808 181.896,309.691 182.088,309.691 182.446 M309.478 189.647 C 309.478 196.932,309.126 196.184,312.531 196.124 L 314.909 196.081 312.460 195.964 L 310.011 195.847 310.038 189.617 C 310.060 184.457,310.014 183.387,309.771 183.387 C 309.529 183.387,309.478 184.474,309.478 189.647 M364.537 194.238 C 363.174 194.615,362.598 195.823,363.176 197.091 C 363.696 198.233,365.399 198.489,366.324 197.564 C 367.696 196.192,366.372 193.729,364.537 194.238 M323.235 194.905 C 322.158 196.185,322.956 198.083,324.572 198.083 C 325.530 198.083,326.158 197.672,326.514 196.814 C 327.319 194.871,324.597 193.286,323.235 194.905 M338.449 195.162 C 337.224 195.782,337.565 197.666,338.933 197.830 C 340.230 197.985,340.862 196.165,339.801 195.330 C 339.145 194.814,339.139 194.813,338.449 195.162 M356.617 195.103 C 355.261 195.649,355.712 197.870,357.179 197.870 C 358.392 197.870,358.895 196.109,357.905 195.330 C 357.282 194.840,357.273 194.838,356.617 195.103 M310.008 207.987 L 310.011 219.489 312.407 219.500 L 314.804 219.511 312.462 219.440 L 310.121 219.368 310.063 207.927 L 310.005 196.486 310.008 207.987 M309.367 214.909 C 309.367 224.925,309.393 229.023,309.425 224.015 C 309.457 219.007,309.457 210.812,309.425 205.804 C 309.393 200.796,309.367 204.894,309.367 214.909 M91.386 202.471 C 91.369 204.004,91.031 204.808,90.198 205.299 C 89.256 205.855,89.111 206.673,89.545 208.987 C 90.197 212.468,90.008 212.894,88.374 211.622 C 86.629 210.266,85.724 210.276,85.254 211.658 C 84.893 212.720,85.321 213.527,87.437 215.765 C 90.676 219.192,90.953 220.022,91.103 226.731 C 91.454 242.455,88.081 247.693,77.316 248.138 C 73.404 248.300,72.857 248.453,70.507 250.049 C 68.578 251.358,64.365 254.908,64.242 255.327 C 64.002 256.143,63.249 260.754,62.938 263.311 C 62.756 264.804,62.565 266.146,62.513 266.293 C 62.348 266.762,61.787 274.520,61.635 278.442 L 61.488 282.229 62.551 283.253 C 69.810 290.251,80.666 293.219,89.825 290.711 C 91.406 290.278,93.528 289.474,93.717 289.237 C 93.775 289.163,94.265 288.885,94.805 288.618 C 101.341 285.390,103.614 279.128,101.420 270.394 C 100.512 266.778,99.620 262.038,99.735 261.437 C 99.788 261.158,99.747 260.981,99.642 261.046 C 99.129 261.363,99.785 259.915,101.058 257.922 C 104.394 252.697,105.870 248.329,104.978 246.314 C 104.729 245.751,103.685 242.839,102.659 239.844 C 101.633 236.849,100.689 234.135,100.561 233.813 C 100.434 233.490,100.400 233.225,100.485 233.224 C 100.569 233.222,100.540 233.150,100.419 233.064 C 100.297 232.978,99.837 232.045,99.396 230.991 C 97.929 227.492,96.254 225.560,93.472 224.159 L 92.013 223.424 92.013 221.945 L 92.013 220.467 92.812 220.344 C 95.502 219.930,97.241 218.849,98.013 217.109 C 98.380 216.283,99.479 215.122,99.895 215.122 C 100.811 215.122,100.965 213.275,100.426 208.733 C 100.252 207.268,100.109 206.000,100.108 205.915 C 100.107 205.829,99.698 205.815,99.199 205.883 C 98.243 206.014,94.988 205.684,93.705 205.326 C 93.007 205.131,92.889 204.971,92.174 203.250 L 91.399 201.384 91.386 202.471 M42.312 204.436 C 41.739 205.070,41.821 207.334,42.433 207.762 C 43.206 208.303,53.039 208.252,53.535 207.704 C 54.050 207.134,54.025 204.877,53.498 204.399 C 52.876 203.837,42.824 203.870,42.312 204.436 M67.066 204.500 C 66.487 205.079,66.596 207.359,67.224 207.819 C 67.726 208.186,70.484 208.193,70.593 207.827 C 70.637 207.681,70.910 206.771,71.200 205.804 L 71.728 204.047 69.623 204.047 C 67.761 204.047,67.467 204.099,67.066 204.500 M344.143 206.337 C 368.006 206.385,371.246 206.429,371.246 206.709 C 371.246 206.989,368.006 207.034,344.143 207.082 L 317.039 207.137 344.143 207.189 C 361.965 207.224,371.246 207.314,371.246 207.454 C 371.246 207.593,361.964 207.685,344.143 207.721 L 317.039 207.776 344.249 207.828 L 371.459 207.881 371.459 207.029 L 371.459 206.177 344.249 206.229 L 317.039 206.282 344.143 206.337 M96.673 206.808 C 97.455 207.033,98.495 207.646,98.346 207.795 C 98.295 207.846,97.831 207.697,97.316 207.463 C 96.116 206.919,95.298 206.920,94.276 207.467 C 93.294 207.994,93.026 207.882,93.864 207.295 C 94.906 206.565,95.479 206.466,96.673 206.808 M317.146 208.412 C 317.146 208.693,320.355 208.738,344.249 208.786 L 371.353 208.841 344.249 208.893 C 326.495 208.928,317.146 209.019,317.146 209.157 C 317.146 209.296,326.515 209.387,344.302 209.423 L 371.459 209.478 371.459 208.786 L 371.459 208.094 344.302 208.094 C 320.336 208.094,317.146 208.131,317.146 208.412 M97.054 208.856 C 97.125 209.041,97.020 209.352,96.821 209.548 C 96.354 210.008,95.669 209.310,96.089 208.803 C 96.408 208.419,96.896 208.445,97.054 208.856 M94.495 216.759 C 95.140 217.252,95.305 217.294,95.673 217.064 C 96.217 216.724,96.397 216.885,95.960 217.321 C 95.541 217.741,94.633 217.468,93.919 216.708 C 93.272 216.020,93.559 216.046,94.495 216.759 M323.306 218.301 C 321.511 220.096,324.067 222.817,325.956 221.123 C 327.351 219.873,326.415 217.678,324.488 217.678 C 324.154 217.678,323.678 217.929,323.306 218.301 M363.562 218.301 C 362.870 218.993,362.770 219.716,363.243 220.629 C 363.995 222.083,366.135 221.987,366.763 220.471 C 367.615 218.415,365.132 216.731,363.562 218.301 M338.019 218.956 C 337.148 219.827,337.796 221.299,339.051 221.299 C 339.817 221.299,340.362 220.708,340.362 219.878 C 340.362 218.651,338.900 218.076,338.019 218.956 M356.124 218.956 C 355.252 219.827,355.901 221.299,357.155 221.299 C 357.921 221.299,358.466 220.708,358.466 219.878 C 358.466 218.651,357.004 218.076,356.124 218.956 M309.999 226.624 C 309.999 230.197,310.028 231.659,310.063 229.872 C 310.099 228.086,310.099 225.162,310.063 223.376 C 310.028 221.589,309.999 223.051,309.999 226.624 M42.215 229.223 C 41.868 229.569,41.877 232.255,42.226 232.541 C 42.846 233.048,52.934 233.115,53.434 232.615 C 53.938 232.111,54.079 230.150,53.667 229.379 C 53.396 228.873,42.711 228.727,42.215 229.223 M370.024 233.167 C 370.348 233.216,370.827 233.214,371.089 233.164 C 371.351 233.113,371.086 233.073,370.501 233.075 C 369.915 233.076,369.700 233.118,370.024 233.167 M323.701 241.431 C 322.498 242.102,322.315 243.540,323.306 244.532 C 324.347 245.572,326.051 245.185,326.506 243.804 C 327.067 242.107,325.248 240.568,323.701 241.431 M363.941 241.448 C 362.201 242.391,362.957 245.154,364.956 245.154 C 366.952 245.154,367.667 242.330,365.902 241.417 C 365.153 241.030,364.698 241.037,363.941 241.448 M338.035 242.521 C 337.492 243.211,337.477 243.686,337.979 244.305 C 338.749 245.256,340.362 244.655,340.362 243.417 C 340.362 242.083,338.840 241.497,338.035 242.521 M356.139 242.521 C 355.600 243.206,355.580 243.694,356.070 244.260 C 356.940 245.266,358.466 244.741,358.466 243.435 C 358.466 242.085,356.950 241.489,356.139 242.521 M255.507 248.260 C 255.436 248.446,255.378 248.637,255.378 248.686 C 255.378 248.735,266.880 248.775,280.937 248.775 C 294.995 248.775,306.496 248.699,306.496 248.605 C 306.496 247.935,306.061 247.923,280.811 247.923 C 258.052 247.923,255.624 247.956,255.507 248.260 M42.471 253.837 C 41.726 254.334,41.488 256.404,42.078 257.248 C 42.550 257.922,52.932 257.998,53.535 257.331 C 54.108 256.698,54.026 254.434,53.414 254.006 C 52.907 253.650,42.979 253.498,42.471 253.837 M108.849 255.011 C 108.829 256.664,107.546 259.333,105.881 261.188 C 105.484 261.630,105.196 262.022,105.242 262.059 C 110.274 266.095,114.811 266.597,116.662 263.321 C 116.913 262.877,117.699 261.747,118.409 260.809 C 120.020 258.682,120.031 258.402,118.559 256.816 C 117.125 255.271,115.655 255.306,115.655 256.885 C 115.655 257.287,115.595 257.267,115.000 256.672 C 113.759 255.432,113.329 255.796,113.857 257.641 C 113.998 258.133,112.850 258.528,112.078 258.253 C 111.635 258.095,109.471 255.551,109.115 254.770 C 108.860 254.210,108.858 254.212,108.849 255.011 M262.241 256.694 C 261.895 257.040,261.911 257.611,262.275 257.913 C 262.802 258.350,269.865 258.131,270.157 257.668 C 270.328 257.396,270.328 257.194,270.157 256.922 C 269.857 256.446,262.696 256.239,262.241 256.694 M292.066 256.663 C 291.502 256.889,291.404 257.818,291.924 258.018 C 292.109 258.089,293.879 258.147,295.857 258.147 C 299.789 258.147,300.277 257.984,299.681 256.869 C 299.430 256.401,293.140 256.231,292.066 256.663 M329.116 260.532 C 328.585 261.064,328.800 262.607,329.438 262.850 C 330.574 263.282,338.429 263.009,338.782 262.526 C 339.138 262.039,339.172 261.266,338.864 260.689 C 338.593 260.184,329.609 260.040,329.116 260.532 M349.102 260.689 C 348.793 261.266,348.828 262.039,349.184 262.526 C 349.594 263.087,358.547 263.173,358.897 262.620 C 359.183 262.167,359.153 260.836,358.850 260.532 C 358.357 260.040,349.373 260.184,349.102 260.689 " stroke="none" fill="#dd82ca" fill-rule="evenodd"></path></g></svg>