<svg xmlns="http://www.w3.org/2000/svg" xmlns:xlink="http://www.w3.org/1999/xlink" width="601" zoomAndPan="magnify" viewBox="0 0 450.75 386.250002" height="515" preserveAspectRatio="xMidYMid meet" version="1.0"><defs><clipPath id="36dd9718c4"><path d="M 316 94 L 411.726562 94 L 411.726562 178 L 316 178 Z M 316 94 " clip-rule="nonzero"/></clipPath><clipPath id="74732965ab"><path d="M 46.4375 11 L 64 11 L 64 28 L 46.4375 28 Z M 46.4375 11 " clip-rule="nonzero"/></clipPath><clipPath id="01e266c86f"><path d="M 206.816406 10.804688 L 272.417969 10.804688 L 272.417969 76.40625 L 206.816406 76.40625 Z M 206.816406 10.804688 " clip-rule="nonzero"/></clipPath><clipPath id="b1819a4c00"><path d="M 239.617188 10.804688 C 221.503906 10.804688 206.816406 25.488281 206.816406 43.605469 C 206.816406 61.71875 221.503906 76.40625 239.617188 76.40625 C 257.734375 76.40625 272.417969 61.71875 272.417969 43.605469 C 272.417969 25.488281 257.734375 10.804688 239.617188 10.804688 Z M 239.617188 10.804688 " clip-rule="nonzero"/></clipPath><clipPath id="1ec016587b"><path d="M 201.910156 89.042969 L 211.714844 89.042969 L 211.714844 105.316406 L 201.910156 105.316406 Z M 201.910156 89.042969 " clip-rule="nonzero"/></clipPath><clipPath id="8782fc4767"><path d="M 211.714844 93.945312 L 211.714844 100.410156 C 211.714844 103.117188 209.519531 105.3125 206.8125 105.3125 C 204.105469 105.3125 201.910156 103.117188 201.910156 100.410156 L 201.910156 93.945312 C 201.910156 91.238281 204.105469 89.042969 206.8125 89.042969 C 209.519531 89.042969 211.714844 91.238281 211.714844 93.945312 Z M 211.714844 93.945312 " clip-rule="nonzero"/></clipPath><clipPath id="a71b083964"><path d="M 205.121094 82.515625 L 275.539062 82.515625 L 275.539062 111.085938 L 205.121094 111.085938 Z M 205.121094 82.515625 " clip-rule="nonzero"/></clipPath><clipPath id="d157d2ee22"><path d="M 275.539062 96.800781 C 275.539062 100.589844 274.03125 104.222656 271.355469 106.902344 C 268.675781 109.582031 265.042969 111.085938 261.253906 111.085938 L 219.417969 111.085938 C 215.628906 111.085938 211.996094 109.582031 209.316406 106.902344 C 206.636719 104.222656 205.132812 100.589844 205.132812 96.800781 C 205.132812 93.011719 206.636719 89.378906 209.316406 86.699219 C 211.996094 84.019531 215.628906 82.515625 219.417969 82.515625 L 261.253906 82.515625 C 265.042969 82.515625 268.675781 84.019531 271.355469 86.699219 C 274.03125 89.378906 275.539062 93.011719 275.539062 96.800781 Z M 275.539062 96.800781 " clip-rule="nonzero"/></clipPath><clipPath id="dbc8e03cca"><path d="M 267.511719 89.042969 L 277.316406 89.042969 L 277.316406 105.316406 L 267.511719 105.316406 Z M 267.511719 89.042969 " clip-rule="nonzero"/></clipPath><clipPath id="b71c94397d"><path d="M 277.316406 93.945312 L 277.316406 100.410156 C 277.316406 103.117188 275.121094 105.3125 272.414062 105.3125 C 269.707031 105.3125 267.511719 103.117188 267.511719 100.410156 L 267.511719 93.945312 C 267.511719 91.238281 269.707031 89.042969 272.414062 89.042969 C 275.121094 89.042969 277.316406 91.238281 277.316406 93.945312 Z M 277.316406 93.945312 " clip-rule="nonzero"/></clipPath><clipPath id="1cafc45849"><path d="M 232 59 L 267 59 L 267 94 L 232 94 Z M 232 59 " clip-rule="nonzero"/></clipPath><clipPath id="7b0f52d24c"><path d="M 261.535156 57.785156 L 268.226562 64.476562 L 237.648438 95.054688 L 230.957031 88.363281 Z M 261.535156 57.785156 " clip-rule="nonzero"/></clipPath><clipPath id="fde4230014"><path d="M 264.878906 61.128906 C 265.769531 62.019531 266.265625 63.222656 266.265625 64.476562 C 266.265625 65.730469 265.769531 66.933594 264.878906 67.820312 L 241.015625 91.6875 C 240.128906 92.574219 238.925781 93.070312 237.671875 93.070312 C 236.417969 93.070312 235.210938 92.574219 234.324219 91.6875 C 233.4375 90.796875 232.941406 89.59375 232.941406 88.339844 C 232.941406 87.085938 233.4375 85.882812 234.324219 84.996094 L 258.191406 61.128906 C 259.078125 60.242188 260.28125 59.746094 261.535156 59.746094 C 262.789062 59.746094 263.992188 60.242188 264.878906 61.128906 Z M 264.878906 61.128906 " clip-rule="nonzero"/></clipPath><clipPath id="bd71da48fd"><path d="M 217 64 L 248 64 L 248 101 L 217 101 Z M 217 64 " clip-rule="nonzero"/></clipPath><clipPath id="cc08477566"><path d="M 215.773438 68.265625 L 223.277344 62.5 L 249.628906 96.785156 L 242.125 102.550781 Z M 215.773438 68.265625 " clip-rule="nonzero"/></clipPath><clipPath id="7ed2dfc323"><path d="M 219.527344 65.382812 C 220.519531 64.617188 221.777344 64.277344 223.023438 64.441406 C 224.265625 64.605469 225.394531 65.253906 226.160156 66.25 L 246.726562 93.007812 C 247.488281 94.003906 247.828125 95.261719 247.664062 96.507812 C 247.5 97.75 246.851562 98.878906 245.855469 99.644531 C 244.863281 100.40625 243.605469 100.746094 242.359375 100.582031 C 241.117188 100.421875 239.988281 99.769531 239.222656 98.773438 L 218.65625 72.015625 C 217.894531 71.019531 217.554688 69.761719 217.71875 68.519531 C 217.878906 67.273438 218.53125 66.144531 219.527344 65.382812 Z M 219.527344 65.382812 " clip-rule="nonzero"/></clipPath><clipPath id="389ea2981a"><path d="M 199.488281 10.804688 L 279.582031 10.804688 L 279.582031 114.101562 L 199.488281 114.101562 Z M 199.488281 10.804688 " clip-rule="nonzero"/></clipPath></defs><path fill="#f2efeb" d="M 365.675781 167.203125 C 364.878906 167.203125 364.25 167.828125 364.25 168.628906 L 364.25 182.882812 C 364.25 183.679688 364.878906 184.308594 365.675781 184.308594 C 366.476562 184.308594 367.101562 183.679688 367.101562 182.882812 L 367.101562 168.628906 C 367.101562 167.859375 366.476562 167.203125 365.675781 167.203125 Z M 365.675781 167.203125 " fill-opacity="1" fill-rule="nonzero"/><path fill="#f2efeb" d="M 365.675781 338.253906 C 365.136719 338.253906 364.679688 338.539062 364.421875 338.996094 L 352.164062 338.996094 C 351.367188 338.996094 350.738281 339.621094 350.738281 340.421875 C 350.738281 341.21875 351.367188 341.847656 352.164062 341.847656 L 365.675781 341.847656 C 366.476562 341.847656 367.101562 341.21875 367.101562 340.421875 L 367.101562 339.679688 C 367.101562 338.910156 366.476562 338.253906 365.675781 338.253906 Z M 365.675781 338.253906 " fill-opacity="1" fill-rule="nonzero"/><path fill="#f2efeb" d="M 365.675781 195.710938 C 364.878906 195.710938 364.25 196.339844 364.25 197.136719 L 364.25 211.390625 C 364.25 212.1875 364.878906 212.816406 365.675781 212.816406 C 366.476562 212.816406 367.101562 212.1875 367.101562 211.390625 L 367.101562 197.136719 C 367.101562 196.367188 366.476562 195.710938 365.675781 195.710938 Z M 365.675781 195.710938 " fill-opacity="1" fill-rule="nonzero"/><path fill="#f2efeb" d="M 365.675781 224.21875 C 364.878906 224.21875 364.25 224.847656 364.25 225.644531 L 364.25 239.898438 C 364.25 240.699219 364.878906 241.324219 365.675781 241.324219 C 366.476562 241.324219 367.101562 240.699219 367.101562 239.898438 L 367.101562 225.644531 C 367.101562 224.875 366.476562 224.21875 365.675781 224.21875 Z M 365.675781 224.21875 " fill-opacity="1" fill-rule="nonzero"/><path fill="#f2efeb" d="M 365.675781 281.238281 C 364.878906 281.238281 364.25 281.863281 364.25 282.664062 L 364.25 296.917969 C 364.25 297.714844 364.878906 298.34375 365.675781 298.34375 C 366.476562 298.34375 367.101562 297.714844 367.101562 296.917969 L 367.101562 282.664062 C 367.101562 281.894531 366.476562 281.238281 365.675781 281.238281 Z M 365.675781 281.238281 " fill-opacity="1" fill-rule="nonzero"/><path fill="#f2efeb" d="M 365.675781 252.726562 C 364.878906 252.726562 364.25 253.355469 364.25 254.152344 L 364.25 268.40625 C 364.25 269.207031 364.878906 269.832031 365.675781 269.832031 C 366.476562 269.832031 367.101562 269.207031 367.101562 268.40625 L 367.101562 254.152344 C 367.101562 253.382812 366.476562 252.726562 365.675781 252.726562 Z M 365.675781 252.726562 " fill-opacity="1" fill-rule="nonzero"/><path fill="#f2efeb" d="M 365.675781 309.746094 C 364.878906 309.746094 364.25 310.371094 364.25 311.171875 L 364.25 325.425781 C 364.25 326.222656 364.878906 326.851562 365.675781 326.851562 C 366.476562 326.851562 367.101562 326.222656 367.101562 325.425781 L 367.101562 311.171875 C 367.101562 310.402344 366.476562 309.746094 365.675781 309.746094 Z M 365.675781 309.746094 " fill-opacity="1" fill-rule="nonzero"/><path fill="#f2efeb" d="M 93.816406 290.757812 C 93.019531 290.757812 92.390625 291.386719 92.390625 292.183594 L 92.390625 306.4375 C 92.390625 307.238281 93.019531 307.863281 93.816406 307.863281 C 94.617188 307.863281 95.242188 307.238281 95.242188 306.4375 L 95.242188 292.183594 C 95.242188 291.414062 94.617188 290.757812 93.816406 290.757812 Z M 93.816406 290.757812 " fill-opacity="1" fill-rule="nonzero"/><path fill="#f2efeb" d="M 93.816406 319.269531 C 93.019531 319.269531 92.390625 319.894531 92.390625 320.691406 L 92.390625 334.949219 C 92.390625 335.746094 93.019531 336.371094 93.816406 336.371094 C 94.617188 336.371094 95.242188 335.746094 95.242188 334.949219 L 95.242188 320.691406 C 95.242188 319.921875 94.617188 319.269531 93.816406 319.269531 Z M 93.816406 319.269531 " fill-opacity="1" fill-rule="nonzero"/><path fill="#f2efeb" d="M 116.851562 338.996094 L 102.597656 338.996094 C 101.800781 338.996094 101.171875 339.621094 101.171875 340.421875 C 101.171875 341.21875 101.800781 341.847656 102.597656 341.847656 L 116.851562 341.847656 C 117.652344 341.847656 118.277344 341.21875 118.277344 340.421875 C 118.277344 339.621094 117.652344 338.996094 116.851562 338.996094 Z M 116.851562 338.996094 " fill-opacity="1" fill-rule="nonzero"/><path fill="#f2efeb" d="M 146.785156 340.421875 C 146.785156 339.621094 146.160156 338.996094 145.363281 338.996094 L 131.105469 338.996094 C 130.308594 338.996094 129.683594 339.621094 129.683594 340.421875 C 129.683594 341.21875 130.308594 341.847656 131.105469 341.847656 L 145.363281 341.847656 C 146.160156 341.847656 146.785156 341.21875 146.785156 340.421875 Z M 146.785156 340.421875 " fill-opacity="1" fill-rule="nonzero"/><path fill="#f2efeb" d="M 137.066406 277.019531 C 136.265625 277.019531 135.640625 277.644531 135.640625 278.441406 L 135.640625 292.699219 C 135.640625 293.496094 136.265625 294.121094 137.066406 294.121094 C 137.863281 294.121094 138.492188 293.496094 138.492188 292.699219 L 138.492188 278.441406 C 138.492188 277.671875 137.863281 277.019531 137.066406 277.019531 Z M 137.066406 277.019531 " fill-opacity="1" fill-rule="nonzero"/><path fill="#f2efeb" d="M 138.492188 221.425781 C 138.492188 220.628906 137.863281 220 137.066406 220 C 136.265625 220 135.640625 220.628906 135.640625 221.425781 L 135.640625 235.679688 C 135.640625 236.476562 136.265625 237.105469 137.066406 237.105469 C 137.863281 237.105469 138.492188 236.476562 138.492188 235.679688 Z M 138.492188 221.425781 " fill-opacity="1" fill-rule="nonzero"/><path fill="#f2efeb" d="M 138.492188 249.933594 C 138.492188 249.136719 137.863281 248.507812 137.066406 248.507812 C 136.265625 248.507812 135.640625 249.136719 135.640625 249.933594 L 135.640625 264.1875 C 135.640625 264.988281 136.265625 265.613281 137.066406 265.613281 C 137.863281 265.613281 138.492188 264.988281 138.492188 264.1875 Z M 138.492188 249.933594 " fill-opacity="1" fill-rule="nonzero"/><path fill="#f2efeb" d="M 143.421875 299.167969 C 142.625 299.167969 141.996094 299.796875 141.996094 300.59375 C 141.996094 301.394531 142.625 302.019531 143.421875 302.019531 L 157.675781 302.019531 C 158.476562 302.019531 159.101562 301.394531 159.101562 300.59375 C 159.101562 299.796875 158.476562 299.167969 157.675781 299.167969 Z M 143.421875 299.167969 " fill-opacity="1" fill-rule="nonzero"/><path fill="#f2efeb" d="M 307.890625 292.183594 L 307.804688 292.15625 C 316.242188 289.449219 324.796875 286.140625 333.320312 282.234375 C 333.691406 282.035156 333.976562 281.722656 334.089844 281.292969 C 334.203125 280.894531 334.117188 280.46875 333.890625 280.125 C 324.882812 267.210938 318.382812 252.359375 314.53125 235.992188 C 316.128906 233.855469 317.097656 231.261719 317.097656 228.410156 L 317.097656 207.769531 C 317.097656 203.039062 314.476562 198.933594 310.65625 196.707031 L 310.65625 186.21875 C 310.65625 151.207031 282.175781 122.726562 247.195312 122.726562 C 230.230469 122.726562 214.265625 129.34375 202.292969 141.34375 C 190.292969 153.316406 183.707031 169.253906 183.707031 186.21875 L 183.707031 196.707031 C 179.886719 198.933594 177.261719 203.039062 177.261719 207.769531 L 177.261719 228.410156 C 177.261719 231.261719 178.230469 233.855469 179.828125 235.992188 C 175.980469 252.359375 169.453125 267.210938 160.472656 280.125 C 160.214844 280.46875 160.15625 280.894531 160.273438 281.292969 C 160.386719 281.722656 160.671875 282.035156 161.042969 282.234375 C 169.535156 286.140625 178.089844 289.449219 186.527344 292.15625 L 186.441406 292.183594 C 181.738281 293.808594 177.347656 296.203125 173.472656 299.167969 L 171.929688 299.167969 C 171.132812 299.167969 170.507812 299.796875 170.507812 300.59375 C 170.507812 300.878906 170.621094 301.164062 170.761719 301.394531 C 163.351562 307.949219 158.019531 316.789062 155.882812 326.679688 L 145.589844 374.289062 C 145.503906 374.6875 145.589844 375.144531 145.875 375.488281 C 146.132812 375.800781 146.558594 376 146.988281 376 L 347.375 376 C 347.800781 376 348.203125 375.800781 348.484375 375.488281 C 348.742188 375.144531 348.855469 374.6875 348.769531 374.289062 L 338.480469 326.679688 C 335.03125 310.742188 323.3125 297.515625 307.890625 292.183594 Z M 247.195312 272.882812 C 219.910156 272.882812 207.511719 251.816406 201.894531 234.054688 L 201.894531 201.753906 C 224.988281 201.328125 246.964844 191.664062 267.292969 172.988281 C 271.882812 183.480469 279.382812 196.621094 292.464844 200.472656 L 292.464844 234.027344 C 290.300781 240.898438 287.105469 248.253906 282.429688 254.722656 L 261.792969 255.921875 C 260.535156 252.1875 255.976562 249.476562 250.386719 249.476562 C 243.746094 249.476562 238.585938 253.210938 238.585938 258.03125 C 238.585938 262.820312 243.746094 266.582031 250.386719 266.582031 C 256.632812 266.582031 261.5625 263.191406 262.078125 258.773438 L 280.09375 257.6875 C 272.738281 266.441406 262.246094 272.882812 247.195312 272.882812 Z M 268.207031 270.917969 L 268.207031 280.011719 L 247.195312 314.363281 L 226.15625 280.011719 L 226.15625 270.917969 C 232.027344 273.910156 238.957031 275.734375 247.195312 275.734375 C 255.433594 275.734375 262.332031 273.910156 268.207031 270.917969 Z M 247.195312 142.226562 C 277.554688 142.226562 303.414062 165.378906 307.089844 195.28125 C 306.179688 195.054688 305.238281 194.941406 304.269531 194.941406 L 301.304688 194.941406 C 297.511719 168.058594 274.507812 147.929688 247.195312 147.929688 C 219.882812 147.929688 196.847656 168.058594 193.054688 194.941406 L 190.089844 194.941406 C 189.121094 194.941406 188.179688 195.054688 187.269531 195.28125 C 190.945312 165.378906 216.804688 142.226562 247.195312 142.226562 Z M 295.316406 199.21875 C 295.316406 198.417969 295.945312 197.792969 296.742188 197.792969 L 299.820312 197.792969 L 299.820312 238.386719 L 296.742188 238.386719 C 295.945312 238.386719 295.316406 237.734375 295.316406 236.960938 Z M 197.617188 197.792969 C 198.386719 197.792969 199.042969 198.417969 199.042969 199.21875 L 199.042969 236.960938 C 199.042969 237.734375 198.386719 238.386719 197.617188 238.386719 L 194.539062 238.386719 L 194.539062 197.792969 Z M 293.492188 239.699219 C 294.292969 240.640625 295.429688 241.238281 296.742188 241.238281 L 304.269531 241.238281 C 304.554688 241.238281 304.8125 241.152344 305.097656 241.152344 C 303.472656 248.335938 297.226562 253.839844 289.585938 254.296875 L 286.050781 254.496094 C 289.1875 249.792969 291.613281 244.71875 293.492188 239.699219 Z M 306.976562 345.722656 C 306.179688 345.722656 305.550781 346.351562 305.550781 347.148438 L 305.550781 373.148438 L 188.808594 373.148438 L 188.808594 347.148438 C 188.808594 346.351562 188.179688 345.722656 187.382812 345.722656 L 154.683594 345.722656 L 158.675781 327.277344 C 161.898438 312.3125 172.902344 299.910156 187.382812 294.863281 L 224.132812 282.175781 L 245.96875 317.84375 C 246.226562 318.269531 246.679688 318.527344 247.195312 318.527344 C 247.679688 318.527344 248.136719 318.269531 248.421875 317.84375 L 270.230469 282.175781 L 306.949219 294.863281 C 321.429688 299.910156 332.464844 312.3125 335.6875 327.277344 L 339.675781 345.722656 Z M 306.976562 345.722656 " fill-opacity="1" fill-rule="nonzero"/><g clip-path="url(#36dd9718c4)"><path fill="#f2efeb" d="M 401.828125 94.332031 L 326.136719 94.332031 C 320.746094 94.332031 316.355469 98.753906 316.355469 104.140625 L 316.355469 146.078125 C 316.355469 151.492188 320.746094 155.882812 326.136719 155.882812 L 331.550781 155.882812 L 329.328125 175.640625 C 329.269531 176.152344 329.5 176.695312 329.957031 176.980469 C 330.183594 177.152344 330.46875 177.207031 330.726562 177.207031 C 330.980469 177.207031 331.210938 177.152344 331.4375 177.039062 L 368.957031 155.882812 L 401.828125 155.882812 C 407.242188 155.882812 411.632812 151.492188 411.632812 146.078125 L 411.632812 104.140625 C 411.632812 98.753906 407.242188 94.332031 401.828125 94.332031 Z M 334.714844 139.464844 C 334.714844 138.664062 335.371094 138.039062 336.140625 138.039062 L 391.792969 138.039062 C 392.589844 138.039062 393.214844 138.664062 393.214844 139.464844 C 393.214844 140.261719 392.589844 140.886719 391.792969 140.886719 L 336.140625 140.886719 C 335.371094 140.886719 334.714844 140.261719 334.714844 139.464844 Z M 334.714844 125.121094 C 334.714844 124.324219 335.371094 123.699219 336.140625 123.699219 L 391.792969 123.699219 C 392.589844 123.699219 393.214844 124.324219 393.214844 125.121094 C 393.214844 125.894531 392.589844 126.546875 391.792969 126.546875 L 336.140625 126.546875 C 335.371094 126.546875 334.714844 125.894531 334.714844 125.121094 Z M 391.792969 112.207031 L 336.140625 112.207031 C 335.371094 112.207031 334.714844 111.554688 334.714844 110.78125 C 334.714844 109.984375 335.371094 109.359375 336.140625 109.359375 L 391.792969 109.359375 C 392.589844 109.359375 393.214844 109.984375 393.214844 110.78125 C 393.214844 111.554688 392.589844 112.207031 391.792969 112.207031 Z M 391.792969 112.207031 " fill-opacity="1" fill-rule="nonzero"/></g><path fill="#f2efeb" d="M 95.015625 189.609375 C 94.5 188.78125 93.160156 188.78125 92.621094 189.609375 L 66.90625 229.324219 C 66.648438 229.75 66.621094 230.320312 66.875 230.777344 C 67.105469 231.234375 67.589844 231.519531 68.101562 231.519531 L 77.738281 231.519531 L 77.738281 284.117188 C 77.738281 284.886719 78.367188 285.542969 79.164062 285.542969 L 108.5 285.542969 C 109.269531 285.542969 109.925781 284.886719 109.925781 284.117188 L 109.925781 231.519531 L 119.53125 231.519531 C 120.046875 231.519531 120.53125 231.234375 120.785156 230.777344 C 121.042969 230.320312 121.015625 229.75 120.730469 229.324219 Z M 70.726562 228.667969 L 93.816406 193.003906 L 116.910156 228.667969 Z M 70.726562 228.667969 " fill-opacity="1" fill-rule="nonzero"/><g clip-path="url(#74732965ab)"><path fill="#f2efeb" d="M 61.601562 27.394531 C 61.972656 27.394531 62.34375 27.253906 62.601562 26.96875 C 63.171875 26.398438 63.171875 25.511719 62.601562 24.941406 L 56.898438 19.242188 L 62.628906 13.511719 C 63.199219 12.941406 63.199219 12.058594 62.628906 11.488281 C 62.058594 10.917969 61.175781 10.917969 60.605469 11.488281 L 54.875 17.21875 L 49.144531 11.515625 C 48.574219 10.945312 47.691406 10.945312 47.121094 11.515625 C 46.550781 12.085938 46.550781 12.96875 47.121094 13.539062 L 52.851562 19.269531 L 47.148438 24.972656 C 46.578125 25.542969 46.578125 26.425781 47.148438 26.996094 C 47.433594 27.28125 47.804688 27.421875 48.148438 27.421875 C 48.488281 27.421875 48.886719 27.28125 49.144531 26.996094 L 54.875 21.265625 L 60.605469 26.996094 C 60.863281 27.253906 61.230469 27.394531 61.601562 27.394531 Z M 61.601562 27.394531 " fill-opacity="1" fill-rule="nonzero"/></g><path fill="#f2efeb" d="M 169.566406 66.707031 C 169.851562 66.992188 170.222656 67.136719 170.5625 67.136719 C 170.90625 67.136719 171.304688 66.992188 171.5625 66.707031 L 177.292969 60.976562 L 183.023438 66.707031 C 183.304688 66.992188 183.675781 67.136719 184.019531 67.136719 C 184.363281 67.136719 184.761719 66.992188 185.015625 66.707031 C 185.585938 66.136719 185.585938 65.253906 185.015625 64.683594 L 179.285156 58.953125 L 185.015625 53.222656 C 185.585938 52.652344 185.585938 51.769531 185.015625 51.199219 C 184.445312 50.628906 183.5625 50.628906 182.992188 51.199219 L 177.261719 56.929688 L 171.53125 51.199219 C 170.960938 50.628906 170.078125 50.628906 169.507812 51.199219 C 168.9375 51.769531 168.9375 52.652344 169.507812 53.222656 L 175.238281 58.953125 L 169.507812 64.683594 C 169.023438 65.253906 169.023438 66.167969 169.566406 66.707031 Z M 169.566406 66.707031 " fill-opacity="1" fill-rule="nonzero"/><path fill="#f2efeb" d="M 377.28125 35.035156 C 377.566406 35.320312 377.9375 35.464844 378.277344 35.464844 C 378.621094 35.464844 379.019531 35.320312 379.277344 35.035156 L 385.007812 29.304688 L 390.734375 35.035156 C 391.019531 35.320312 391.390625 35.464844 391.734375 35.464844 C 392.078125 35.464844 392.476562 35.320312 392.730469 35.035156 C 393.300781 34.464844 393.300781 33.582031 392.730469 33.011719 L 387 27.28125 L 392.730469 21.550781 C 393.300781 20.980469 393.300781 20.097656 392.730469 19.527344 C 392.160156 18.957031 391.277344 18.957031 390.707031 19.527344 L 384.976562 25.257812 L 379.246094 19.527344 C 378.675781 18.957031 377.792969 18.957031 377.222656 19.527344 C 376.652344 20.097656 376.652344 20.980469 377.222656 21.550781 L 382.953125 27.28125 L 377.222656 33.011719 C 376.710938 33.582031 376.710938 34.492188 377.28125 35.035156 Z M 377.28125 35.035156 " fill-opacity="1" fill-rule="nonzero"/><path fill="#f2efeb" d="M 115.285156 60.464844 C 119.847656 60.464844 123.523438 56.789062 123.523438 52.253906 C 123.523438 47.722656 119.847656 44.015625 115.285156 44.015625 C 110.75 44.015625 107.074219 47.722656 107.074219 52.253906 C 107.074219 56.789062 110.75 60.464844 115.285156 60.464844 Z M 115.285156 60.464844 " fill-opacity="1" fill-rule="nonzero"/><path fill="#f2efeb" d="M 247.167969 32.214844 C 251.699219 32.214844 255.40625 28.535156 255.40625 24.003906 C 255.40625 19.46875 251.699219 15.761719 247.167969 15.761719 C 242.632812 15.761719 238.957031 19.46875 238.957031 24.003906 C 238.957031 28.535156 242.632812 32.214844 247.167969 32.214844 Z M 247.167969 32.214844 " fill-opacity="1" fill-rule="nonzero"/><path fill="#f2efeb" d="M 356.441406 74.007812 C 361 74.007812 364.679688 70.328125 364.679688 65.796875 C 364.679688 61.234375 361 57.558594 356.441406 57.558594 C 351.90625 57.558594 348.230469 61.234375 348.230469 65.796875 C 348.230469 70.328125 351.90625 74.007812 356.441406 74.007812 Z M 356.441406 74.007812 " fill-opacity="1" fill-rule="nonzero"/><path fill="#f2efeb" d="M 60.632812 123.011719 C 60.0625 122.441406 59.179688 122.441406 58.609375 123.011719 C 58.039062 123.582031 58.039062 124.46875 58.609375 125.039062 L 63.796875 130.226562 C 64.082031 130.511719 64.453125 130.652344 64.796875 130.652344 C 65.136719 130.652344 65.535156 130.511719 65.792969 130.226562 C 66.363281 129.65625 66.363281 128.773438 65.792969 128.203125 Z M 60.632812 123.011719 " fill-opacity="1" fill-rule="nonzero"/><path fill="#f2efeb" d="M 75.601562 118.394531 C 75.886719 118.679688 76.257812 118.824219 76.597656 118.824219 C 76.941406 118.824219 77.339844 118.679688 77.597656 118.394531 C 78.167969 117.824219 78.167969 116.941406 77.597656 116.371094 L 72.40625 111.183594 C 71.835938 110.613281 70.953125 110.613281 70.382812 111.183594 C 69.8125 111.753906 69.8125 112.636719 70.382812 113.207031 Z M 75.601562 118.394531 " fill-opacity="1" fill-rule="nonzero"/><path fill="#f2efeb" d="M 63.796875 111.210938 L 58.609375 116.398438 C 58.039062 116.96875 58.039062 117.851562 58.609375 118.421875 C 58.894531 118.707031 59.265625 118.851562 59.605469 118.851562 C 59.949219 118.851562 60.347656 118.707031 60.605469 118.421875 L 65.792969 113.234375 C 66.363281 112.664062 66.363281 111.78125 65.792969 111.210938 C 65.222656 110.640625 64.367188 110.640625 63.796875 111.210938 Z M 63.796875 111.210938 " fill-opacity="1" fill-rule="nonzero"/><path fill="#f2efeb" d="M 71.4375 130.625 C 71.808594 130.625 72.179688 130.484375 72.4375 130.199219 L 77.625 125.007812 C 78.195312 124.4375 78.195312 123.554688 77.625 122.984375 C 77.054688 122.414062 76.171875 122.414062 75.601562 122.984375 L 70.410156 128.171875 C 69.84375 128.742188 69.84375 129.628906 70.410156 130.199219 C 70.695312 130.484375 71.066406 130.625 71.4375 130.625 Z M 71.4375 130.625 " fill-opacity="1" fill-rule="nonzero"/><path fill="#f2efeb" d="M 264.472656 92.652344 C 264.757812 92.9375 265.125 93.078125 265.46875 93.078125 C 265.8125 93.078125 266.210938 92.9375 266.464844 92.652344 C 267.035156 92.082031 267.035156 91.199219 266.464844 90.628906 L 261.277344 85.4375 C 260.707031 84.867188 259.824219 84.867188 259.253906 85.4375 C 258.683594 86.007812 258.683594 86.894531 259.253906 87.464844 Z M 264.472656 92.652344 " fill-opacity="1" fill-rule="nonzero"/><path fill="#f2efeb" d="M 276.246094 80.847656 C 276.53125 81.132812 276.902344 81.277344 277.242188 81.277344 C 277.585938 81.277344 277.984375 81.132812 278.242188 80.847656 C 278.8125 80.277344 278.8125 79.394531 278.242188 78.824219 L 273.050781 73.636719 C 272.480469 73.066406 271.597656 73.066406 271.027344 73.636719 C 270.457031 74.207031 270.457031 75.089844 271.027344 75.660156 Z M 276.246094 80.847656 " fill-opacity="1" fill-rule="nonzero"/><path fill="#f2efeb" d="M 260.28125 81.277344 C 260.652344 81.277344 261.023438 81.132812 261.277344 80.847656 L 266.464844 75.660156 C 267.035156 75.089844 267.035156 74.207031 266.464844 73.636719 C 265.898438 73.066406 265.011719 73.066406 264.441406 73.636719 L 259.253906 78.824219 C 258.683594 79.394531 258.683594 80.277344 259.253906 80.847656 C 259.566406 81.132812 259.9375 81.277344 260.28125 81.277344 Z M 260.28125 81.277344 " fill-opacity="1" fill-rule="nonzero"/><path fill="#f2efeb" d="M 272.082031 93.078125 C 272.453125 93.078125 272.824219 92.9375 273.082031 92.652344 L 278.269531 87.464844 C 278.839844 86.894531 278.839844 86.007812 278.269531 85.4375 C 277.699219 84.867188 276.816406 84.867188 276.246094 85.4375 L 271.085938 90.628906 C 270.515625 91.199219 270.515625 92.082031 271.085938 92.652344 C 271.339844 92.9375 271.710938 93.078125 272.082031 93.078125 Z M 272.082031 93.078125 " fill-opacity="1" fill-rule="nonzero"/><path fill="#f2efeb" d="M 133.785156 149.214844 C 136.722656 152.148438 140.601562 153.804688 144.449219 153.804688 L 144.761719 153.804688 C 150.238281 153.6875 155.625 152.179688 160.328125 149.441406 C 161.46875 148.785156 162.210938 147.644531 162.382812 146.332031 C 162.550781 144.992188 162.125 143.683594 161.15625 142.714844 L 152.832031 134.359375 C 151.890625 133.449219 150.605469 133.019531 149.296875 133.164062 C 148.011719 133.304688 146.84375 134.019531 146.160156 135.128906 L 145.046875 136.925781 C 144.820312 137.296875 144.449219 137.523438 144.023438 137.582031 C 143.566406 137.636719 143.136719 137.496094 142.824219 137.183594 L 124.007812 118.367188 C 123.695312 118.054688 123.550781 117.625 123.609375 117.199219 C 123.667969 116.742188 123.894531 116.371094 124.265625 116.144531 L 126.03125 115.03125 C 127.171875 114.347656 127.886719 113.207031 128.058594 111.894531 C 128.199219 110.582031 127.742188 109.300781 126.832031 108.386719 L 118.476562 100.035156 C 117.507812 99.066406 116.195312 98.636719 114.855469 98.808594 C 113.546875 98.980469 112.40625 99.722656 111.75 100.863281 C 109.011719 105.566406 107.5 110.953125 107.386719 116.429688 C 107.300781 120.390625 108.957031 124.382812 111.976562 127.402344 Z M 133.785156 149.214844 " fill-opacity="1" fill-rule="nonzero"/><path fill="#f2efeb" d="M 115.742188 172.933594 L 133.644531 205.832031 C 133.902344 206.289062 134.386719 206.574219 134.898438 206.574219 C 135.410156 206.574219 135.898438 206.289062 136.152344 205.832031 L 154.054688 172.933594 C 172.386719 165.378906 185.359375 147.332031 185.359375 126.261719 C 185.359375 98.46875 162.722656 75.832031 134.925781 75.832031 C 107.074219 75.832031 84.4375 98.46875 84.4375 126.261719 C 84.4375 147.304688 97.410156 165.378906 115.742188 172.933594 Z M 134.925781 78.683594 C 161.15625 78.683594 182.507812 100.035156 182.507812 126.261719 C 182.507812 152.519531 161.15625 173.902344 134.925781 173.902344 C 108.671875 173.902344 87.289062 152.519531 87.289062 126.261719 C 87.289062 100.035156 108.671875 78.683594 134.925781 78.683594 Z M 134.925781 78.683594 " fill-opacity="1" fill-rule="nonzero"/><g clip-path="url(#01e266c86f)"><g clip-path="url(#b1819a4c00)"><path fill="#ffffff" d="M 206.816406 10.804688 L 272.417969 10.804688 L 272.417969 76.40625 L 206.816406 76.40625 Z M 206.816406 10.804688 " fill-opacity="1" fill-rule="nonzero"/></g></g><g clip-path="url(#1ec016587b)"><g clip-path="url(#8782fc4767)"><path fill="#ffffff" d="M 211.714844 89.042969 L 211.714844 105.316406 L 201.910156 105.316406 L 201.910156 89.042969 Z M 211.714844 89.042969 " fill-opacity="1" fill-rule="nonzero"/></g></g><g clip-path="url(#a71b083964)"><g clip-path="url(#d157d2ee22)"><path fill="#ffffff" d="M 275.539062 82.515625 L 275.539062 111.085938 L 205.121094 111.085938 L 205.121094 82.515625 Z M 275.539062 82.515625 " fill-opacity="1" fill-rule="nonzero"/></g></g><g clip-path="url(#dbc8e03cca)"><g clip-path="url(#b71c94397d)"><path fill="#ffffff" d="M 277.316406 89.042969 L 277.316406 105.316406 L 267.511719 105.316406 L 267.511719 89.042969 Z M 277.316406 89.042969 " fill-opacity="1" fill-rule="nonzero"/></g></g><g clip-path="url(#1cafc45849)"><g clip-path="url(#7b0f52d24c)"><g clip-path="url(#fde4230014)"><path fill="#ffffff" d="M 261.535156 57.785156 L 268.226562 64.476562 L 237.671875 95.027344 L 230.984375 88.335938 Z M 261.535156 57.785156 " fill-opacity="1" fill-rule="nonzero"/></g></g></g><g clip-path="url(#bd71da48fd)"><g clip-path="url(#cc08477566)"><g clip-path="url(#7ed2dfc323)"><path fill="#ffffff" d="M 215.773438 68.265625 L 223.277344 62.5 L 249.605469 96.757812 L 242.101562 102.523438 Z M 215.773438 68.265625 " fill-opacity="1" fill-rule="nonzero"/></g></g></g><path fill="#000000" d="M 248.089844 39.421875 C 248.089844 37.847656 246.808594 36.566406 245.238281 36.566406 L 242.386719 36.566406 L 242.386719 42.277344 L 245.238281 42.277344 C 246.808594 42.277344 248.089844 40.996094 248.089844 39.421875 " fill-opacity="1" fill-rule="nonzero"/><g clip-path="url(#389ea2981a)"><path fill="#000000" d="M 264.632812 107.6875 C 257.886719 109.9375 248.972656 111.179688 239.535156 111.179688 C 230.09375 111.179688 221.179688 109.9375 214.433594 107.6875 C 204.539062 104.386719 202.460938 100 202.460938 96.902344 C 202.460938 89 215.570312 84.4375 229.9375 83.074219 C 227.992188 80.503906 225.785156 77.980469 223.53125 75.40625 C 215.976562 66.769531 208.164062 57.839844 208.164062 45.132812 C 208.164062 27.816406 222.238281 13.726562 239.535156 13.726562 C 256.832031 13.726562 270.902344 27.816406 270.902344 45.132812 C 270.902344 57.839844 263.089844 66.769531 255.535156 75.40625 C 253.285156 77.980469 251.078125 80.503906 249.132812 83.074219 C 263.496094 84.4375 276.609375 89 276.609375 96.902344 C 276.609375 100 274.53125 104.386719 264.632812 107.6875 Z M 254.71875 80.8125 C 255.710938 79.644531 256.730469 78.480469 257.734375 77.332031 C 265.277344 68.710938 273.824219 58.941406 273.824219 45.132812 C 273.824219 26.203125 258.441406 10.804688 239.535156 10.804688 C 220.625 10.804688 205.246094 26.203125 205.246094 45.132812 C 205.246094 58.941406 213.792969 68.710938 221.335938 77.332031 C 222.339844 78.480469 223.359375 79.644531 224.351562 80.8125 C 208.707031 83.203125 199.539062 89.0625 199.539062 96.902344 C 199.539062 100.960938 201.964844 106.609375 213.511719 110.460938 C 220.550781 112.808594 229.792969 114.101562 239.535156 114.101562 C 249.277344 114.101562 258.519531 112.808594 265.558594 110.460938 C 277.105469 106.609375 279.527344 100.960938 279.527344 96.902344 C 279.527344 89.0625 270.363281 83.203125 254.71875 80.8125 " fill-opacity="1" fill-rule="nonzero"/></g><path fill="#000000" d="M 264.160156 92.007812 C 259.316406 90.183594 252.753906 88.957031 245.53125 88.519531 C 243.601562 92.015625 242.386719 95.695312 242.386719 99.757812 L 236.683594 99.757812 C 236.683594 95.695312 235.46875 92.015625 233.539062 88.519531 C 226.316406 88.957031 219.75 90.183594 214.90625 92.007812 C 209.585938 94.015625 208.164062 96.027344 208.164062 96.902344 C 208.164062 97.828125 209.851562 100.140625 216.238281 102.269531 C 222.417969 104.332031 230.691406 105.46875 239.535156 105.46875 C 248.378906 105.46875 256.648438 104.332031 262.832031 102.269531 C 269.214844 100.140625 270.902344 97.828125 270.902344 96.902344 C 270.902344 96.027344 269.484375 94.015625 264.160156 92.007812 " fill-opacity="1" fill-rule="nonzero"/><path fill="#000000" d="M 236.683594 30.855469 L 245.238281 30.855469 C 249.957031 30.855469 253.792969 34.699219 253.792969 39.421875 C 253.792969 44.144531 249.957031 47.988281 245.238281 47.988281 L 242.386719 47.988281 L 242.386719 59.40625 L 236.683594 59.40625 Z M 230.980469 59.40625 L 225.273438 59.40625 L 225.273438 30.855469 L 230.980469 30.855469 Z M 251.246094 71.644531 C 258.421875 63.441406 265.199219 55.695312 265.199219 45.132812 C 265.199219 30.964844 253.6875 19.4375 239.535156 19.4375 C 225.382812 19.4375 213.867188 30.964844 213.867188 45.132812 C 213.867188 55.695312 220.648438 63.441406 227.824219 71.644531 C 232.226562 76.679688 236.726562 81.820312 239.535156 87.703125 C 242.34375 81.820312 246.839844 76.679688 251.246094 71.644531 " fill-opacity="1" fill-rule="nonzero"/></svg>