<svg xmlns="http://www.w3.org/2000/svg" xmlns:xlink="http://www.w3.org/1999/xlink" width="500" zoomAndPan="magnify" viewBox="0 0 375 374.999991" height="500" preserveAspectRatio="xMidYMid meet" version="1.0"><defs><clipPath id="e9c5efe54f"><path d="M 45.214844 203.183594 L 80.464844 203.183594 L 80.464844 238.433594 L 45.214844 238.433594 Z M 45.214844 203.183594 " clip-rule="nonzero"/></clipPath><clipPath id="f9f0b8f0dd"><path d="M 41.070312 161.054688 L 65.820312 161.054688 L 65.820312 185.804688 L 41.070312 185.804688 Z M 41.070312 161.054688 " clip-rule="nonzero"/></clipPath><clipPath id="10c8949492"><path d="M 80.261719 131.492188 L 117.011719 131.492188 L 117.011719 168.242188 L 80.261719 168.242188 Z M 80.261719 131.492188 " clip-rule="nonzero"/></clipPath><clipPath id="20cc4a7aa3"><path d="M 130.816406 129.441406 L 154.816406 129.441406 L 154.816406 153.441406 L 130.816406 153.441406 Z M 130.816406 129.441406 " clip-rule="nonzero"/></clipPath><clipPath id="34aabe5cd1"><path d="M 153.414062 162.234375 L 188.664062 162.234375 L 188.664062 197.484375 L 153.414062 197.484375 Z M 153.414062 162.234375 " clip-rule="nonzero"/></clipPath><clipPath id="61036a0d35"><path d="M 95.023438 177.890625 L 145.273438 177.890625 L 145.273438 228.140625 L 95.023438 228.140625 Z M 95.023438 177.890625 " clip-rule="nonzero"/></clipPath><clipPath id="2c0ac91de2"><path d="M 153.414062 214.679688 L 178.914062 214.679688 L 178.914062 240.179688 L 153.414062 240.179688 Z M 153.414062 214.679688 " clip-rule="nonzero"/></clipPath><clipPath id="2562f28cac"><path d="M 86.902344 238.226562 L 112.402344 238.226562 L 112.402344 263.726562 L 86.902344 263.726562 Z M 86.902344 238.226562 " clip-rule="nonzero"/></clipPath><clipPath id="6d7e617df3"><path d="M 39.949219 128 L 189.949219 128 L 189.949219 264.941406 L 39.949219 264.941406 Z M 39.949219 128 " clip-rule="nonzero"/></clipPath><clipPath id="0e67c84772"><path d="M 114.949219 267.605469 L 259.226562 267.605469 L 259.226562 302.882812 L 114.949219 302.882812 Z M 114.949219 267.605469 " clip-rule="nonzero"/></clipPath><clipPath id="05e974866a"><path d="M 112.515625 245 L 262.484375 245 L 262.484375 305.128906 L 112.515625 305.128906 Z M 112.515625 245 " clip-rule="nonzero"/></clipPath><clipPath id="84db96a181"><path d="M 308.191406 79.128906 L 324.832031 79.128906 L 324.832031 181.523438 L 308.191406 181.523438 Z M 308.191406 79.128906 " clip-rule="nonzero"/></clipPath><clipPath id="87f535c031"><path d="M 283.210938 93.296875 L 298.601562 93.296875 L 298.601562 179.960938 L 283.210938 179.960938 Z M 283.210938 93.296875 " clip-rule="nonzero"/></clipPath><clipPath id="207d8c61b8"><path d="M 256.570312 112.585938 L 271.960938 112.585938 L 271.960938 181.523438 L 256.570312 181.523438 Z M 256.570312 112.585938 " clip-rule="nonzero"/></clipPath><clipPath id="ad185fc04d"><path d="M 229.925781 131.492188 L 245.320312 131.492188 L 245.320312 179.960938 L 229.925781 179.960938 Z M 229.925781 131.492188 " clip-rule="nonzero"/></clipPath><clipPath id="570fa1a635"><path d="M 203.449219 151.628906 L 218.839844 151.628906 L 218.839844 179.960938 L 203.449219 179.960938 Z M 203.449219 151.628906 " clip-rule="nonzero"/></clipPath><clipPath id="f349bb8913"><path d="M 210 51.5625 L 318 51.5625 L 318 136 L 210 136 Z M 210 51.5625 " clip-rule="nonzero"/></clipPath><clipPath id="a21c117025"><path d="M 187.5 51.5625 L 337.5 51.5625 L 337.5 187.3125 L 187.5 187.3125 Z M 187.5 51.5625 " clip-rule="nonzero"/></clipPath></defs><g clip-path="url(#e9c5efe54f)"><path fill="#000000" d="M 80.253906 220.703125 C 80.253906 221.277344 80.226562 221.847656 80.171875 222.421875 C 80.113281 222.992188 80.03125 223.558594 79.917969 224.121094 C 79.808594 224.683594 79.667969 225.238281 79.5 225.789062 C 79.335938 226.335938 79.140625 226.878906 78.921875 227.40625 C 78.703125 227.9375 78.457031 228.457031 78.1875 228.960938 C 77.917969 229.46875 77.621094 229.957031 77.300781 230.4375 C 76.984375 230.914062 76.640625 231.375 76.277344 231.816406 C 75.914062 232.261719 75.53125 232.683594 75.125 233.089844 C 74.71875 233.496094 74.292969 233.882812 73.851562 234.246094 C 73.40625 234.609375 72.945312 234.949219 72.46875 235.269531 C 71.992188 235.589844 71.5 235.882812 70.996094 236.152344 C 70.488281 236.425781 69.96875 236.667969 69.441406 236.886719 C 68.910156 237.109375 68.371094 237.300781 67.820312 237.46875 C 67.273438 237.632812 66.714844 237.773438 66.152344 237.886719 C 65.589844 237.996094 65.023438 238.082031 64.453125 238.136719 C 63.882812 238.195312 63.308594 238.222656 62.734375 238.222656 C 62.160156 238.222656 61.589844 238.195312 61.019531 238.136719 C 60.449219 238.082031 59.878906 237.996094 59.316406 237.886719 C 58.753906 237.773438 58.199219 237.632812 57.648438 237.46875 C 57.101562 237.300781 56.5625 237.109375 56.03125 236.886719 C 55.5 236.667969 54.984375 236.425781 54.476562 236.152344 C 53.972656 235.882812 53.480469 235.589844 53.003906 235.269531 C 52.523438 234.949219 52.066406 234.609375 51.621094 234.246094 C 51.179688 233.882812 50.753906 233.496094 50.347656 233.089844 C 49.941406 232.683594 49.558594 232.261719 49.191406 231.816406 C 48.828125 231.375 48.488281 230.914062 48.167969 230.4375 C 47.851562 229.957031 47.554688 229.46875 47.285156 228.960938 C 47.015625 228.457031 46.769531 227.9375 46.550781 227.40625 C 46.332031 226.878906 46.136719 226.335938 45.96875 225.789062 C 45.804688 225.238281 45.664062 224.683594 45.554688 224.121094 C 45.441406 223.558594 45.355469 222.992188 45.300781 222.421875 C 45.246094 221.847656 45.214844 221.277344 45.214844 220.703125 C 45.214844 220.128906 45.246094 219.554688 45.300781 218.984375 C 45.355469 218.414062 45.441406 217.847656 45.554688 217.285156 C 45.664062 216.722656 45.804688 216.167969 45.96875 215.617188 C 46.136719 215.066406 46.332031 214.527344 46.550781 214 C 46.769531 213.46875 47.015625 212.949219 47.285156 212.445312 C 47.554688 211.9375 47.851562 211.445312 48.167969 210.96875 C 48.488281 210.492188 48.828125 210.03125 49.191406 209.589844 C 49.558594 209.144531 49.941406 208.71875 50.347656 208.316406 C 50.753906 207.910156 51.179688 207.523438 51.621094 207.160156 C 52.066406 206.796875 52.523438 206.453125 53.003906 206.136719 C 53.480469 205.816406 53.972656 205.523438 54.476562 205.25 C 54.984375 204.980469 55.5 204.738281 56.03125 204.515625 C 56.5625 204.296875 57.101562 204.105469 57.648438 203.9375 C 58.199219 203.769531 58.753906 203.632812 59.316406 203.519531 C 59.878906 203.40625 60.449219 203.324219 61.019531 203.265625 C 61.589844 203.210938 62.160156 203.183594 62.734375 203.183594 C 63.308594 203.183594 63.882812 203.210938 64.453125 203.265625 C 65.023438 203.324219 65.589844 203.40625 66.152344 203.519531 C 66.714844 203.632812 67.273438 203.769531 67.820312 203.9375 C 68.371094 204.105469 68.910156 204.296875 69.441406 204.515625 C 69.96875 204.738281 70.488281 204.980469 70.996094 205.25 C 71.5 205.523438 71.992188 205.816406 72.46875 206.136719 C 72.945312 206.453125 73.40625 206.796875 73.851562 207.160156 C 74.292969 207.523438 74.71875 207.910156 75.125 208.316406 C 75.53125 208.71875 75.914062 209.144531 76.277344 209.589844 C 76.640625 210.03125 76.984375 210.492188 77.300781 210.96875 C 77.621094 211.445312 77.917969 211.9375 78.1875 212.445312 C 78.457031 212.949219 78.703125 213.46875 78.921875 214 C 79.140625 214.527344 79.335938 215.066406 79.5 215.617188 C 79.667969 216.167969 79.808594 216.722656 79.917969 217.285156 C 80.03125 217.847656 80.113281 218.414062 80.171875 218.984375 C 80.226562 219.554688 80.253906 220.128906 80.253906 220.703125 Z M 80.253906 220.703125 " fill-opacity="1" fill-rule="nonzero"/></g><g clip-path="url(#f9f0b8f0dd)"><path fill="#000000" d="M 65.539062 173.289062 C 65.539062 174.089844 65.460938 174.886719 65.304688 175.675781 C 65.148438 176.460938 64.917969 177.226562 64.609375 177.96875 C 64.300781 178.710938 63.925781 179.417969 63.480469 180.085938 C 63.03125 180.753906 62.523438 181.371094 61.957031 181.9375 C 61.390625 182.507812 60.769531 183.011719 60.101562 183.460938 C 59.433594 183.90625 58.730469 184.28125 57.988281 184.589844 C 57.246094 184.898438 56.480469 185.128906 55.691406 185.285156 C 54.90625 185.441406 54.109375 185.523438 53.304688 185.523438 C 52.503906 185.523438 51.707031 185.441406 50.917969 185.285156 C 50.132812 185.128906 49.367188 184.898438 48.625 184.589844 C 47.882812 184.28125 47.175781 183.90625 46.507812 183.460938 C 45.839844 183.011719 45.222656 182.507812 44.65625 181.9375 C 44.085938 181.371094 43.582031 180.753906 43.132812 180.085938 C 42.6875 179.417969 42.3125 178.710938 42.003906 177.96875 C 41.695312 177.226562 41.464844 176.460938 41.308594 175.675781 C 41.148438 174.886719 41.070312 174.089844 41.070312 173.289062 C 41.070312 172.484375 41.148438 171.6875 41.308594 170.898438 C 41.464844 170.113281 41.695312 169.347656 42.003906 168.605469 C 42.3125 167.863281 42.6875 167.15625 43.132812 166.488281 C 43.582031 165.820312 44.085938 165.203125 44.65625 164.636719 C 45.222656 164.066406 45.839844 163.5625 46.507812 163.113281 C 47.175781 162.667969 47.882812 162.292969 48.625 161.984375 C 49.367188 161.675781 50.132812 161.445312 50.917969 161.289062 C 51.707031 161.132812 52.503906 161.054688 53.304688 161.054688 C 54.109375 161.054688 54.90625 161.132812 55.691406 161.289062 C 56.480469 161.445312 57.246094 161.675781 57.988281 161.984375 C 58.730469 162.292969 59.433594 162.667969 60.101562 163.113281 C 60.769531 163.5625 61.390625 164.066406 61.957031 164.636719 C 62.523438 165.203125 63.03125 165.820312 63.480469 166.488281 C 63.925781 167.15625 64.300781 167.863281 64.609375 168.605469 C 64.917969 169.347656 65.148438 170.113281 65.304688 170.898438 C 65.460938 171.6875 65.539062 172.484375 65.539062 173.289062 Z M 65.539062 173.289062 " fill-opacity="1" fill-rule="nonzero"/></g><g clip-path="url(#10c8949492)"><path fill="#000000" d="M 117.117188 149.921875 C 117.117188 150.523438 117.085938 151.128906 117.027344 151.726562 C 116.96875 152.328125 116.878906 152.925781 116.761719 153.515625 C 116.644531 154.109375 116.496094 154.695312 116.320312 155.269531 C 116.148438 155.847656 115.945312 156.417969 115.714844 156.972656 C 115.480469 157.53125 115.222656 158.074219 114.941406 158.609375 C 114.65625 159.140625 114.34375 159.65625 114.011719 160.160156 C 113.675781 160.660156 113.316406 161.144531 112.933594 161.613281 C 112.550781 162.078125 112.144531 162.523438 111.71875 162.953125 C 111.292969 163.378906 110.84375 163.785156 110.378906 164.167969 C 109.910156 164.550781 109.425781 164.910156 108.925781 165.242188 C 108.425781 165.578125 107.90625 165.890625 107.375 166.171875 C 106.84375 166.457031 106.296875 166.714844 105.738281 166.945312 C 105.183594 167.175781 104.613281 167.378906 104.039062 167.554688 C 103.460938 167.730469 102.875 167.878906 102.28125 167.996094 C 101.691406 168.113281 101.09375 168.203125 100.496094 168.261719 C 99.894531 168.320312 99.292969 168.347656 98.6875 168.347656 C 98.085938 168.347656 97.480469 168.320312 96.882812 168.261719 C 96.28125 168.203125 95.683594 168.113281 95.09375 167.996094 C 94.5 167.878906 93.917969 167.730469 93.339844 167.554688 C 92.761719 167.378906 92.195312 167.175781 91.636719 166.945312 C 91.078125 166.714844 90.535156 166.457031 90 166.171875 C 89.46875 165.890625 88.953125 165.578125 88.449219 165.242188 C 87.949219 164.910156 87.464844 164.550781 86.996094 164.167969 C 86.53125 163.785156 86.085938 163.378906 85.65625 162.953125 C 85.230469 162.523438 84.824219 162.078125 84.441406 161.613281 C 84.058594 161.144531 83.699219 160.660156 83.367188 160.160156 C 83.03125 159.65625 82.71875 159.140625 82.4375 158.609375 C 82.152344 158.074219 81.894531 157.53125 81.664062 156.972656 C 81.433594 156.417969 81.230469 155.847656 81.054688 155.269531 C 80.878906 154.695312 80.730469 154.109375 80.613281 153.515625 C 80.496094 152.925781 80.40625 152.328125 80.347656 151.726562 C 80.289062 151.128906 80.261719 150.523438 80.261719 149.921875 C 80.261719 149.316406 80.289062 148.714844 80.347656 148.117188 C 80.40625 147.515625 80.496094 146.917969 80.613281 146.328125 C 80.730469 145.734375 80.878906 145.148438 81.054688 144.574219 C 81.230469 143.996094 81.433594 143.425781 81.664062 142.871094 C 81.894531 142.3125 82.152344 141.765625 82.4375 141.234375 C 82.71875 140.703125 83.03125 140.1875 83.367188 139.683594 C 83.699219 139.183594 84.058594 138.699219 84.441406 138.230469 C 84.824219 137.765625 85.230469 137.316406 85.65625 136.890625 C 86.085938 136.464844 86.53125 136.058594 86.996094 135.675781 C 87.464844 135.292969 87.949219 134.933594 88.449219 134.597656 C 88.953125 134.265625 89.46875 133.953125 90 133.667969 C 90.535156 133.386719 91.078125 133.128906 91.636719 132.898438 C 92.195312 132.664062 92.761719 132.460938 93.339844 132.289062 C 93.917969 132.113281 94.5 131.964844 95.09375 131.847656 C 95.683594 131.730469 96.28125 131.640625 96.882812 131.582031 C 97.480469 131.523438 98.085938 131.492188 98.6875 131.492188 C 99.292969 131.492188 99.894531 131.523438 100.496094 131.582031 C 101.09375 131.640625 101.691406 131.730469 102.28125 131.847656 C 102.875 131.964844 103.460938 132.113281 104.039062 132.289062 C 104.613281 132.460938 105.183594 132.664062 105.738281 132.898438 C 106.296875 133.128906 106.84375 133.386719 107.375 133.667969 C 107.90625 133.953125 108.425781 134.265625 108.925781 134.597656 C 109.425781 134.933594 109.910156 135.292969 110.378906 135.675781 C 110.84375 136.058594 111.292969 136.464844 111.71875 136.890625 C 112.144531 137.316406 112.550781 137.765625 112.933594 138.230469 C 113.316406 138.699219 113.675781 139.183594 114.011719 139.683594 C 114.34375 140.1875 114.65625 140.703125 114.941406 141.234375 C 115.222656 141.765625 115.480469 142.3125 115.714844 142.871094 C 115.945312 143.425781 116.148438 143.996094 116.320312 144.574219 C 116.496094 145.148438 116.644531 145.734375 116.761719 146.328125 C 116.878906 146.917969 116.96875 147.515625 117.027344 148.117188 C 117.085938 148.714844 117.117188 149.316406 117.117188 149.921875 Z M 117.117188 149.921875 " fill-opacity="1" fill-rule="nonzero"/></g><g clip-path="url(#20cc4a7aa3)"><path fill="#000000" d="M 154.910156 141.488281 C 154.910156 142.277344 154.832031 143.0625 154.675781 143.835938 C 154.523438 144.613281 154.292969 145.367188 153.992188 146.097656 C 153.6875 146.828125 153.316406 147.523438 152.878906 148.179688 C 152.4375 148.839844 151.941406 149.445312 151.378906 150.007812 C 150.820312 150.566406 150.210938 151.066406 149.554688 151.503906 C 148.898438 151.945312 148.203125 152.316406 147.472656 152.617188 C 146.742188 152.921875 145.988281 153.148438 145.210938 153.304688 C 144.4375 153.457031 143.652344 153.535156 142.863281 153.535156 C 142.070312 153.535156 141.289062 153.457031 140.511719 153.304688 C 139.734375 153.148438 138.984375 152.921875 138.253906 152.617188 C 137.519531 152.316406 136.828125 151.945312 136.167969 151.503906 C 135.511719 151.066406 134.902344 150.566406 134.34375 150.007812 C 133.785156 149.445312 133.285156 148.839844 132.84375 148.179688 C 132.40625 147.523438 132.035156 146.828125 131.730469 146.097656 C 131.429688 145.367188 131.199219 144.613281 131.046875 143.835938 C 130.890625 143.0625 130.816406 142.277344 130.816406 141.488281 C 130.816406 140.695312 130.890625 139.914062 131.046875 139.136719 C 131.199219 138.363281 131.429688 137.609375 131.730469 136.878906 C 132.035156 136.148438 132.40625 135.453125 132.84375 134.792969 C 133.285156 134.136719 133.785156 133.527344 134.34375 132.96875 C 134.902344 132.410156 135.511719 131.910156 136.167969 131.472656 C 136.828125 131.03125 137.519531 130.660156 138.253906 130.359375 C 138.984375 130.054688 139.734375 129.828125 140.511719 129.671875 C 141.289062 129.519531 142.070312 129.441406 142.863281 129.441406 C 143.652344 129.441406 144.4375 129.519531 145.210938 129.671875 C 145.988281 129.828125 146.742188 130.054688 147.472656 130.359375 C 148.203125 130.660156 148.898438 131.03125 149.554688 131.472656 C 150.210938 131.910156 150.820312 132.410156 151.378906 132.96875 C 151.941406 133.527344 152.4375 134.136719 152.878906 134.792969 C 153.316406 135.453125 153.6875 136.148438 153.992188 136.878906 C 154.292969 137.609375 154.523438 138.363281 154.675781 139.136719 C 154.832031 139.914062 154.910156 140.695312 154.910156 141.488281 Z M 154.910156 141.488281 " fill-opacity="1" fill-rule="nonzero"/></g><g clip-path="url(#34aabe5cd1)"><path fill="#000000" d="M 188.863281 179.957031 C 188.863281 180.539062 188.835938 181.117188 188.78125 181.695312 C 188.722656 182.273438 188.636719 182.847656 188.523438 183.417969 C 188.410156 183.984375 188.269531 184.546875 188.101562 185.105469 C 187.933594 185.660156 187.738281 186.207031 187.515625 186.742188 C 187.292969 187.277344 187.046875 187.800781 186.773438 188.3125 C 186.5 188.824219 186.199219 189.324219 185.878906 189.804688 C 185.554688 190.289062 185.210938 190.753906 184.84375 191.203125 C 184.472656 191.652344 184.085938 192.082031 183.671875 192.492188 C 183.261719 192.902344 182.832031 193.292969 182.386719 193.660156 C 181.9375 194.027344 181.46875 194.375 180.988281 194.695312 C 180.503906 195.019531 180.007812 195.316406 179.496094 195.589844 C 178.984375 195.863281 178.460938 196.113281 177.921875 196.335938 C 177.386719 196.554688 176.839844 196.75 176.285156 196.921875 C 175.730469 197.089844 175.167969 197.230469 174.597656 197.34375 C 174.027344 197.457031 173.457031 197.542969 172.878906 197.597656 C 172.300781 197.65625 171.722656 197.683594 171.140625 197.683594 C 170.558594 197.683594 169.980469 197.65625 169.402344 197.597656 C 168.824219 197.542969 168.253906 197.457031 167.683594 197.34375 C 167.113281 197.230469 166.550781 197.089844 165.996094 196.921875 C 165.441406 196.75 164.894531 196.554688 164.359375 196.335938 C 163.820312 196.113281 163.296875 195.863281 162.785156 195.589844 C 162.273438 195.316406 161.777344 195.019531 161.292969 194.695312 C 160.8125 194.375 160.34375 194.027344 159.894531 193.660156 C 159.449219 193.292969 159.019531 192.902344 158.605469 192.492188 C 158.195312 192.082031 157.808594 191.652344 157.4375 191.203125 C 157.070312 190.753906 156.726562 190.289062 156.402344 189.804688 C 156.082031 189.324219 155.78125 188.824219 155.507812 188.3125 C 155.234375 187.800781 154.988281 187.277344 154.765625 186.742188 C 154.542969 186.207031 154.347656 185.660156 154.179688 185.105469 C 154.011719 184.546875 153.871094 183.984375 153.757812 183.417969 C 153.644531 182.847656 153.558594 182.273438 153.5 181.695312 C 153.445312 181.117188 153.414062 180.539062 153.414062 179.957031 C 153.414062 179.378906 153.445312 178.800781 153.5 178.222656 C 153.558594 177.644531 153.644531 177.070312 153.757812 176.5 C 153.871094 175.929688 154.011719 175.367188 154.179688 174.8125 C 154.347656 174.257812 154.542969 173.710938 154.765625 173.175781 C 154.988281 172.640625 155.234375 172.117188 155.507812 171.601562 C 155.78125 171.089844 156.082031 170.59375 156.402344 170.113281 C 156.726562 169.628906 157.070312 169.164062 157.4375 168.714844 C 157.808594 168.265625 158.195312 167.835938 158.605469 167.425781 C 159.019531 167.015625 159.449219 166.625 159.894531 166.257812 C 160.34375 165.890625 160.8125 165.542969 161.292969 165.222656 C 161.777344 164.898438 162.273438 164.601562 162.785156 164.328125 C 163.296875 164.054688 163.820312 163.804688 164.359375 163.582031 C 164.894531 163.359375 165.441406 163.164062 165.996094 162.996094 C 166.550781 162.828125 167.113281 162.6875 167.683594 162.574219 C 168.253906 162.460938 168.824219 162.375 169.402344 162.320312 C 169.980469 162.261719 170.558594 162.234375 171.140625 162.234375 C 171.722656 162.234375 172.300781 162.261719 172.878906 162.320312 C 173.457031 162.375 174.027344 162.460938 174.597656 162.574219 C 175.167969 162.6875 175.730469 162.828125 176.285156 162.996094 C 176.839844 163.164062 177.386719 163.359375 177.921875 163.582031 C 178.460938 163.804688 178.984375 164.054688 179.496094 164.328125 C 180.007812 164.601562 180.503906 164.898438 180.988281 165.222656 C 181.46875 165.542969 181.9375 165.890625 182.386719 166.257812 C 182.832031 166.625 183.261719 167.015625 183.671875 167.425781 C 184.085938 167.835938 184.472656 168.265625 184.84375 168.714844 C 185.210938 169.164062 185.554688 169.628906 185.878906 170.113281 C 186.199219 170.59375 186.5 171.089844 186.773438 171.601562 C 187.046875 172.117188 187.292969 172.640625 187.515625 173.175781 C 187.738281 173.710938 187.933594 174.257812 188.101562 174.8125 C 188.269531 175.367188 188.410156 175.929688 188.523438 176.5 C 188.636719 177.070312 188.722656 177.644531 188.78125 178.222656 C 188.835938 178.800781 188.863281 179.378906 188.863281 179.957031 Z M 188.863281 179.957031 " fill-opacity="1" fill-rule="nonzero"/></g><g clip-path="url(#61036a0d35)"><path fill="#000000" d="M 145.601562 203.179688 C 145.601562 204.007812 145.558594 204.832031 145.476562 205.65625 C 145.398438 206.480469 145.277344 207.300781 145.113281 208.113281 C 144.953125 208.925781 144.75 209.726562 144.511719 210.519531 C 144.269531 211.3125 143.992188 212.089844 143.675781 212.855469 C 143.359375 213.621094 143.003906 214.367188 142.613281 215.097656 C 142.222656 215.828125 141.796875 216.539062 141.339844 217.226562 C 140.878906 217.917969 140.386719 218.582031 139.859375 219.222656 C 139.335938 219.863281 138.777344 220.476562 138.191406 221.058594 C 137.605469 221.644531 136.996094 222.203125 136.355469 222.726562 C 135.714844 223.253906 135.050781 223.746094 134.359375 224.207031 C 133.671875 224.664062 132.960938 225.089844 132.230469 225.480469 C 131.5 225.871094 130.753906 226.226562 129.988281 226.542969 C 129.222656 226.859375 128.445312 227.136719 127.652344 227.378906 C 126.859375 227.617188 126.058594 227.820312 125.246094 227.980469 C 124.433594 228.144531 123.613281 228.265625 122.789062 228.34375 C 121.964844 228.425781 121.140625 228.46875 120.3125 228.46875 C 119.484375 228.46875 118.65625 228.425781 117.832031 228.34375 C 117.007812 228.265625 116.191406 228.144531 115.378906 227.980469 C 114.566406 227.820312 113.761719 227.617188 112.96875 227.378906 C 112.175781 227.136719 111.398438 226.859375 110.632812 226.542969 C 109.867188 226.226562 109.121094 225.871094 108.390625 225.480469 C 107.660156 225.089844 106.949219 224.664062 106.261719 224.207031 C 105.574219 223.746094 104.90625 223.253906 104.269531 222.726562 C 103.628906 222.203125 103.015625 221.644531 102.429688 221.058594 C 101.84375 220.476562 101.289062 219.863281 100.761719 219.222656 C 100.238281 218.582031 99.742188 217.917969 99.285156 217.226562 C 98.824219 216.539062 98.398438 215.828125 98.007812 215.097656 C 97.617188 214.367188 97.265625 213.621094 96.945312 212.855469 C 96.628906 212.089844 96.351562 211.3125 96.109375 210.519531 C 95.871094 209.726562 95.667969 208.925781 95.507812 208.113281 C 95.347656 207.300781 95.226562 206.480469 95.144531 205.65625 C 95.0625 204.832031 95.023438 204.007812 95.023438 203.179688 C 95.023438 202.351562 95.0625 201.523438 95.144531 200.699219 C 95.226562 199.875 95.347656 199.058594 95.507812 198.246094 C 95.667969 197.433594 95.871094 196.628906 96.109375 195.835938 C 96.351562 195.042969 96.628906 194.265625 96.945312 193.5 C 97.265625 192.734375 97.617188 191.988281 98.007812 191.257812 C 98.398438 190.527344 98.824219 189.816406 99.285156 189.128906 C 99.742188 188.441406 100.238281 187.773438 100.761719 187.136719 C 101.289062 186.496094 101.84375 185.882812 102.429688 185.296875 C 103.015625 184.710938 103.628906 184.15625 104.269531 183.628906 C 104.90625 183.105469 105.574219 182.609375 106.261719 182.152344 C 106.949219 181.691406 107.660156 181.265625 108.390625 180.875 C 109.121094 180.484375 109.867188 180.132812 110.632812 179.8125 C 111.398438 179.496094 112.175781 179.21875 112.96875 178.976562 C 113.761719 178.738281 114.566406 178.535156 115.378906 178.375 C 116.191406 178.214844 117.007812 178.09375 117.832031 178.011719 C 118.65625 177.929688 119.484375 177.890625 120.3125 177.890625 C 121.140625 177.890625 121.964844 177.929688 122.789062 178.011719 C 123.613281 178.09375 124.433594 178.214844 125.246094 178.375 C 126.058594 178.535156 126.859375 178.738281 127.652344 178.976562 C 128.445312 179.21875 129.222656 179.496094 129.988281 179.8125 C 130.753906 180.132812 131.5 180.484375 132.230469 180.875 C 132.960938 181.265625 133.671875 181.691406 134.359375 182.152344 C 135.050781 182.609375 135.714844 183.105469 136.355469 183.628906 C 136.996094 184.15625 137.605469 184.710938 138.191406 185.296875 C 138.777344 185.882812 139.335938 186.496094 139.859375 187.136719 C 140.386719 187.773438 140.878906 188.441406 141.339844 189.128906 C 141.796875 189.816406 142.222656 190.527344 142.613281 191.257812 C 143.003906 191.988281 143.359375 192.734375 143.675781 193.5 C 143.992188 194.265625 144.269531 195.042969 144.511719 195.835938 C 144.75 196.628906 144.953125 197.433594 145.113281 198.246094 C 145.277344 199.058594 145.398438 199.875 145.476562 200.699219 C 145.558594 201.523438 145.601562 202.351562 145.601562 203.179688 Z M 145.601562 203.179688 " fill-opacity="1" fill-rule="nonzero"/></g><g clip-path="url(#2c0ac91de2)"><path fill="#000000" d="M 179.007812 227.476562 C 179.007812 228.316406 178.929688 229.148438 178.765625 229.972656 C 178.601562 230.796875 178.355469 231.597656 178.035156 232.375 C 177.714844 233.152344 177.320312 233.886719 176.851562 234.585938 C 176.386719 235.285156 175.855469 235.933594 175.261719 236.527344 C 174.667969 237.121094 174.019531 237.652344 173.324219 238.117188 C 172.625 238.585938 171.886719 238.980469 171.109375 239.300781 C 170.332031 239.621094 169.535156 239.863281 168.710938 240.027344 C 167.886719 240.191406 167.054688 240.273438 166.210938 240.273438 C 165.371094 240.273438 164.539062 240.191406 163.714844 240.027344 C 162.890625 239.863281 162.09375 239.621094 161.316406 239.300781 C 160.539062 238.980469 159.800781 238.585938 159.101562 238.117188 C 158.40625 237.652344 157.757812 237.121094 157.164062 236.527344 C 156.570312 235.933594 156.039062 235.285156 155.574219 234.585938 C 155.105469 233.886719 154.710938 233.152344 154.390625 232.375 C 154.070312 231.597656 153.824219 230.796875 153.660156 229.972656 C 153.496094 229.148438 153.414062 228.316406 153.414062 227.476562 C 153.414062 226.636719 153.496094 225.804688 153.660156 224.980469 C 153.824219 224.15625 154.070312 223.355469 154.390625 222.582031 C 154.710938 221.804688 155.105469 221.066406 155.574219 220.367188 C 156.039062 219.667969 156.570312 219.023438 157.164062 218.429688 C 157.757812 217.835938 158.40625 217.304688 159.101562 216.835938 C 159.800781 216.371094 160.539062 215.976562 161.316406 215.65625 C 162.09375 215.332031 162.890625 215.089844 163.714844 214.925781 C 164.539062 214.761719 165.371094 214.679688 166.210938 214.679688 C 167.054688 214.679688 167.886719 214.761719 168.710938 214.925781 C 169.535156 215.089844 170.332031 215.332031 171.109375 215.65625 C 171.886719 215.976562 172.625 216.371094 173.324219 216.835938 C 174.019531 217.304688 174.667969 217.835938 175.261719 218.429688 C 175.855469 219.023438 176.386719 219.667969 176.851562 220.367188 C 177.320312 221.066406 177.714844 221.804688 178.035156 222.582031 C 178.355469 223.355469 178.601562 224.15625 178.765625 224.980469 C 178.929688 225.804688 179.007812 226.636719 179.007812 227.476562 Z M 179.007812 227.476562 " fill-opacity="1" fill-rule="nonzero"/></g><g clip-path="url(#2562f28cac)"><path fill="#000000" d="M 112.496094 251.023438 C 112.496094 251.863281 112.414062 252.695312 112.25 253.519531 C 112.085938 254.34375 111.84375 255.144531 111.523438 255.921875 C 111.203125 256.699219 110.808594 257.433594 110.339844 258.132812 C 109.875 258.832031 109.34375 259.480469 108.75 260.074219 C 108.15625 260.667969 107.507812 261.199219 106.808594 261.664062 C 106.113281 262.132812 105.375 262.523438 104.597656 262.847656 C 103.820312 263.167969 103.019531 263.410156 102.195312 263.574219 C 101.371094 263.738281 100.539062 263.820312 99.699219 263.820312 C 98.859375 263.820312 98.027344 263.738281 97.203125 263.574219 C 96.378906 263.410156 95.578125 263.167969 94.804688 262.847656 C 94.027344 262.523438 93.289062 262.132812 92.589844 261.664062 C 91.890625 261.199219 91.246094 260.667969 90.652344 260.074219 C 90.058594 259.480469 89.527344 258.832031 89.058594 258.132812 C 88.59375 257.433594 88.199219 256.699219 87.878906 255.921875 C 87.554688 255.144531 87.3125 254.34375 87.148438 253.519531 C 86.984375 252.695312 86.902344 251.863281 86.902344 251.023438 C 86.902344 250.183594 86.984375 249.351562 87.148438 248.527344 C 87.3125 247.703125 87.554688 246.902344 87.878906 246.125 C 88.199219 245.351562 88.59375 244.613281 89.058594 243.914062 C 89.527344 243.214844 90.058594 242.570312 90.652344 241.976562 C 91.246094 241.382812 91.890625 240.851562 92.589844 240.382812 C 93.289062 239.917969 94.027344 239.523438 94.804688 239.203125 C 95.578125 238.878906 96.378906 238.636719 97.203125 238.472656 C 98.027344 238.308594 98.859375 238.226562 99.699219 238.226562 C 100.539062 238.226562 101.371094 238.308594 102.195312 238.472656 C 103.019531 238.636719 103.820312 238.878906 104.597656 239.203125 C 105.375 239.523438 106.113281 239.917969 106.808594 240.382812 C 107.507812 240.851562 108.15625 241.382812 108.75 241.976562 C 109.34375 242.570312 109.875 243.214844 110.339844 243.914062 C 110.808594 244.613281 111.203125 245.351562 111.523438 246.125 C 111.84375 246.902344 112.085938 247.703125 112.25 248.527344 C 112.414062 249.351562 112.496094 250.183594 112.496094 251.023438 Z M 112.496094 251.023438 " fill-opacity="1" fill-rule="nonzero"/></g><g clip-path="url(#6d7e617df3)"><path fill="#ffffff" d="M 170.753906 161.496094 C 167.019531 161.496094 163.546875 162.585938 160.59375 164.4375 L 151.253906 151.488281 C 154.03125 149.042969 155.824219 145.503906 155.824219 141.515625 C 155.824219 134.164062 149.839844 128.179688 142.488281 128.179688 C 135.132812 128.179688 129.148438 134.164062 129.148438 141.515625 C 129.148438 146.851562 132.320312 151.433594 136.859375 153.5625 L 133.148438 164.007812 L 116.609375 156.917969 C 117.332031 154.875 117.71875 152.742188 117.71875 150.546875 C 117.71875 139.964844 109.105469 131.355469 98.523438 131.355469 C 87.9375 131.355469 79.328125 139.964844 79.328125 150.546875 C 79.328125 153.175781 79.859375 155.675781 80.820312 157.957031 L 64.5625 166.070312 C 62.203125 162.304688 58.046875 159.777344 53.285156 159.777344 C 45.933594 159.777344 39.949219 165.761719 39.949219 173.113281 C 39.949219 180.46875 45.933594 186.449219 53.285156 186.449219 C 53.75 186.449219 54.183594 186.359375 54.636719 186.316406 L 57.75 201.875 C 49.59375 204.085938 43.566406 211.535156 43.566406 220.382812 C 43.566406 230.964844 52.175781 239.574219 62.757812 239.574219 C 68.183594 239.574219 73.078125 237.304688 76.574219 233.671875 L 88.621094 243.808594 C 87.128906 245.960938 86.246094 248.5625 86.246094 251.375 C 86.246094 258.726562 92.230469 264.710938 99.582031 264.710938 C 106.9375 264.710938 112.917969 258.726562 112.917969 251.375 C 112.917969 246.367188 110.113281 242.046875 106.019531 239.765625 L 111.277344 227.695312 C 114.1875 228.800781 117.324219 229.433594 120.617188 229.433594 C 135.152344 229.433594 146.980469 217.605469 146.980469 203.070312 C 146.980469 199.820312 146.363281 196.722656 145.285156 193.847656 L 154.035156 190.085938 C 156.839844 195.058594 161.796875 198.644531 167.628906 199.605469 L 166.183594 214.453125 C 166.175781 214.453125 166.167969 214.449219 166.160156 214.449219 C 158.808594 214.449219 152.824219 220.433594 152.824219 227.785156 C 152.824219 235.140625 158.808594 241.125 166.160156 241.125 C 173.515625 241.125 179.496094 235.140625 179.496094 227.785156 C 179.496094 221.308594 174.847656 215.902344 168.714844 214.707031 L 170.164062 199.855469 C 170.359375 199.859375 170.554688 199.882812 170.753906 199.882812 C 181.339844 199.882812 189.949219 191.273438 189.949219 180.691406 C 189.949219 170.105469 181.339844 161.496094 170.753906 161.496094 Z M 159.902344 236.546875 C 160.992188 235.300781 162.601562 234.148438 163.671875 233.933594 C 164.699219 233.726562 165.484375 232.996094 165.714844 232.042969 C 165.792969 231.738281 165.804688 231.335938 165.832031 230.554688 C 165.84375 230.148438 165.660156 229.761719 165.339844 229.511719 C 164.671875 228.988281 164.085938 228.148438 163.773438 227.257812 C 163.664062 226.949219 163.445312 226.703125 163.171875 226.554688 C 163.164062 226.515625 163.15625 226.472656 163.148438 226.433594 C 163.371094 226.195312 163.5 225.875 163.5 225.535156 C 163.496094 224.074219 163.496094 222.808594 164.03125 222.269531 C 164.382812 221.917969 165.09375 221.734375 166.179688 221.734375 C 167.226562 221.734375 167.9375 221.917969 168.289062 222.269531 C 168.824219 222.808594 168.824219 224.074219 168.816406 225.566406 C 168.816406 225.902344 168.949219 226.214844 169.167969 226.445312 C 169.164062 226.480469 169.15625 226.519531 169.148438 226.554688 C 168.875 226.699219 168.65625 226.945312 168.546875 227.257812 C 168.234375 228.148438 167.648438 228.988281 166.976562 229.511719 C 166.65625 229.761719 166.480469 230.246094 166.492188 230.652344 C 166.511719 231.335938 166.527344 231.738281 166.601562 232.027344 C 166.839844 233 167.625 233.730469 168.644531 233.933594 C 169.714844 234.148438 171.328125 235.296875 172.417969 236.546875 C 170.648438 237.816406 168.5 238.582031 166.160156 238.582031 C 163.824219 238.582031 161.671875 237.816406 159.902344 236.546875 Z M 176.953125 227.785156 C 176.953125 230.476562 175.929688 232.910156 174.296875 234.800781 C 172.984375 233.332031 170.921875 231.800781 169.074219 231.449219 C 169.0625 231.359375 169.054688 231.234375 169.046875 231.078125 C 169.742188 230.410156 170.328125 229.558594 170.734375 228.632812 C 171.203125 228.289062 171.554688 227.691406 171.695312 226.917969 C 171.816406 226.171875 171.683594 225.492188 171.359375 225.015625 C 171.355469 223.269531 171.253906 221.644531 170.089844 220.476562 C 169.230469 219.613281 167.953125 219.195312 166.136719 219.191406 C 164.367188 219.195312 163.085938 219.613281 162.230469 220.476562 C 161.070312 221.640625 160.964844 223.253906 160.960938 225.015625 C 160.632812 225.496094 160.503906 226.179688 160.628906 226.9375 C 160.765625 227.699219 161.117188 228.296875 161.585938 228.636719 C 161.988281 229.554688 162.574219 230.402344 163.261719 231.070312 C 163.25 231.222656 163.222656 231.355469 163.175781 231.441406 C 161.390625 231.800781 159.335938 233.332031 158.023438 234.800781 C 156.390625 232.90625 155.367188 230.476562 155.367188 227.785156 C 155.367188 221.835938 160.210938 216.992188 166.160156 216.992188 C 172.113281 216.992188 176.953125 221.835938 176.953125 227.785156 Z M 141.671875 143.246094 C 141 142.722656 140.414062 141.875 140.097656 140.984375 C 139.988281 140.675781 139.773438 140.433594 139.5 140.285156 C 139.492188 140.246094 139.484375 140.203125 139.476562 140.164062 C 139.695312 139.925781 139.828125 139.605469 139.828125 139.265625 C 139.824219 137.804688 139.820312 136.539062 140.359375 136 C 140.710938 135.648438 141.421875 135.46875 142.503906 135.464844 C 143.554688 135.46875 144.265625 135.648438 144.617188 136 C 145.152344 136.539062 145.152344 137.804688 145.148438 139.296875 C 145.148438 139.632812 145.277344 139.945312 145.496094 140.175781 C 145.488281 140.210938 145.484375 140.25 145.476562 140.285156 C 145.203125 140.429688 144.984375 140.675781 144.875 140.988281 C 144.5625 141.878906 143.976562 142.722656 143.304688 143.246094 C 142.988281 143.492188 142.808594 143.875 142.816406 144.277344 C 142.835938 145.085938 142.859375 145.46875 142.929688 145.757812 C 143.164062 146.726562 143.949219 147.457031 144.96875 147.664062 C 146.042969 147.878906 147.652344 149.027344 148.746094 150.277344 C 146.976562 151.546875 144.824219 152.3125 142.488281 152.3125 C 140.152344 152.3125 138 151.546875 136.230469 150.277344 C 137.320312 149.027344 138.933594 147.878906 140.007812 147.664062 C 141.027344 147.457031 141.808594 146.726562 142.046875 145.757812 C 142.117188 145.46875 142.136719 145.085938 142.15625 144.277344 C 142.167969 143.875 141.984375 143.492188 141.671875 143.246094 Z M 131.691406 141.515625 C 131.691406 135.566406 136.535156 130.722656 142.488281 130.722656 C 148.4375 130.722656 153.28125 135.566406 153.28125 141.515625 C 153.28125 144.207031 152.257812 146.640625 150.625 148.53125 C 149.308594 147.058594 147.246094 145.53125 145.40625 145.1875 C 145.390625 145.097656 145.382812 144.964844 145.375 144.808594 C 146.066406 144.140625 146.65625 143.289062 147.0625 142.363281 C 147.53125 142.019531 147.882812 141.421875 148.023438 140.65625 C 148.144531 139.902344 148.015625 139.222656 147.6875 138.746094 C 147.683594 137 147.582031 135.375 146.417969 134.207031 C 145.5625 133.34375 144.28125 132.925781 142.464844 132.921875 C 140.691406 132.925781 139.414062 133.34375 138.558594 134.207031 C 137.398438 135.371094 137.292969 136.988281 137.285156 138.746094 C 136.960938 139.226562 136.828125 139.910156 136.957031 140.667969 C 137.09375 141.429688 137.445312 142.027344 137.914062 142.367188 C 138.320312 143.285156 138.902344 144.132812 139.589844 144.796875 C 139.574219 144.953125 139.550781 145.085938 139.503906 145.171875 C 137.722656 145.527344 135.667969 147.058594 134.351562 148.53125 C 132.71875 146.640625 131.691406 144.207031 131.691406 141.515625 Z M 139.253906 154.410156 C 140.292969 154.671875 141.367188 154.855469 142.488281 154.855469 C 144.941406 154.855469 147.214844 154.140625 149.191406 152.980469 L 158.523438 165.910156 C 156.324219 167.734375 154.554688 170.046875 153.34375 172.667969 L 135.488281 165.011719 Z M 120.617188 176.703125 C 106.082031 176.703125 94.253906 188.53125 94.253906 203.070312 C 94.253906 205.253906 94.546875 207.363281 95.050781 209.394531 L 80.722656 213.679688 C 79.1875 209.589844 76.304688 206.164062 72.609375 203.941406 L 90.929688 168.167969 C 93.257812 169.175781 95.824219 169.742188 98.523438 169.742188 C 105.78125 169.742188 112.316406 165.644531 115.578125 159.242188 L 132.292969 166.410156 L 128.234375 177.835938 C 125.820312 177.105469 123.265625 176.703125 120.617188 176.703125 Z M 96.925781 153.601562 C 95.84375 152.753906 94.894531 151.394531 94.394531 149.964844 C 94.253906 149.566406 93.933594 149.277344 93.550781 149.164062 C 93.503906 149.074219 93.453125 148.9375 93.417969 148.753906 C 93.386719 148.550781 93.386719 148.394531 93.402344 148.292969 C 93.742188 148.046875 93.957031 147.632812 93.957031 147.199219 C 93.953125 145.238281 93.945312 143.542969 94.523438 142.46875 C 94.898438 141.761719 95.691406 140.949219 98.550781 140.941406 C 101.351562 140.949219 102.144531 141.761719 102.523438 142.46875 C 103.097656 143.542969 103.09375 145.238281 103.089844 147.25 C 103.089844 147.683594 103.304688 148.074219 103.644531 148.304688 C 103.65625 148.40625 103.660156 148.550781 103.628906 148.730469 C 103.59375 148.925781 103.539062 149.074219 103.496094 149.164062 C 103.109375 149.277344 102.789062 149.566406 102.652344 149.964844 C 102.148438 151.394531 101.203125 152.753906 100.117188 153.601562 C 99.800781 153.847656 99.621094 154.269531 99.632812 154.671875 C 99.65625 155.675781 99.679688 156.308594 99.777344 156.699219 C 100.070312 157.90625 101.050781 158.816406 102.332031 159.070312 C 104.183594 159.445312 107.058594 161.519531 108.734375 163.652344 C 105.867188 165.882812 102.316406 167.199219 98.523438 167.199219 C 94.667969 167.199219 91.125 165.871094 88.300781 163.664062 C 89.972656 161.527344 92.859375 159.445312 94.707031 159.070312 C 95.992188 158.816406 96.972656 157.90625 97.265625 156.707031 C 97.367188 156.308594 97.386719 155.675781 97.414062 154.636719 C 97.425781 154.234375 97.242188 153.847656 96.925781 153.601562 Z M 98.523438 133.898438 C 107.703125 133.898438 115.175781 141.367188 115.175781 150.546875 C 115.175781 152.828125 114.722656 155.035156 113.832031 157.113281 C 113.046875 158.941406 111.929688 160.546875 110.617188 161.941406 C 108.527344 159.34375 105.261719 157.070312 102.832031 156.578125 C 102.71875 156.554688 102.332031 156.453125 102.25 156.101562 C 102.210938 155.917969 102.195312 155.578125 102.1875 155.175781 C 103.285156 154.175781 104.214844 152.84375 104.824219 151.394531 C 105.457031 151.003906 105.945312 150.210938 106.132812 149.164062 C 106.308594 148.109375 106.105469 147.195312 105.628906 146.621094 C 105.628906 144.628906 105.5625 142.765625 104.765625 141.269531 C 103.738281 139.34375 101.707031 138.40625 98.488281 138.398438 C 95.339844 138.40625 93.308594 139.34375 92.277344 141.269531 C 91.484375 142.753906 91.417969 144.605469 91.414062 146.621094 C 90.9375 147.199219 90.738281 148.117188 90.914062 149.183594 C 91.101562 150.21875 91.589844 151.007812 92.222656 151.394531 C 92.828125 152.84375 93.757812 154.175781 94.859375 155.175781 C 94.847656 155.570312 94.832031 155.914062 94.796875 156.097656 C 94.710938 156.453125 94.328125 156.554688 94.210938 156.578125 C 91.78125 157.070312 88.511719 159.347656 86.421875 161.953125 C 83.609375 158.96875 81.871094 154.960938 81.871094 150.546875 C 81.871094 141.367188 89.339844 133.898438 98.523438 133.898438 Z M 42.492188 173.113281 C 42.492188 167.164062 47.335938 162.320312 53.285156 162.320312 C 59.238281 162.320312 64.078125 167.164062 64.078125 173.113281 C 64.078125 175.804688 63.054688 178.234375 61.421875 180.125 C 60.109375 178.65625 58.046875 177.128906 56.203125 176.78125 C 56.1875 176.691406 56.179688 176.5625 56.171875 176.402344 C 56.867188 175.734375 57.453125 174.882812 57.863281 173.957031 C 58.328125 173.617188 58.679688 173.015625 58.820312 172.246094 C 58.945312 171.480469 58.8125 170.804688 58.488281 170.328125 C 58.46875 167.726562 58.160156 164.527344 53.261719 164.519531 C 50.972656 164.523438 49.484375 165.226562 48.714844 166.675781 C 48.152344 167.726562 48.089844 168.984375 48.085938 170.34375 C 47.761719 170.824219 47.628906 171.507812 47.753906 172.265625 C 47.890625 173.027344 48.242188 173.621094 48.710938 173.964844 C 49.113281 174.882812 49.699219 175.730469 50.390625 176.394531 C 50.375 176.550781 50.347656 176.683594 50.300781 176.765625 C 48.515625 177.128906 46.460938 178.65625 45.148438 180.128906 C 43.515625 178.234375 42.492188 175.804688 42.492188 173.113281 Z M 47.027344 181.875 C 48.121094 180.625 49.730469 179.476562 50.796875 179.257812 C 51.824219 179.054688 52.609375 178.324219 52.84375 177.355469 C 52.917969 177.058594 52.929688 176.660156 52.957031 175.878906 C 52.96875 175.476562 52.785156 175.089844 52.46875 174.839844 C 51.796875 174.316406 51.210938 173.472656 50.898438 172.585938 C 50.789062 172.273438 50.570312 172.03125 50.296875 171.882812 C 50.289062 171.84375 50.28125 171.800781 50.273438 171.761719 C 50.496094 171.523438 50.628906 171.199219 50.628906 170.863281 C 50.625 169.648438 50.621094 168.503906 50.957031 167.871094 C 51.078125 167.648438 51.386719 167.066406 53.304688 167.0625 C 55.855469 167.066406 55.949219 167.789062 55.945312 170.890625 C 55.945312 171.230469 56.078125 171.539062 56.296875 171.769531 C 56.289062 171.808594 56.28125 171.847656 56.277344 171.882812 C 56 172.027344 55.78125 172.273438 55.671875 172.585938 C 55.359375 173.472656 54.773438 174.316406 54.101562 174.839844 C 53.785156 175.089844 53.605469 175.5 53.617188 175.90625 C 53.636719 176.628906 53.652344 177.050781 53.726562 177.351562 C 53.964844 178.324219 54.746094 179.054688 55.769531 179.257812 C 56.839844 179.476562 58.453125 180.625 59.542969 181.875 C 57.773438 183.144531 55.625 183.910156 53.285156 183.910156 C 50.949219 183.910156 48.796875 183.144531 47.027344 181.875 Z M 57.128906 185.820312 C 62.601562 184.15625 66.621094 179.125 66.621094 173.113281 C 66.621094 171.429688 66.273438 169.828125 65.699219 168.34375 L 81.972656 160.222656 C 83.605469 163.003906 85.910156 165.332031 88.671875 166.992188 L 70.355469 202.761719 C 68.023438 201.753906 65.457031 201.1875 62.757812 201.1875 C 61.902344 201.1875 61.070312 201.265625 60.242188 201.371094 Z M 46.109375 220.382812 C 46.109375 211.199219 53.578125 203.730469 62.757812 203.730469 C 71.9375 203.730469 79.410156 211.199219 79.410156 220.382812 C 79.410156 224.796875 77.671875 228.800781 74.859375 231.785156 C 72.769531 229.179688 69.5 226.902344 67.070312 226.414062 C 66.953125 226.390625 66.570312 226.289062 66.484375 225.933594 C 66.449219 225.75 66.433594 225.410156 66.421875 225.011719 C 67.523438 224.007812 68.453125 222.675781 69.058594 221.226562 C 69.691406 220.835938 70.179688 220.042969 70.371094 218.996094 C 70.542969 217.945312 70.34375 217.03125 69.867188 216.457031 C 69.867188 214.464844 69.800781 212.597656 69.003906 211.105469 C 67.972656 209.179688 65.941406 208.238281 62.726562 208.234375 C 59.574219 208.238281 57.542969 209.179688 56.515625 211.105469 C 55.722656 212.589844 55.652344 214.441406 55.648438 216.457031 C 55.171875 217.035156 54.972656 217.953125 55.148438 219.019531 C 55.335938 220.050781 55.824219 220.839844 56.457031 221.226562 C 57.066406 222.675781 57.992188 224.011719 59.09375 225.011719 C 59.082031 225.402344 59.070312 225.75 59.035156 225.929688 C 58.945312 226.289062 58.5625 226.390625 58.445312 226.414062 C 56.015625 226.902344 52.746094 229.179688 50.65625 231.785156 C 47.84375 228.800781 46.109375 224.792969 46.109375 220.382812 Z M 52.535156 233.496094 C 54.210938 231.359375 57.09375 229.28125 58.945312 228.90625 C 60.230469 228.648438 61.207031 227.738281 61.5 226.539062 C 61.601562 226.144531 61.625 225.507812 61.652344 224.46875 C 61.660156 224.066406 61.480469 223.683594 61.160156 223.433594 C 60.078125 222.585938 59.128906 221.226562 58.628906 219.796875 C 58.488281 219.402344 58.167969 219.113281 57.785156 219 C 57.742188 218.910156 57.6875 218.769531 57.652344 218.585938 C 57.621094 218.386719 57.625 218.230469 57.636719 218.125 C 57.976562 217.878906 58.191406 217.464844 58.191406 217.03125 C 58.1875 215.070312 58.183594 213.375 58.757812 212.300781 C 59.136719 211.59375 59.925781 210.78125 62.785156 210.777344 C 65.589844 210.78125 66.378906 211.59375 66.757812 212.300781 C 67.332031 213.375 67.328125 215.070312 67.324219 217.085938 C 67.324219 217.519531 67.539062 217.90625 67.878906 218.140625 C 67.890625 218.238281 67.894531 218.382812 67.863281 218.566406 C 67.832031 218.761719 67.777344 218.90625 67.726562 219 C 67.347656 219.113281 67.027344 219.402344 66.886719 219.796875 C 66.386719 221.226562 65.4375 222.585938 64.355469 223.433594 C 64.035156 223.683594 63.855469 224.101562 63.867188 224.503906 C 63.894531 225.507812 63.914062 226.144531 64.015625 226.53125 C 64.308594 227.738281 65.285156 228.648438 66.570312 228.90625 C 68.421875 229.28125 71.308594 231.359375 72.980469 233.5 C 70.15625 235.703125 66.613281 237.03125 62.757812 237.03125 C 58.902344 237.03125 55.359375 235.703125 52.535156 233.496094 Z M 93.324219 260.136719 C 94.414062 258.882812 96.023438 257.734375 97.09375 257.519531 C 98.121094 257.316406 98.90625 256.582031 99.136719 255.628906 C 99.210938 255.324219 99.226562 254.921875 99.253906 254.140625 C 99.265625 253.734375 99.082031 253.347656 98.761719 253.101562 C 98.09375 252.578125 97.507812 251.734375 97.195312 250.84375 C 97.085938 250.53125 96.867188 250.289062 96.59375 250.140625 C 96.585938 250.101562 96.578125 250.058594 96.570312 250.019531 C 96.792969 249.78125 96.921875 249.460938 96.921875 249.121094 C 96.917969 247.660156 96.917969 246.394531 97.453125 245.855469 C 97.804688 245.503906 98.515625 245.324219 99.601562 245.320312 C 100.648438 245.324219 101.359375 245.503906 101.710938 245.855469 C 102.246094 246.394531 102.246094 247.660156 102.238281 249.152344 C 102.238281 249.488281 102.371094 249.800781 102.589844 250.03125 C 102.585938 250.066406 102.578125 250.105469 102.570312 250.140625 C 102.296875 250.289062 102.078125 250.53125 101.96875 250.84375 C 101.65625 251.734375 101.070312 252.578125 100.398438 253.101562 C 100.078125 253.347656 99.902344 253.832031 99.914062 254.238281 C 99.933594 254.921875 99.949219 255.324219 100.023438 255.609375 C 100.253906 256.582031 101.039062 257.316406 102.066406 257.519531 C 103.136719 257.734375 104.75 258.882812 105.839844 260.132812 C 104.070312 261.402344 101.921875 262.167969 99.582031 262.167969 C 97.246094 262.167969 95.09375 261.402344 93.324219 260.136719 Z M 110.375 251.375 C 110.375 254.0625 109.351562 256.496094 107.71875 258.386719 C 106.402344 256.917969 104.339844 255.386719 102.496094 255.035156 C 102.484375 254.945312 102.476562 254.820312 102.46875 254.664062 C 103.164062 253.996094 103.75 253.144531 104.15625 252.222656 C 104.625 251.882812 104.976562 251.277344 105.113281 250.511719 C 105.238281 249.757812 105.105469 249.082031 104.78125 248.601562 C 104.777344 246.855469 104.675781 245.230469 103.511719 244.0625 C 102.652344 243.199219 101.375 242.78125 99.558594 242.777344 C 97.789062 242.78125 96.507812 243.199219 95.652344 244.0625 C 94.492188 245.226562 94.386719 246.84375 94.382812 248.601562 C 94.054688 249.082031 93.925781 249.765625 94.050781 250.523438 C 94.1875 251.285156 94.539062 251.882812 95.007812 252.222656 C 95.410156 253.140625 95.996094 253.988281 96.683594 254.65625 C 96.671875 254.808594 96.644531 254.941406 96.597656 255.027344 C 94.8125 255.386719 92.757812 256.917969 91.445312 258.386719 C 89.8125 256.496094 88.789062 254.0625 88.789062 251.375 C 88.789062 245.421875 93.632812 240.578125 99.582031 240.578125 C 105.535156 240.578125 110.375 245.421875 110.375 251.375 Z M 103.691406 238.75 C 102.390625 238.324219 101.027344 238.035156 99.582031 238.035156 C 95.953125 238.035156 92.664062 239.503906 90.257812 241.863281 L 78.207031 231.722656 C 80.550781 228.542969 81.953125 224.628906 81.953125 220.382812 C 81.953125 218.914062 81.769531 217.488281 81.457031 216.113281 L 95.78125 211.828125 C 98.078125 218.324219 102.839844 223.644531 108.949219 226.679688 Z M 105.542969 221.5 C 105.59375 221.453125 105.65625 221.425781 105.699219 221.367188 C 108.109375 218.152344 112.363281 215.074219 115.175781 214.503906 C 116.777344 214.1875 118 213.058594 118.363281 211.566406 C 118.488281 211.074219 118.515625 210.238281 118.558594 208.78125 C 118.570312 208.375 118.386719 207.992188 118.070312 207.742188 C 116.476562 206.5 115.089844 204.507812 114.359375 202.421875 C 114.195312 201.964844 113.792969 201.644531 113.328125 201.582031 C 113.21875 201.433594 113.054688 201.105469 112.96875 200.636719 C 112.886719 200.144531 112.9375 199.773438 112.992188 199.597656 C 113.425781 199.375 113.714844 198.886719 113.714844 198.386719 C 113.707031 195.570312 113.703125 193.136719 114.566406 191.515625 C 115.113281 190.488281 116.335938 189.117188 120.65625 189.109375 C 124.894531 189.117188 126.117188 190.488281 126.664062 191.515625 C 127.53125 193.132812 127.523438 195.5625 127.519531 198.453125 C 127.519531 198.953125 127.808594 199.398438 128.242188 199.605469 C 128.296875 199.78125 128.34375 200.144531 128.265625 200.617188 C 128.179688 201.101562 128.011719 201.433594 127.902344 201.582031 C 127.441406 201.644531 127.039062 201.964844 126.875 202.421875 C 126.144531 204.507812 124.753906 206.5 123.164062 207.742188 C 122.847656 207.992188 122.664062 208.375 122.675781 208.777344 C 122.710938 210.175781 122.746094 211.0625 122.867188 211.558594 C 123.234375 213.058594 124.457031 214.1875 126.050781 214.503906 C 128.867188 215.074219 133.121094 218.152344 135.535156 221.367188 C 135.574219 221.425781 135.636719 221.457031 135.683594 221.503906 C 131.574219 224.867188 126.328125 226.894531 120.617188 226.894531 C 114.902344 226.894531 109.652344 224.867188 105.542969 221.5 Z M 137.542969 219.8125 C 134.757812 216.117188 129.9375 212.695312 126.550781 212.011719 C 125.921875 211.886719 125.46875 211.492188 125.335938 210.953125 C 125.285156 210.734375 125.253906 209.992188 125.234375 209.328125 C 126.839844 207.921875 128.1875 205.996094 129.035156 203.894531 C 129.863281 203.464844 130.523438 202.4375 130.769531 201.050781 C 131.003906 199.640625 130.722656 198.445312 130.0625 197.765625 C 130.0625 194.96875 129.996094 192.351562 128.910156 190.316406 C 127.5625 187.800781 124.867188 186.578125 120.570312 186.570312 C 116.363281 186.578125 113.664062 187.804688 112.320312 190.320312 C 111.246094 192.339844 111.167969 194.941406 111.167969 197.769531 C 110.515625 198.449219 110.230469 199.648438 110.460938 201.070312 C 110.714844 202.441406 111.367188 203.464844 112.199219 203.894531 C 113.046875 205.996094 114.394531 207.921875 116 209.324219 C 115.976562 209.992188 115.945312 210.738281 115.898438 210.957031 C 115.765625 211.492188 115.3125 211.886719 114.679688 212.011719 C 111.289062 212.695312 106.472656 216.117188 103.691406 219.8125 C 99.433594 215.503906 96.792969 209.589844 96.792969 203.070312 C 96.792969 189.933594 107.480469 179.246094 120.617188 179.246094 C 133.753906 179.246094 144.4375 189.933594 144.4375 203.070312 C 144.4375 209.589844 141.800781 215.503906 137.542969 219.8125 Z M 144.277344 191.511719 C 141.449219 185.746094 136.59375 181.152344 130.628906 178.691406 L 134.632812 167.414062 L 152.414062 175.035156 C 151.863281 176.824219 151.5625 178.722656 151.5625 180.691406 C 151.5625 183.199219 152.058594 185.589844 152.9375 187.789062 Z M 160.535156 193.804688 C 162.203125 191.667969 165.089844 189.585938 166.945312 189.214844 C 168.230469 188.957031 169.207031 188.046875 169.5 186.839844 C 169.597656 186.445312 169.621094 185.796875 169.648438 184.777344 C 169.660156 184.375 169.476562 183.992188 169.160156 183.742188 C 168.078125 182.894531 167.128906 181.535156 166.628906 180.105469 C 166.488281 179.710938 166.167969 179.417969 165.785156 179.308594 C 165.738281 179.214844 165.683594 179.078125 165.652344 178.890625 C 165.621094 178.691406 165.621094 178.535156 165.632812 178.433594 C 165.972656 178.1875 166.1875 177.777344 166.1875 177.34375 C 166.183594 175.382812 166.179688 173.6875 166.753906 172.609375 C 167.132812 171.902344 167.921875 171.089844 170.785156 171.082031 C 173.585938 171.089844 174.378906 171.902344 174.757812 172.609375 C 175.332031 173.6875 175.328125 175.382812 175.324219 177.390625 C 175.324219 177.824219 175.539062 178.214844 175.878906 178.445312 C 175.886719 178.546875 175.890625 178.695312 175.859375 178.875 C 175.828125 179.070312 175.773438 179.214844 175.726562 179.308594 C 175.34375 179.417969 175.023438 179.710938 174.882812 180.105469 C 174.382812 181.535156 173.433594 182.894531 172.351562 183.742188 C 172.03125 183.992188 171.851562 184.375 171.863281 184.777344 C 171.890625 185.796875 171.914062 186.445312 172.011719 186.839844 C 172.304688 188.046875 173.28125 188.957031 174.566406 189.214844 C 176.421875 189.585938 179.304688 191.667969 180.976562 193.804688 C 178.152344 196.011719 174.609375 197.339844 170.753906 197.339844 C 166.898438 197.339844 163.359375 196.011719 160.535156 193.804688 Z M 182.855469 192.089844 C 180.765625 189.488281 177.5 187.210938 175.066406 186.722656 C 174.949219 186.699219 174.566406 186.59375 174.480469 186.25 C 174.445312 186.066406 174.429688 185.714844 174.417969 185.320312 C 175.519531 184.316406 176.445312 182.984375 177.054688 181.535156 C 177.691406 181.144531 178.179688 180.351562 178.367188 179.308594 C 178.542969 178.253906 178.34375 177.339844 177.863281 176.761719 C 177.863281 174.773438 177.796875 172.90625 177 171.414062 C 175.96875 169.484375 173.941406 168.546875 170.722656 168.542969 C 167.570312 168.546875 165.539062 169.484375 164.511719 171.414062 C 163.71875 172.898438 163.648438 174.75 163.644531 176.761719 C 163.167969 177.339844 162.96875 178.257812 163.148438 179.324219 C 163.332031 180.359375 163.820312 181.148438 164.457031 181.539062 C 165.0625 182.984375 165.992188 184.316406 167.09375 185.320312 C 167.078125 185.714844 167.066406 186.0625 167.03125 186.238281 C 166.945312 186.59375 166.5625 186.699219 166.445312 186.722656 C 164.011719 187.210938 160.742188 189.488281 158.652344 192.09375 C 155.84375 189.109375 154.105469 185.101562 154.105469 180.691406 C 154.105469 171.507812 161.574219 164.039062 170.753906 164.039062 C 179.933594 164.039062 187.40625 171.507812 187.40625 180.691406 C 187.40625 185.101562 185.667969 189.109375 182.855469 192.089844 Z M 182.855469 192.089844 " fill-opacity="1" fill-rule="nonzero"/></g><g clip-path="url(#0e67c84772)"><path fill="#000000" d="M 114.949219 267.605469 L 259.214844 267.605469 L 259.214844 302.882812 L 114.949219 302.882812 Z M 114.949219 267.605469 " fill-opacity="1" fill-rule="nonzero"/></g><g clip-path="url(#05e974866a)"><path fill="#ffffff" d="M 257.433594 297.628906 C 257.433594 299.007812 256.363281 300.078125 254.984375 300.078125 L 120.011719 300.078125 C 118.636719 300.078125 117.566406 299.007812 117.566406 297.628906 L 117.566406 272.6875 C 117.566406 271.308594 118.636719 270.238281 120.011719 270.238281 L 254.984375 270.238281 C 256.363281 270.238281 257.433594 271.308594 257.433594 272.6875 Z M 254.984375 265.183594 L 230.042969 265.183594 L 230.042969 248.046875 C 230.042969 246.671875 228.96875 245.601562 227.59375 245.601562 C 226.21875 245.601562 225.140625 246.671875 225.140625 248.046875 L 225.140625 265.183594 L 120.011719 265.183594 C 115.878906 265.183594 112.515625 268.558594 112.515625 272.6875 L 112.515625 297.628906 C 112.515625 301.765625 115.878906 305.128906 120.011719 305.128906 L 254.984375 305.128906 C 259.121094 305.128906 262.484375 301.765625 262.484375 297.628906 L 262.484375 272.6875 C 262.484375 268.558594 259.121094 265.183594 254.984375 265.183594 " fill-opacity="1" fill-rule="nonzero"/></g><path fill="#ffffff" d="M 132.5625 280.183594 C 135.347656 280.183594 137.609375 282.445312 137.609375 285.234375 C 137.609375 288.019531 135.347656 290.285156 132.5625 290.285156 C 129.773438 290.285156 127.511719 288.019531 127.511719 285.234375 C 127.511719 282.445312 129.773438 280.183594 132.5625 280.183594 " fill-opacity="1" fill-rule="nonzero"/><path fill="#ffffff" d="M 152.457031 280.183594 C 155.242188 280.183594 157.503906 282.445312 157.503906 285.234375 C 157.503906 288.019531 155.242188 290.285156 152.457031 290.285156 C 149.667969 290.285156 147.40625 288.019531 147.40625 285.234375 C 147.40625 282.445312 149.667969 280.183594 152.457031 280.183594 " fill-opacity="1" fill-rule="nonzero"/><path fill="#ffffff" d="M 172.5 280.183594 C 175.292969 280.183594 177.554688 282.445312 177.554688 285.234375 C 177.554688 288.019531 175.292969 290.285156 172.5 290.285156 C 169.714844 290.285156 167.449219 288.019531 167.449219 285.234375 C 167.449219 282.445312 169.714844 280.183594 172.5 280.183594 " fill-opacity="1" fill-rule="nonzero"/><path fill="#ffffff" d="M 218.722656 238.863281 C 217.800781 239.933594 217.957031 241.464844 219.019531 242.386719 C 219.941406 243.152344 221.316406 243.152344 222.238281 242.386719 C 225.296875 239.628906 229.890625 239.628906 232.949219 242.386719 C 233.410156 242.847656 234.027344 243.152344 234.636719 243.152344 C 235.246094 243.152344 236.011719 242.847656 236.46875 242.386719 C 237.386719 241.464844 237.386719 239.785156 236.46875 238.863281 C 231.417969 233.96875 223.613281 233.96875 218.722656 238.863281 " fill-opacity="1" fill-rule="nonzero"/><path fill="#ffffff" d="M 245.191406 232.59375 C 245.800781 232.59375 246.566406 232.285156 247.035156 231.828125 C 247.949219 230.910156 247.949219 229.222656 247.035156 228.308594 C 236.320312 217.597656 218.871094 217.597656 208.160156 228.308594 C 207.246094 229.222656 207.246094 230.910156 208.160156 231.828125 C 209.074219 232.742188 210.761719 232.742188 211.679688 231.828125 C 220.402344 223.101562 234.636719 223.101562 243.507812 231.828125 C 243.816406 232.285156 244.425781 232.59375 245.191406 232.59375 " fill-opacity="1" fill-rule="nonzero"/><path fill="#ffffff" d="M 200.96875 221.117188 C 215.660156 206.421875 239.382812 206.421875 253.921875 221.117188 C 254.835938 222.03125 256.515625 222.03125 257.433594 221.117188 C 258.355469 220.195312 258.355469 218.511719 257.433594 217.597656 C 240.914062 201.066406 213.976562 201.066406 197.445312 217.597656 C 196.53125 218.511719 196.53125 220.195312 197.445312 221.117188 C 198.515625 222.1875 200.046875 222.1875 200.96875 221.117188 " fill-opacity="1" fill-rule="nonzero"/><g clip-path="url(#84db96a181)"><path fill="#000000" d="M 308.191406 79.128906 L 324.832031 79.128906 L 324.832031 181.503906 L 308.191406 181.503906 Z M 308.191406 79.128906 " fill-opacity="1" fill-rule="nonzero"/></g><g clip-path="url(#87f535c031)"><path fill="#000000" d="M 283.210938 93.296875 L 298.601562 93.296875 L 298.601562 179.933594 L 283.210938 179.933594 Z M 283.210938 93.296875 " fill-opacity="1" fill-rule="nonzero"/></g><g clip-path="url(#207d8c61b8)"><path fill="#000000" d="M 256.570312 112.585938 L 271.960938 112.585938 L 271.960938 181.546875 L 256.570312 181.546875 Z M 256.570312 112.585938 " fill-opacity="1" fill-rule="nonzero"/></g><g clip-path="url(#ad185fc04d)"><path fill="#000000" d="M 229.925781 131.492188 L 245.320312 131.492188 L 245.320312 179.953125 L 229.925781 179.953125 Z M 229.925781 131.492188 " fill-opacity="1" fill-rule="nonzero"/></g><g clip-path="url(#570fa1a635)"><path fill="#000000" d="M 203.449219 151.628906 L 218.839844 151.628906 L 218.839844 179.949219 L 203.449219 179.949219 Z M 203.449219 151.628906 " fill-opacity="1" fill-rule="nonzero"/></g><g clip-path="url(#f349bb8913)"><path fill="#ffffff" d="M 211.648438 135.4375 C 211.945312 135.441406 212.210938 135.347656 212.445312 135.167969 L 314.191406 56.125 L 312.222656 64.726562 C 312.1875 64.894531 312.179688 65.0625 312.210938 65.234375 C 312.238281 65.402344 312.300781 65.5625 312.390625 65.707031 C 312.484375 65.851562 312.597656 65.976562 312.738281 66.078125 C 312.878906 66.175781 313.035156 66.246094 313.203125 66.285156 C 313.300781 66.304688 313.394531 66.316406 313.492188 66.316406 C 313.796875 66.316406 314.066406 66.222656 314.304688 66.03125 C 314.542969 65.84375 314.695312 65.601562 314.761719 65.304688 L 317.542969 53.140625 C 317.542969 53.128906 317.542969 53.113281 317.542969 53.101562 C 317.554688 53.042969 317.558594 52.984375 317.5625 52.925781 C 317.5625 52.902344 317.5625 52.882812 317.5625 52.859375 C 317.5625 52.785156 317.558594 52.707031 317.542969 52.632812 C 317.546875 52.625 317.546875 52.617188 317.542969 52.609375 C 317.535156 52.550781 317.519531 52.492188 317.5 52.4375 C 317.5 52.429688 317.5 52.421875 317.5 52.410156 C 317.492188 52.386719 317.480469 52.363281 317.46875 52.34375 C 317.449219 52.292969 317.425781 52.246094 317.402344 52.199219 L 317.359375 52.132812 C 317.328125 52.089844 317.296875 52.050781 317.261719 52.007812 C 317.246094 51.988281 317.230469 51.972656 317.210938 51.953125 C 317.167969 51.90625 317.117188 51.859375 317.0625 51.820312 C 317.054688 51.816406 317.046875 51.808594 317.039062 51.800781 C 316.976562 51.757812 316.910156 51.71875 316.839844 51.6875 L 316.777344 51.660156 C 316.722656 51.636719 316.667969 51.617188 316.613281 51.601562 L 316.570312 51.601562 C 316.558594 51.601562 316.550781 51.601562 316.539062 51.601562 C 316.480469 51.589844 316.421875 51.582031 316.363281 51.582031 L 304.109375 51.582031 C 303.9375 51.582031 303.769531 51.613281 303.609375 51.679688 C 303.449219 51.746094 303.308594 51.839844 303.1875 51.960938 C 303.066406 52.082031 302.972656 52.222656 302.90625 52.382812 C 302.839844 52.542969 302.808594 52.707031 302.808594 52.882812 C 302.808594 53.054688 302.839844 53.21875 302.90625 53.378906 C 302.972656 53.539062 303.066406 53.679688 303.1875 53.800781 C 303.308594 53.921875 303.449219 54.015625 303.609375 54.082031 C 303.769531 54.148438 303.9375 54.183594 304.109375 54.183594 L 312.476562 54.183594 L 210.847656 133.113281 C 210.628906 133.285156 210.480469 133.503906 210.402344 133.769531 C 210.324219 134.035156 210.328125 134.300781 210.417969 134.5625 C 210.511719 134.824219 210.667969 135.035156 210.894531 135.195312 C 211.121094 135.359375 211.371094 135.4375 211.648438 135.4375 Z M 211.648438 135.4375 " fill-opacity="1" fill-rule="nonzero"/></g><g clip-path="url(#a21c117025)"><path fill="#ffffff" d="M 337.261719 181.726562 C 337.300781 181.664062 337.335938 181.597656 337.367188 181.527344 L 337.378906 181.488281 C 337.398438 181.429688 337.417969 181.371094 337.433594 181.308594 C 337.433594 181.28125 337.433594 181.261719 337.445312 181.234375 C 337.453125 181.183594 337.460938 181.128906 337.460938 181.074219 L 337.460938 181.007812 C 337.460938 180.9375 337.453125 180.871094 337.441406 180.800781 C 337.441406 180.800781 337.441406 180.789062 337.441406 180.78125 C 337.429688 180.707031 337.40625 180.636719 337.378906 180.566406 C 337.378906 180.546875 337.363281 180.523438 337.351562 180.5 C 337.328125 180.453125 337.304688 180.402344 337.273438 180.355469 L 337.238281 180.292969 C 337.191406 180.230469 337.140625 180.167969 337.089844 180.113281 L 331.996094 175.015625 C 331.875 174.894531 331.734375 174.800781 331.574219 174.734375 C 331.414062 174.667969 331.25 174.636719 331.078125 174.636719 C 330.90625 174.636719 330.742188 174.671875 330.582031 174.738281 C 330.421875 174.800781 330.28125 174.894531 330.160156 175.019531 C 330.039062 175.140625 329.945312 175.28125 329.878906 175.4375 C 329.8125 175.597656 329.78125 175.761719 329.78125 175.9375 C 329.78125 176.109375 329.8125 176.273438 329.878906 176.433594 C 329.945312 176.589844 330.039062 176.730469 330.160156 176.855469 L 333.03125 179.726562 L 325.363281 179.726562 L 325.363281 81.132812 C 325.359375 80.667969 325.269531 80.21875 325.09375 79.785156 C 324.914062 79.355469 324.65625 78.972656 324.328125 78.640625 C 323.996094 78.3125 323.617188 78.058594 323.183594 77.878906 C 322.753906 77.699219 322.304688 77.609375 321.835938 77.609375 L 310.703125 77.609375 C 310.238281 77.609375 309.789062 77.699219 309.355469 77.878906 C 308.925781 78.058594 308.542969 78.3125 308.214844 78.640625 C 307.882812 78.972656 307.628906 79.355469 307.449219 79.785156 C 307.269531 80.21875 307.179688 80.667969 307.179688 81.132812 L 307.179688 179.726562 L 299.207031 179.726562 L 299.207031 95.046875 C 299.207031 94.578125 299.117188 94.128906 298.9375 93.699219 C 298.757812 93.265625 298.503906 92.886719 298.171875 92.554688 C 297.839844 92.226562 297.460938 91.96875 297.027344 91.789062 C 296.597656 91.613281 296.148438 91.523438 295.679688 91.519531 L 284.546875 91.519531 C 284.082031 91.523438 283.632812 91.613281 283.199219 91.789062 C 282.769531 91.96875 282.386719 92.226562 282.058594 92.554688 C 281.726562 92.886719 281.472656 93.265625 281.292969 93.699219 C 281.113281 94.128906 281.023438 94.578125 281.023438 95.046875 L 281.023438 179.726562 L 273.050781 179.726562 L 273.050781 114.523438 C 273.050781 114.058594 272.960938 113.609375 272.78125 113.175781 C 272.601562 112.742188 272.347656 112.363281 272.015625 112.03125 C 271.6875 111.699219 271.304688 111.445312 270.875 111.265625 C 270.441406 111.085938 269.992188 110.996094 269.523438 110.996094 L 258.394531 110.996094 C 257.925781 110.996094 257.476562 111.085938 257.046875 111.265625 C 256.613281 111.445312 256.230469 111.699219 255.902344 112.03125 C 255.570312 112.363281 255.316406 112.742188 255.136719 113.175781 C 254.957031 113.609375 254.867188 114.058594 254.867188 114.523438 L 254.867188 179.726562 L 246.894531 179.726562 L 246.894531 134.003906 C 246.894531 133.535156 246.804688 133.085938 246.625 132.652344 C 246.445312 132.222656 246.191406 131.839844 245.863281 131.511719 C 245.53125 131.179688 245.148438 130.925781 244.71875 130.746094 C 244.285156 130.566406 243.835938 130.476562 243.367188 130.476562 L 232.234375 130.476562 C 231.765625 130.476562 231.316406 130.566406 230.882812 130.746094 C 230.453125 130.925781 230.070312 131.179688 229.742188 131.511719 C 229.410156 131.839844 229.15625 132.222656 228.976562 132.652344 C 228.796875 133.085938 228.707031 133.535156 228.707031 134.003906 L 228.707031 179.726562 L 220.738281 179.726562 L 220.738281 153.480469 C 220.738281 153.011719 220.648438 152.5625 220.46875 152.128906 C 220.289062 151.699219 220.035156 151.316406 219.703125 150.988281 C 219.375 150.65625 218.992188 150.402344 218.5625 150.222656 C 218.128906 150.042969 217.679688 149.953125 217.210938 149.953125 L 206.082031 149.953125 C 205.613281 149.953125 205.164062 150.042969 204.734375 150.222656 C 204.300781 150.402344 203.921875 150.65625 203.589844 150.988281 C 203.257812 151.316406 203.003906 151.699219 202.824219 152.128906 C 202.644531 152.5625 202.554688 153.011719 202.554688 153.480469 L 202.554688 179.726562 L 198.617188 179.726562 L 198.617188 52.851562 C 198.617188 52.679688 198.585938 52.515625 198.519531 52.355469 C 198.453125 52.195312 198.359375 52.054688 198.238281 51.933594 C 198.117188 51.808594 197.976562 51.714844 197.816406 51.648438 C 197.65625 51.585938 197.488281 51.550781 197.316406 51.550781 C 197.144531 51.550781 196.980469 51.585938 196.820312 51.648438 C 196.660156 51.714844 196.519531 51.808594 196.398438 51.933594 C 196.277344 52.054688 196.179688 52.195312 196.117188 52.355469 C 196.050781 52.515625 196.015625 52.679688 196.015625 52.851562 L 196.015625 179.726562 L 188.96875 179.726562 C 188.792969 179.71875 188.621094 179.75 188.457031 179.8125 C 188.289062 179.875 188.144531 179.964844 188.015625 180.089844 C 187.886719 180.210938 187.789062 180.355469 187.71875 180.515625 C 187.648438 180.679688 187.613281 180.851562 187.613281 181.027344 C 187.613281 181.203125 187.648438 181.375 187.71875 181.539062 C 187.789062 181.699219 187.886719 181.84375 188.015625 181.964844 C 188.144531 182.089844 188.289062 182.183594 188.457031 182.246094 C 188.621094 182.308594 188.792969 182.335938 188.96875 182.328125 L 333.027344 182.328125 L 330.152344 185.203125 C 330.03125 185.324219 329.9375 185.464844 329.871094 185.625 C 329.804688 185.78125 329.773438 185.949219 329.773438 186.121094 C 329.773438 186.292969 329.804688 186.460938 329.871094 186.617188 C 329.9375 186.777344 330.03125 186.917969 330.152344 187.042969 C 330.273438 187.164062 330.414062 187.257812 330.574219 187.324219 C 330.734375 187.390625 330.898438 187.421875 331.074219 187.421875 C 331.246094 187.421875 331.410156 187.386719 331.570312 187.320312 C 331.730469 187.253906 331.871094 187.160156 331.992188 187.039062 L 337.085938 181.949219 L 337.109375 181.921875 C 337.152344 181.875 337.1875 181.828125 337.226562 181.78125 Z M 205.15625 179.730469 L 205.15625 153.480469 C 205.15625 153.222656 205.25 153.007812 205.429688 152.828125 C 205.609375 152.644531 205.828125 152.554688 206.082031 152.554688 L 217.210938 152.554688 C 217.464844 152.554688 217.683594 152.644531 217.867188 152.828125 C 218.046875 153.007812 218.136719 153.222656 218.136719 153.480469 L 218.136719 179.726562 Z M 231.3125 179.730469 L 231.3125 134.003906 C 231.3125 133.746094 231.402344 133.53125 231.585938 133.347656 C 231.765625 133.167969 231.984375 133.078125 232.238281 133.078125 L 243.367188 133.078125 C 243.621094 133.078125 243.839844 133.167969 244.023438 133.351562 C 244.203125 133.53125 244.292969 133.75 244.292969 134.003906 L 244.292969 179.726562 Z M 257.46875 179.730469 L 257.46875 114.523438 C 257.46875 114.269531 257.558594 114.050781 257.742188 113.871094 C 257.921875 113.691406 258.140625 113.597656 258.394531 113.597656 L 269.53125 113.597656 C 269.789062 113.601562 270.007812 113.691406 270.1875 113.871094 C 270.367188 114.050781 270.457031 114.269531 270.457031 114.523438 L 270.457031 179.726562 Z M 283.625 179.730469 L 283.625 95.046875 C 283.625 94.792969 283.714844 94.574219 283.894531 94.394531 C 284.074219 94.210938 284.292969 94.121094 284.546875 94.121094 L 295.679688 94.121094 C 295.933594 94.121094 296.152344 94.210938 296.332031 94.394531 C 296.515625 94.574219 296.605469 94.792969 296.605469 95.046875 L 296.605469 179.726562 Z M 309.777344 179.730469 L 309.777344 81.132812 C 309.78125 80.878906 309.871094 80.660156 310.050781 80.480469 C 310.230469 80.300781 310.449219 80.207031 310.703125 80.207031 L 321.835938 80.207031 C 322.089844 80.207031 322.308594 80.300781 322.488281 80.480469 C 322.671875 80.660156 322.761719 80.878906 322.761719 81.132812 L 322.761719 179.726562 Z M 309.777344 179.730469 " fill-opacity="1" fill-rule="nonzero"/></g></svg>