<svg xmlns="http://www.w3.org/2000/svg" xmlns:xlink="http://www.w3.org/1999/xlink" width="601" zoomAndPan="magnify" viewBox="0 0 450.75 386.250002" height="515" preserveAspectRatio="xMidYMid meet" version="1.0"><defs><filter x="0%" y="0%" width="100%" height="100%" id="972d2de289"><feColorMatrix values="0 0 0 0 1 0 0 0 0 1 0 0 0 0 1 0 0 0 1 0" color-interpolation-filters="sRGB"/></filter><clipPath id="966815a050"><path d="M 55 32 L 421 32 L 421 385.5 L 55 385.5 Z M 55 32 " clip-rule="nonzero"/></clipPath><clipPath id="26767ea086"><path d="M 423 275 L 430.953125 275 L 430.953125 283 L 423 283 Z M 423 275 " clip-rule="nonzero"/></clipPath><clipPath id="12fe480ee0"><path d="M 423 285 L 430.953125 285 L 430.953125 292 L 423 292 Z M 423 285 " clip-rule="nonzero"/></clipPath><mask id="d0bd674565"><g filter="url(#972d2de289)"><rect x="-45.075" width="540.9" fill="#000000" y="-38.625" height="463.500002" fill-opacity="0.1"/></g></mask><clipPath id="d63c47bcce"><path d="M 3 2 L 63.875 2 L 63.875 90 L 3 90 Z M 3 2 " clip-rule="nonzero"/></clipPath><clipPath id="ce6d9b1f02"><rect x="0" width="64" y="0" height="93"/></clipPath><clipPath id="d3bdfed98a"><path d="M 19.253906 102 L 30 102 L 30 112 L 19.253906 112 Z M 19.253906 102 " clip-rule="nonzero"/></clipPath><clipPath id="bd197e4d7b"><path d="M 237 16.191406 L 255 16.191406 L 255 53 L 237 53 Z M 237 16.191406 " clip-rule="nonzero"/></clipPath><clipPath id="0306542e6a"><path d="M 349.640625 218.980469 L 392.445312 218.980469 L 392.445312 261.785156 L 349.640625 261.785156 Z M 349.640625 218.980469 " clip-rule="nonzero"/></clipPath><clipPath id="fda43dcc0d"><path d="M 371.042969 218.980469 C 359.222656 218.980469 349.640625 228.5625 349.640625 240.382812 C 349.640625 252.203125 359.222656 261.785156 371.042969 261.785156 C 382.863281 261.785156 392.445312 252.203125 392.445312 240.382812 C 392.445312 228.5625 382.863281 218.980469 371.042969 218.980469 Z M 371.042969 218.980469 " clip-rule="nonzero"/></clipPath><clipPath id="d5cdd31b90"><path d="M 361 229.675781 L 381 229.675781 L 381 251 L 361 251 Z M 361 229.675781 " clip-rule="nonzero"/></clipPath><clipPath id="96550de48d"><path d="M 358.808594 235 L 383.511719 235 L 383.511719 239 L 358.808594 239 Z M 358.808594 235 " clip-rule="nonzero"/></clipPath><clipPath id="c9af355a6e"><path d="M 358.808594 241 L 383.511719 241 L 383.511719 245 L 358.808594 245 Z M 358.808594 241 " clip-rule="nonzero"/></clipPath></defs><g clip-path="url(#966815a050)"><path fill="#e5e0fc" d="M 109.890625 157.199219 C 91.773438 155.589844 72.714844 163.597656 62.570312 178.671875 C 52.425781 193.742188 52.582031 215.5625 64.207031 229.5 C 74.132812 241.386719 90.796875 247.0625 98.359375 260.589844 C 107.339844 276.605469 100.03125 296.5 100.597656 314.851562 C 101.542969 345.5 126.367188 372.019531 155.574219 381.226562 C 184.777344 390.433594 217.007812 384.757812 245.015625 372.332031 C 263.253906 364.230469 281.875 351.113281 285.527344 331.46875 C 286.882812 324.1875 286 316.648438 286.726562 309.273438 C 287.449219 301.894531 290.347656 294.011719 296.808594 290.386719 C 305.378906 285.558594 316.371094 290.226562 323.460938 297.007812 C 330.550781 303.785156 335.652344 312.613281 343.433594 318.605469 C 360.257812 331.5625 386.34375 327.023438 401.371094 312.015625 C 416.398438 297.007812 421.566406 274.273438 419.738281 253.082031 C 418.351562 237.097656 411.609375 219.503906 396.613281 213.859375 C 391.667969 212 386.09375 211.558594 381.777344 208.53125 C 375.128906 203.863281 373.585938 194.5 374.84375 186.457031 C 376.074219 178.417969 379.445312 170.820312 380.359375 162.746094 C 382.46875 144.019531 369.175781 124.753906 350.933594 120.085938 C 336.03125 116.269531 319.617188 121.316406 305.1875 115.988281 C 290.917969 110.722656 281.96875 96.65625 275.417969 82.910156 C 268.863281 69.164062 263.160156 54.3125 251.726562 44.285156 C 240.699219 34.605469 224.851562 30.695312 210.609375 34.132812 C 196.339844 37.570312 184.019531 48.257812 178.632812 61.910156 C 173.59375 74.679688 174.445312 88.933594 176.207031 102.554688 C 178.855469 123.050781 185.46875 155.683594 165.246094 170.21875 C 157.839844 175.546875 149.742188 173.78125 142.152344 169.777344 C 131.375 164.199219 122.429688 158.300781 109.890625 157.199219 Z M 109.890625 157.199219 " fill-opacity="1" fill-rule="nonzero"/></g><path fill="#000000" d="M 142.625 59.671875 L 77.945312 59.671875 C 72.871094 59.671875 68.714844 63.835938 68.714844 68.910156 L 68.714844 124.183594 C 68.714844 129.230469 72.871094 133.359375 77.945312 133.359375 L 142.625 133.359375 C 147.664062 133.359375 151.792969 129.199219 151.792969 124.183594 L 151.792969 68.910156 C 151.792969 63.835938 147.664062 59.671875 142.625 59.671875 Z M 138.054688 66.261719 C 140.449219 66.261719 142.339844 68.152344 142.339844 70.519531 C 142.339844 72.851562 140.449219 74.808594 138.054688 74.808594 C 135.722656 74.808594 133.800781 72.851562 133.800781 70.519531 C 133.800781 68.152344 135.691406 66.261719 138.054688 66.261719 Z M 126.492188 66.261719 C 128.886719 66.261719 130.777344 68.152344 130.777344 70.519531 C 130.777344 72.851562 128.886719 74.808594 126.492188 74.808594 C 124.160156 74.808594 122.242188 72.851562 122.242188 70.519531 C 122.242188 68.152344 124.128906 66.261719 126.492188 66.261719 Z M 114.929688 66.261719 C 117.261719 66.261719 119.214844 68.152344 119.214844 70.519531 C 119.214844 72.851562 117.261719 74.808594 114.929688 74.808594 C 112.601562 74.808594 110.679688 72.851562 110.679688 70.519531 C 110.679688 68.152344 112.566406 66.261719 114.929688 66.261719 Z M 148.925781 124.183594 C 148.925781 127.652344 146.089844 130.492188 142.625 130.492188 L 77.945312 130.492188 C 74.417969 130.492188 71.644531 127.652344 71.644531 124.183594 L 71.644531 81.648438 L 83.144531 81.648438 C 83.488281 81.648438 83.835938 81.492188 84.121094 81.269531 L 87.773438 78.054688 L 96.15625 78.054688 L 99.242188 81.238281 C 99.492188 81.492188 99.871094 81.679688 100.28125 81.679688 L 148.925781 81.679688 Z M 148.925781 124.183594 " fill-opacity="0.1" fill-rule="nonzero"/><path fill="#6644a8" d="M 137.960938 54.785156 L 73.25 54.785156 C 68.179688 54.785156 64.019531 58.945312 64.019531 64.023438 L 64.019531 119.296875 C 64.019531 124.34375 68.179688 128.472656 73.25 128.472656 L 137.929688 128.472656 C 142.96875 128.472656 147.097656 124.3125 147.097656 119.296875 L 147.097656 64.023438 C 147.128906 58.945312 142.96875 54.785156 137.960938 54.785156 Z M 133.363281 61.375 C 135.753906 61.375 137.644531 63.265625 137.644531 65.632812 C 137.644531 67.996094 135.753906 69.917969 133.363281 69.917969 C 131.03125 69.917969 129.109375 67.964844 129.109375 65.632812 C 129.109375 63.296875 131.03125 61.375 133.363281 61.375 Z M 121.800781 61.375 C 124.195312 61.375 126.082031 63.265625 126.082031 65.632812 C 126.082031 67.996094 124.195312 69.917969 121.800781 69.917969 C 119.46875 69.917969 117.546875 67.964844 117.546875 65.632812 C 117.546875 63.296875 119.46875 61.375 121.800781 61.375 Z M 110.238281 61.375 C 112.566406 61.375 114.523438 63.265625 114.523438 65.632812 C 114.523438 67.996094 112.566406 69.917969 110.238281 69.917969 C 107.90625 69.917969 105.984375 67.964844 105.984375 65.632812 C 105.984375 63.296875 107.90625 61.375 110.238281 61.375 Z M 144.230469 119.296875 C 144.230469 122.765625 141.394531 125.605469 137.929688 125.605469 L 73.25 125.605469 C 69.722656 125.605469 66.949219 122.765625 66.949219 119.296875 L 66.949219 76.761719 L 78.449219 76.761719 C 78.796875 76.761719 79.140625 76.605469 79.425781 76.382812 L 83.078125 73.167969 L 91.460938 73.167969 L 94.546875 76.351562 C 94.800781 76.605469 95.179688 76.792969 95.585938 76.792969 L 144.230469 76.792969 Z M 144.230469 119.296875 " fill-opacity="1" fill-rule="nonzero"/><path fill="#6644a8" d="M 334.171875 173.121094 C 333.761719 173.121094 333.351562 172.964844 333.070312 172.648438 C 332.441406 172.015625 332.441406 171.039062 333.070312 170.410156 L 347.941406 155.527344 C 348.570312 154.894531 349.546875 154.894531 350.175781 155.527344 C 350.808594 156.15625 350.808594 157.132812 350.175781 157.765625 L 335.304688 172.648438 C 334.992188 172.964844 334.582031 173.121094 334.171875 173.121094 Z M 334.171875 173.121094 " fill-opacity="1" fill-rule="nonzero"/><path fill="#6644a8" d="M 349.074219 173.121094 C 348.664062 173.121094 348.253906 172.964844 347.972656 172.648438 L 333.101562 157.765625 C 332.472656 157.132812 332.472656 156.15625 333.101562 155.527344 C 333.730469 154.894531 334.707031 154.894531 335.339844 155.527344 L 350.207031 170.410156 C 350.839844 171.039062 350.839844 172.015625 350.207031 172.648438 C 349.863281 172.964844 349.453125 173.121094 349.074219 173.121094 Z M 349.074219 173.121094 " fill-opacity="1" fill-rule="nonzero"/><path fill="#6644a8" d="M 263.253906 107 C 258.246094 107 254.183594 102.933594 254.183594 97.917969 C 254.183594 92.90625 258.246094 88.808594 263.253906 88.808594 C 268.265625 88.808594 272.359375 92.90625 272.359375 97.917969 C 272.390625 102.902344 268.296875 107 263.253906 107 Z M 263.253906 91.929688 C 259.980469 91.929688 257.332031 94.609375 257.332031 97.886719 C 257.332031 101.167969 259.980469 103.816406 263.253906 103.816406 C 266.53125 103.816406 269.210938 101.167969 269.210938 97.886719 C 269.242188 94.609375 266.5625 91.929688 263.253906 91.929688 Z M 263.253906 91.929688 " fill-opacity="1" fill-rule="nonzero"/><path fill="#6644a8" d="M 188.179688 124.6875 C 184.273438 124.6875 181.089844 121.503906 181.089844 117.59375 C 181.089844 113.683594 184.273438 110.5 188.179688 110.5 C 192.085938 110.5 195.269531 113.683594 195.269531 117.59375 C 195.300781 121.535156 192.117188 124.6875 188.179688 124.6875 Z M 188.179688 112.992188 C 185.628906 112.992188 183.546875 115.070312 183.546875 117.625 C 183.546875 120.179688 185.628906 122.261719 188.179688 122.261719 C 190.730469 122.261719 192.8125 120.179688 192.8125 117.625 C 192.84375 115.070312 190.761719 112.992188 188.179688 112.992188 Z M 188.179688 112.992188 " fill-opacity="1" fill-rule="nonzero"/><path fill="#6644a8" d="M 310.355469 53.871094 C 305.34375 53.871094 301.28125 49.804688 301.28125 44.789062 C 301.28125 39.777344 305.34375 35.675781 310.355469 35.675781 C 315.363281 35.675781 319.460938 39.777344 319.460938 44.789062 C 319.460938 49.804688 315.363281 53.871094 310.355469 53.871094 Z M 310.355469 38.796875 C 307.078125 38.796875 304.433594 41.480469 304.433594 44.757812 C 304.433594 48.039062 307.078125 50.6875 310.355469 50.6875 C 313.632812 50.6875 316.308594 48.039062 316.308594 44.757812 C 316.308594 41.480469 313.632812 38.796875 310.355469 38.796875 Z M 310.355469 38.796875 " fill-opacity="1" fill-rule="nonzero"/><path fill="#6644a8" d="M 189.03125 68.816406 C 188.714844 68.816406 188.433594 68.691406 188.210938 68.46875 L 183.925781 64.179688 C 183.453125 63.707031 183.453125 62.984375 183.925781 62.511719 C 184.398438 62.035156 185.125 62.035156 185.597656 62.511719 L 189.882812 66.796875 C 190.351562 67.269531 190.351562 67.996094 189.882812 68.46875 C 189.628906 68.722656 189.34375 68.816406 189.03125 68.816406 Z M 189.03125 68.816406 " fill-opacity="1" fill-rule="nonzero"/><path fill="#6644a8" d="M 198.796875 59.042969 C 198.480469 59.042969 198.199219 58.914062 197.976562 58.695312 L 193.691406 54.40625 C 193.21875 53.933594 193.21875 53.207031 193.691406 52.734375 C 194.164062 52.261719 194.890625 52.261719 195.363281 52.734375 L 199.648438 57.023438 C 200.121094 57.496094 200.121094 58.222656 199.648438 58.695312 C 199.394531 58.945312 199.113281 59.042969 198.796875 59.042969 Z M 198.796875 59.042969 " fill-opacity="1" fill-rule="nonzero"/><path fill="#6644a8" d="M 184.746094 59.042969 C 184.429688 59.042969 184.148438 58.914062 183.925781 58.695312 C 183.453125 58.222656 183.453125 57.496094 183.925781 57.023438 L 188.210938 52.734375 C 188.683594 52.261719 189.410156 52.261719 189.882812 52.734375 C 190.351562 53.207031 190.351562 53.933594 189.882812 54.40625 L 185.597656 58.695312 C 185.34375 58.945312 185.0625 59.042969 184.746094 59.042969 Z M 184.746094 59.042969 " fill-opacity="1" fill-rule="nonzero"/><path fill="#6644a8" d="M 194.511719 68.816406 C 194.195312 68.816406 193.914062 68.691406 193.691406 68.46875 C 193.21875 67.996094 193.21875 67.269531 193.691406 66.796875 L 197.976562 62.511719 C 198.449219 62.035156 199.175781 62.035156 199.648438 62.511719 C 200.121094 62.984375 200.121094 63.707031 199.648438 64.179688 L 195.363281 68.46875 C 195.109375 68.722656 194.828125 68.816406 194.511719 68.816406 Z M 194.511719 68.816406 " fill-opacity="1" fill-rule="nonzero"/><path fill="#6644a8" d="M 400.332031 100.15625 C 400.015625 100.15625 399.734375 100.03125 399.511719 99.8125 L 395.230469 95.523438 C 394.757812 95.050781 394.757812 94.324219 395.230469 93.851562 C 395.699219 93.378906 396.425781 93.378906 396.898438 93.851562 L 401.183594 98.140625 C 401.65625 98.613281 401.65625 99.339844 401.183594 99.8125 C 400.929688 100.03125 400.648438 100.15625 400.332031 100.15625 Z M 400.332031 100.15625 " fill-opacity="1" fill-rule="nonzero"/><path fill="#6644a8" d="M 410.097656 90.382812 C 409.785156 90.382812 409.5 90.257812 409.28125 90.035156 L 404.996094 85.75 C 404.523438 85.277344 404.523438 84.550781 404.996094 84.078125 C 405.46875 83.605469 406.191406 83.605469 406.664062 84.078125 L 410.949219 88.367188 C 411.421875 88.839844 411.421875 89.5625 410.949219 90.035156 C 410.699219 90.257812 410.382812 90.382812 410.097656 90.382812 Z M 410.097656 90.382812 " fill-opacity="1" fill-rule="nonzero"/><path fill="#6644a8" d="M 396.046875 90.382812 C 395.734375 90.382812 395.449219 90.257812 395.230469 90.035156 C 394.757812 89.5625 394.757812 88.839844 395.230469 88.367188 L 399.511719 84.078125 C 399.984375 83.605469 400.710938 83.605469 401.183594 84.078125 C 401.65625 84.550781 401.65625 85.277344 401.183594 85.75 L 396.898438 90.035156 C 396.644531 90.257812 396.363281 90.382812 396.046875 90.382812 Z M 396.046875 90.382812 " fill-opacity="1" fill-rule="nonzero"/><path fill="#6644a8" d="M 405.8125 100.15625 C 405.5 100.15625 405.214844 100.03125 404.996094 99.8125 C 404.523438 99.339844 404.523438 98.613281 404.996094 98.140625 L 409.28125 93.851562 C 409.753906 93.378906 410.476562 93.378906 410.949219 93.851562 C 411.421875 94.324219 411.421875 95.050781 410.949219 95.523438 L 406.664062 99.8125 C 406.414062 100.03125 406.097656 100.15625 405.8125 100.15625 Z M 405.8125 100.15625 " fill-opacity="1" fill-rule="nonzero"/><path fill="#6644a8" d="M 419.519531 291.960938 C 419.203125 291.960938 418.921875 291.835938 418.699219 291.613281 L 414.414062 287.328125 C 413.941406 286.851562 413.941406 286.128906 414.414062 285.65625 C 414.886719 285.183594 415.613281 285.183594 416.085938 285.65625 L 420.371094 289.941406 C 420.84375 290.417969 420.84375 291.140625 420.371094 291.613281 C 420.117188 291.835938 419.800781 291.960938 419.519531 291.960938 Z M 419.519531 291.960938 " fill-opacity="1" fill-rule="nonzero"/><g clip-path="url(#26767ea086)"><path fill="#6644a8" d="M 429.285156 282.1875 C 428.96875 282.1875 428.6875 282.0625 428.464844 281.839844 L 424.179688 277.550781 C 423.707031 277.078125 423.707031 276.351562 424.179688 275.878906 C 424.652344 275.40625 425.378906 275.40625 425.851562 275.878906 L 430.136719 280.167969 C 430.609375 280.640625 430.609375 281.367188 430.136719 281.839844 C 429.882812 282.0625 429.570312 282.1875 429.285156 282.1875 Z M 429.285156 282.1875 " fill-opacity="1" fill-rule="nonzero"/></g><path fill="#6644a8" d="M 415.234375 282.1875 C 414.917969 282.1875 414.636719 282.0625 414.414062 281.839844 C 413.941406 281.367188 413.941406 280.640625 414.414062 280.167969 L 418.699219 275.878906 C 419.171875 275.40625 419.898438 275.40625 420.371094 275.878906 C 420.84375 276.351562 420.84375 277.078125 420.371094 277.550781 L 416.085938 281.839844 C 415.832031 282.0625 415.519531 282.1875 415.234375 282.1875 Z M 415.234375 282.1875 " fill-opacity="1" fill-rule="nonzero"/><g clip-path="url(#12fe480ee0)"><path fill="#6644a8" d="M 424.96875 291.960938 C 424.652344 291.960938 424.371094 291.835938 424.148438 291.613281 C 423.675781 291.140625 423.675781 290.417969 424.148438 289.941406 L 428.433594 285.65625 C 428.90625 285.183594 429.632812 285.183594 430.105469 285.65625 C 430.578125 286.128906 430.578125 286.851562 430.105469 287.328125 L 425.820312 291.613281 C 425.597656 291.835938 425.285156 291.960938 424.96875 291.960938 Z M 424.96875 291.960938 " fill-opacity="1" fill-rule="nonzero"/></g><path fill="#6644a8" d="M 74.542969 250.054688 C 74.226562 250.054688 73.945312 249.929688 73.722656 249.710938 L 69.4375 245.421875 C 68.964844 244.949219 68.964844 244.222656 69.4375 243.75 C 69.910156 243.277344 70.636719 243.277344 71.109375 243.75 L 75.394531 248.039062 C 75.867188 248.511719 75.867188 249.238281 75.394531 249.710938 C 75.140625 249.960938 74.824219 250.054688 74.542969 250.054688 Z M 74.542969 250.054688 " fill-opacity="1" fill-rule="nonzero"/><path fill="#6644a8" d="M 84.308594 240.28125 C 83.992188 240.28125 83.710938 240.15625 83.488281 239.933594 L 79.171875 235.648438 C 78.699219 235.175781 78.699219 234.449219 79.171875 233.976562 C 79.644531 233.503906 80.371094 233.503906 80.84375 233.976562 L 85.128906 238.265625 C 85.601562 238.738281 85.601562 239.460938 85.128906 239.933594 C 84.90625 240.1875 84.59375 240.28125 84.308594 240.28125 Z M 84.308594 240.28125 " fill-opacity="1" fill-rule="nonzero"/><path fill="#6644a8" d="M 70.257812 240.28125 C 69.941406 240.28125 69.660156 240.15625 69.4375 239.933594 C 68.964844 239.460938 68.964844 238.738281 69.4375 238.265625 L 73.722656 233.976562 C 74.195312 233.503906 74.921875 233.503906 75.394531 233.976562 C 75.867188 234.449219 75.867188 235.175781 75.394531 235.648438 L 71.109375 239.933594 C 70.855469 240.1875 70.542969 240.28125 70.257812 240.28125 Z M 70.257812 240.28125 " fill-opacity="1" fill-rule="nonzero"/><path fill="#6644a8" d="M 79.992188 250.054688 C 79.675781 250.054688 79.394531 249.929688 79.171875 249.710938 C 78.699219 249.238281 78.699219 248.511719 79.171875 248.039062 L 83.457031 243.75 C 83.929688 243.277344 84.65625 243.277344 85.128906 243.75 C 85.601562 244.222656 85.601562 244.949219 85.128906 245.421875 L 80.84375 249.710938 C 80.621094 249.960938 80.308594 250.054688 79.992188 250.054688 Z M 79.992188 250.054688 " fill-opacity="1" fill-rule="nonzero"/><g mask="url(#d0bd674565)"><g transform="matrix(1, 0, 0, 1, 347, 181)"><g clip-path="url(#ce6d9b1f02)"><path fill="#000000" d="M 21.921875 33.585938 L 34.554688 33.585938 L 34.554688 28.445312 L 41.328125 28.445312 L 28.253906 15.484375 L 15.179688 28.445312 L 21.921875 28.445312 Z M 21.921875 33.585938 " fill-opacity="1" fill-rule="nonzero"/><g clip-path="url(#d63c47bcce)"><path fill="#000000" d="M 63.128906 15.769531 L 50.054688 2.808594 L 36.980469 15.769531 L 43.722656 15.769531 L 43.722656 43.390625 C 41.015625 41.46875 37.894531 40.046875 34.554688 39.292969 L 34.554688 35.445312 L 21.921875 35.445312 L 21.921875 39.667969 C 11.210938 42.757812 3.304688 52.628906 3.304688 64.359375 C 3.304688 78.453125 14.832031 89.929688 28.980469 89.929688 C 43.09375 89.929688 54.59375 78.453125 54.59375 64.359375 C 54.59375 61.898438 54.214844 59.535156 53.585938 57.296875 L 56.355469 15.769531 Z M 28.980469 85.546875 C 17.226562 85.546875 7.683594 76.023438 7.683594 64.359375 C 7.683594 52.597656 17.226562 43.042969 28.980469 43.042969 C 40.699219 43.042969 50.214844 52.597656 50.214844 64.359375 C 50.246094 76.054688 40.699219 85.546875 28.980469 85.546875 Z M 28.980469 85.546875 " fill-opacity="1" fill-rule="nonzero"/></g><path fill="#000000" d="M 33.671875 57.988281 L 36.917969 57.988281 C 36.917969 54.238281 34.273438 51.082031 30.773438 50.265625 L 30.773438 48.121094 L 27.183594 48.121094 L 27.183594 50.265625 C 23.65625 51.082031 21.039062 54.238281 21.039062 57.988281 C 21.039062 61.742188 23.6875 64.894531 27.183594 65.714844 L 27.183594 74.984375 C 25.480469 74.289062 24.285156 72.589844 24.285156 70.632812 L 21.039062 70.632812 C 21.039062 74.386719 23.6875 77.539062 27.183594 78.359375 L 27.183594 80.503906 L 30.773438 80.503906 L 30.773438 78.359375 C 34.304688 77.539062 36.917969 74.386719 36.917969 70.632812 C 36.917969 66.882812 34.273438 63.726562 30.773438 62.90625 L 30.773438 53.636719 C 32.476562 54.363281 33.671875 56.035156 33.671875 57.988281 Z M 24.253906 57.988281 C 24.253906 56.035156 25.449219 54.363281 27.152344 53.636719 L 27.152344 62.308594 C 25.449219 61.617188 24.253906 59.945312 24.253906 57.988281 Z M 33.671875 70.632812 C 33.671875 72.589844 32.476562 74.257812 30.773438 74.953125 L 30.773438 66.28125 C 32.476562 67.007812 33.671875 68.679688 33.671875 70.632812 Z M 33.671875 70.632812 " fill-opacity="1" fill-rule="nonzero"/></g></g></g><path fill="#6644a8" d="M 384.011719 205.125 L 377.269531 205.125 L 377.269531 210.296875 L 364.605469 210.296875 L 364.605469 205.125 L 357.863281 205.125 L 370.9375 192.164062 Z M 384.011719 205.125 " fill-opacity="1" fill-rule="nonzero"/><path fill="#6644a8" d="M 364.605469 212.15625 L 377.238281 212.15625 L 377.238281 216.726562 L 364.605469 216.726562 Z M 364.605469 212.15625 " fill-opacity="1" fill-rule="nonzero"/><path fill="#6644a8" d="M 405.8125 192.449219 L 399.070312 192.449219 L 396.078125 237.160156 L 386.4375 224.800781 L 386.4375 192.449219 L 379.664062 192.449219 L 392.738281 179.488281 Z M 405.8125 192.449219 " fill-opacity="1" fill-rule="nonzero"/><path fill="#6644a8" d="M 371.695312 266.609375 C 357.550781 266.609375 346.019531 255.132812 346.019531 241.039062 C 346.019531 226.882812 357.550781 215.339844 371.695312 215.339844 C 385.808594 215.339844 397.308594 226.882812 397.308594 241.039062 C 397.308594 255.164062 385.808594 266.609375 371.695312 266.609375 Z M 371.695312 219.722656 C 359.941406 219.722656 350.398438 229.277344 350.398438 241.039062 C 350.398438 252.738281 359.941406 262.226562 371.695312 262.226562 C 383.414062 262.226562 392.929688 252.707031 392.929688 241.039062 C 392.929688 229.308594 383.414062 219.722656 371.695312 219.722656 Z M 371.695312 219.722656 " fill-opacity="1" fill-rule="nonzero"/><path fill="#6644a8" d="M 371.632812 255.257812 C 367.253906 255.257812 363.691406 251.695312 363.691406 247.3125 L 366.9375 247.3125 C 366.9375 249.898438 369.046875 252.011719 371.632812 252.011719 C 374.246094 252.011719 376.355469 249.898438 376.355469 247.3125 C 376.355469 244.726562 374.246094 242.617188 371.632812 242.617188 C 367.253906 242.617188 363.691406 239.050781 363.691406 234.667969 C 363.691406 230.285156 367.253906 226.722656 371.632812 226.722656 C 376.042969 226.722656 379.601562 230.285156 379.601562 234.667969 L 376.355469 234.667969 C 376.355469 232.082031 374.246094 229.972656 371.632812 229.972656 C 369.046875 229.972656 366.9375 232.082031 366.9375 234.667969 C 366.9375 237.253906 369.046875 239.367188 371.632812 239.367188 C 376.042969 239.367188 379.601562 242.929688 379.601562 247.3125 C 379.601562 251.695312 376.042969 255.257812 371.632812 255.257812 Z M 371.632812 255.257812 " fill-opacity="1" fill-rule="nonzero"/><path fill="#6644a8" d="M 369.835938 224.800781 L 373.425781 224.800781 L 373.425781 257.183594 L 369.835938 257.183594 Z M 369.835938 224.800781 " fill-opacity="1" fill-rule="nonzero"/><path fill="#000000" d="M 362.304688 88.144531 L 309.0625 88.144531 C 308.371094 88.144531 307.835938 88.679688 307.835938 89.375 L 307.835938 121.789062 C 307.835938 122.480469 308.371094 123.019531 309.0625 123.019531 L 315.144531 123.019531 L 315.144531 136.324219 C 315.144531 136.859375 315.457031 137.300781 315.929688 137.460938 C 316.089844 137.554688 316.214844 137.554688 316.339844 137.554688 C 316.71875 137.554688 317.066406 137.394531 317.316406 137.113281 L 328.28125 123.050781 L 362.335938 123.050781 C 363 123.050781 363.503906 122.511719 363.503906 121.820312 L 363.503906 89.375 C 363.472656 88.679688 362.9375 88.144531 362.304688 88.144531 Z M 321.445312 109.050781 C 318.546875 109.050781 316.183594 106.78125 316.183594 103.941406 C 316.183594 101.167969 318.546875 98.898438 321.445312 98.898438 C 324.3125 98.898438 326.644531 101.167969 326.644531 103.941406 C 326.644531 106.78125 324.28125 109.050781 321.445312 109.050781 Z M 336.0625 109.050781 C 333.164062 109.050781 330.800781 106.78125 330.800781 103.941406 C 330.800781 101.167969 333.164062 98.898438 336.0625 98.898438 C 338.929688 98.898438 341.292969 101.167969 341.292969 103.941406 C 341.292969 106.78125 338.929688 109.050781 336.0625 109.050781 Z M 349.925781 109.050781 C 347.027344 109.050781 344.695312 106.78125 344.695312 103.941406 C 344.695312 101.167969 347.027344 98.898438 349.925781 98.898438 C 352.824219 98.898438 355.125 101.167969 355.125 103.941406 C 355.125 106.78125 352.824219 109.050781 349.925781 109.050781 Z M 349.925781 109.050781 " fill-opacity="0.1" fill-rule="nonzero"/><path fill="#6644a8" d="M 358.242188 84.046875 L 305 84.046875 C 304.304688 84.046875 303.769531 84.582031 303.769531 85.277344 L 303.769531 117.6875 C 303.769531 118.382812 304.304688 118.917969 305 118.917969 L 311.078125 118.917969 L 311.078125 132.226562 C 311.078125 132.761719 311.394531 133.203125 311.867188 133.359375 C 312.023438 133.453125 312.152344 133.453125 312.277344 133.453125 C 312.65625 133.453125 313 133.296875 313.253906 133.011719 L 324.21875 118.949219 L 358.273438 118.949219 C 358.933594 118.949219 359.4375 118.414062 359.4375 117.722656 L 359.4375 85.277344 C 359.40625 84.582031 358.871094 84.046875 358.242188 84.046875 Z M 317.378906 104.980469 C 314.480469 104.980469 312.121094 102.710938 312.121094 99.875 C 312.121094 97.097656 314.480469 94.828125 317.378906 94.828125 C 320.246094 94.828125 322.578125 97.097656 322.578125 99.875 C 322.578125 102.679688 320.214844 104.980469 317.378906 104.980469 Z M 332 104.980469 C 329.101562 104.980469 326.738281 102.710938 326.738281 99.875 C 326.738281 97.097656 329.101562 94.828125 332 94.828125 C 334.867188 94.828125 337.226562 97.097656 337.226562 99.875 C 337.195312 102.679688 334.835938 104.980469 332 104.980469 Z M 345.828125 104.980469 C 342.929688 104.980469 340.597656 102.710938 340.597656 99.875 C 340.597656 97.097656 342.929688 94.828125 345.828125 94.828125 C 348.726562 94.828125 351.027344 97.097656 351.027344 99.875 C 351.058594 102.679688 348.726562 104.980469 345.828125 104.980469 Z M 345.828125 104.980469 " fill-opacity="1" fill-rule="nonzero"/><path fill="#000000" d="M 61.8125 155.714844 C 62.160156 155.335938 62.160156 154.738281 61.8125 154.390625 C 61.4375 154.011719 60.835938 154.011719 60.492188 154.390625 C 57.339844 157.574219 52.140625 157.574219 48.992188 154.390625 C 48.613281 154.011719 48.015625 154.011719 47.667969 154.390625 C 47.320312 154.769531 47.320312 155.367188 47.667969 155.714844 C 49.621094 157.671875 52.175781 158.648438 54.757812 158.648438 C 57.339844 158.648438 59.859375 157.671875 61.8125 155.714844 Z M 61.8125 155.714844 " fill-opacity="0.1" fill-rule="nonzero"/><path fill="#000000" d="M 75.675781 168.296875 C 64.113281 179.867188 45.304688 179.867188 33.773438 168.296875 C 33.398438 167.917969 32.796875 167.917969 32.453125 168.296875 C 32.074219 168.675781 32.074219 169.273438 32.453125 169.621094 C 38.59375 175.769531 46.660156 178.828125 54.726562 178.828125 C 62.789062 178.828125 70.855469 175.769531 77 169.621094 C 77.347656 169.242188 77.347656 168.644531 77 168.296875 C 76.621094 167.917969 76.054688 167.917969 75.675781 168.296875 Z M 75.675781 168.296875 " fill-opacity="0.1" fill-rule="nonzero"/><path fill="#000000" d="M 39.382812 161.359375 C 39.035156 161.738281 39.035156 162.335938 39.382812 162.683594 C 43.605469 166.910156 49.179688 169.023438 54.726562 169.023438 C 60.269531 169.023438 65.847656 166.910156 70.070312 162.683594 C 70.445312 162.304688 70.445312 161.738281 70.070312 161.359375 C 69.691406 160.980469 69.125 160.980469 68.746094 161.359375 C 60.996094 169.117188 48.425781 169.117188 40.707031 161.359375 C 40.328125 160.980469 39.730469 160.980469 39.382812 161.359375 Z M 39.382812 161.359375 " fill-opacity="0.1" fill-rule="nonzero"/><path fill="#6644a8" d="M 60.332031 153.476562 C 60.679688 153.097656 60.679688 152.5 60.332031 152.152344 C 59.957031 151.773438 59.355469 151.773438 59.011719 152.152344 C 55.859375 155.335938 50.660156 155.335938 47.511719 152.152344 C 47.132812 151.773438 46.535156 151.773438 46.1875 152.152344 C 45.839844 152.53125 45.839844 153.128906 46.1875 153.476562 C 48.140625 155.433594 50.691406 156.410156 53.277344 156.410156 C 55.828125 156.378906 58.378906 155.402344 60.332031 153.476562 Z M 60.332031 153.476562 " fill-opacity="1" fill-rule="nonzero"/><path fill="#6644a8" d="M 74.226562 166.027344 C 62.664062 177.597656 43.855469 177.597656 32.324219 166.027344 C 31.949219 165.648438 31.347656 165.648438 31.003906 166.027344 C 30.625 166.40625 30.625 167.003906 31.003906 167.351562 C 37.144531 173.5 45.210938 176.558594 53.277344 176.558594 C 61.339844 176.558594 69.40625 173.5 75.550781 167.351562 C 75.898438 166.972656 75.898438 166.375 75.550781 166.027344 C 75.171875 165.648438 74.574219 165.648438 74.226562 166.027344 Z M 74.226562 166.027344 " fill-opacity="1" fill-rule="nonzero"/><path fill="#6644a8" d="M 37.933594 159.089844 C 37.585938 159.46875 37.585938 160.066406 37.933594 160.414062 C 42.15625 164.640625 47.730469 166.75 53.277344 166.75 C 58.820312 166.75 64.398438 164.640625 68.621094 160.414062 C 68.996094 160.035156 68.996094 159.46875 68.621094 159.089844 C 68.242188 158.710938 67.675781 158.710938 67.296875 159.089844 C 59.546875 166.847656 46.976562 166.847656 39.257812 159.089844 C 38.878906 158.710938 38.28125 158.710938 37.933594 159.089844 Z M 37.933594 159.089844 " fill-opacity="1" fill-rule="nonzero"/><path fill="#6644a8" d="M 35.003906 199.417969 C 35.003906 199.792969 34.933594 200.15625 34.789062 200.503906 C 34.644531 200.851562 34.4375 201.160156 34.171875 201.425781 C 33.90625 201.691406 33.601562 201.894531 33.253906 202.039062 C 32.90625 202.183594 32.542969 202.253906 32.167969 202.253906 C 31.792969 202.253906 31.429688 202.183594 31.082031 202.039062 C 30.734375 201.894531 30.429688 201.691406 30.164062 201.425781 C 29.898438 201.160156 29.691406 200.851562 29.546875 200.503906 C 29.40625 200.15625 29.332031 199.792969 29.332031 199.417969 C 29.332031 199.042969 29.40625 198.679688 29.546875 198.332031 C 29.691406 197.984375 29.898438 197.675781 30.164062 197.410156 C 30.429688 197.144531 30.734375 196.941406 31.082031 196.796875 C 31.429688 196.652344 31.792969 196.578125 32.167969 196.578125 C 32.542969 196.578125 32.90625 196.652344 33.253906 196.796875 C 33.601562 196.941406 33.90625 197.144531 34.171875 197.410156 C 34.4375 197.675781 34.644531 197.984375 34.789062 198.332031 C 34.933594 198.679688 35.003906 199.042969 35.003906 199.417969 Z M 35.003906 199.417969 " fill-opacity="1" fill-rule="nonzero"/><path fill="#6644a8" d="M 35.003906 210.136719 C 35.003906 210.515625 34.933594 210.875 34.789062 211.222656 C 34.644531 211.570312 34.4375 211.878906 34.171875 212.144531 C 33.90625 212.410156 33.601562 212.617188 33.253906 212.761719 C 32.90625 212.902344 32.542969 212.976562 32.167969 212.976562 C 31.792969 212.976562 31.429688 212.902344 31.082031 212.761719 C 30.734375 212.617188 30.429688 212.410156 30.164062 212.144531 C 29.898438 211.878906 29.691406 211.570312 29.546875 211.222656 C 29.40625 210.875 29.332031 210.515625 29.332031 210.136719 C 29.332031 209.761719 29.40625 209.398438 29.546875 209.050781 C 29.691406 208.703125 29.898438 208.398438 30.164062 208.132812 C 30.429688 207.867188 30.734375 207.660156 31.082031 207.515625 C 31.429688 207.371094 31.792969 207.300781 32.167969 207.300781 C 32.542969 207.300781 32.90625 207.371094 33.253906 207.515625 C 33.601562 207.660156 33.90625 207.867188 34.171875 208.132812 C 34.4375 208.398438 34.644531 208.703125 34.789062 209.050781 C 34.933594 209.398438 35.003906 209.761719 35.003906 210.136719 Z M 35.003906 210.136719 " fill-opacity="1" fill-rule="nonzero"/><path fill="#6644a8" d="M 35.003906 220.859375 C 35.003906 221.234375 34.933594 221.597656 34.789062 221.945312 C 34.644531 222.292969 34.4375 222.597656 34.171875 222.867188 C 33.90625 223.132812 33.601562 223.335938 33.253906 223.480469 C 32.90625 223.625 32.542969 223.695312 32.167969 223.695312 C 31.792969 223.695312 31.429688 223.625 31.082031 223.480469 C 30.734375 223.335938 30.429688 223.132812 30.164062 222.867188 C 29.898438 222.597656 29.691406 222.292969 29.546875 221.945312 C 29.40625 221.597656 29.332031 221.234375 29.332031 220.859375 C 29.332031 220.484375 29.40625 220.121094 29.546875 219.773438 C 29.691406 219.425781 29.898438 219.117188 30.164062 218.851562 C 30.429688 218.585938 30.734375 218.382812 31.082031 218.238281 C 31.429688 218.09375 31.792969 218.019531 32.167969 218.019531 C 32.542969 218.019531 32.90625 218.09375 33.253906 218.238281 C 33.601562 218.382812 33.90625 218.585938 34.171875 218.851562 C 34.4375 219.117188 34.644531 219.425781 34.789062 219.773438 C 34.933594 220.121094 35.003906 220.484375 35.003906 220.859375 Z M 35.003906 220.859375 " fill-opacity="1" fill-rule="nonzero"/><path fill="#6644a8" d="M 394 127.558594 C 394 127.933594 393.929688 128.296875 393.785156 128.644531 C 393.640625 128.992188 393.433594 129.300781 393.167969 129.566406 C 392.902344 129.832031 392.597656 130.035156 392.25 130.179688 C 391.902344 130.324219 391.539062 130.394531 391.164062 130.394531 C 390.789062 130.394531 390.425781 130.324219 390.078125 130.179688 C 389.730469 130.035156 389.425781 129.832031 389.160156 129.566406 C 388.894531 129.300781 388.6875 128.992188 388.542969 128.644531 C 388.402344 128.296875 388.328125 127.933594 388.328125 127.558594 C 388.328125 127.183594 388.402344 126.820312 388.542969 126.472656 C 388.6875 126.125 388.894531 125.816406 389.160156 125.550781 C 389.425781 125.285156 389.730469 125.082031 390.078125 124.9375 C 390.425781 124.792969 390.789062 124.722656 391.164062 124.722656 C 391.539062 124.722656 391.902344 124.792969 392.25 124.9375 C 392.597656 125.082031 392.902344 125.285156 393.167969 125.550781 C 393.433594 125.816406 393.640625 126.125 393.785156 126.472656 C 393.929688 126.820312 394 127.183594 394 127.558594 Z M 394 127.558594 " fill-opacity="1" fill-rule="nonzero"/><path fill="#6644a8" d="M 394 138.277344 C 394 138.65625 393.929688 139.015625 393.785156 139.363281 C 393.640625 139.710938 393.433594 140.019531 393.167969 140.285156 C 392.902344 140.550781 392.597656 140.757812 392.25 140.902344 C 391.902344 141.042969 391.539062 141.117188 391.164062 141.117188 C 390.789062 141.117188 390.425781 141.042969 390.078125 140.902344 C 389.730469 140.757812 389.425781 140.550781 389.160156 140.285156 C 388.894531 140.019531 388.6875 139.710938 388.542969 139.363281 C 388.402344 139.015625 388.328125 138.65625 388.328125 138.277344 C 388.328125 137.902344 388.402344 137.539062 388.542969 137.191406 C 388.6875 136.84375 388.894531 136.539062 389.160156 136.273438 C 389.425781 136.007812 389.730469 135.800781 390.078125 135.65625 C 390.425781 135.511719 390.789062 135.441406 391.164062 135.441406 C 391.539062 135.441406 391.902344 135.511719 392.25 135.65625 C 392.597656 135.800781 392.902344 136.007812 393.167969 136.273438 C 393.433594 136.539062 393.640625 136.84375 393.785156 137.191406 C 393.929688 137.539062 394 137.902344 394 138.277344 Z M 394 138.277344 " fill-opacity="1" fill-rule="nonzero"/><path fill="#6644a8" d="M 394 149 C 394 149.375 393.929688 149.738281 393.785156 150.085938 C 393.640625 150.433594 393.433594 150.738281 393.167969 151.007812 C 392.902344 151.273438 392.597656 151.476562 392.25 151.621094 C 391.902344 151.765625 391.539062 151.835938 391.164062 151.835938 C 390.789062 151.835938 390.425781 151.765625 390.078125 151.621094 C 389.730469 151.476562 389.425781 151.273438 389.160156 151.007812 C 388.894531 150.738281 388.6875 150.433594 388.542969 150.085938 C 388.402344 149.738281 388.328125 149.375 388.328125 149 C 388.328125 148.625 388.402344 148.261719 388.542969 147.914062 C 388.6875 147.566406 388.894531 147.257812 389.160156 146.992188 C 389.425781 146.726562 389.730469 146.523438 390.078125 146.378906 C 390.425781 146.234375 390.789062 146.160156 391.164062 146.160156 C 391.539062 146.160156 391.902344 146.234375 392.25 146.378906 C 392.597656 146.523438 392.902344 146.726562 393.167969 146.992188 C 393.433594 147.257812 393.640625 147.566406 393.785156 147.914062 C 393.929688 148.261719 394 148.625 394 149 Z M 394 149 " fill-opacity="1" fill-rule="nonzero"/><path fill="#6644a8" d="M 56.773438 110.3125 C 55.921875 110.3125 55.199219 109.617188 55.199219 108.734375 L 55.199219 74.523438 C 55.199219 73.671875 55.890625 72.945312 56.773438 72.945312 C 57.65625 72.945312 58.347656 73.640625 58.347656 74.523438 L 58.347656 108.765625 C 58.347656 109.617188 57.625 110.3125 56.773438 110.3125 Z M 56.773438 110.3125 " fill-opacity="1" fill-rule="nonzero"/><path fill="#6644a8" d="M 423.898438 260.210938 C 423.171875 260.210938 422.605469 259.609375 422.605469 258.886719 L 422.605469 230.351562 C 422.605469 229.625 423.203125 229.058594 423.898438 229.058594 C 424.621094 229.058594 425.222656 229.65625 425.222656 230.351562 L 425.222656 258.886719 C 425.222656 259.609375 424.621094 260.210938 423.898438 260.210938 Z M 423.898438 260.210938 " fill-opacity="1" fill-rule="nonzero"/><path fill="#6644a8" d="M 423.898438 227.101562 C 423.171875 227.101562 422.605469 226.503906 422.605469 225.777344 L 422.605469 215.402344 C 422.605469 214.679688 423.203125 214.109375 423.898438 214.109375 C 424.621094 214.109375 425.222656 214.710938 425.222656 215.402344 L 425.222656 225.777344 C 425.222656 226.503906 424.621094 227.101562 423.898438 227.101562 Z M 423.898438 227.101562 " fill-opacity="1" fill-rule="nonzero"/><path fill="#6644a8" d="M 273.777344 133.421875 C 273.777344 133.800781 273.707031 134.160156 273.5625 134.507812 C 273.417969 134.855469 273.214844 135.164062 272.949219 135.429688 C 272.679688 135.695312 272.375 135.902344 272.027344 136.046875 C 271.679688 136.1875 271.320312 136.261719 270.941406 136.261719 C 270.566406 136.261719 270.203125 136.1875 269.855469 136.046875 C 269.511719 135.902344 269.203125 135.695312 268.9375 135.429688 C 268.671875 135.164062 268.464844 134.855469 268.324219 134.507812 C 268.179688 134.160156 268.105469 133.800781 268.105469 133.421875 C 268.105469 133.046875 268.179688 132.683594 268.324219 132.335938 C 268.464844 131.988281 268.671875 131.683594 268.9375 131.417969 C 269.203125 131.152344 269.511719 130.945312 269.855469 130.800781 C 270.203125 130.65625 270.566406 130.585938 270.941406 130.585938 C 271.320312 130.585938 271.679688 130.65625 272.027344 130.800781 C 272.375 130.945312 272.679688 131.152344 272.949219 131.417969 C 273.214844 131.683594 273.417969 131.988281 273.5625 132.335938 C 273.707031 132.683594 273.777344 133.046875 273.777344 133.421875 Z M 273.777344 133.421875 " fill-opacity="1" fill-rule="nonzero"/><path fill="#6644a8" d="M 263.066406 133.421875 C 263.066406 133.800781 262.996094 134.160156 262.851562 134.507812 C 262.707031 134.855469 262.5 135.164062 262.234375 135.429688 C 261.96875 135.695312 261.664062 135.902344 261.316406 136.046875 C 260.96875 136.1875 260.605469 136.261719 260.230469 136.261719 C 259.855469 136.261719 259.492188 136.1875 259.144531 136.046875 C 258.796875 135.902344 258.492188 135.695312 258.226562 135.429688 C 257.960938 135.164062 257.753906 134.855469 257.609375 134.507812 C 257.46875 134.160156 257.394531 133.800781 257.394531 133.421875 C 257.394531 133.046875 257.46875 132.683594 257.609375 132.335938 C 257.753906 131.988281 257.960938 131.683594 258.226562 131.417969 C 258.492188 131.152344 258.796875 130.945312 259.144531 130.800781 C 259.492188 130.65625 259.855469 130.585938 260.230469 130.585938 C 260.605469 130.585938 260.96875 130.65625 261.316406 130.800781 C 261.664062 130.945312 261.96875 131.152344 262.234375 131.417969 C 262.5 131.683594 262.707031 131.988281 262.851562 132.335938 C 262.996094 132.683594 263.066406 133.046875 263.066406 133.421875 Z M 263.066406 133.421875 " fill-opacity="1" fill-rule="nonzero"/><path fill="#6644a8" d="M 252.355469 133.421875 C 252.355469 133.800781 252.28125 134.160156 252.140625 134.507812 C 251.996094 134.855469 251.789062 135.164062 251.523438 135.429688 C 251.257812 135.695312 250.953125 135.902344 250.605469 136.046875 C 250.257812 136.1875 249.894531 136.261719 249.519531 136.261719 C 249.144531 136.261719 248.78125 136.1875 248.433594 136.046875 C 248.085938 135.902344 247.78125 135.695312 247.515625 135.429688 C 247.25 135.164062 247.042969 134.855469 246.898438 134.507812 C 246.753906 134.160156 246.683594 133.800781 246.683594 133.421875 C 246.683594 133.046875 246.753906 132.683594 246.898438 132.335938 C 247.042969 131.988281 247.25 131.683594 247.515625 131.417969 C 247.78125 131.152344 248.085938 130.945312 248.433594 130.800781 C 248.78125 130.65625 249.144531 130.585938 249.519531 130.585938 C 249.894531 130.585938 250.257812 130.65625 250.605469 130.800781 C 250.953125 130.945312 251.257812 131.152344 251.523438 131.417969 C 251.789062 131.683594 251.996094 131.988281 252.140625 132.335938 C 252.28125 132.683594 252.355469 133.046875 252.355469 133.421875 Z M 252.355469 133.421875 " fill-opacity="1" fill-rule="nonzero"/><path fill="#6644a8" d="M 212.785156 90.382812 C 212.785156 90.761719 212.710938 91.121094 212.570312 91.46875 C 212.425781 91.816406 212.21875 92.125 211.953125 92.390625 C 211.6875 92.65625 211.382812 92.859375 211.035156 93.003906 C 210.6875 93.148438 210.324219 93.222656 209.949219 93.222656 C 209.574219 93.222656 209.210938 93.148438 208.863281 93.003906 C 208.515625 92.859375 208.210938 92.65625 207.945312 92.390625 C 207.679688 92.125 207.472656 91.816406 207.328125 91.46875 C 207.1875 91.121094 207.113281 90.761719 207.113281 90.382812 C 207.113281 90.007812 207.1875 89.644531 207.328125 89.296875 C 207.472656 88.949219 207.679688 88.644531 207.945312 88.375 C 208.210938 88.109375 208.515625 87.90625 208.863281 87.761719 C 209.210938 87.617188 209.574219 87.546875 209.949219 87.546875 C 210.324219 87.546875 210.6875 87.617188 211.035156 87.761719 C 211.382812 87.90625 211.6875 88.109375 211.953125 88.375 C 212.21875 88.644531 212.425781 88.949219 212.570312 89.296875 C 212.710938 89.644531 212.785156 90.007812 212.785156 90.382812 Z M 212.785156 90.382812 " fill-opacity="1" fill-rule="nonzero"/><path fill="#6644a8" d="M 202.074219 90.382812 C 202.074219 90.761719 202 91.121094 201.855469 91.46875 C 201.714844 91.816406 201.507812 92.125 201.242188 92.390625 C 200.976562 92.65625 200.671875 92.859375 200.324219 93.003906 C 199.976562 93.148438 199.613281 93.222656 199.238281 93.222656 C 198.863281 93.222656 198.5 93.148438 198.152344 93.003906 C 197.804688 92.859375 197.5 92.65625 197.234375 92.390625 C 196.96875 92.125 196.761719 91.816406 196.617188 91.46875 C 196.472656 91.121094 196.402344 90.761719 196.402344 90.382812 C 196.402344 90.007812 196.472656 89.644531 196.617188 89.296875 C 196.761719 88.949219 196.96875 88.644531 197.234375 88.375 C 197.5 88.109375 197.804688 87.90625 198.152344 87.761719 C 198.5 87.617188 198.863281 87.546875 199.238281 87.546875 C 199.613281 87.546875 199.976562 87.617188 200.324219 87.761719 C 200.671875 87.90625 200.976562 88.109375 201.242188 88.375 C 201.507812 88.644531 201.714844 88.949219 201.855469 89.296875 C 202 89.644531 202.074219 90.007812 202.074219 90.382812 Z M 202.074219 90.382812 " fill-opacity="1" fill-rule="nonzero"/><path fill="#6644a8" d="M 191.363281 90.382812 C 191.363281 90.761719 191.289062 91.121094 191.144531 91.46875 C 191 91.816406 190.796875 92.125 190.53125 92.390625 C 190.265625 92.65625 189.957031 92.859375 189.609375 93.003906 C 189.265625 93.148438 188.902344 93.222656 188.527344 93.222656 C 188.148438 93.222656 187.789062 93.148438 187.441406 93.003906 C 187.09375 92.859375 186.785156 92.65625 186.519531 92.390625 C 186.253906 92.125 186.050781 91.816406 185.90625 91.46875 C 185.761719 91.121094 185.691406 90.761719 185.691406 90.382812 C 185.691406 90.007812 185.761719 89.644531 185.90625 89.296875 C 186.050781 88.949219 186.253906 88.644531 186.519531 88.375 C 186.785156 88.109375 187.09375 87.90625 187.441406 87.761719 C 187.789062 87.617188 188.148438 87.546875 188.527344 87.546875 C 188.902344 87.546875 189.265625 87.617188 189.609375 87.761719 C 189.957031 87.90625 190.265625 88.109375 190.53125 88.375 C 190.796875 88.644531 191 88.949219 191.144531 89.296875 C 191.289062 89.644531 191.363281 90.007812 191.363281 90.382812 Z M 191.363281 90.382812 " fill-opacity="1" fill-rule="nonzero"/><path fill="#6644a8" d="M 336.789062 372.019531 C 336 372.019531 335.371094 371.386719 335.371094 370.601562 L 335.371094 282.1875 C 335.371094 281.398438 336 280.769531 336.789062 280.769531 C 337.574219 280.769531 338.203125 281.398438 338.203125 282.1875 L 338.203125 370.601562 C 338.203125 371.386719 337.574219 372.019531 336.789062 372.019531 Z M 336.789062 372.019531 " fill-opacity="1" fill-rule="nonzero"/><path fill="#6644a8" d="M 351.121094 309.144531 C 350.335938 309.144531 349.703125 308.515625 349.703125 307.726562 L 349.703125 294.765625 C 349.703125 293.980469 350.335938 293.347656 351.121094 293.347656 C 351.910156 293.347656 352.539062 293.980469 352.539062 294.765625 L 352.539062 307.726562 C 352.539062 308.515625 351.910156 309.144531 351.121094 309.144531 Z M 351.121094 309.144531 " fill-opacity="1" fill-rule="nonzero"/><path fill="#6644a8" d="M 351.121094 346.445312 C 350.335938 346.445312 349.703125 345.816406 349.703125 345.027344 L 349.703125 316.777344 C 349.703125 315.988281 350.335938 315.355469 351.121094 315.355469 C 351.910156 315.355469 352.539062 315.988281 352.539062 316.777344 L 352.539062 345.027344 C 352.539062 345.785156 351.910156 346.445312 351.121094 346.445312 Z M 351.121094 346.445312 " fill-opacity="1" fill-rule="nonzero"/><path fill="#6644a8" d="M 336.753906 274.144531 C 334.109375 274.144531 331.96875 272.003906 331.96875 269.355469 C 331.96875 266.703125 334.109375 264.53125 336.753906 264.53125 C 339.402344 264.53125 341.574219 266.703125 341.574219 269.355469 C 341.574219 272.003906 339.433594 274.144531 336.753906 274.144531 Z M 336.753906 274.144531 " fill-opacity="1" fill-rule="nonzero"/><path fill="#6644a8" d="M 351.121094 362.496094 C 348.476562 362.496094 346.332031 360.351562 346.332031 357.703125 C 346.332031 355.054688 348.476562 352.878906 351.121094 352.878906 C 353.769531 352.878906 355.941406 355.054688 355.941406 357.703125 C 355.941406 360.351562 353.769531 362.496094 351.121094 362.496094 Z M 351.121094 362.496094 " fill-opacity="1" fill-rule="nonzero"/><path fill="#000000" d="M 401.433594 319.046875 C 401.75 318.730469 401.75 318.226562 401.433594 317.941406 C 401.121094 317.628906 400.617188 317.628906 400.332031 317.941406 C 397.65625 320.621094 393.308594 320.621094 390.660156 317.941406 C 390.34375 317.628906 389.839844 317.628906 389.558594 317.941406 C 389.242188 318.257812 389.242188 318.761719 389.558594 319.046875 C 391.195312 320.6875 393.371094 321.507812 395.511719 321.507812 C 397.621094 321.507812 399.796875 320.6875 401.433594 319.046875 Z M 401.433594 319.046875 " fill-opacity="0.1" fill-rule="nonzero"/><path fill="#000000" d="M 413.125 329.609375 C 403.386719 339.351562 387.574219 339.351562 377.871094 329.609375 C 377.554688 329.292969 377.050781 329.292969 376.765625 329.609375 C 376.453125 329.925781 376.453125 330.429688 376.765625 330.714844 C 381.933594 335.882812 388.738281 338.46875 395.511719 338.46875 C 402.285156 338.46875 409.089844 335.882812 414.257812 330.714844 C 414.574219 330.398438 414.574219 329.894531 414.257812 329.609375 C 413.910156 329.324219 413.40625 329.324219 413.125 329.609375 Z M 413.125 329.609375 " fill-opacity="0.1" fill-rule="nonzero"/><path fill="#000000" d="M 382.5625 323.777344 C 382.25 324.089844 382.25 324.597656 382.5625 324.878906 C 386.125 328.441406 390.816406 330.207031 395.480469 330.207031 C 400.144531 330.207031 404.835938 328.441406 408.398438 324.878906 C 408.710938 324.5625 408.710938 324.058594 408.398438 323.777344 C 408.082031 323.460938 407.578125 323.460938 407.292969 323.777344 C 400.773438 330.304688 390.1875 330.304688 383.699219 323.777344 C 383.382812 323.492188 382.878906 323.492188 382.5625 323.777344 Z M 382.5625 323.777344 " fill-opacity="0.1" fill-rule="nonzero"/><path fill="#6644a8" d="M 400.207031 317.15625 C 400.519531 316.839844 400.519531 316.335938 400.207031 316.050781 C 399.890625 315.734375 399.386719 315.734375 399.105469 316.050781 C 396.425781 318.730469 392.078125 318.730469 389.433594 316.050781 C 389.117188 315.734375 388.613281 315.734375 388.328125 316.050781 C 388.015625 316.367188 388.015625 316.871094 388.328125 317.15625 C 389.96875 318.792969 392.140625 319.613281 394.285156 319.613281 C 396.394531 319.613281 398.566406 318.792969 400.207031 317.15625 Z M 400.207031 317.15625 " fill-opacity="1" fill-rule="nonzero"/><path fill="#6644a8" d="M 411.894531 327.71875 C 402.160156 337.460938 386.34375 337.460938 376.640625 327.71875 C 376.324219 327.402344 375.820312 327.402344 375.539062 327.71875 C 375.253906 328.03125 375.222656 328.539062 375.539062 328.820312 C 380.703125 333.992188 387.511719 336.578125 394.285156 336.578125 C 401.058594 336.578125 407.863281 333.992188 413.027344 328.820312 C 413.34375 328.503906 413.34375 328 413.027344 327.71875 C 412.683594 327.402344 412.179688 327.402344 411.894531 327.71875 Z M 411.894531 327.71875 " fill-opacity="1" fill-rule="nonzero"/><path fill="#6644a8" d="M 381.335938 321.882812 C 381.019531 322.199219 381.019531 322.703125 381.335938 322.988281 C 384.894531 326.550781 389.589844 328.316406 394.25 328.316406 C 398.914062 328.316406 403.609375 326.550781 407.167969 322.988281 C 407.484375 322.671875 407.484375 322.167969 407.167969 321.882812 C 406.855469 321.601562 406.351562 321.570312 406.066406 321.882812 C 399.542969 328.410156 388.960938 328.410156 382.46875 321.882812 C 382.152344 321.570312 381.648438 321.570312 381.335938 321.882812 Z M 381.335938 321.882812 " fill-opacity="1" fill-rule="nonzero"/><g clip-path="url(#d3bdfed98a)"><path fill="#6644a8" d="M 24.230469 111.792969 C 21.582031 111.792969 19.441406 109.648438 19.441406 107 C 19.441406 104.351562 21.582031 102.175781 24.230469 102.175781 C 26.875 102.175781 29.050781 104.351562 29.050781 107 C 29.050781 109.648438 26.90625 111.792969 24.230469 111.792969 Z M 24.230469 111.792969 " fill-opacity="1" fill-rule="nonzero"/></g><path fill="#6644a8" d="M 51.449219 50.71875 C 47.667969 50.71875 44.582031 47.628906 44.582031 43.84375 C 44.582031 40.027344 47.667969 36.9375 51.449219 36.9375 C 55.261719 36.9375 58.347656 40.027344 58.347656 43.84375 C 58.347656 47.628906 55.230469 50.71875 51.449219 50.71875 Z M 51.449219 50.71875 " fill-opacity="1" fill-rule="nonzero"/><path fill="#000000" d="M 85.570312 318.289062 C 84.8125 321.570312 83.113281 324.121094 80.179688 325.921875 C 77.1875 327.75 74.070312 328.253906 70.699219 327.402344 C 70.257812 327.277344 69.785156 326.992188 69.34375 327.402344 C 68.839844 327.875 68.683594 327.496094 68.523438 327.085938 C 68.019531 325.855469 67.546875 324.597656 67.042969 323.367188 C 66.761719 322.671875 66.980469 322.484375 67.675781 322.578125 C 68.996094 322.734375 70.320312 322.894531 71.644531 323.019531 C 71.925781 323.050781 72.273438 323.050781 72.273438 323.429688 C 72.242188 324.121094 72.746094 323.964844 73.09375 323.964844 C 75.109375 324.121094 76.875 323.335938 78.542969 322.324219 C 87.710938 313.6875 74.921875 300.410156 64.746094 312.394531 C 61.878906 315.796875 61.910156 316.367188 65.058594 319.550781 C 66.886719 321.410156 66.886719 321.410156 64.996094 323.175781 C 64.492188 323.648438 64.113281 323.679688 63.546875 323.273438 C 62.191406 322.261719 60.867188 321.222656 59.640625 320.054688 C 59.292969 319.738281 59.011719 319.613281 58.757812 319.613281 C 58.476562 319.582031 58.191406 319.738281 57.875 320.054688 C 56.648438 321.222656 55.324219 322.261719 53.96875 323.273438 C 53.402344 323.679688 53.023438 323.648438 52.519531 323.175781 C 50.628906 321.410156 50.597656 321.441406 52.457031 319.550781 C 55.609375 316.367188 55.640625 315.796875 52.773438 312.394531 C 42.566406 300.378906 29.804688 313.6875 38.972656 322.324219 C 40.644531 323.367188 42.40625 324.121094 44.421875 323.964844 C 44.769531 323.933594 45.273438 324.121094 45.242188 323.429688 C 45.210938 323.050781 45.589844 323.050781 45.871094 323.019531 C 47.195312 322.863281 48.519531 322.734375 49.84375 322.578125 C 50.535156 322.484375 50.757812 322.703125 50.472656 323.367188 C 49.96875 324.597656 49.496094 325.824219 48.992188 327.085938 C 48.835938 327.496094 48.675781 327.875 48.171875 327.402344 C 47.730469 326.992188 47.257812 327.277344 46.816406 327.402344 C 43.445312 328.253906 40.328125 327.78125 37.335938 325.921875 C 34.40625 324.121094 32.671875 321.570312 31.949219 318.289062 C 29.804688 306.65625 42.5 299.65625 51.605469 306.589844 C 53.75 308.167969 55.828125 309.777344 57.75 311.605469 C 58.160156 311.984375 58.476562 312.171875 58.820312 312.140625 C 59.167969 312.171875 59.515625 311.984375 59.890625 311.605469 C 61.8125 309.777344 63.894531 308.136719 66.035156 306.589844 C 75.015625 299.65625 87.742188 306.65625 85.570312 318.289062 Z M 85.570312 318.289062 " fill-opacity="0.1" fill-rule="nonzero"/><path fill="#6644a8" d="M 81.628906 315.703125 C 80.875 318.984375 79.171875 321.539062 76.242188 323.335938 C 73.25 325.164062 70.132812 325.667969 66.761719 324.816406 C 66.320312 324.691406 65.847656 324.40625 65.40625 324.816406 C 64.902344 325.289062 64.746094 324.910156 64.585938 324.5 C 64.082031 323.273438 63.609375 322.011719 63.105469 320.78125 C 62.824219 320.085938 63.042969 319.898438 63.734375 319.992188 C 65.058594 320.148438 66.382812 320.308594 67.707031 320.433594 C 67.988281 320.464844 68.335938 320.464844 68.335938 320.84375 C 68.304688 321.539062 68.808594 321.378906 69.15625 321.378906 C 71.171875 321.539062 72.933594 320.75 74.605469 319.738281 C 83.773438 311.101562 70.980469 297.824219 60.804688 309.808594 C 57.9375 313.214844 57.96875 313.78125 61.121094 316.964844 C 62.949219 318.824219 62.949219 318.824219 61.058594 320.589844 C 60.554688 321.0625 60.175781 321.097656 59.609375 320.6875 C 58.253906 319.675781 56.929688 318.636719 55.703125 317.46875 C 55.355469 317.15625 55.074219 317.027344 54.820312 317.027344 C 54.535156 316.996094 54.253906 317.15625 53.9375 317.46875 C 52.710938 318.636719 51.386719 319.675781 50.03125 320.6875 C 49.464844 321.097656 49.085938 321.0625 48.582031 320.589844 C 46.691406 318.824219 46.660156 318.855469 48.519531 316.964844 C 51.667969 313.78125 51.703125 313.214844 48.835938 309.808594 C 38.625 297.792969 25.867188 311.101562 35.035156 319.738281 C 36.703125 320.78125 38.46875 321.539062 40.484375 321.378906 C 40.832031 321.347656 41.335938 321.539062 41.304688 320.84375 C 41.273438 320.464844 41.652344 320.464844 41.933594 320.433594 C 43.257812 320.277344 44.582031 320.148438 45.90625 319.992188 C 46.597656 319.898438 46.816406 320.117188 46.535156 320.78125 C 46.03125 322.011719 45.558594 323.238281 45.054688 324.5 C 44.894531 324.910156 44.738281 325.289062 44.234375 324.816406 C 43.792969 324.40625 43.320312 324.691406 42.878906 324.816406 C 39.507812 325.667969 36.390625 325.195312 33.398438 323.335938 C 30.46875 321.539062 28.734375 318.984375 28.007812 315.703125 C 25.867188 304.070312 38.5625 297.070312 47.667969 304.007812 C 49.8125 305.582031 51.890625 307.191406 53.8125 309.019531 C 54.222656 309.398438 54.535156 309.585938 54.882812 309.554688 C 55.230469 309.585938 55.578125 309.398438 55.953125 309.019531 C 57.875 307.191406 59.957031 305.550781 62.097656 304.007812 C 71.046875 297.070312 83.773438 304.101562 81.628906 315.703125 Z M 81.628906 315.703125 " fill-opacity="1" fill-rule="nonzero"/><path fill="#6644a8" d="M 32.167969 279.003906 C 30.4375 279.003906 29.019531 277.582031 29.019531 275.847656 C 29.019531 274.082031 30.4375 272.664062 32.167969 272.664062 C 33.933594 272.664062 35.351562 274.082031 35.351562 275.847656 C 35.351562 277.582031 33.933594 279.003906 32.167969 279.003906 Z M 32.167969 279.003906 " fill-opacity="1" fill-rule="nonzero"/><path fill="#6644a8" d="M 226.238281 35.171875 L 235.152344 46.648438 L 228.503906 46.648438 L 219.621094 35.171875 L 228.503906 23.726562 L 235.152344 23.726562 Z M 226.238281 35.171875 " fill-opacity="1" fill-rule="nonzero"/><path fill="#6644a8" d="M 262.59375 35.171875 L 253.679688 46.648438 L 260.324219 46.648438 L 269.242188 35.171875 L 260.324219 23.726562 L 253.679688 23.726562 Z M 262.59375 35.171875 " fill-opacity="1" fill-rule="nonzero"/><g clip-path="url(#bd197e4d7b)"><path fill="#6644a8" d="M 241.613281 52.386719 L 254.71875 16.128906 L 250.210938 16.128906 L 237.105469 52.386719 Z M 241.613281 52.386719 " fill-opacity="1" fill-rule="nonzero"/></g><path fill="#000000" d="M 282.503906 357.515625 C 282.191406 357.671875 281.8125 357.765625 281.464844 357.765625 C 281.085938 357.765625 280.742188 357.671875 280.394531 357.515625 C 272.707031 353.667969 266.027344 349.128906 260.230469 343.988281 L 135.25 343.988281 C 131.566406 343.988281 128.574219 340.867188 128.574219 337.050781 L 128.574219 298.550781 C 128.574219 294.734375 131.566406 291.582031 135.25 291.582031 L 142.496094 291.582031 L 142.496094 282.785156 L 135.25 282.785156 C 131.566406 282.785156 128.574219 279.664062 128.574219 275.847656 L 128.574219 237.347656 C 128.574219 233.535156 131.566406 230.414062 135.25 230.414062 L 142.496094 230.414062 L 142.496094 221.585938 L 135.21875 221.585938 C 131.535156 221.585938 128.542969 218.492188 128.542969 214.648438 L 128.542969 176.148438 C 128.542969 172.332031 131.535156 169.210938 135.21875 169.210938 L 284.144531 169.210938 C 287.828125 169.210938 290.820312 172.332031 290.820312 176.148438 L 290.820312 214.648438 C 290.820312 218.492188 287.828125 221.585938 284.144531 221.585938 L 276.867188 221.585938 L 276.867188 230.414062 L 284.144531 230.414062 C 287.796875 230.414062 290.789062 233.535156 290.789062 237.347656 L 290.789062 252.988281 C 301.4375 257.625 313.03125 260.589844 325.351562 261.753906 C 326.484375 261.847656 327.367188 262.699219 327.492188 263.835938 C 331.054688 295.242188 329.164062 334.308594 282.503906 357.515625 Z M 282.503906 357.515625 " fill-opacity="0.1" fill-rule="nonzero"/><path fill="#aa96f3" d="M 229.136719 257.53125 C 229.261719 256.425781 230.144531 255.574219 231.246094 255.449219 C 246.839844 253.964844 261.238281 249.679688 274.03125 242.710938 C 274.722656 242.332031 275.574219 242.332031 276.296875 242.710938 C 277.433594 243.339844 278.628906 243.90625 279.796875 244.507812 L 279.796875 231.074219 C 279.796875 229.875 278.914062 228.867188 277.84375 228.867188 L 128.917969 228.867188 C 127.847656 228.867188 126.964844 229.84375 126.964844 231.074219 L 126.964844 269.574219 C 126.964844 270.773438 127.847656 271.78125 128.917969 271.78125 L 228.128906 271.78125 C 228.222656 267.179688 228.539062 262.449219 229.136719 257.53125 Z M 198.039062 241.007812 L 237.328125 241.007812 C 238.617188 241.007812 239.691406 242.078125 239.691406 243.371094 C 239.691406 244.664062 238.617188 245.738281 237.328125 245.738281 L 198.039062 245.738281 C 196.75 245.738281 195.679688 244.664062 195.679688 243.371094 C 195.679688 242.078125 196.71875 241.007812 198.039062 241.007812 Z M 178.289062 260.871094 C 178.289062 262.164062 177.214844 263.238281 175.925781 263.238281 L 139.410156 263.238281 C 138.117188 263.238281 137.046875 262.164062 137.046875 260.871094 L 137.046875 239.746094 C 137.046875 238.453125 138.117188 237.382812 139.410156 237.382812 L 175.925781 237.382812 C 177.214844 237.382812 178.289062 238.453125 178.289062 239.746094 Z M 215.210938 259.578125 L 198.039062 259.578125 C 196.75 259.578125 195.679688 258.507812 195.679688 257.214844 C 195.679688 255.921875 196.75 254.847656 198.039062 254.847656 L 215.210938 254.847656 C 216.503906 254.847656 217.574219 255.921875 217.574219 257.214844 C 217.574219 258.507812 216.535156 259.578125 215.210938 259.578125 Z M 215.210938 259.578125 " fill-opacity="1" fill-rule="nonzero"/><path fill="#ffffff" d="M 140.921875 285.308594 L 228.632812 285.308594 C 228.347656 282.4375 228.191406 279.507812 228.128906 276.511719 L 140.921875 276.511719 Z M 140.921875 285.308594 " fill-opacity="1" fill-rule="nonzero"/><path fill="#ffffff" d="M 141.773438 303.3125 L 173.5625 303.3125 L 173.5625 319.707031 L 141.773438 319.707031 Z M 141.773438 303.3125 " fill-opacity="1" fill-rule="nonzero"/><path fill="#ffffff" d="M 141.773438 242.109375 L 173.5625 242.109375 L 173.5625 258.507812 L 141.773438 258.507812 Z M 141.773438 242.109375 " fill-opacity="1" fill-rule="nonzero"/><path fill="#aa96f3" d="M 279.765625 208.371094 L 279.765625 169.875 C 279.765625 168.644531 278.882812 167.664062 277.808594 167.664062 L 128.917969 167.664062 C 127.847656 167.664062 126.964844 168.675781 126.964844 169.875 L 126.964844 208.371094 C 126.964844 209.601562 127.847656 210.578125 128.917969 210.578125 L 277.84375 210.578125 C 278.914062 210.578125 279.765625 209.570312 279.765625 208.371094 Z M 178.289062 199.605469 C 178.289062 200.898438 177.214844 201.972656 175.925781 201.972656 L 139.410156 201.972656 C 138.117188 201.972656 137.046875 200.898438 137.046875 199.605469 L 137.046875 178.480469 C 137.046875 177.1875 138.117188 176.117188 139.410156 176.117188 L 175.925781 176.117188 C 177.214844 176.117188 178.289062 177.1875 178.289062 178.480469 Z M 271.761719 198.34375 L 198.039062 198.34375 C 196.75 198.34375 195.679688 197.273438 195.679688 195.980469 C 195.679688 194.6875 196.75 193.617188 198.039062 193.617188 L 271.792969 193.617188 C 273.085938 193.617188 274.15625 194.6875 274.15625 195.980469 C 274.15625 197.273438 273.085938 198.34375 271.761719 198.34375 Z M 271.761719 184.503906 L 198.039062 184.503906 C 196.75 184.503906 195.679688 183.429688 195.679688 182.140625 C 195.679688 180.847656 196.75 179.773438 198.039062 179.773438 L 271.792969 179.773438 C 273.085938 179.773438 274.15625 180.847656 274.15625 182.140625 C 274.15625 183.429688 273.085938 184.503906 271.761719 184.503906 Z M 271.761719 184.503906 " fill-opacity="1" fill-rule="nonzero"/><path fill="#ffffff" d="M 140.921875 215.308594 L 265.808594 215.308594 L 265.808594 224.136719 L 140.921875 224.136719 Z M 140.921875 215.308594 " fill-opacity="1" fill-rule="nonzero"/><path fill="#ffffff" d="M 275.195312 284.582031 C 275.195312 284.582031 275.164062 284.582031 275.164062 284.582031 C 272.738281 284.582031 270.46875 285.527344 268.769531 287.230469 C 267.035156 288.933594 266.089844 291.234375 266.089844 293.664062 C 266.089844 296.09375 267.003906 298.394531 268.707031 300.097656 C 270.40625 301.832031 272.707031 302.777344 275.132812 302.808594 C 277.402344 302.808594 279.859375 301.894531 281.558594 300.160156 C 283.292969 298.457031 284.238281 296.15625 284.238281 293.726562 C 284.238281 291.300781 283.324219 288.996094 281.621094 287.292969 C 279.921875 285.558594 277.652344 284.582031 275.195312 284.582031 Z M 275.195312 284.582031 " fill-opacity="1" fill-rule="nonzero"/><path fill="#ffffff" d="M 141.773438 180.847656 L 173.5625 180.847656 L 173.5625 197.242188 L 141.773438 197.242188 Z M 141.773438 180.847656 " fill-opacity="1" fill-rule="nonzero"/><path fill="#ffffff" d="M 281.371094 250.496094 C 281.246094 250.464844 281.148438 250.402344 281.054688 250.339844 C 279.070312 249.425781 277.085938 248.480469 275.164062 247.472656 C 262.625 254.125 248.667969 258.316406 233.609375 259.957031 C 229.167969 300.949219 243.15625 330.050781 275.164062 346.445312 C 317.253906 324.941406 319.773438 289.25 316.6875 259.957031 C 304.085938 258.601562 292.269531 255.386719 281.371094 250.496094 Z M 303.832031 299.65625 L 299.234375 300.285156 C 298.699219 302.207031 297.941406 304.070312 296.964844 305.804688 L 299.832031 309.492188 C 300.558594 310.4375 300.492188 311.761719 299.644531 312.613281 L 294.320312 318.007812 C 293.5 318.855469 292.144531 318.953125 291.199219 318.226562 L 287.484375 315.390625 C 285.75 316.398438 283.890625 317.15625 281.96875 317.722656 L 281.402344 322.355469 C 281.246094 323.523438 280.269531 324.4375 279.070312 324.4375 L 271.507812 324.46875 C 270.3125 324.46875 269.335938 323.585938 269.179688 322.421875 L 268.546875 317.816406 C 266.625 317.28125 264.769531 316.523438 263.035156 315.546875 L 259.347656 318.414062 C 258.402344 319.140625 257.082031 319.078125 256.230469 318.226562 L 250.84375 312.898438 C 249.992188 312.046875 249.898438 310.722656 250.621094 309.777344 L 253.457031 306.054688 C 252.449219 304.320312 251.691406 302.460938 251.125 300.539062 L 246.527344 299.96875 C 245.328125 299.8125 244.445312 298.835938 244.445312 297.636719 L 244.414062 290.070312 C 244.414062 288.871094 245.296875 287.863281 246.464844 287.703125 L 251.0625 287.074219 C 251.597656 285.152344 252.355469 283.289062 253.332031 281.554688 L 250.464844 277.867188 C 249.738281 276.921875 249.804688 275.597656 250.652344 274.746094 L 255.976562 269.355469 C 256.796875 268.503906 258.152344 268.40625 259.097656 269.132812 L 262.8125 271.96875 C 264.546875 270.960938 266.40625 270.203125 268.328125 269.636719 L 268.894531 265.003906 C 269.050781 263.835938 270.027344 262.921875 271.226562 262.921875 L 278.789062 262.890625 C 279.984375 262.890625 280.960938 263.773438 281.117188 264.9375 L 281.75 269.542969 C 283.671875 270.078125 285.527344 270.835938 287.261719 271.8125 L 290.949219 268.945312 C 291.894531 268.21875 293.214844 268.28125 294.066406 269.132812 L 299.453125 274.460938 C 300.304688 275.3125 300.398438 276.636719 299.675781 277.582031 L 296.839844 281.304688 C 297.847656 283.039062 298.605469 284.898438 299.171875 286.789062 L 303.769531 287.359375 C 304.9375 287.515625 305.851562 288.492188 305.851562 289.691406 L 305.882812 297.257812 C 305.914062 298.488281 305.03125 299.496094 303.832031 299.65625 Z M 303.832031 299.65625 " fill-opacity="1" fill-rule="nonzero"/><path fill="#ffcc33" d="M 296.964844 291.332031 C 295.957031 291.203125 295.136719 290.449219 294.949219 289.46875 C 294.414062 286.980469 293.4375 284.644531 292.019531 282.503906 C 291.453125 281.652344 291.484375 280.546875 292.113281 279.757812 L 294.664062 276.417969 L 292.238281 274.019531 L 288.933594 276.605469 C 288.144531 277.238281 287.042969 277.269531 286.191406 276.730469 C 284.015625 275.3125 281.6875 274.367188 279.195312 273.863281 C 278.21875 273.671875 277.464844 272.855469 277.304688 271.84375 L 276.738281 267.683594 L 273.335938 267.714844 L 272.832031 271.875 C 272.707031 272.886719 271.949219 273.671875 270.972656 273.894531 C 268.484375 274.429688 266.152344 275.40625 264.011719 276.828125 C 263.160156 277.394531 262.058594 277.363281 261.269531 276.730469 L 257.929688 274.179688 L 255.535156 276.605469 L 258.121094 279.917969 C 258.75 280.703125 258.78125 281.808594 258.246094 282.660156 C 256.859375 284.804688 255.882812 287.167969 255.378906 289.660156 C 255.191406 290.636719 254.371094 291.394531 253.363281 291.550781 L 249.203125 292.117188 L 249.234375 295.554688 L 253.394531 296.058594 C 254.402344 296.1875 255.222656 296.941406 255.410156 297.921875 C 255.945312 300.410156 256.921875 302.746094 258.339844 304.890625 C 258.90625 305.742188 258.875 306.84375 258.246094 307.632812 L 255.695312 310.972656 L 258.121094 313.371094 L 261.429688 310.785156 C 261.835938 310.46875 262.375 310.28125 262.878906 310.28125 C 263.316406 310.28125 263.757812 310.40625 264.167969 310.660156 C 266.34375 312.078125 268.675781 313.023438 271.164062 313.527344 C 272.140625 313.71875 272.894531 314.539062 273.054688 315.546875 L 273.621094 319.707031 L 277.023438 319.675781 L 277.527344 315.515625 C 277.652344 314.507812 278.410156 313.71875 279.386719 313.496094 C 281.875 312.960938 284.207031 311.984375 286.347656 310.566406 C 287.199219 310.027344 288.300781 310.058594 289.089844 310.660156 L 292.429688 313.214844 L 294.824219 310.785156 L 292.238281 307.472656 C 291.609375 306.6875 291.578125 305.582031 292.113281 304.730469 C 293.53125 302.585938 294.476562 300.222656 294.980469 297.730469 C 295.167969 296.753906 295.988281 295.996094 296.996094 295.871094 L 301.15625 295.304688 L 301.15625 291.898438 Z M 275.164062 307.507812 C 275.132812 307.507812 275.132812 307.507812 275.101562 307.507812 C 271.414062 307.472656 267.949219 306.023438 265.335938 303.40625 C 262.75 300.789062 261.300781 297.289062 261.332031 293.601562 C 261.363281 286 267.570312 279.820312 275.164062 279.820312 C 275.195312 279.820312 275.195312 279.820312 275.226562 279.820312 C 278.914062 279.851562 282.378906 281.304688 284.992188 283.921875 C 287.578125 286.539062 289.027344 290.039062 288.996094 293.726562 C 288.964844 301.359375 282.757812 307.507812 275.164062 307.507812 Z M 275.164062 307.507812 " fill-opacity="1" fill-rule="nonzero"/><path fill="#aa96f3" d="M 138.589844 290.039062 C 138.558594 290.039062 138.558594 290.039062 138.589844 290.039062 C 138.558594 290.039062 138.527344 290.039062 138.527344 290.039062 L 128.917969 290.039062 C 127.847656 290.039062 126.964844 291.046875 126.964844 292.277344 L 126.964844 330.777344 C 126.964844 331.972656 127.847656 332.984375 128.917969 332.984375 L 249.078125 332.984375 C 238.273438 321.472656 231.625 307.160156 229.167969 290.070312 L 138.589844 290.070312 Z M 198.039062 302.207031 L 217.699219 302.207031 C 218.992188 302.207031 220.0625 303.28125 220.0625 304.574219 C 220.0625 305.867188 218.992188 306.9375 217.699219 306.9375 L 198.039062 306.9375 C 196.75 306.9375 195.679688 305.867188 195.679688 304.574219 C 195.679688 303.28125 196.71875 302.207031 198.039062 302.207031 Z M 178.289062 322.074219 C 178.289062 323.367188 177.214844 324.4375 175.925781 324.4375 L 139.410156 324.4375 C 138.117188 324.4375 137.046875 323.367188 137.046875 322.074219 L 137.046875 300.949219 C 137.046875 299.65625 138.117188 298.582031 139.410156 298.582031 L 175.925781 298.582031 C 177.214844 298.582031 178.289062 299.65625 178.289062 300.949219 Z M 226.804688 320.78125 L 198.039062 320.78125 C 196.75 320.78125 195.679688 319.707031 195.679688 318.414062 C 195.679688 317.125 196.75 316.050781 198.039062 316.050781 L 226.804688 316.050781 C 228.097656 316.050781 229.167969 317.125 229.167969 318.414062 C 229.167969 319.707031 228.097656 320.78125 226.804688 320.78125 Z M 226.804688 320.78125 " fill-opacity="1" fill-rule="nonzero"/><path fill="#6644a8" d="M 319.050781 255.449219 C 306.699219 254.28125 295.136719 251.316406 284.488281 246.683594 L 284.488281 231.042969 C 284.488281 227.226562 281.496094 224.105469 277.808594 224.105469 L 270.53125 224.105469 L 270.53125 215.277344 L 277.808594 215.277344 C 281.496094 215.277344 284.488281 212.15625 284.488281 208.339844 L 284.488281 169.875 C 284.488281 166.058594 281.496094 162.9375 277.808594 162.9375 L 128.917969 162.9375 C 125.234375 162.9375 122.242188 166.058594 122.242188 169.875 L 122.242188 208.371094 C 122.242188 212.1875 125.234375 215.308594 128.917969 215.308594 L 136.195312 215.308594 L 136.195312 224.136719 L 128.917969 224.136719 C 125.234375 224.136719 122.242188 227.257812 122.242188 231.074219 L 122.242188 269.574219 C 122.242188 273.390625 125.234375 276.511719 128.917969 276.511719 L 136.195312 276.511719 L 136.195312 285.308594 L 128.917969 285.308594 C 125.234375 285.308594 122.242188 288.429688 122.242188 292.277344 L 122.242188 330.777344 C 122.242188 334.589844 125.234375 337.710938 128.917969 337.710938 L 253.929688 337.710938 C 259.695312 342.882812 266.40625 347.425781 274.09375 351.238281 C 274.441406 351.398438 274.785156 351.492188 275.132812 351.492188 C 275.480469 351.492188 275.855469 351.398438 276.171875 351.238281 C 322.832031 328.03125 324.722656 288.964844 321.160156 257.5625 C 321.035156 256.425781 320.152344 255.542969 319.050781 255.449219 Z M 128.917969 210.578125 C 127.847656 210.578125 126.964844 209.570312 126.964844 208.371094 L 126.964844 169.875 C 126.964844 168.644531 127.847656 167.664062 128.917969 167.664062 L 277.84375 167.664062 C 278.914062 167.664062 279.796875 168.675781 279.796875 169.875 L 279.796875 208.371094 C 279.796875 209.601562 278.914062 210.578125 277.84375 210.578125 Z M 265.808594 215.308594 L 265.808594 224.136719 L 140.921875 224.136719 L 140.921875 215.308594 Z M 128.917969 271.75 C 127.847656 271.75 126.964844 270.773438 126.964844 269.542969 L 126.964844 231.042969 C 126.964844 229.84375 127.847656 228.835938 128.917969 228.835938 L 277.808594 228.835938 C 278.882812 228.835938 279.765625 229.8125 279.765625 231.042969 L 279.765625 244.476562 C 278.597656 243.90625 277.433594 243.308594 276.265625 242.679688 C 275.574219 242.300781 274.722656 242.300781 274 242.679688 C 261.207031 249.679688 246.808594 253.964844 231.214844 255.417969 C 230.113281 255.511719 229.230469 256.394531 229.105469 257.496094 C 228.503906 262.417969 228.222656 267.144531 228.128906 271.75 Z M 228.632812 285.308594 L 140.921875 285.308594 L 140.921875 276.511719 L 228.128906 276.511719 C 228.191406 279.507812 228.347656 282.4375 228.632812 285.308594 Z M 128.917969 332.953125 C 127.847656 332.953125 126.964844 331.972656 126.964844 330.746094 L 126.964844 292.277344 C 126.964844 291.046875 127.847656 290.039062 128.917969 290.039062 L 138.527344 290.039062 C 138.527344 290.039062 138.558594 290.039062 138.558594 290.039062 C 138.558594 290.039062 138.589844 290.039062 138.589844 290.039062 L 229.167969 290.039062 C 231.625 307.128906 238.273438 321.441406 249.078125 332.953125 Z M 275.132812 346.445312 C 243.125 330.050781 229.167969 300.949219 233.578125 259.957031 C 248.636719 258.316406 262.59375 254.125 275.132812 247.472656 C 277.054688 248.480469 279.039062 249.425781 281.023438 250.339844 C 281.117188 250.402344 281.246094 250.433594 281.339844 250.496094 C 292.207031 255.417969 304.054688 258.601562 316.65625 259.957031 C 319.742188 289.28125 317.222656 324.941406 275.132812 346.445312 Z M 275.132812 346.445312 " fill-opacity="1" fill-rule="nonzero"/><path fill="#6644a8" d="M 303.769531 287.390625 L 299.171875 286.820312 C 298.636719 284.898438 297.847656 283.070312 296.839844 281.335938 L 299.675781 277.613281 C 300.398438 276.667969 300.304688 275.34375 299.453125 274.492188 L 294.066406 269.164062 C 293.214844 268.34375 291.894531 268.25 290.949219 268.976562 L 287.261719 271.84375 C 285.496094 270.867188 283.671875 270.109375 281.75 269.574219 L 281.117188 264.972656 C 280.960938 263.804688 279.953125 262.921875 278.789062 262.921875 L 271.226562 262.953125 C 270.027344 262.953125 269.050781 263.835938 268.894531 265.035156 L 268.328125 269.667969 C 266.40625 270.203125 264.578125 270.992188 262.8125 272.003906 L 259.097656 269.164062 C 258.152344 268.4375 256.828125 268.535156 255.976562 269.386719 L 250.652344 274.777344 C 249.835938 275.628906 249.738281 276.953125 250.464844 277.898438 L 253.332031 281.585938 C 252.355469 283.351562 251.597656 285.183594 251.0625 287.105469 L 246.464844 287.734375 C 245.296875 287.894531 244.414062 288.902344 244.414062 290.101562 L 244.445312 297.667969 C 244.445312 298.867188 245.328125 299.84375 246.527344 300 L 251.125 300.570312 C 251.660156 302.492188 252.449219 304.320312 253.457031 306.085938 L 250.621094 309.808594 C 249.898438 310.753906 249.992188 312.078125 250.84375 312.929688 L 256.230469 318.257812 C 257.082031 319.109375 258.402344 319.171875 259.347656 318.449219 L 263.035156 315.578125 C 264.800781 316.554688 266.625 317.3125 268.546875 317.847656 L 269.179688 322.453125 C 269.335938 323.617188 270.34375 324.5 271.507812 324.5 L 279.070312 324.46875 C 280.269531 324.46875 281.246094 323.585938 281.402344 322.390625 L 281.96875 317.753906 C 283.890625 317.21875 285.71875 316.429688 287.484375 315.421875 L 291.199219 318.257812 C 292.144531 318.984375 293.46875 318.890625 294.320312 318.039062 L 299.644531 312.644531 C 300.460938 311.792969 300.558594 310.46875 299.832031 309.523438 L 296.964844 305.835938 C 297.941406 304.070312 298.699219 302.242188 299.234375 300.316406 L 303.832031 299.6875 C 305 299.527344 305.882812 298.519531 305.882812 297.320312 L 305.851562 289.753906 C 305.851562 288.554688 304.96875 287.546875 303.769531 287.390625 Z M 296.996094 295.808594 C 295.988281 295.933594 295.199219 296.691406 294.980469 297.667969 C 294.476562 300.160156 293.5 302.523438 292.113281 304.667969 C 291.578125 305.519531 291.609375 306.625 292.238281 307.410156 L 294.824219 310.722656 L 292.429688 313.148438 L 289.089844 310.597656 C 288.300781 309.996094 287.199219 309.964844 286.347656 310.5 C 284.207031 311.921875 281.875 312.929688 279.386719 313.433594 C 278.410156 313.65625 277.652344 314.441406 277.527344 315.453125 L 277.023438 319.613281 L 273.621094 319.644531 L 273.054688 315.484375 C 272.925781 314.472656 272.171875 313.6875 271.164062 313.464844 C 268.675781 312.960938 266.34375 312.015625 264.167969 310.597656 C 263.789062 310.34375 263.320312 310.21875 262.878906 310.21875 C 262.375 310.21875 261.835938 310.375 261.429688 310.722656 L 258.121094 313.308594 L 255.695312 310.910156 L 258.246094 307.570312 C 258.84375 306.78125 258.90625 305.675781 258.339844 304.824219 C 256.921875 302.683594 255.914062 300.347656 255.410156 297.859375 C 255.191406 296.878906 254.402344 296.125 253.394531 295.996094 L 249.234375 295.492188 L 249.203125 292.054688 L 253.363281 291.488281 C 254.371094 291.363281 255.160156 290.605469 255.378906 289.597656 C 255.882812 287.105469 256.828125 284.742188 258.246094 282.597656 C 258.78125 281.746094 258.75 280.640625 258.121094 279.851562 L 255.535156 276.542969 L 257.929688 274.113281 L 261.269531 276.667969 C 262.058594 277.300781 263.160156 277.332031 264.011719 276.761719 C 266.152344 275.34375 268.484375 274.335938 270.972656 273.832031 C 271.949219 273.609375 272.707031 272.820312 272.832031 271.8125 L 273.335938 267.652344 L 276.738281 267.621094 L 277.304688 271.78125 C 277.433594 272.789062 278.1875 273.578125 279.195312 273.800781 C 281.6875 274.304688 284.015625 275.25 286.191406 276.667969 C 287.042969 277.203125 288.144531 277.171875 288.933594 276.542969 L 292.238281 273.957031 L 294.664062 276.351562 L 292.113281 279.695312 C 291.515625 280.484375 291.453125 281.585938 292.019531 282.4375 C 293.4375 284.582031 294.445312 286.917969 294.949219 289.40625 C 295.167969 290.386719 295.957031 291.140625 296.964844 291.269531 L 301.125 291.773438 L 301.125 295.175781 Z M 296.996094 295.808594 " fill-opacity="1" fill-rule="nonzero"/><path fill="#6644a8" d="M 275.226562 279.851562 C 275.195312 279.851562 275.195312 279.851562 275.164062 279.851562 C 267.570312 279.851562 261.363281 286 261.332031 293.632812 C 261.300781 297.320312 262.75 300.820312 265.335938 303.4375 C 267.949219 306.054688 271.382812 307.507812 275.101562 307.539062 C 275.132812 307.539062 275.132812 307.539062 275.164062 307.539062 C 282.757812 307.539062 288.964844 301.390625 288.996094 293.757812 C 289.027344 290.070312 287.578125 286.570312 284.992188 283.953125 C 282.378906 281.304688 278.914062 279.851562 275.226562 279.851562 Z M 281.558594 300.128906 C 279.828125 301.832031 277.402344 302.746094 275.132812 302.777344 C 272.707031 302.777344 270.40625 301.800781 268.707031 300.066406 C 267.003906 298.332031 266.058594 296.058594 266.089844 293.632812 C 266.089844 291.203125 267.066406 288.933594 268.769531 287.199219 C 270.46875 285.496094 272.769531 284.550781 275.164062 284.550781 C 275.164062 284.550781 275.195312 284.550781 275.195312 284.550781 C 277.621094 284.550781 279.921875 285.527344 281.621094 287.261719 C 283.324219 288.996094 284.269531 291.269531 284.238281 293.695312 C 284.238281 296.15625 283.292969 298.425781 281.558594 300.128906 Z M 281.558594 300.128906 " fill-opacity="1" fill-rule="nonzero"/><path fill="#6644a8" d="M 175.925781 176.117188 L 139.410156 176.117188 C 138.117188 176.117188 137.046875 177.1875 137.046875 178.480469 L 137.046875 199.605469 C 137.046875 200.898438 138.117188 201.972656 139.410156 201.972656 L 175.925781 201.972656 C 177.214844 201.972656 178.289062 200.898438 178.289062 199.605469 L 178.289062 178.480469 C 178.289062 177.1875 177.246094 176.117188 175.925781 176.117188 Z M 173.5625 197.242188 L 141.773438 197.242188 L 141.773438 180.847656 L 173.5625 180.847656 Z M 173.5625 197.242188 " fill-opacity="1" fill-rule="nonzero"/><path fill="#6644a8" d="M 271.761719 179.773438 L 198.039062 179.773438 C 196.75 179.773438 195.679688 180.847656 195.679688 182.140625 C 195.679688 183.429688 196.75 184.503906 198.039062 184.503906 L 271.792969 184.503906 C 273.085938 184.503906 274.15625 183.429688 274.15625 182.140625 C 274.15625 180.847656 273.085938 179.773438 271.761719 179.773438 Z M 271.761719 179.773438 " fill-opacity="1" fill-rule="nonzero"/><path fill="#6644a8" d="M 271.761719 193.617188 L 198.039062 193.617188 C 196.75 193.617188 195.679688 194.6875 195.679688 195.980469 C 195.679688 197.273438 196.75 198.34375 198.039062 198.34375 L 271.792969 198.34375 C 273.085938 198.34375 274.15625 197.273438 274.15625 195.980469 C 274.15625 194.6875 273.085938 193.617188 271.761719 193.617188 Z M 271.761719 193.617188 " fill-opacity="1" fill-rule="nonzero"/><path fill="#6644a8" d="M 175.925781 237.382812 L 139.410156 237.382812 C 138.117188 237.382812 137.046875 238.453125 137.046875 239.746094 L 137.046875 260.871094 C 137.046875 262.164062 138.117188 263.238281 139.410156 263.238281 L 175.925781 263.238281 C 177.214844 263.238281 178.289062 262.164062 178.289062 260.871094 L 178.289062 239.746094 C 178.289062 238.421875 177.246094 237.382812 175.925781 237.382812 Z M 173.5625 258.507812 L 141.773438 258.507812 L 141.773438 242.109375 L 173.5625 242.109375 Z M 173.5625 258.507812 " fill-opacity="1" fill-rule="nonzero"/><path fill="#6644a8" d="M 198.039062 245.738281 L 237.328125 245.738281 C 238.617188 245.738281 239.691406 244.664062 239.691406 243.371094 C 239.691406 242.078125 238.617188 241.007812 237.328125 241.007812 L 198.039062 241.007812 C 196.75 241.007812 195.679688 242.078125 195.679688 243.371094 C 195.679688 244.664062 196.71875 245.738281 198.039062 245.738281 Z M 198.039062 245.738281 " fill-opacity="1" fill-rule="nonzero"/><path fill="#6644a8" d="M 215.210938 254.847656 L 198.039062 254.847656 C 196.75 254.847656 195.679688 255.921875 195.679688 257.214844 C 195.679688 258.507812 196.75 259.578125 198.039062 259.578125 L 215.210938 259.578125 C 216.503906 259.578125 217.574219 258.507812 217.574219 257.214844 C 217.574219 255.921875 216.535156 254.847656 215.210938 254.847656 Z M 215.210938 254.847656 " fill-opacity="1" fill-rule="nonzero"/><path fill="#6644a8" d="M 175.925781 298.582031 L 139.410156 298.582031 C 138.117188 298.582031 137.046875 299.65625 137.046875 300.949219 L 137.046875 322.074219 C 137.046875 323.367188 138.117188 324.4375 139.410156 324.4375 L 175.925781 324.4375 C 177.214844 324.4375 178.289062 323.367188 178.289062 322.074219 L 178.289062 300.949219 C 178.289062 299.625 177.246094 298.582031 175.925781 298.582031 Z M 173.5625 319.707031 L 141.773438 319.707031 L 141.773438 303.3125 L 173.5625 303.3125 Z M 173.5625 319.707031 " fill-opacity="1" fill-rule="nonzero"/><path fill="#6644a8" d="M 198.039062 306.9375 L 217.699219 306.9375 C 218.992188 306.9375 220.0625 305.867188 220.0625 304.574219 C 220.0625 303.28125 218.992188 302.207031 217.699219 302.207031 L 198.039062 302.207031 C 196.75 302.207031 195.679688 303.28125 195.679688 304.574219 C 195.679688 305.867188 196.71875 306.9375 198.039062 306.9375 Z M 198.039062 306.9375 " fill-opacity="1" fill-rule="nonzero"/><path fill="#6644a8" d="M 226.804688 316.050781 L 198.039062 316.050781 C 196.75 316.050781 195.679688 317.125 195.679688 318.414062 C 195.679688 319.707031 196.75 320.78125 198.039062 320.78125 L 226.804688 320.78125 C 228.097656 320.78125 229.167969 319.707031 229.167969 318.414062 C 229.167969 317.125 228.097656 316.050781 226.804688 316.050781 Z M 226.804688 316.050781 " fill-opacity="1" fill-rule="nonzero"/><g clip-path="url(#0306542e6a)"><g clip-path="url(#fda43dcc0d)"><path fill="#f3f3f3" d="M 349.640625 218.980469 L 392.445312 218.980469 L 392.445312 261.785156 L 349.640625 261.785156 Z M 349.640625 218.980469 " fill-opacity="1" fill-rule="nonzero"/></g></g><g clip-path="url(#d5cdd31b90)"><path fill="#784dce" d="M 363.480469 250.851562 C 363.277344 250.851562 363.085938 250.816406 362.902344 250.738281 C 362.714844 250.660156 362.550781 250.550781 362.410156 250.410156 C 362.269531 250.269531 362.160156 250.105469 362.082031 249.917969 C 362.003906 249.734375 361.964844 249.542969 361.964844 249.339844 L 361.964844 232.777344 C 361.96875 232.367188 362.046875 231.972656 362.203125 231.589844 C 362.363281 231.210938 362.585938 230.875 362.875 230.585938 C 363.167969 230.296875 363.503906 230.070312 363.882812 229.914062 C 364.261719 229.757812 364.65625 229.675781 365.066406 229.675781 C 365.628906 229.675781 366.15625 229.820312 366.640625 230.105469 C 367.125 230.390625 367.503906 230.78125 367.777344 231.273438 L 376.949219 247.785156 C 376.976562 247.824219 377.011719 247.832031 377.054688 247.816406 C 377.078125 247.800781 377.09375 247.78125 377.09375 247.753906 L 377.09375 231.1875 C 377.09375 230.988281 377.132812 230.796875 377.207031 230.609375 C 377.285156 230.425781 377.394531 230.261719 377.535156 230.121094 C 377.679688 229.976562 377.839844 229.867188 378.027344 229.792969 C 378.210938 229.714844 378.40625 229.675781 378.605469 229.675781 C 378.804688 229.675781 379 229.714844 379.183594 229.792969 C 379.371094 229.867188 379.535156 229.976562 379.675781 230.121094 C 379.816406 230.261719 379.925781 230.425781 380.003906 230.609375 C 380.078125 230.796875 380.117188 230.988281 380.117188 231.1875 L 380.117188 247.753906 C 380.117188 248.097656 380.0625 248.429688 379.953125 248.753906 C 379.839844 249.082031 379.679688 249.378906 379.46875 249.652344 C 379.257812 249.921875 379.011719 250.152344 378.722656 250.34375 C 378.4375 250.53125 378.128906 250.667969 377.792969 250.753906 C 377.460938 250.839844 377.125 250.871094 376.78125 250.84375 C 376.4375 250.820312 376.109375 250.738281 375.792969 250.601562 C 375.480469 250.46875 375.195312 250.285156 374.9375 250.054688 C 374.683594 249.824219 374.472656 249.558594 374.304688 249.257812 L 365.132812 232.742188 L 365.066406 232.703125 C 365.015625 232.703125 364.992188 232.726562 364.992188 232.777344 L 364.992188 249.339844 C 364.992188 249.542969 364.953125 249.734375 364.875 249.917969 C 364.800781 250.105469 364.691406 250.269531 364.550781 250.410156 C 364.40625 250.550781 364.242188 250.660156 364.058594 250.738281 C 363.871094 250.816406 363.679688 250.851562 363.480469 250.851562 Z M 363.480469 250.851562 " fill-opacity="1" fill-rule="nonzero"/></g><g clip-path="url(#96550de48d)"><path fill="#784dce" d="M 381.632812 238.753906 L 360.453125 238.753906 C 360.253906 238.753906 360.0625 238.714844 359.875 238.636719 C 359.691406 238.558594 359.527344 238.449219 359.382812 238.308594 C 359.242188 238.167969 359.132812 238.003906 359.058594 237.820312 C 358.980469 237.632812 358.941406 237.441406 358.941406 237.238281 C 358.941406 237.039062 358.980469 236.847656 359.058594 236.660156 C 359.132812 236.476562 359.242188 236.3125 359.382812 236.171875 C 359.527344 236.027344 359.691406 235.917969 359.875 235.84375 C 360.0625 235.765625 360.253906 235.726562 360.453125 235.726562 L 381.632812 235.726562 C 381.832031 235.726562 382.023438 235.765625 382.210938 235.84375 C 382.394531 235.917969 382.558594 236.027344 382.699219 236.171875 C 382.84375 236.3125 382.953125 236.476562 383.027344 236.660156 C 383.105469 236.847656 383.144531 237.039062 383.144531 237.238281 C 383.144531 237.441406 383.105469 237.632812 383.027344 237.820312 C 382.953125 238.003906 382.84375 238.167969 382.699219 238.308594 C 382.558594 238.449219 382.394531 238.558594 382.210938 238.636719 C 382.023438 238.714844 381.832031 238.753906 381.632812 238.753906 Z M 381.632812 238.753906 " fill-opacity="1" fill-rule="nonzero"/></g><g clip-path="url(#c9af355a6e)"><path fill="#784dce" d="M 381.632812 244.804688 L 360.453125 244.804688 C 360.253906 244.804688 360.0625 244.765625 359.875 244.6875 C 359.691406 244.609375 359.527344 244.5 359.382812 244.359375 C 359.242188 244.21875 359.132812 244.054688 359.058594 243.867188 C 358.980469 243.683594 358.941406 243.492188 358.941406 243.289062 C 358.941406 243.089844 358.980469 242.898438 359.058594 242.710938 C 359.132812 242.527344 359.242188 242.363281 359.382812 242.21875 C 359.527344 242.078125 359.691406 241.96875 359.875 241.894531 C 360.0625 241.816406 360.253906 241.777344 360.453125 241.777344 L 381.632812 241.777344 C 381.832031 241.777344 382.023438 241.816406 382.210938 241.894531 C 382.394531 241.96875 382.558594 242.078125 382.699219 242.21875 C 382.84375 242.363281 382.953125 242.527344 383.027344 242.710938 C 383.105469 242.898438 383.144531 243.089844 383.144531 243.289062 C 383.144531 243.492188 383.105469 243.683594 383.027344 243.867188 C 382.953125 244.054688 382.84375 244.21875 382.699219 244.359375 C 382.558594 244.5 382.394531 244.609375 382.210938 244.6875 C 382.023438 244.765625 381.832031 244.804688 381.632812 244.804688 Z M 381.632812 244.804688 " fill-opacity="1" fill-rule="nonzero"/></g></svg>