<svg id="svg" version="1.1" xmlns="http://www.w3.org/2000/svg" xmlns:xlink="http://www.w3.org/1999/xlink" width="400" height="440.1114206128134" viewBox="0, 0, 400,440.1114206128134"><g id="svgg"><path id="path0" d="M143.780 171.832 C 136.074 176.864,133.661 195.981,139.240 207.800 C 144.883 219.755,154.641 215.449,157.370 199.800 C 160.289 183.059,152.171 166.352,143.780 171.832 M189.800 171.535 C 180.891 176.968,179.018 199.321,186.535 210.510 C 195.009 223.126,206.663 205.196,202.964 185.231 C 200.988 174.563,195.019 168.352,189.800 171.535 M307.298 196.266 C 307.021 196.377,306.897 196.633,307.021 196.834 C 307.145 197.035,307.057 197.200,306.824 197.200 C 306.591 197.200,306.400 197.464,306.400 197.786 C 306.400 198.381,305.552 200.524,304.549 202.462 C 304.247 203.046,304.000 203.879,304.000 204.313 C 304.000 204.747,303.730 205.326,303.400 205.600 C 303.070 205.874,302.800 206.325,302.800 206.603 C 302.800 206.881,302.531 207.624,302.202 208.254 C 301.874 208.884,301.604 209.704,301.602 210.076 C 301.601 210.448,301.420 210.864,301.200 211.000 C 300.980 211.136,300.800 211.652,300.800 212.147 C 300.800 212.642,300.553 213.385,300.251 213.797 C 299.786 214.433,299.786 214.748,300.251 215.861 C 301.070 217.821,300.942 218.263,299.328 219.067 C 298.518 219.470,297.721 220.070,297.556 220.400 C 297.128 221.261,296.702 222.486,296.538 223.331 C 296.460 223.733,296.127 224.331,295.798 224.659 C 295.469 224.988,295.200 225.784,295.200 226.429 C 295.200 227.073,295.023 227.600,294.808 227.600 C 294.592 227.600,294.297 228.095,294.152 228.700 C 294.008 229.305,293.728 230.006,293.531 230.257 C 293.334 230.509,293.098 231.302,293.008 232.021 C 292.917 232.739,292.665 233.436,292.448 233.570 C 292.231 233.704,291.765 234.711,291.412 235.807 C 291.059 236.903,290.531 238.250,290.239 238.800 C 289.300 240.571,289.115 241.992,289.790 242.252 C 290.654 242.583,290.546 244.144,289.601 244.999 C 288.734 245.784,287.151 245.877,285.103 245.264 C 283.447 244.768,274.837 243.178,273.875 243.191 C 272.782 243.205,268.800 241.212,268.800 240.651 C 268.800 240.381,269.025 239.920,269.300 239.626 C 269.711 239.186,269.625 239.134,268.815 239.330 C 268.245 239.469,267.570 239.347,267.215 239.042 C 266.565 238.484,263.925 237.666,261.618 237.308 C 260.858 237.190,259.990 236.847,259.690 236.547 C 259.389 236.246,258.458 236.000,257.620 236.000 C 256.739 236.000,255.883 235.741,255.588 235.385 C 255.307 235.047,254.790 234.819,254.439 234.878 C 254.087 234.938,253.153 234.680,252.363 234.304 C 251.573 233.929,250.358 233.579,249.663 233.526 C 248.968 233.473,248.400 233.327,248.400 233.202 C 248.400 233.077,247.923 232.935,247.340 232.887 C 246.758 232.839,246.035 232.595,245.736 232.347 C 245.436 232.098,244.697 231.828,244.095 231.746 C 242.085 231.476,241.684 231.368,241.140 230.951 C 240.346 230.342,237.777 230.302,237.302 230.891 C 235.622 232.976,237.025 236.563,239.983 237.747 C 241.907 238.516,242.303 239.263,241.672 240.934 C 241.274 241.988,241.340 242.369,242.161 243.776 C 242.683 244.669,243.603 246.300,244.205 247.400 C 246.012 250.703,246.935 252.184,247.379 252.494 C 247.610 252.656,247.637 252.791,247.438 252.794 C 247.239 252.797,247.347 253.115,247.677 253.500 C 248.008 253.885,248.390 254.514,248.526 254.897 C 248.662 255.281,249.621 256.001,250.657 256.497 C 252.863 257.555,253.079 257.950,252.053 259.051 C 251.333 259.824,251.456 260.822,252.366 261.600 C 252.617 261.815,253.520 263.449,255.078 266.508 C 255.612 267.557,256.432 268.772,256.900 269.208 C 257.368 269.643,257.625 270.000,257.470 270.000 C 257.316 270.000,257.642 270.716,258.195 271.592 C 258.748 272.468,259.200 273.276,259.200 273.387 C 259.200 273.499,259.471 273.908,259.803 274.295 C 260.135 274.683,260.414 275.180,260.423 275.400 C 260.432 275.620,260.721 276.230,261.065 276.755 C 261.652 277.652,260.026 279.800,258.760 279.800 C 258.618 279.800,257.894 280.313,257.151 280.939 C 256.408 281.566,255.417 282.260,254.948 282.482 C 254.433 282.725,254.166 283.148,254.272 283.554 C 254.751 285.385,253.824 286.155,249.473 287.540 C 247.158 288.277,244.935 289.183,244.532 289.552 C 244.130 289.922,242.810 290.829,241.600 291.568 C 240.390 292.308,239.130 293.202,238.800 293.556 C 238.470 293.910,237.930 294.255,237.600 294.322 C 237.270 294.389,236.820 294.677,236.600 294.962 C 236.380 295.246,236.020 295.527,235.800 295.586 C 235.256 295.730,231.265 298.441,230.381 299.267 C 229.988 299.633,229.596 299.863,229.511 299.777 C 229.425 299.692,228.803 300.112,228.129 300.711 C 227.455 301.310,226.681 301.851,226.409 301.914 C 226.137 301.977,225.626 302.317,225.273 302.670 C 224.921 303.022,223.770 303.841,222.716 304.490 C 221.662 305.138,220.800 305.833,220.800 306.034 C 220.800 306.235,220.462 306.400,220.049 306.400 C 218.969 306.400,218.365 307.313,218.477 308.776 C 218.604 310.442,218.948 310.665,221.800 310.922 C 224.429 311.159,225.196 311.301,225.800 311.661 C 226.020 311.792,227.534 311.930,229.164 311.966 C 230.795 312.002,232.255 312.110,232.409 312.206 C 232.563 312.301,236.613 312.489,241.407 312.623 C 251.119 312.895,252.189 313.098,251.900 314.609 C 251.732 315.489,251.838 315.595,252.815 315.520 C 253.423 315.474,254.163 315.630,254.460 315.867 C 254.757 316.104,256.250 316.328,257.778 316.365 C 259.306 316.401,260.791 316.626,261.078 316.865 C 261.365 317.103,261.600 317.164,261.600 317.000 C 261.600 316.836,261.825 316.883,262.100 317.104 C 262.375 317.325,263.546 317.524,264.703 317.546 C 265.860 317.568,267.673 317.869,268.733 318.216 L 270.660 318.846 270.540 325.123 C 270.474 328.575,270.402 331.400,270.380 331.400 C 270.072 331.400,269.848 334.223,269.717 339.747 C 269.604 344.500,269.396 346.746,269.015 347.347 C 268.617 347.973,268.461 350.052,268.431 355.166 C 268.401 360.053,268.241 362.310,267.894 362.727 C 267.201 363.562,267.151 370.808,267.834 371.491 C 269.004 372.661,270.519 372.082,273.043 369.500 C 274.386 368.125,275.612 366.967,275.768 366.928 C 276.291 366.793,279.574 363.611,280.245 362.588 C 280.610 362.031,280.993 361.660,281.096 361.763 C 281.199 361.866,281.670 361.547,282.142 361.054 C 282.614 360.560,283.587 359.748,284.305 359.248 C 285.022 358.748,285.507 358.173,285.381 357.969 C 285.256 357.766,285.357 357.600,285.606 357.600 C 286.048 357.600,286.826 356.893,294.159 349.829 C 296.117 347.943,297.808 346.400,297.916 346.400 C 298.025 346.400,298.614 345.876,299.226 345.236 C 299.838 344.596,300.414 344.147,300.506 344.239 C 300.598 344.331,301.873 343.190,303.339 341.703 C 304.805 340.216,306.326 338.730,306.720 338.400 C 308.675 336.759,308.622 336.774,309.516 337.607 C 309.984 338.043,310.478 338.400,310.613 338.400 C 310.749 338.400,312.062 339.632,313.530 341.138 C 314.999 342.644,316.914 344.399,317.787 345.038 C 318.660 345.677,320.849 347.685,322.651 349.500 C 324.453 351.315,326.013 352.800,326.117 352.800 C 326.221 352.800,327.636 354.105,329.263 355.700 C 330.889 357.295,332.825 359.050,333.565 359.600 C 334.306 360.150,336.486 362.130,338.410 364.000 C 347.166 372.510,348.175 373.193,349.491 371.500 C 350.140 370.665,349.833 362.928,349.104 361.763 C 348.954 361.523,348.801 358.373,348.766 354.763 C 348.730 351.153,348.567 348.020,348.403 347.800 C 348.150 347.460,347.507 336.491,347.574 333.670 C 347.586 333.158,347.414 332.400,347.192 331.985 C 346.970 331.570,346.746 328.431,346.694 325.010 C 346.601 318.847,346.754 318.081,348.000 318.472 C 348.110 318.507,348.574 318.335,349.031 318.091 C 349.488 317.846,350.838 317.614,352.031 317.575 C 354.665 317.490,356.056 317.214,355.815 316.824 C 355.716 316.664,355.852 316.522,356.118 316.508 C 356.383 316.494,357.860 316.441,359.400 316.390 C 360.940 316.339,362.380 316.191,362.600 316.060 C 363.048 315.795,363.105 315.786,366.989 315.422 C 368.523 315.277,369.892 314.975,370.031 314.750 C 370.170 314.525,371.525 314.335,373.042 314.328 C 374.559 314.321,376.564 314.058,377.498 313.743 C 378.431 313.428,380.172 313.158,381.366 313.144 C 382.560 313.130,384.010 312.872,384.589 312.572 C 385.168 312.272,386.847 311.997,388.321 311.962 C 389.794 311.926,391.180 311.788,391.400 311.655 C 391.620 311.521,391.890 311.396,392.000 311.376 C 393.595 311.089,395.993 310.739,396.700 310.691 C 397.195 310.657,397.600 310.488,397.600 310.315 C 397.600 310.142,397.825 310.045,398.100 310.100 C 398.771 310.234,398.995 307.717,398.378 306.974 C 398.116 306.658,397.558 306.400,397.138 306.400 C 396.719 306.400,396.271 306.130,396.145 305.800 C 396.018 305.470,395.683 305.200,395.400 305.200 C 395.117 305.200,394.782 304.930,394.655 304.600 C 394.529 304.270,394.149 304.000,393.813 304.000 C 393.476 304.000,393.200 303.842,393.200 303.649 C 393.200 303.455,392.700 303.090,392.090 302.837 C 391.479 302.584,390.354 301.843,389.590 301.190 C 388.825 300.536,388.065 300.001,387.900 300.001 C 387.735 300.000,387.263 299.685,386.851 299.300 C 385.552 298.087,383.522 296.635,383.021 296.562 C 382.756 296.523,382.032 296.021,381.411 295.446 C 380.791 294.871,380.129 294.377,379.942 294.350 C 379.754 294.322,379.465 294.273,379.300 294.241 C 379.135 294.208,378.479 293.691,377.842 293.091 C 377.204 292.491,376.542 292.000,376.370 292.000 C 376.198 292.000,375.819 291.775,375.529 291.499 C 373.665 289.734,371.336 288.661,369.571 288.755 C 367.466 288.866,366.752 288.291,366.892 286.597 C 366.953 285.865,366.730 285.325,366.250 285.039 C 365.846 284.797,364.871 284.098,364.083 283.484 C 363.295 282.871,361.784 281.897,360.725 281.321 C 359.666 280.744,358.800 280.111,358.800 279.913 C 358.800 279.715,358.652 279.644,358.471 279.756 C 358.291 279.868,357.853 279.653,357.499 279.280 C 357.146 278.906,356.570 278.364,356.220 278.076 C 355.606 277.571,356.234 275.592,357.259 274.800 C 357.651 274.498,359.600 270.738,359.600 270.285 C 359.600 270.067,359.880 269.683,360.222 269.433 C 360.565 269.183,360.887 268.686,360.940 268.329 C 360.992 267.973,361.281 267.385,361.581 267.023 C 361.994 266.526,362.014 266.254,361.663 265.903 C 361.408 265.648,361.200 264.928,361.200 264.302 C 361.200 263.113,361.690 262.527,364.924 259.844 C 365.956 258.988,366.800 258.065,366.800 257.793 C 366.800 257.521,367.098 257.051,367.461 256.749 C 367.825 256.447,368.327 255.750,368.577 255.200 C 368.827 254.650,369.474 253.480,370.014 252.600 C 370.555 251.720,370.937 250.930,370.864 250.845 C 370.791 250.759,370.886 250.579,371.075 250.445 C 372.168 249.666,373.018 247.569,373.200 245.200 L 373.400 242.600 374.845 242.243 C 376.056 241.944,376.466 241.539,377.372 239.750 C 377.967 238.575,378.632 237.504,378.849 237.369 C 380.190 236.541,381.606 231.605,380.700 230.919 C 379.566 230.061,374.087 230.754,374.976 231.643 C 375.066 231.733,374.659 231.815,374.070 231.825 C 372.730 231.848,367.199 234.496,366.212 235.587 C 365.807 236.034,365.060 236.400,364.552 236.400 C 364.043 236.400,362.946 236.695,362.114 237.055 C 357.548 239.032,355.924 239.600,354.831 239.600 C 354.242 239.600,353.553 239.807,353.300 240.060 C 353.046 240.314,352.065 240.655,351.120 240.819 C 350.174 240.982,348.410 241.419,347.200 241.790 C 345.990 242.160,344.421 242.557,343.714 242.673 C 343.007 242.789,342.220 243.135,341.965 243.442 C 341.710 243.749,340.930 244.000,340.231 244.000 C 339.532 244.000,338.758 244.202,338.512 244.448 C 338.266 244.694,337.375 245.037,336.532 245.210 C 335.689 245.383,333.753 245.993,332.229 246.567 C 328.747 247.876,326.576 247.280,328.628 245.577 C 329.016 245.255,329.163 244.740,329.012 244.228 C 328.878 243.773,328.690 243.053,328.594 242.629 C 328.497 242.206,328.235 241.675,328.009 241.449 C 327.784 241.224,327.600 240.662,327.600 240.200 C 327.600 239.738,327.448 239.189,327.262 238.980 C 327.076 238.771,326.508 237.430,325.998 236.000 C 325.489 234.570,324.830 233.115,324.535 232.768 C 324.240 232.420,324.109 232.024,324.245 231.889 C 324.380 231.753,324.096 231.003,323.613 230.221 C 323.130 229.439,322.845 228.800,322.980 228.800 C 323.115 228.800,322.783 228.007,322.242 227.038 C 321.701 226.068,321.349 225.184,321.461 225.073 C 321.572 224.961,320.749 224.007,319.632 222.952 C 317.391 220.838,317.342 220.704,318.202 219.054 C 318.944 217.633,318.945 217.402,318.216 216.673 C 317.895 216.352,317.551 215.664,317.453 215.144 C 317.354 214.625,317.047 213.660,316.770 213.000 C 316.494 212.340,316.249 211.710,316.227 211.600 C 316.206 211.490,316.022 211.138,315.819 210.817 C 315.616 210.496,315.404 209.802,315.348 209.273 C 315.291 208.745,314.965 208.003,314.622 207.624 C 314.279 207.245,314.114 206.819,314.256 206.677 C 314.398 206.535,314.324 206.190,314.091 205.910 C 313.858 205.629,313.664 205.310,313.660 205.200 C 313.644 204.815,313.144 203.389,312.608 202.200 C 312.310 201.540,311.744 200.100,311.349 199.000 C 310.322 196.141,309.306 195.456,307.298 196.266 " stroke="none" fill="#dfdfdf" fill-rule="evenodd"></path><path id="path1" d="M149.309 293.417 C 148.919 293.694,148.150 294.794,147.600 295.861 C 147.050 296.927,146.465 297.860,146.300 297.933 C 146.135 298.007,146.000 298.245,146.000 298.464 C 146.000 298.682,145.303 300.062,144.452 301.530 C 143.600 302.999,142.215 305.550,141.372 307.200 C 140.529 308.850,139.722 310.251,139.578 310.314 C 139.433 310.377,139.397 311.500,139.497 312.809 C 139.674 315.131,139.650 315.200,138.539 315.595 C 136.644 316.268,136.328 316.555,135.209 318.617 C 134.617 319.707,133.535 321.680,132.804 323.000 C 132.074 324.320,130.952 326.390,130.311 327.600 C 129.671 328.810,128.978 329.971,128.773 330.180 C 128.568 330.389,128.400 330.786,128.400 331.062 C 128.400 331.338,127.941 332.241,127.379 333.069 C 126.818 333.896,125.836 335.659,125.197 336.987 C 123.960 339.558,123.676 339.788,118.400 342.510 C 116.750 343.362,114.860 344.389,114.200 344.793 C 112.787 345.659,109.608 347.401,107.525 348.451 C 106.714 348.860,105.937 349.378,105.798 349.604 C 105.659 349.829,105.390 349.917,105.200 349.800 C 105.010 349.683,104.741 349.773,104.600 350.000 C 104.460 350.226,103.773 350.680,103.073 351.008 C 102.373 351.336,100.540 352.300,99.000 353.149 C 97.460 353.999,95.210 355.189,94.000 355.794 C 92.790 356.399,91.485 357.170,91.100 357.509 C 90.715 357.847,90.400 357.978,90.400 357.800 C 90.400 357.622,90.085 357.729,89.700 358.038 C 89.005 358.596,88.493 358.902,85.671 360.450 C 84.862 360.893,83.407 361.693,82.437 362.228 C 81.467 362.763,80.432 363.200,80.137 363.200 C 79.842 363.200,79.600 363.377,79.600 363.592 C 79.600 363.808,79.173 364.092,78.650 364.223 C 76.590 364.740,76.556 367.965,78.600 369.058 C 79.260 369.411,81.060 370.365,82.600 371.179 C 87.698 373.872,91.794 376.105,92.200 376.413 C 92.862 376.915,96.185 378.716,96.400 378.689 C 96.510 378.675,97.393 379.164,98.363 379.776 C 99.332 380.388,100.322 380.924,100.563 380.967 C 100.803 381.010,102.026 381.710,103.281 382.522 C 104.535 383.335,105.772 384.000,106.028 384.000 C 106.285 384.000,107.509 384.613,108.748 385.363 C 109.986 386.113,111.810 387.168,112.800 387.709 C 113.790 388.250,115.770 389.346,117.200 390.144 C 118.630 390.943,120.649 391.976,121.686 392.441 C 123.389 393.205,123.735 393.604,125.235 396.543 C 126.150 398.335,127.182 400.124,127.528 400.519 C 127.875 400.915,128.199 401.516,128.249 401.854 C 128.299 402.193,128.651 402.814,129.032 403.235 C 129.412 403.656,129.596 404.000,129.439 404.000 C 129.143 404.000,130.240 406.156,131.067 407.200 C 131.328 407.530,132.097 408.880,132.774 410.200 C 135.686 415.872,138.522 421.046,139.041 421.631 C 139.348 421.979,139.600 422.542,139.600 422.883 C 139.600 423.223,139.833 423.695,140.117 423.931 C 140.401 424.167,141.166 425.494,141.817 426.880 C 142.468 428.266,143.125 429.494,143.277 429.609 C 143.524 429.796,146.264 434.912,147.916 438.272 C 148.789 440.048,152.047 440.772,152.542 439.300 C 152.671 438.915,152.959 438.330,153.181 438.000 C 154.317 436.313,156.000 433.098,156.000 432.616 C 156.000 432.314,156.142 432.007,156.316 431.933 C 156.728 431.759,158.640 428.515,160.400 425.001 C 161.170 423.464,162.025 421.967,162.300 421.675 C 162.575 421.382,162.800 420.887,162.800 420.574 C 162.800 420.262,163.161 419.591,163.602 419.084 C 164.436 418.124,166.000 415.270,166.000 414.707 C 166.000 414.530,166.487 413.623,167.081 412.692 C 167.676 411.761,168.204 410.748,168.255 410.440 C 168.305 410.132,168.508 409.772,168.705 409.640 C 168.902 409.508,169.340 408.860,169.680 408.200 C 170.019 407.540,170.788 406.100,171.388 405.000 C 171.988 403.900,172.756 402.460,173.096 401.800 C 173.763 400.503,173.970 400.131,175.200 398.000 C 176.484 395.776,176.778 395.245,177.138 394.500 C 177.324 394.115,178.179 393.409,179.038 392.930 C 179.897 392.452,180.783 391.912,181.008 391.730 C 181.232 391.549,182.492 390.846,183.808 390.170 C 189.144 387.425,193.407 385.115,193.598 384.865 C 193.787 384.617,197.094 382.826,200.475 381.141 C 201.286 380.737,202.063 380.222,202.202 379.996 C 202.341 379.771,202.599 379.676,202.774 379.784 C 202.950 379.892,203.411 379.630,203.800 379.200 C 204.189 378.770,204.642 378.503,204.808 378.605 C 204.974 378.707,205.332 378.523,205.604 378.196 C 205.876 377.868,206.349 377.600,206.657 377.600 C 206.964 377.600,207.887 377.177,208.708 376.661 C 210.297 375.661,213.940 373.655,218.742 371.138 C 223.287 368.755,224.001 368.147,223.994 366.673 C 223.986 364.949,223.744 364.670,221.200 363.449 C 219.990 362.868,217.740 361.670,216.200 360.787 C 214.660 359.904,213.012 359.017,212.539 358.815 C 212.065 358.614,211.560 358.258,211.415 358.025 C 211.271 357.791,210.881 357.600,210.550 357.600 C 210.218 357.600,209.337 357.135,208.593 356.567 C 207.848 356.000,206.979 355.497,206.660 355.450 C 206.341 355.403,205.838 355.178,205.540 354.950 C 205.000 354.535,203.169 353.554,199.400 351.660 C 198.300 351.107,196.860 350.278,196.200 349.818 C 195.540 349.358,193.740 348.355,192.200 347.590 C 190.660 346.826,189.310 346.096,189.200 345.968 C 189.090 345.840,188.100 345.306,187.000 344.782 C 185.900 344.257,184.495 343.487,183.878 343.071 C 183.261 342.655,181.681 341.777,180.368 341.121 C 178.096 339.985,176.000 337.772,176.000 336.507 C 176.000 336.228,175.834 336.000,175.632 336.000 C 175.429 336.000,175.148 335.472,175.006 334.828 C 174.864 334.183,174.490 333.441,174.174 333.179 C 173.858 332.917,173.600 332.541,173.600 332.343 C 173.600 332.146,173.179 331.313,172.665 330.492 C 172.150 329.671,171.005 327.650,170.119 326.000 C 165.821 317.989,165.656 317.747,163.987 316.994 C 162.276 316.223,161.556 314.806,162.281 313.640 C 162.829 312.759,162.655 311.988,161.493 310.148 C 160.946 309.280,159.912 307.407,159.197 305.985 C 158.482 304.563,157.785 303.310,157.648 303.200 C 157.512 303.090,156.936 302.100,156.368 301.000 C 155.269 298.868,152.351 293.488,152.176 293.269 C 151.865 292.881,149.921 292.981,149.309 293.417 " stroke="none" fill="#dd82c9" fill-rule="evenodd"></path><path id="path2" d="M265.830 2.100 C 265.065 4.594,264.404 8.422,264.127 11.966 C 264.016 13.386,263.675 14.782,263.363 15.094 C 263.020 15.437,262.800 16.489,262.800 17.783 C 262.800 18.952,262.531 20.424,262.202 21.054 C 261.874 21.684,261.601 22.920,261.596 23.800 C 261.592 24.680,261.329 26.120,261.012 27.000 C 260.695 27.880,260.427 29.515,260.418 30.633 C 260.408 31.752,260.265 32.801,260.100 32.966 C 259.723 33.342,258.816 38.572,258.536 41.987 C 258.419 43.409,258.071 44.934,257.762 45.376 C 257.453 45.817,257.200 47.017,257.200 48.043 C 257.200 49.069,256.931 50.424,256.602 51.054 C 256.274 51.684,256.004 53.109,256.002 54.220 C 256.001 55.331,255.823 56.417,255.607 56.633 C 255.217 57.023,254.539 61.226,254.133 65.774 C 254.017 67.080,253.644 68.571,253.306 69.088 L 252.690 70.028 249.645 67.187 C 244.668 62.543,236.621 54.855,232.656 50.956 C 230.618 48.952,227.702 46.228,226.175 44.904 C 224.649 43.579,221.240 40.390,218.600 37.817 C 208.311 27.788,206.505 26.068,203.746 23.675 C 197.955 18.652,196.299 21.794,200.834 29.200 C 201.037 29.530,201.362 30.160,201.557 30.600 C 201.752 31.040,202.390 32.480,202.976 33.800 C 203.561 35.120,204.919 38.000,205.993 40.200 C 210.213 48.839,213.518 55.842,213.779 56.700 C 213.930 57.195,214.222 57.600,214.427 57.600 C 214.632 57.600,214.800 57.845,214.800 58.145 C 214.800 58.445,216.029 61.280,217.532 64.445 C 219.034 67.610,220.697 71.145,221.226 72.300 C 221.756 73.455,222.326 74.400,222.494 74.400 C 222.662 74.400,222.800 74.618,222.800 74.885 C 222.800 75.339,225.621 81.482,226.435 82.800 C 226.638 83.130,226.903 83.670,227.023 84.000 C 227.143 84.330,227.502 85.110,227.820 85.732 C 228.852 87.748,228.659 87.946,225.900 87.709 C 224.525 87.590,223.097 87.337,222.726 87.146 C 222.356 86.956,220.466 86.794,218.526 86.787 C 216.061 86.778,214.766 86.598,214.224 86.187 C 213.697 85.789,212.457 85.600,210.372 85.600 C 208.544 85.600,206.716 85.357,205.862 85.000 C 205.000 84.640,203.173 84.400,201.293 84.400 C 199.570 84.400,197.982 84.222,197.765 84.005 C 197.369 83.609,192.353 82.989,185.200 82.452 C 183.110 82.294,181.007 81.949,180.526 81.683 C 180.046 81.417,178.156 81.194,176.326 81.186 C 174.200 81.177,172.639 80.965,172.000 80.600 C 171.381 80.246,169.836 80.023,167.949 80.014 C 166.173 80.006,164.297 79.749,163.462 79.400 C 160.534 78.177,156.333 78.897,156.078 80.667 C 155.931 81.688,157.043 82.540,161.682 84.959 C 167.929 88.217,168.404 88.483,168.626 88.841 C 168.747 89.039,169.119 89.200,169.450 89.200 C 169.782 89.200,170.626 89.624,171.327 90.142 C 172.027 90.660,173.680 91.630,175.000 92.298 C 179.805 94.729,183.791 96.861,184.263 97.252 C 184.741 97.649,189.492 100.199,193.457 102.186 C 194.589 102.754,195.939 103.543,196.457 103.941 C 196.976 104.339,198.660 105.266,200.200 106.003 C 201.740 106.739,203.671 107.760,204.492 108.271 C 205.313 108.782,206.236 109.200,206.543 109.200 C 206.851 109.200,207.326 109.470,207.600 109.800 C 207.874 110.130,208.345 110.400,208.646 110.400 C 208.947 110.400,209.609 110.761,210.116 111.202 C 211.103 112.060,213.935 113.600,214.527 113.600 C 214.723 113.600,215.684 114.140,216.662 114.800 C 217.640 115.460,218.701 116.000,219.020 116.000 C 219.977 116.000,219.674 116.695,218.600 116.964 C 218.050 117.102,217.600 117.392,217.600 117.608 C 217.600 117.823,217.285 118.008,216.900 118.017 C 216.515 118.027,215.480 118.471,214.600 119.005 C 213.720 119.539,212.190 120.364,211.200 120.838 C 210.210 121.313,208.890 122.061,208.266 122.502 C 207.643 122.942,205.483 124.155,203.466 125.198 C 199.795 127.095,198.281 127.910,193.800 130.399 C 192.480 131.132,190.410 132.253,189.200 132.889 C 187.990 133.526,185.830 134.665,184.400 135.421 L 181.800 136.795 170.287 136.797 C 160.963 136.800,158.501 136.914,157.338 137.400 C 156.549 137.730,155.244 138.000,154.440 138.000 C 153.636 138.000,152.623 138.247,152.189 138.548 C 151.755 138.849,150.770 139.193,150.000 139.311 C 148.130 139.598,145.335 140.329,144.486 140.753 C 144.109 140.941,140.996 142.481,137.568 144.174 C 134.140 145.867,130.900 147.655,130.368 148.147 C 129.836 148.639,129.108 149.152,128.751 149.288 C 127.642 149.711,119.053 157.059,118.024 158.466 C 117.487 159.200,116.014 160.970,114.749 162.400 C 111.986 165.525,109.955 168.367,108.748 170.800 C 108.257 171.790,107.733 172.690,107.583 172.800 C 107.205 173.077,103.600 180.608,103.600 181.120 C 103.600 183.503,101.079 184.800,96.445 184.800 C 94.631 184.800,92.757 185.009,92.281 185.264 C 91.804 185.519,89.791 185.867,87.807 186.038 C 80.203 186.691,76.398 187.173,75.639 187.579 C 75.207 187.811,73.935 188.000,72.813 188.000 C 71.692 188.000,70.128 188.270,69.338 188.600 C 68.549 188.930,66.974 189.200,65.840 189.200 C 64.706 189.200,63.418 189.452,62.979 189.760 C 62.539 190.068,61.104 190.401,59.790 190.499 C 57.082 190.702,52.944 191.513,51.905 192.045 C 51.523 192.240,50.623 192.408,49.905 192.418 C 49.187 192.427,47.880 192.695,47.000 193.012 C 46.120 193.329,44.950 193.597,44.400 193.608 C 43.850 193.619,42.950 193.886,42.400 194.200 C 41.850 194.514,40.887 194.778,40.260 194.786 C 39.634 194.794,38.554 195.054,37.860 195.364 C 37.167 195.673,36.150 196.021,35.600 196.136 C 32.940 196.692,30.964 197.282,30.620 197.623 C 30.411 197.830,29.770 198.000,29.196 198.000 C 28.623 198.000,27.804 198.264,27.376 198.587 C 26.949 198.910,26.210 199.180,25.732 199.187 C 25.255 199.194,24.310 199.470,23.632 199.800 C 22.955 200.130,21.845 200.670,21.168 201.000 C 20.490 201.330,19.759 201.600,19.543 201.600 C 18.817 201.600,12.180 204.706,11.422 205.400 C 11.182 205.620,10.105 206.250,9.029 206.800 C 7.952 207.350,5.480 209.307,3.536 211.149 L 0.000 214.498 0.000 221.024 L 0.000 227.550 2.724 230.275 C 4.222 231.774,6.027 233.470,6.734 234.045 L 8.021 235.089 6.710 236.092 C 5.990 236.644,4.185 238.312,2.700 239.799 L -0.000 242.504 -0.000 248.979 L -0.000 255.455 2.900 258.307 C 4.495 259.877,6.312 261.556,6.939 262.040 L 8.078 262.919 6.739 263.949 C 6.002 264.516,4.185 266.163,2.700 267.610 L 0.000 270.241 0.000 276.820 L 0.000 283.398 3.639 286.901 C 5.641 288.828,7.711 290.513,8.239 290.646 C 8.768 290.778,9.200 291.030,9.200 291.204 C 9.200 291.379,9.695 291.717,10.300 291.955 C 10.905 292.193,11.670 292.555,12.000 292.758 C 12.330 292.960,14.220 293.886,16.200 294.815 C 18.180 295.743,20.278 296.749,20.862 297.051 C 21.446 297.353,22.256 297.606,22.662 297.613 C 23.068 297.620,23.749 297.890,24.176 298.213 C 24.604 298.536,25.358 298.800,25.853 298.800 C 26.348 298.800,26.854 298.964,26.978 299.165 C 27.103 299.366,27.922 299.652,28.800 299.800 C 29.678 299.948,30.497 300.234,30.622 300.435 C 30.746 300.636,31.422 300.806,32.124 300.813 C 32.826 300.820,33.749 301.090,34.176 301.413 C 34.604 301.736,35.594 302.006,36.376 302.013 C 37.159 302.020,38.149 302.290,38.576 302.613 C 39.004 302.936,39.747 303.200,40.228 303.200 C 40.709 303.200,41.749 303.470,42.538 303.800 C 43.328 304.130,44.433 304.400,44.993 304.400 C 45.553 304.400,46.323 304.572,46.705 304.782 C 47.553 305.247,51.421 306.001,54.393 306.279 C 55.599 306.392,56.944 306.736,57.382 307.042 C 57.820 307.349,59.083 307.606,60.189 307.614 C 61.295 307.622,62.650 307.886,63.200 308.200 C 63.750 308.514,65.067 308.778,66.126 308.786 C 67.186 308.794,68.419 308.996,68.868 309.236 C 69.316 309.476,70.970 309.825,72.542 310.011 C 74.114 310.197,77.020 310.541,79.000 310.775 C 80.980 311.009,83.122 311.381,83.760 311.600 C 84.398 311.820,86.312 312.000,88.014 312.000 C 89.981 312.000,91.526 312.218,92.254 312.598 C 93.003 312.988,94.577 313.198,96.800 313.204 C 98.732 313.208,100.891 313.461,101.800 313.788 C 102.786 314.144,104.983 314.372,107.526 314.382 C 109.796 314.392,112.002 314.587,112.429 314.815 C 113.148 315.200,120.694 315.767,131.513 316.248 C 137.113 316.497,138.614 315.874,138.869 313.193 L 139.021 311.600 132.505 311.600 C 128.881 311.600,125.681 311.422,125.295 311.199 C 124.913 310.979,121.630 310.611,118.000 310.382 C 114.370 310.153,109.330 309.831,106.800 309.666 C 104.270 309.501,101.693 309.149,101.074 308.883 C 100.455 308.617,98.362 308.400,96.423 308.400 C 94.194 308.400,92.370 308.179,91.462 307.800 C 90.672 307.470,88.838 307.200,87.387 307.200 C 85.935 307.200,84.383 307.005,83.937 306.766 C 83.492 306.528,81.748 306.244,80.064 306.136 C 78.379 306.028,76.640 305.786,76.200 305.599 C 75.760 305.411,74.168 305.174,72.663 305.072 C 71.158 304.970,69.727 304.687,69.483 304.443 C 69.239 304.199,67.861 303.994,66.420 303.987 C 64.753 303.979,63.518 303.761,63.024 303.387 C 62.586 303.057,61.363 302.794,60.224 302.786 C 59.111 302.778,57.750 302.514,57.200 302.200 C 56.650 301.886,55.446 301.622,54.524 301.614 C 53.602 301.606,52.741 301.428,52.611 301.218 C 52.482 301.009,51.297 300.715,49.979 300.566 C 48.661 300.417,47.486 300.138,47.367 299.947 C 47.249 299.756,46.398 299.594,45.476 299.587 C 44.554 299.580,43.451 299.310,43.024 298.987 C 42.596 298.664,41.762 298.400,41.169 298.400 C 40.576 298.400,39.576 298.131,38.946 297.802 C 38.316 297.474,37.401 297.204,36.914 297.202 C 36.426 297.201,35.436 296.949,34.714 296.642 C 33.991 296.335,31.780 295.595,29.800 294.997 C 27.820 294.399,25.660 293.678,25.000 293.394 C 22.192 292.190,20.941 291.660,20.000 291.277 C 17.452 290.240,13.348 288.193,12.871 287.722 C 12.581 287.435,12.127 287.200,11.864 287.200 C 11.601 287.200,10.489 286.488,9.393 285.617 C 8.297 284.746,6.909 283.656,6.310 283.195 C 1.792 279.717,2.521 272.589,7.728 269.328 C 8.648 268.752,9.490 268.171,9.600 268.036 C 9.710 267.902,10.564 267.297,11.498 266.692 L 13.197 265.591 16.698 267.219 C 18.624 268.115,20.513 269.017,20.895 269.224 C 21.277 269.431,22.020 269.600,22.546 269.600 C 23.072 269.600,23.726 269.870,24.000 270.200 C 24.274 270.530,24.971 270.806,25.549 270.813 C 26.127 270.820,26.949 271.090,27.376 271.413 C 27.804 271.736,28.614 272.006,29.176 272.013 C 29.739 272.020,30.549 272.290,30.976 272.613 C 31.404 272.936,32.248 273.200,32.853 273.200 C 33.458 273.200,34.061 273.375,34.193 273.588 C 34.325 273.802,35.330 274.096,36.425 274.241 C 37.521 274.387,38.515 274.662,38.633 274.853 C 38.751 275.044,39.356 275.200,39.978 275.200 C 40.600 275.200,41.624 275.469,42.254 275.798 C 42.884 276.126,43.873 276.396,44.451 276.398 C 45.029 276.399,46.149 276.670,46.938 277.000 C 47.728 277.330,48.990 277.600,49.741 277.600 C 50.493 277.600,51.624 277.869,52.254 278.198 C 52.884 278.526,54.167 278.796,55.105 278.798 C 56.043 278.799,57.123 278.975,57.505 279.190 C 58.306 279.639,62.394 280.380,65.600 280.658 C 66.810 280.763,68.367 281.108,69.060 281.424 C 69.754 281.741,71.307 282.000,72.512 282.000 C 73.716 282.000,75.349 282.270,76.138 282.600 C 76.928 282.930,78.672 283.200,80.013 283.200 C 81.355 283.200,82.807 283.390,83.240 283.622 C 84.018 284.038,88.804 284.574,96.600 285.120 C 98.800 285.274,100.870 285.580,101.200 285.800 C 101.530 286.020,104.050 286.310,106.800 286.445 C 109.550 286.579,112.520 286.890,113.400 287.135 C 114.280 287.380,117.397 287.585,120.326 287.590 C 123.740 287.597,125.966 287.774,126.526 288.086 C 127.081 288.394,130.536 288.679,136.000 288.867 C 140.730 289.030,147.570 289.360,151.200 289.600 C 160.889 290.241,231.381 289.979,232.060 289.300 C 232.420 288.940,234.421 288.800,239.200 288.800 C 242.852 288.800,246.011 288.648,246.220 288.462 C 246.429 288.277,247.805 287.624,249.278 287.012 C 252.011 285.876,253.878 284.374,253.439 283.664 C 253.305 283.446,253.421 283.177,253.698 283.066 C 253.986 282.949,253.886 282.850,253.460 282.832 C 253.054 282.814,252.154 283.065,251.460 283.390 C 250.533 283.824,248.089 284.030,242.200 284.168 C 209.563 284.936,199.714 285.266,199.105 285.608 C 198.185 286.127,178.615 286.127,177.695 285.608 C 177.085 285.265,166.095 284.899,134.245 284.162 C 127.810 284.013,125.699 283.834,125.056 283.384 C 124.420 282.939,122.841 282.797,118.411 282.786 C 114.128 282.775,112.337 282.621,111.600 282.200 C 110.916 281.809,109.295 281.624,106.474 281.614 C 104.204 281.606,101.977 281.402,101.524 281.160 C 101.072 280.917,98.879 280.633,96.651 280.528 C 94.423 280.422,92.330 280.226,92.000 280.091 C 91.189 279.760,84.148 278.837,80.201 278.544 C 78.441 278.413,76.646 278.057,76.212 277.753 C 75.747 277.428,74.408 277.200,72.957 277.200 C 71.548 277.200,70.000 276.944,69.346 276.602 C 68.716 276.274,67.186 276.004,65.946 276.002 C 64.706 276.001,63.176 275.731,62.546 275.402 C 61.916 275.074,60.556 274.804,59.524 274.802 C 58.492 274.801,57.536 274.620,57.400 274.400 C 57.264 274.180,56.308 273.994,55.276 273.986 C 54.244 273.978,52.950 273.714,52.400 273.400 C 51.850 273.086,50.680 272.816,49.800 272.801 C 48.920 272.787,47.851 272.510,47.424 272.187 C 46.996 271.864,46.040 271.600,45.297 271.600 C 44.555 271.600,43.554 271.388,43.074 271.130 C 42.593 270.871,41.570 270.521,40.800 270.352 C 40.030 270.182,38.320 269.748,37.000 269.386 C 35.680 269.024,34.060 268.629,33.400 268.509 C 32.740 268.389,31.845 268.045,31.411 267.745 C 30.977 267.445,30.323 267.200,29.957 267.200 C 29.591 267.200,28.776 266.931,28.146 266.602 C 27.516 266.274,26.715 266.004,26.367 266.002 C 26.018 266.001,25.600 265.865,25.436 265.700 C 25.273 265.535,23.876 264.950,22.332 264.400 C 20.788 263.850,19.528 263.220,19.532 263.000 C 19.538 262.586,19.659 262.514,22.000 261.526 C 22.770 261.202,24.030 260.654,24.800 260.310 C 25.570 259.966,27.280 259.385,28.600 259.019 C 29.920 258.653,31.313 258.184,31.695 257.977 C 32.077 257.769,32.707 257.599,33.095 257.598 C 33.483 257.596,34.316 257.326,34.946 256.998 C 35.576 256.669,36.566 256.394,37.146 256.386 C 37.726 256.378,38.650 256.114,39.200 255.800 C 39.750 255.486,40.661 255.222,41.224 255.214 C 41.786 255.206,42.596 254.936,43.024 254.613 C 43.451 254.290,44.554 254.020,45.476 254.013 C 46.398 254.006,47.248 253.846,47.365 253.657 C 47.481 253.469,48.584 253.210,49.816 253.083 C 51.048 252.956,52.314 252.637,52.631 252.374 C 53.383 251.750,62.240 251.769,62.996 252.396 C 63.523 252.834,66.687 253.362,72.200 253.931 C 73.740 254.090,75.393 254.441,75.874 254.710 C 76.354 254.980,78.064 255.206,79.674 255.214 C 81.453 255.223,82.992 255.452,83.600 255.800 C 84.246 256.169,85.812 256.377,88.020 256.386 C 90.135 256.395,91.624 256.584,91.922 256.882 C 92.208 257.168,93.981 257.421,96.302 257.506 C 98.446 257.585,100.650 257.820,101.200 258.027 C 101.750 258.235,104.720 258.595,107.800 258.828 C 110.880 259.060,115.029 259.374,117.020 259.525 C 120.874 259.818,121.650 260.145,124.011 262.470 C 124.775 263.222,126.296 264.460,127.391 265.219 C 128.485 265.979,129.741 266.921,130.180 267.313 C 130.620 267.706,131.919 268.471,133.067 269.014 C 134.215 269.557,135.265 270.181,135.400 270.401 C 135.536 270.620,135.997 270.800,136.424 270.800 C 136.851 270.800,137.200 270.935,137.200 271.100 C 137.200 271.367,139.594 272.557,144.114 274.537 C 144.946 274.902,145.936 275.206,146.314 275.213 C 146.691 275.220,147.349 275.490,147.776 275.813 C 148.204 276.136,149.128 276.400,149.831 276.400 C 150.534 276.400,151.624 276.669,152.254 276.998 C 152.884 277.326,153.906 277.596,154.525 277.598 C 155.144 277.599,156.514 277.883,157.570 278.228 C 160.068 279.045,182.028 278.934,182.861 278.100 C 183.135 277.825,184.089 277.594,184.980 277.586 C 185.871 277.578,187.050 277.314,187.600 277.000 C 188.150 276.686,189.112 276.422,189.738 276.414 C 190.364 276.406,191.354 276.153,191.938 275.851 C 192.522 275.549,193.720 275.081,194.600 274.811 C 196.136 274.340,200.752 272.330,202.000 271.589 C 202.330 271.394,203.500 270.764,204.600 270.191 C 208.592 268.111,214.804 263.838,216.000 262.351 C 216.110 262.214,219.620 262.021,223.800 261.922 C 228.523 261.809,231.731 261.563,232.274 261.271 C 232.853 260.959,235.754 260.792,240.874 260.777 C 250.632 260.748,251.368 260.619,251.499 258.922 C 251.579 257.874,251.381 257.516,250.399 256.936 C 249.739 256.546,249.200 256.131,249.201 256.014 C 249.202 255.537,234.039 256.201,233.540 256.700 C 233.188 257.052,231.400 257.200,227.506 257.200 L 221.972 257.200 222.440 256.300 C 222.698 255.805,223.844 254.410,224.987 253.200 C 226.130 251.990,227.538 250.250,228.116 249.334 C 228.694 248.417,229.339 247.561,229.549 247.431 C 229.759 247.302,230.340 246.342,230.840 245.298 C 232.745 241.320,232.703 241.344,236.834 241.772 C 242.126 242.319,242.829 240.727,238.765 237.396 C 238.493 237.173,237.580 237.057,236.736 237.138 C 235.065 237.297,234.635 236.567,235.820 235.583 C 236.161 235.300,236.411 234.693,236.376 234.234 C 236.232 232.366,236.447 231.591,237.393 230.570 C 238.036 229.876,238.477 228.809,238.646 227.540 C 238.789 226.463,239.062 225.485,239.253 225.367 C 239.444 225.249,239.600 224.374,239.600 223.422 C 239.600 222.470,239.869 221.176,240.198 220.546 C 240.554 219.861,240.796 218.312,240.798 216.700 L 240.800 214.000 245.551 214.000 C 248.870 214.000,250.735 214.181,251.738 214.600 C 252.745 215.021,254.614 215.200,257.987 215.200 L 262.800 215.200 262.800 216.171 C 262.800 216.706,263.053 217.396,263.363 217.706 C 263.674 218.016,264.018 219.419,264.130 220.834 C 264.391 224.106,265.111 228.822,265.468 229.600 C 265.619 229.930,265.936 230.920,266.172 231.800 C 266.831 234.262,269.157 234.215,269.781 231.728 C 270.011 230.808,270.335 229.923,270.500 229.761 C 270.665 229.599,270.806 228.372,270.813 227.033 C 270.821 225.531,271.050 224.303,271.413 223.824 C 271.776 223.343,272.003 222.123,272.009 220.624 C 272.022 217.188,272.908 216.056,275.060 216.723 C 276.466 217.160,279.071 217.467,288.800 218.343 C 290.670 218.511,292.707 218.863,293.326 219.125 C 296.798 220.591,300.714 218.480,299.809 215.629 C 299.577 214.897,299.227 214.800,296.822 214.800 C 295.305 214.800,293.461 214.534,292.662 214.200 C 291.800 213.840,289.973 213.600,288.093 213.600 C 286.370 213.600,284.774 213.414,284.547 213.187 C 284.320 212.960,282.259 212.664,279.967 212.530 C 273.954 212.176,273.955 212.176,274.260 209.112 C 274.397 207.730,274.650 206.420,274.821 206.200 C 274.992 205.980,275.261 204.491,275.419 202.891 C 275.576 201.291,275.861 199.886,276.053 199.768 C 276.244 199.649,276.400 198.504,276.400 197.222 C 276.400 195.933,276.667 194.380,276.998 193.746 C 277.326 193.116,277.596 191.925,277.598 191.100 L 277.600 189.600 280.920 189.600 C 282.777 189.600,284.432 189.792,284.675 190.035 C 284.914 190.274,286.885 190.623,289.055 190.811 C 291.225 190.999,294.710 191.445,296.800 191.803 C 298.890 192.161,301.853 192.548,303.384 192.663 C 304.915 192.778,306.530 193.126,306.973 193.436 C 307.460 193.777,308.809 194.005,310.389 194.013 C 312.048 194.021,313.283 194.240,313.776 194.613 C 314.204 194.936,315.194 195.203,315.976 195.206 C 317.526 195.212,317.860 195.486,326.400 203.755 C 335.230 212.305,337.600 213.507,337.600 209.432 C 337.600 208.593,334.188 201.246,333.591 200.800 C 333.444 200.690,333.194 200.074,333.036 199.430 C 332.783 198.395,332.822 198.321,333.382 198.785 C 333.730 199.074,334.686 199.455,335.507 199.633 C 337.628 200.091,340.463 200.853,341.400 201.217 C 343.095 201.876,346.383 202.801,347.075 202.813 C 347.474 202.820,348.149 203.090,348.576 203.413 C 349.004 203.736,349.664 204.000,350.044 204.000 C 350.424 204.000,351.245 204.259,351.868 204.576 C 352.490 204.892,353.720 205.444,354.600 205.803 C 355.480 206.161,356.560 206.602,357.000 206.782 C 359.110 207.647,363.458 209.855,363.929 210.300 C 364.219 210.575,364.644 210.800,364.873 210.800 C 365.102 210.800,366.149 211.520,367.200 212.400 C 368.251 213.280,369.229 214.000,369.372 214.000 C 369.822 214.000,371.043 215.345,371.824 216.700 C 372.236 217.415,372.714 218.000,372.886 218.000 C 373.059 218.000,373.200 218.372,373.200 218.826 C 373.200 219.281,373.373 219.977,373.585 220.373 C 374.366 221.832,371.069 227.613,369.010 228.396 C 368.497 228.591,367.958 228.944,367.812 229.180 C 367.666 229.416,366.585 230.225,365.410 230.976 L 363.273 232.344 360.298 230.872 C 356.877 229.179,355.840 228.754,352.800 227.794 C 351.590 227.412,350.122 226.852,349.538 226.550 C 348.954 226.247,348.054 225.994,347.538 225.987 C 347.022 225.980,346.251 225.710,345.824 225.387 C 345.396 225.064,344.652 224.800,344.169 224.800 C 343.686 224.800,342.776 224.531,342.146 224.202 C 341.516 223.874,340.451 223.604,339.780 223.602 C 339.109 223.601,338.389 223.439,338.180 223.242 C 337.817 222.900,335.659 222.318,332.200 221.628 C 331.320 221.453,330.093 221.105,329.474 220.855 C 328.855 220.605,327.685 220.394,326.874 220.387 C 326.063 220.380,325.051 220.110,324.624 219.787 C 324.176 219.449,322.981 219.200,321.804 219.200 C 320.680 219.200,319.584 219.024,319.369 218.809 C 319.115 218.555,318.986 218.969,319.000 219.994 C 319.024 221.828,320.775 224.000,322.229 224.000 C 322.713 224.000,323.624 224.269,324.254 224.598 C 324.884 224.926,326.120 225.202,327.000 225.210 C 327.880 225.219,328.949 225.490,329.376 225.813 C 329.804 226.136,330.803 226.400,331.596 226.400 C 332.390 226.400,333.211 226.561,333.420 226.758 C 333.800 227.116,336.319 227.782,339.479 228.360 C 340.402 228.529,341.392 228.854,341.679 229.083 C 341.965 229.312,342.740 229.592,343.400 229.704 C 344.622 229.912,346.399 230.507,348.660 231.466 C 349.354 231.760,350.121 232.000,350.366 232.000 C 350.611 232.000,351.123 232.162,351.505 232.359 C 351.887 232.556,353.010 233.025,354.000 233.400 C 357.429 234.698,358.020 235.557,355.800 236.015 C 355.140 236.151,354.240 236.471,353.800 236.725 C 353.360 236.979,351.957 237.525,350.681 237.938 C 348.090 238.777,347.626 239.334,349.355 239.532 C 350.247 239.634,350.458 239.527,350.280 239.065 C 350.090 238.568,350.378 238.501,351.977 238.673 C 353.164 238.801,354.008 238.711,354.175 238.440 C 354.325 238.198,355.060 238.000,355.810 238.000 C 356.560 238.000,357.764 237.748,358.486 237.439 C 359.209 237.131,360.880 236.569,362.200 236.190 C 363.520 235.811,364.870 235.342,365.200 235.148 C 365.530 234.954,366.070 234.695,366.400 234.572 C 366.730 234.449,367.540 234.100,368.200 233.795 C 368.860 233.490,370.090 232.965,370.933 232.627 C 376.272 230.490,379.816 221.348,377.334 216.116 C 376.485 214.327,369.813 207.669,368.553 207.352 C 368.029 207.221,367.600 206.970,367.600 206.796 C 367.600 206.621,367.105 206.283,366.500 206.045 C 365.895 205.807,365.130 205.444,364.800 205.238 C 364.470 205.033,362.580 204.109,360.600 203.185 C 358.620 202.262,356.522 201.257,355.938 200.953 C 355.354 200.649,354.534 200.400,354.115 200.400 C 353.696 200.400,353.004 200.136,352.576 199.813 C 352.149 199.490,351.350 199.214,350.800 199.200 C 350.250 199.186,349.451 198.910,349.024 198.587 C 348.596 198.264,347.842 198.000,347.347 198.000 C 346.852 198.000,346.342 197.830,346.214 197.623 C 346.086 197.416,345.173 197.125,344.186 196.977 C 343.198 196.829,342.292 196.548,342.171 196.354 C 342.051 196.159,341.288 195.994,340.476 195.987 C 339.664 195.980,338.651 195.710,338.224 195.387 C 337.796 195.064,337.101 194.800,336.677 194.800 C 336.254 194.800,335.073 194.533,334.054 194.207 C 333.034 193.881,331.750 193.526,331.200 193.420 C 330.319 193.249,327.600 189.066,327.600 187.883 C 327.600 187.322,323.889 179.797,323.548 179.667 C 323.357 179.593,323.200 179.326,323.200 179.072 C 323.200 178.600,322.438 176.898,319.404 170.600 C 318.451 168.620,316.924 165.380,316.012 163.400 C 315.100 161.420,314.183 159.530,313.974 159.200 C 313.766 158.870,313.493 158.330,313.369 158.000 C 313.244 157.670,312.975 157.130,312.770 156.800 C 312.566 156.470,312.214 155.772,311.990 155.249 C 311.052 153.066,308.713 148.092,307.953 146.665 C 306.933 144.749,306.849 144.801,310.200 145.267 C 311.740 145.481,314.837 145.779,317.082 145.928 C 319.467 146.087,321.370 146.408,321.662 146.700 C 321.980 147.020,323.394 147.205,325.580 147.214 C 327.788 147.223,329.354 147.431,330.000 147.800 C 330.646 148.169,332.212 148.377,334.420 148.386 C 336.301 148.394,338.033 148.593,338.268 148.828 C 338.503 149.063,340.384 149.413,342.448 149.604 C 351.383 150.434,354.497 150.824,355.199 151.200 C 355.611 151.420,357.545 151.600,359.497 151.600 C 361.999 151.600,363.276 151.773,363.824 152.187 C 364.337 152.576,365.589 152.779,367.525 152.787 C 369.134 152.794,371.342 153.092,372.433 153.449 C 375.936 154.594,380.000 153.765,380.000 151.904 C 380.000 151.197,377.959 149.716,374.536 147.940 C 367.598 144.341,365.610 143.262,364.513 142.498 C 363.901 142.072,362.014 141.063,360.320 140.256 C 358.627 139.450,357.131 138.612,356.997 138.395 C 356.863 138.178,356.403 138.000,355.976 138.000 C 355.549 138.000,355.200 137.832,355.200 137.627 C 355.200 137.422,354.795 137.131,354.300 136.981 C 353.805 136.830,352.827 136.278,352.127 135.754 C 351.426 135.229,350.593 134.800,350.276 134.800 C 349.958 134.800,349.474 134.530,349.200 134.200 C 348.926 133.870,348.364 133.600,347.951 133.600 C 347.538 133.600,347.200 133.462,347.200 133.294 C 347.200 133.126,346.255 132.548,345.100 132.008 C 343.945 131.469,342.910 130.917,342.800 130.782 C 342.690 130.648,342.060 130.256,341.400 129.912 C 340.317 129.348,337.197 127.702,332.498 125.217 C 331.562 124.722,330.696 124.156,330.574 123.959 C 330.453 123.761,330.025 123.600,329.625 123.600 C 329.225 123.600,328.674 123.330,328.400 123.000 C 328.126 122.670,327.642 122.400,327.324 122.400 C 327.007 122.400,326.174 121.971,325.473 121.447 C 324.773 120.922,323.030 119.919,321.600 119.218 C 320.170 118.516,318.716 117.685,318.369 117.371 C 318.021 117.057,317.436 116.800,317.069 116.800 C 316.041 116.800,316.276 116.118,317.400 115.836 C 317.950 115.698,318.400 115.408,318.400 115.192 C 318.400 114.977,318.738 114.800,319.151 114.800 C 319.564 114.800,320.126 114.530,320.400 114.200 C 320.674 113.870,321.225 113.600,321.625 113.600 C 322.025 113.600,322.461 113.425,322.593 113.211 C 322.726 112.997,323.501 112.512,324.317 112.134 C 325.133 111.756,326.520 110.995,327.400 110.442 C 328.280 109.890,330.170 108.823,331.600 108.071 C 333.030 107.319,335.550 105.986,337.200 105.109 C 338.850 104.231,340.740 103.232,341.400 102.888 C 342.060 102.544,342.690 102.158,342.800 102.031 C 342.910 101.904,344.350 101.117,346.000 100.282 C 351.704 97.397,355.001 95.554,355.133 95.178 C 355.207 94.970,355.590 94.800,355.984 94.800 C 356.379 94.800,356.926 94.530,357.200 94.200 C 357.474 93.870,358.025 93.600,358.425 93.600 C 358.825 93.600,359.253 93.439,359.374 93.241 C 359.496 93.044,360.272 92.528,361.098 92.095 C 361.924 91.662,363.680 90.716,365.000 89.994 C 366.320 89.271,368.660 88.018,370.200 87.209 C 371.740 86.401,373.720 85.303,374.600 84.770 C 375.480 84.236,376.897 83.445,377.749 83.010 C 381.665 81.015,380.213 78.553,375.336 78.918 C 373.762 79.036,372.108 79.328,371.663 79.566 C 371.217 79.805,369.536 80.008,367.926 80.018 C 366.317 80.027,364.280 80.295,363.400 80.612 C 362.520 80.929,360.597 81.191,359.126 81.194 C 357.655 81.197,355.945 81.408,355.326 81.662 C 354.707 81.916,352.580 82.263,350.600 82.434 C 341.733 83.200,338.655 83.585,338.262 83.978 C 338.030 84.210,336.430 84.400,334.707 84.400 C 332.827 84.400,331.000 84.640,330.138 85.000 C 329.306 85.348,327.419 85.607,325.651 85.618 C 323.973 85.627,321.880 85.895,321.000 86.212 C 320.120 86.529,318.083 86.791,316.474 86.794 C 314.864 86.797,313.244 86.955,312.874 87.146 C 312.503 87.336,311.165 87.593,309.900 87.717 L 307.600 87.942 307.600 86.804 C 307.600 86.179,307.749 85.607,307.931 85.533 C 308.114 85.460,309.122 83.600,310.172 81.400 C 311.222 79.200,312.244 77.130,312.443 76.800 C 312.642 76.470,312.908 75.930,313.034 75.600 C 313.159 75.270,314.513 72.480,316.042 69.400 C 317.570 66.320,318.816 63.616,318.810 63.392 C 318.805 63.167,319.790 61.035,321.000 58.654 C 322.210 56.273,323.200 54.071,323.200 53.762 C 323.200 53.453,323.338 53.200,323.506 53.200 C 323.674 53.200,324.249 52.255,324.784 51.100 C 325.319 49.945,326.981 46.468,328.478 43.373 C 329.975 40.278,331.201 37.578,331.203 37.373 C 331.204 37.168,331.832 35.830,332.598 34.400 C 333.364 32.970,334.102 31.530,334.239 31.200 C 334.376 30.870,335.188 29.183,336.044 27.452 C 337.644 24.216,337.960 22.520,337.120 21.680 C 335.726 20.286,334.303 21.413,319.800 35.394 C 314.960 40.060,310.100 44.647,309.000 45.588 C 307.900 46.528,305.380 48.885,303.400 50.825 C 295.030 59.027,292.761 61.195,288.788 64.788 C 286.485 66.871,284.257 68.891,283.837 69.277 C 282.838 70.193,282.174 69.062,281.873 65.929 C 281.760 64.758,281.462 62.720,281.211 61.400 C 280.959 60.080,280.598 58.100,280.407 57.000 C 280.216 55.900,279.857 54.010,279.608 52.800 C 279.360 51.590,278.998 49.271,278.805 47.647 C 278.612 46.023,278.262 44.502,278.027 44.267 C 277.792 44.032,277.600 43.048,277.600 42.080 C 277.600 41.113,277.341 39.754,277.024 39.060 C 276.708 38.367,276.361 36.810,276.253 35.600 C 275.947 32.172,275.196 27.482,274.811 26.600 C 274.619 26.160,274.368 24.739,274.254 23.443 C 274.140 22.147,273.856 20.896,273.623 20.663 C 273.390 20.430,273.200 19.320,273.200 18.196 C 273.200 17.019,272.951 15.824,272.613 15.376 C 272.251 14.898,272.021 13.670,272.013 12.176 C 272.005 10.683,271.775 9.455,271.413 8.976 C 271.090 8.549,270.820 7.352,270.813 6.316 C 270.772 0.292,267.289 -2.655,265.830 2.100 M268.400 18.250 C 268.400 19.241,268.618 20.446,268.885 20.926 C 269.152 21.407,269.505 22.880,269.668 24.200 C 270.477 30.721,270.835 32.917,271.201 33.601 C 271.420 34.012,271.601 35.124,271.602 36.074 C 271.604 37.023,271.874 38.316,272.202 38.946 C 272.531 39.576,272.800 40.959,272.800 42.020 C 272.800 43.080,273.009 44.455,273.264 45.074 C 273.519 45.693,273.861 47.190,274.024 48.400 C 274.187 49.610,274.619 52.130,274.985 54.000 C 275.350 55.870,275.806 58.604,275.997 60.076 C 276.189 61.548,276.538 63.111,276.773 63.550 C 277.008 63.988,277.206 65.214,277.214 66.274 C 277.222 67.333,277.486 68.650,277.800 69.200 C 278.114 69.750,278.378 71.049,278.386 72.088 C 278.401 74.139,279.638 76.978,280.784 77.591 C 281.751 78.109,282.515 77.527,288.800 71.498 C 291.770 68.648,294.746 65.841,295.414 65.258 C 296.082 64.676,300.582 60.405,305.414 55.766 C 310.246 51.128,315.370 46.282,316.800 44.998 C 318.230 43.714,320.925 41.174,322.790 39.355 C 326.939 35.306,326.916 35.285,324.207 40.640 C 322.993 43.038,321.995 45.270,321.988 45.600 C 321.980 45.930,321.710 46.549,321.387 46.976 C 321.064 47.404,320.800 48.064,320.800 48.443 C 320.800 48.823,320.645 49.193,320.456 49.267 C 320.267 49.340,319.434 50.840,318.606 52.600 C 317.777 54.360,315.682 58.703,313.950 62.250 C 312.217 65.798,310.800 69.068,310.800 69.517 C 310.800 69.966,310.649 70.393,310.465 70.467 C 310.281 70.540,309.000 72.940,307.618 75.800 C 306.236 78.660,304.136 82.942,302.953 85.315 C 299.942 91.351,300.277 94.362,303.833 93.235 C 304.475 93.032,306.654 92.773,308.675 92.660 C 310.696 92.547,312.709 92.263,313.148 92.028 C 313.588 91.792,315.174 91.592,316.674 91.582 C 318.173 91.573,320.120 91.305,321.000 90.988 C 321.880 90.671,323.893 90.409,325.474 90.406 C 327.055 90.403,328.855 90.186,329.474 89.925 C 330.093 89.663,332.130 89.313,334.000 89.146 C 335.870 88.979,339.470 88.556,342.000 88.207 C 344.530 87.858,348.417 87.420,350.638 87.233 C 352.859 87.047,355.067 86.685,355.546 86.429 C 356.036 86.167,357.588 86.015,359.108 86.082 L 361.800 86.200 358.841 87.800 C 357.213 88.680,354.963 89.882,353.841 90.470 C 352.718 91.059,351.616 91.689,351.392 91.870 C 351.168 92.052,349.728 92.828,348.192 93.596 C 346.656 94.364,344.893 95.330,344.273 95.742 C 343.654 96.155,341.494 97.344,339.473 98.386 C 334.035 101.189,330.834 102.905,328.654 104.186 C 326.541 105.428,323.951 106.828,320.200 108.756 C 318.880 109.434,317.080 110.440,316.200 110.992 C 315.320 111.543,314.330 112.099,314.000 112.226 C 313.670 112.354,313.130 112.625,312.800 112.830 C 312.470 113.034,311.840 113.362,311.400 113.557 C 307.501 115.285,307.847 117.500,312.361 119.702 C 313.372 120.196,314.290 120.710,314.400 120.846 C 314.510 120.982,315.590 121.576,316.800 122.167 C 318.010 122.757,319.900 123.763,321.000 124.401 C 322.100 125.040,323.810 125.976,324.800 126.481 C 325.790 126.986,326.690 127.511,326.800 127.647 C 326.910 127.783,327.990 128.370,329.200 128.951 C 330.410 129.532,332.660 130.723,334.200 131.596 C 335.740 132.470,337.935 133.639,339.077 134.193 C 340.219 134.748,341.265 135.381,341.400 135.601 C 341.536 135.820,341.886 136.000,342.178 136.000 C 342.470 136.000,343.787 136.720,345.105 137.600 C 346.423 138.480,347.689 139.200,347.918 139.200 C 348.404 139.200,350.902 140.472,351.208 140.875 C 351.322 141.026,351.863 141.341,352.408 141.574 C 352.954 141.807,353.670 142.159,354.000 142.355 C 354.330 142.551,355.317 143.047,356.194 143.456 C 357.071 143.865,358.053 144.450,358.378 144.756 C 358.703 145.061,359.605 145.601,360.384 145.956 L 361.800 146.600 358.662 146.718 C 356.737 146.790,355.313 146.659,354.977 146.381 C 354.676 146.131,352.668 145.770,350.515 145.579 C 348.362 145.388,344.620 144.945,342.200 144.594 C 339.780 144.244,336.180 143.821,334.200 143.655 C 332.220 143.490,330.093 143.139,329.474 142.877 C 328.855 142.615,327.055 142.397,325.474 142.394 C 323.893 142.391,321.880 142.129,321.000 141.812 C 320.120 141.495,317.951 141.227,316.180 141.218 C 314.409 141.208,312.776 141.016,312.551 140.791 C 312.326 140.566,310.355 140.220,308.171 140.022 C 305.987 139.824,303.733 139.543,303.163 139.397 C 300.476 138.708,300.144 141.463,302.352 146.124 C 303.205 147.926,304.028 149.805,304.179 150.300 C 304.330 150.795,304.622 151.200,304.827 151.200 C 305.032 151.200,305.200 151.412,305.200 151.672 C 305.200 151.931,306.164 154.136,307.342 156.572 C 311.355 164.869,313.506 169.397,314.386 171.400 C 314.869 172.500,315.431 173.670,315.633 174.000 C 315.836 174.330,316.181 175.015,316.399 175.522 C 317.264 177.527,319.002 181.011,319.233 181.200 C 319.367 181.310,319.598 181.895,319.746 182.500 C 319.894 183.105,320.192 183.600,320.408 183.600 C 320.623 183.600,320.805 183.915,320.811 184.300 C 320.818 184.685,321.518 186.440,322.368 188.200 C 323.217 189.960,323.854 191.463,323.783 191.540 C 323.496 191.850,320.348 191.091,319.848 190.591 C 319.553 190.296,318.432 189.296,317.356 188.368 C 316.280 187.440,311.182 182.613,306.026 177.641 C 300.870 172.668,296.100 168.124,295.426 167.542 C 294.752 166.959,291.770 164.152,288.800 161.302 C 282.515 155.273,281.751 154.691,280.784 155.209 C 279.638 155.822,278.401 158.661,278.386 160.712 C 278.378 161.751,278.114 163.050,277.800 163.600 C 277.486 164.150,277.222 165.467,277.214 166.526 C 277.206 167.586,276.989 168.846,276.732 169.326 C 276.475 169.807,276.124 171.370,275.953 172.800 C 275.498 176.593,274.911 179.961,274.364 181.923 L 273.883 183.645 269.242 183.471 C 261.624 183.186,261.270 182.983,260.738 178.600 C 260.578 177.280,260.161 174.580,259.810 172.600 C 259.460 170.620,259.027 167.914,258.848 166.587 C 258.668 165.260,258.314 163.787,258.061 163.313 C 257.807 162.840,257.600 161.618,257.600 160.598 C 257.600 158.686,256.117 155.484,255.040 155.071 C 254.214 154.754,252.696 155.946,247.172 161.255 C 232.663 175.198,233.247 174.758,232.195 172.519 C 231.803 171.683,231.367 170.910,231.228 170.800 C 231.088 170.690,230.353 169.610,229.594 168.400 C 228.835 167.190,227.624 165.420,226.904 164.466 C 226.184 163.512,225.660 162.612,225.740 162.466 C 226.021 161.952,229.506 154.593,229.749 154.000 C 229.884 153.670,230.157 153.130,230.355 152.800 C 231.767 150.449,235.200 142.682,235.200 141.837 C 235.200 140.522,233.780 139.041,232.869 139.407 C 232.501 139.555,230.257 139.837,227.882 140.033 C 225.507 140.230,223.257 140.550,222.882 140.743 C 222.507 140.937,220.654 141.187,218.764 141.299 C 216.874 141.412,214.951 141.705,214.490 141.952 C 214.029 142.198,212.285 142.400,210.613 142.400 C 208.817 142.400,206.987 142.645,206.138 143.000 C 204.314 143.762,201.593 143.769,200.132 143.016 C 197.897 141.863,194.552 140.454,193.387 140.174 C 192.734 140.018,192.018 139.748,191.795 139.575 C 191.572 139.401,190.672 139.197,189.795 139.120 L 188.200 138.981 189.400 138.410 C 190.060 138.096,191.107 137.494,191.727 137.073 C 192.346 136.652,194.506 135.453,196.527 134.408 C 202.226 131.461,206.561 129.143,207.000 128.807 C 207.407 128.496,210.748 126.666,215.800 123.987 C 217.340 123.170,219.230 122.121,220.000 121.654 C 220.770 121.188,221.625 120.715,221.900 120.603 C 225.276 119.230,227.200 117.698,227.200 116.383 C 227.200 115.425,226.829 115.042,224.700 113.801 C 223.325 113.000,221.930 112.184,221.600 111.989 C 221.011 111.640,220.233 111.224,213.000 107.386 C 211.020 106.336,209.310 105.355,209.200 105.207 C 208.935 104.850,206.377 103.600,205.912 103.600 C 205.711 103.600,204.974 103.179,204.273 102.664 C 203.049 101.764,202.144 101.265,197.106 98.708 C 195.845 98.068,194.709 97.376,194.583 97.172 C 194.456 96.967,194.063 96.800,193.708 96.800 C 193.353 96.800,192.750 96.517,192.368 96.171 C 191.721 95.586,188.455 93.821,181.200 90.138 C 179.550 89.301,177.660 88.234,177.000 87.767 C 176.340 87.300,175.440 86.758,175.000 86.561 C 174.427 86.305,175.090 86.170,177.338 86.084 C 179.343 86.008,180.683 86.137,181.050 86.441 C 181.365 86.703,183.283 87.065,185.312 87.245 C 187.340 87.425,191.070 87.858,193.600 88.208 C 196.130 88.559,199.820 88.980,201.800 89.146 C 203.780 89.311,205.907 89.661,206.526 89.923 C 207.145 90.185,208.968 90.400,210.577 90.400 C 212.272 90.400,214.106 90.652,214.938 91.000 C 215.825 91.370,217.650 91.600,219.707 91.600 C 221.540 91.600,223.218 91.778,223.435 91.995 C 223.653 92.213,225.624 92.566,227.815 92.779 C 230.007 92.993,232.267 93.280,232.837 93.418 C 235.045 93.953,235.884 91.381,234.438 88.512 C 234.019 87.681,233.018 85.560,232.214 83.800 C 231.410 82.040,230.592 80.330,230.396 80.000 C 230.010 79.350,228.865 76.969,227.415 73.800 C 226.911 72.700,225.414 69.550,224.087 66.800 C 218.135 54.462,216.476 50.940,216.220 50.100 C 216.069 49.605,215.778 49.200,215.573 49.200 C 215.368 49.200,215.200 48.937,215.200 48.616 C 215.200 48.294,213.920 45.404,212.356 42.193 C 210.792 38.982,209.577 36.289,209.657 36.210 C 209.737 36.130,211.782 37.990,214.201 40.343 C 216.620 42.696,218.979 44.886,219.442 45.210 C 219.904 45.535,225.095 50.480,230.977 56.200 C 236.858 61.920,241.879 66.667,242.135 66.749 C 242.391 66.831,244.770 69.045,247.422 71.670 C 252.551 76.746,254.195 78.053,255.040 77.729 C 256.117 77.316,257.600 74.114,257.600 72.202 C 257.600 71.182,257.807 69.960,258.061 69.487 C 258.314 69.013,258.666 67.540,258.842 66.213 C 259.019 64.886,259.453 62.270,259.807 60.400 C 260.161 58.530,260.580 55.830,260.738 54.400 C 260.896 52.970,261.244 51.407,261.512 50.926 C 261.781 50.446,262.000 49.161,262.000 48.072 C 262.000 46.983,262.269 45.576,262.598 44.946 C 262.926 44.316,263.196 43.023,263.198 42.074 C 263.199 41.124,263.392 39.988,263.627 39.550 C 263.862 39.111,264.222 37.503,264.427 35.976 C 264.632 34.449,264.972 31.912,265.182 30.338 C 265.393 28.763,265.753 27.287,265.982 27.058 C 266.212 26.828,266.406 25.641,266.414 24.420 C 266.422 23.199,266.686 21.750,267.000 21.200 C 267.314 20.650,267.578 19.244,267.586 18.076 C 267.595 16.766,267.753 16.047,268.000 16.200 C 268.220 16.336,268.400 17.258,268.400 18.250 M228.400 145.537 C 228.400 145.942,227.952 147.067,227.405 148.037 C 226.858 149.007,226.297 150.070,226.159 150.400 C 226.021 150.730,225.224 152.440,224.389 154.200 C 223.554 155.960,222.761 157.738,222.628 158.151 C 222.416 158.807,222.118 158.655,220.274 156.951 C 216.670 153.620,213.258 150.693,212.105 149.944 C 208.616 147.676,208.443 147.200,211.103 147.200 C 212.149 147.200,213.634 146.993,214.403 146.739 C 215.171 146.485,217.330 146.131,219.200 145.951 C 222.125 145.669,227.153 145.054,228.100 144.861 C 228.265 144.827,228.400 145.132,228.400 145.537 M254.140 166.990 C 254.505 171.372,255.208 175.768,255.607 176.167 C 255.823 176.383,256.000 177.412,256.000 178.454 C 256.000 179.496,256.176 180.810,256.390 181.374 L 256.780 182.400 253.670 182.400 C 251.960 182.400,250.386 182.226,250.172 182.012 C 249.959 181.799,246.790 181.502,243.129 181.352 C 232.887 180.932,232.623 181.564,249.733 165.510 L 252.600 162.821 253.270 163.701 C 253.646 164.195,254.028 165.637,254.140 166.990 M286.785 166.234 C 289.570 168.678,292.612 171.507,296.357 175.139 C 306.295 184.775,307.943 186.343,309.572 187.711 L 311.344 189.200 310.121 189.200 C 309.448 189.200,308.251 188.930,307.462 188.600 C 306.672 188.270,305.108 188.000,303.987 188.000 C 302.865 188.000,301.593 187.811,301.161 187.579 C 300.415 187.180,297.117 186.757,289.000 186.021 C 287.020 185.842,284.893 185.494,284.274 185.247 C 283.655 185.001,282.170 184.800,280.974 184.800 C 278.604 184.800,278.132 183.996,279.261 181.887 C 279.514 181.413,279.862 179.940,280.033 178.613 C 280.205 177.286,280.513 174.929,280.718 173.376 C 280.923 171.822,281.295 170.169,281.545 169.702 C 281.795 169.235,282.000 167.977,282.000 166.906 C 282.000 165.835,282.225 164.483,282.500 163.900 L 283.000 162.841 284.000 163.755 C 284.550 164.258,285.803 165.373,286.785 166.234 M151.099 171.173 C 153.720 173.071,157.600 179.372,157.600 181.728 C 157.600 182.062,157.888 183.459,158.240 184.833 C 161.561 197.795,155.076 215.600,147.034 215.600 C 137.923 215.600,131.716 193.085,137.163 179.800 C 140.865 170.772,146.085 167.540,151.099 171.173 M196.671 171.027 C 210.394 181.494,204.677 220.704,190.229 215.211 C 187.527 214.184,182.413 206.945,182.396 204.124 C 182.393 203.726,182.123 202.516,181.796 201.436 C 180.099 195.844,181.262 183.126,184.006 177.261 C 187.098 170.653,192.619 167.936,196.671 171.027 M251.674 186.846 C 252.044 187.041,253.508 187.200,254.927 187.200 C 257.860 187.200,257.887 187.230,258.432 191.200 C 258.598 192.410,259.026 194.840,259.383 196.600 C 259.740 198.360,260.206 201.117,260.417 202.727 C 260.628 204.337,260.981 205.991,261.201 206.401 C 261.420 206.812,261.600 207.879,261.600 208.774 L 261.600 210.400 256.246 210.400 C 252.274 210.400,250.596 210.246,249.746 209.802 C 248.959 209.392,247.377 209.204,244.700 209.202 L 240.800 209.200 240.798 202.700 C 240.796 197.716,240.656 195.933,240.198 195.054 C 239.869 194.424,239.600 193.197,239.600 192.328 C 239.600 191.459,239.441 190.444,239.246 190.074 C 239.052 189.703,238.772 188.672,238.625 187.781 L 238.357 186.163 244.679 186.328 C 248.155 186.418,251.303 186.651,251.674 186.846 M264.976 187.813 C 265.523 188.226,266.798 188.400,269.276 188.400 L 272.800 188.400 272.800 190.354 C 272.800 191.429,272.531 192.824,272.202 193.454 C 271.874 194.084,271.604 195.467,271.602 196.526 C 271.601 197.586,271.426 198.778,271.213 199.176 C 270.814 199.920,270.156 203.847,269.674 208.359 C 269.199 212.797,266.798 212.942,266.370 208.559 C 266.243 207.261,266.016 205.930,265.866 205.600 C 265.601 205.020,265.171 202.382,264.407 196.666 C 264.206 195.162,263.877 193.722,263.675 193.466 C 263.473 193.210,263.205 191.695,263.078 190.100 C 262.827 186.954,263.218 186.483,264.976 187.813 M100.817 189.779 C 100.553 190.098,100.178 191.313,99.985 192.479 C 99.791 193.646,99.456 195.500,99.240 196.600 C 99.024 197.700,98.837 201.679,98.824 205.441 L 98.800 212.283 95.780 212.538 C 94.119 212.678,92.421 212.975,92.006 213.197 C 91.592 213.418,89.936 213.608,88.326 213.618 C 86.717 213.627,84.680 213.895,83.800 214.212 C 82.920 214.529,81.069 214.791,79.687 214.794 C 78.305 214.797,76.528 215.070,75.738 215.400 C 74.949 215.730,73.436 216.000,72.377 216.000 C 71.318 216.000,69.946 216.192,69.328 216.427 C 68.226 216.846,65.916 217.242,60.073 218.014 C 58.463 218.227,56.809 218.581,56.399 218.801 C 55.988 219.020,55.056 219.206,54.326 219.214 C 53.597 219.222,52.550 219.486,52.000 219.800 C 51.450 220.114,50.313 220.378,49.474 220.386 C 48.634 220.394,47.554 220.615,47.074 220.877 C 46.593 221.139,45.390 221.486,44.400 221.648 C 41.979 222.042,38.781 222.776,37.800 223.161 C 35.846 223.928,32.827 224.800,32.123 224.800 C 31.699 224.800,31.004 225.064,30.576 225.387 C 30.149 225.710,29.327 225.980,28.749 225.987 C 28.171 225.994,27.474 226.270,27.200 226.600 C 26.926 226.930,26.296 227.200,25.800 227.200 C 24.799 227.200,21.571 228.394,18.668 229.837 C 18.045 230.147,17.339 230.400,17.099 230.400 C 16.859 230.400,16.331 230.700,15.926 231.067 C 14.515 232.344,11.868 231.949,9.705 230.140 C 8.657 229.263,7.487 228.429,7.104 228.287 C 6.287 227.983,3.931 224.395,3.262 222.434 C 2.454 220.066,4.640 215.669,7.534 213.842 C 8.347 213.329,9.256 212.614,9.555 212.254 C 9.854 211.894,10.287 211.600,10.517 211.600 C 10.748 211.600,11.221 211.344,11.569 211.030 C 12.297 210.373,19.976 206.400,20.517 206.400 C 20.919 206.400,23.186 205.463,24.932 204.576 C 25.555 204.259,26.376 204.000,26.756 204.000 C 27.136 204.000,27.796 203.736,28.224 203.413 C 28.651 203.090,29.484 202.820,30.076 202.813 C 30.668 202.806,31.258 202.630,31.386 202.423 C 31.514 202.216,32.424 201.925,33.409 201.778 C 34.394 201.630,35.200 201.350,35.200 201.155 C 35.200 200.960,35.656 200.800,36.213 200.800 C 36.770 200.800,37.872 200.530,38.662 200.200 C 39.451 199.870,40.571 199.594,41.149 199.587 C 41.727 199.580,42.549 199.310,42.976 198.987 C 43.404 198.664,44.398 198.400,45.187 198.400 C 45.976 198.400,46.978 198.150,47.414 197.845 C 47.850 197.540,49.105 197.198,50.203 197.085 C 51.301 196.972,53.550 196.586,55.200 196.227 C 56.850 195.868,59.323 195.407,60.697 195.203 C 62.070 194.999,63.543 194.645,63.970 194.416 C 64.398 194.187,65.524 193.999,66.474 193.998 C 67.423 193.996,68.716 193.726,69.346 193.398 C 69.980 193.067,71.533 192.800,72.827 192.800 C 74.111 192.800,75.576 192.623,76.081 192.406 C 77.076 191.979,81.629 191.354,87.488 190.840 C 89.517 190.663,91.417 190.318,91.710 190.075 C 92.003 189.831,93.944 189.572,96.022 189.499 C 98.100 189.426,100.137 189.329,100.549 189.283 C 101.160 189.215,101.209 189.307,100.817 189.779 M99.006 218.300 C 99.128 218.905,99.402 219.953,99.614 220.628 C 99.826 221.304,100.001 222.384,100.002 223.028 C 100.004 223.673,100.274 224.716,100.602 225.346 C 100.931 225.976,101.200 226.976,101.200 227.569 C 101.200 228.162,101.464 228.996,101.787 229.424 C 102.110 229.851,102.380 230.533,102.387 230.940 C 102.394 231.346,102.651 232.246,102.958 232.940 C 103.264 233.633,103.849 235.054,104.258 236.099 C 104.666 237.143,105.135 237.998,105.300 237.999 C 105.465 237.999,105.600 238.240,105.600 238.533 C 105.600 239.268,101.932 240.013,96.718 240.337 C 94.174 240.496,92.234 240.806,91.938 241.102 C 91.619 241.421,90.213 241.601,88.020 241.602 C 85.769 241.604,84.209 241.809,83.454 242.202 C 82.788 242.550,81.243 242.800,79.760 242.800 C 78.358 242.800,76.444 242.971,75.506 243.180 C 73.212 243.692,69.129 244.373,66.200 244.734 C 64.880 244.896,63.389 245.257,62.886 245.536 C 61.525 246.291,54.189 246.214,52.313 245.425 C 51.495 245.081,50.136 244.800,49.293 244.800 C 48.450 244.800,47.574 244.614,47.346 244.386 C 47.119 244.159,46.048 243.808,44.966 243.607 C 41.319 242.928,39.804 242.542,38.926 242.070 C 38.446 241.812,37.546 241.594,36.926 241.587 C 36.307 241.580,35.451 241.310,35.024 240.987 C 34.596 240.664,33.852 240.400,33.369 240.400 C 32.886 240.400,31.976 240.131,31.346 239.802 C 30.716 239.474,29.806 239.204,29.324 239.202 C 28.842 239.201,28.336 239.020,28.200 238.800 C 28.064 238.580,27.676 238.400,27.337 238.400 C 26.998 238.400,26.064 238.115,25.260 237.767 C 24.457 237.418,23.209 236.878,22.486 236.567 C 21.764 236.255,20.931 236.000,20.635 236.000 C 20.340 236.000,19.900 235.762,19.658 235.470 C 19.125 234.828,19.795 234.000,20.848 234.000 C 21.226 234.000,22.045 233.747,22.668 233.437 C 24.469 232.541,27.848 231.316,29.949 230.796 C 30.691 230.612,31.492 230.268,31.729 230.031 C 31.966 229.794,32.732 229.600,33.431 229.600 C 34.130 229.600,34.911 229.348,35.166 229.041 C 35.422 228.733,36.299 228.390,37.115 228.278 C 39.448 227.958,42.563 227.151,42.980 226.758 C 43.189 226.561,43.999 226.394,44.780 226.386 C 45.561 226.378,46.650 226.114,47.200 225.800 C 47.750 225.486,48.920 225.216,49.800 225.200 C 50.680 225.184,51.850 224.914,52.400 224.600 C 52.950 224.286,54.153 224.022,55.074 224.014 C 55.995 224.006,57.255 223.793,57.874 223.539 C 58.972 223.089,59.921 222.913,65.908 222.043 C 67.507 221.810,69.160 221.436,69.581 221.210 C 70.003 220.985,71.265 220.800,72.387 220.800 C 73.508 220.800,75.072 220.530,75.862 220.200 C 76.651 219.870,78.344 219.600,79.623 219.600 C 80.902 219.600,82.455 219.385,83.074 219.123 C 83.693 218.861,85.820 218.504,87.800 218.331 C 89.780 218.157,92.750 217.861,94.400 217.672 C 96.050 217.484,97.712 217.300,98.092 217.265 C 98.552 217.222,98.859 217.570,99.006 218.300 M15.600 238.865 C 15.930 239.052,16.380 239.277,16.600 239.364 C 16.820 239.452,17.270 239.629,17.600 239.759 C 17.930 239.889,18.470 240.161,18.800 240.364 C 19.914 241.050,22.317 242.000,22.937 242.000 C 23.276 242.000,23.654 242.164,23.778 242.365 C 23.903 242.566,24.722 242.852,25.600 243.000 C 26.478 243.148,27.297 243.434,27.422 243.635 C 27.546 243.836,28.132 244.006,28.724 244.013 C 29.316 244.020,30.149 244.290,30.576 244.613 C 31.004 244.936,31.748 245.200,32.231 245.200 C 32.714 245.200,33.624 245.469,34.254 245.798 C 34.884 246.126,35.874 246.396,36.454 246.398 C 37.034 246.399,38.024 246.669,38.654 246.998 C 39.284 247.326,40.207 247.596,40.705 247.598 C 41.203 247.599,41.923 247.770,42.305 247.978 C 42.687 248.186,43.720 248.484,44.600 248.641 L 46.200 248.926 44.519 249.239 C 43.594 249.411,42.481 249.743,42.045 249.976 C 41.609 250.209,40.746 250.406,40.126 250.414 C 39.507 250.422,38.550 250.686,38.000 251.000 C 37.450 251.314,36.539 251.578,35.976 251.586 C 35.414 251.594,34.604 251.864,34.176 252.187 C 33.749 252.510,32.826 252.780,32.124 252.787 C 31.422 252.794,30.746 252.964,30.622 253.165 C 30.497 253.366,29.677 253.652,28.798 253.800 C 27.919 253.949,27.200 254.234,27.200 254.435 C 27.200 254.636,26.733 254.800,26.162 254.800 C 25.591 254.800,24.646 255.051,24.062 255.357 C 23.478 255.663,22.190 256.221,21.200 256.596 C 20.210 256.971,18.500 257.699,17.400 258.214 C 13.443 260.066,11.862 259.989,9.507 257.825 C 8.686 257.071,7.511 256.156,6.897 255.793 C 5.725 255.101,4.150 252.754,3.294 250.423 C 2.691 248.780,3.120 247.057,4.743 244.600 C 6.135 242.492,6.081 242.541,9.943 239.918 C 13.449 237.537,13.307 237.564,15.600 238.865 M270.510 240.141 C 271.050 240.724,271.741 241.206,272.046 241.213 C 272.351 241.220,272.949 241.490,273.376 241.813 C 273.804 242.136,274.508 242.400,274.941 242.400 C 275.839 242.400,279.850 243.507,280.895 244.043 C 281.277 244.240,282.177 244.403,282.895 244.406 C 283.613 244.409,284.973 244.681,285.918 245.010 C 288.358 245.860,289.264 245.318,289.148 243.077 L 289.061 241.400 287.381 241.536 C 286.376 241.618,285.206 241.417,284.470 241.036 C 283.625 240.599,282.162 240.400,279.794 240.400 C 277.898 240.400,276.025 240.228,275.632 240.017 C 275.238 239.807,273.704 239.510,272.223 239.358 L 269.529 239.082 270.510 240.141 M345.498 239.666 C 344.891 239.887,344.497 240.233,344.621 240.434 C 345.028 241.092,346.596 240.818,347.107 240.000 C 347.685 239.074,347.323 238.999,345.498 239.666 M341.488 240.965 C 340.849 241.451,340.842 241.530,341.421 241.753 C 342.445 242.146,342.744 242.053,343.200 241.200 C 343.720 240.228,342.653 240.082,341.488 240.965 M337.646 242.157 L 336.692 242.686 337.764 242.955 C 338.993 243.264,339.600 243.006,339.600 242.176 C 339.600 241.467,338.904 241.460,337.646 242.157 M374.844 243.094 C 374.066 243.873,373.590 244.762,373.573 245.469 C 373.458 250.369,373.257 251.689,372.498 252.523 C 372.059 253.005,371.486 253.815,371.224 254.321 C 370.963 254.828,370.198 255.578,369.525 255.987 C 364.447 259.075,360.579 266.105,363.863 266.276 C 364.666 266.318,365.430 266.506,365.561 266.695 C 365.693 266.883,366.888 267.866,368.218 268.879 C 371.861 271.654,374.485 275.946,373.577 277.643 C 373.370 278.031,373.200 278.640,373.200 278.997 C 373.200 279.759,370.075 283.807,369.200 284.180 C 366.923 285.148,366.844 285.264,367.510 286.662 C 368.780 289.326,370.987 289.019,374.145 285.739 C 375.596 284.232,376.786 282.707,376.791 282.349 C 376.796 281.991,377.070 281.474,377.400 281.200 C 378.601 280.204,378.224 273.304,376.853 271.178 C 375.801 269.547,372.027 265.616,369.600 263.622 L 368.600 262.801 369.800 261.914 C 377.193 256.454,380.232 248.694,377.042 243.425 L 376.089 241.850 374.844 243.094 M333.600 243.203 C 333.270 243.399,332.164 243.667,331.142 243.798 C 329.547 244.003,329.313 244.147,329.489 244.818 C 329.790 245.971,332.388 245.932,332.692 244.770 C 332.857 244.138,333.126 243.995,333.823 244.170 C 334.980 244.460,336.000 244.080,336.000 243.357 C 336.000 242.737,334.543 242.643,333.600 243.203 M110.398 247.303 C 111.607 249.116,113.364 251.545,114.303 252.700 L 116.009 254.800 114.423 254.800 C 113.551 254.800,112.424 254.618,111.919 254.396 C 110.951 253.970,103.737 253.273,97.000 252.955 C 94.737 252.849,92.453 252.513,91.740 252.183 C 91.016 251.848,89.291 251.600,87.688 251.600 C 86.113 251.600,84.273 251.339,83.462 251.000 C 82.672 250.670,80.886 250.400,79.493 250.400 C 78.100 250.400,76.774 250.214,76.547 249.987 C 76.320 249.760,74.709 249.433,72.967 249.262 L 69.800 248.949 72.600 248.649 C 74.140 248.484,75.760 248.194,76.200 248.005 C 76.640 247.816,78.379 247.572,80.064 247.464 C 81.748 247.356,83.492 247.072,83.937 246.834 C 84.383 246.595,86.064 246.394,87.674 246.386 C 89.453 246.377,90.992 246.148,91.600 245.800 C 92.246 245.431,93.874 245.215,96.200 245.192 C 98.180 245.171,100.430 244.916,101.200 244.625 C 101.970 244.334,103.860 244.075,105.400 244.051 L 108.200 244.006 110.398 247.303 M215.966 312.845 C 205.198 313.015,199.448 313.253,198.892 313.551 C 197.871 314.097,178.355 314.183,177.780 313.643 C 177.571 313.447,174.127 313.160,170.126 313.004 L 162.853 312.722 162.992 314.218 C 163.090 315.273,163.466 315.989,164.266 316.643 L 165.400 317.571 198.200 317.583 C 226.534 317.593,231.156 317.514,232.146 316.998 C 233.043 316.530,235.039 316.391,241.346 316.360 C 249.823 316.318,251.725 316.114,250.753 315.352 C 249.075 314.036,240.582 312.649,235.364 312.838 C 234.025 312.887,232.765 312.850,232.564 312.757 C 232.364 312.664,224.894 312.703,215.966 312.845 " stroke="none" fill="#040404" fill-rule="evenodd"></path><path id="path3" d="M143.750 171.165 C 132.981 177.732,133.177 208.878,144.023 214.412 C 148.819 216.858,153.530 213.480,156.586 205.400 C 162.761 189.078,153.757 165.063,143.750 171.165 M189.400 171.135 C 181.546 175.925,178.724 195.592,184.196 207.400 C 189.469 218.777,197.708 217.693,202.442 205.000 C 208.397 189.031,199.203 165.157,189.400 171.135 M150.190 171.714 C 155.965 174.984,159.372 188.315,157.370 199.800 C 154.641 215.449,144.883 219.755,139.240 207.800 C 131.564 191.538,139.429 165.619,150.190 171.714 M196.168 171.913 C 206.353 178.971,205.850 208.941,195.461 213.970 C 185.627 218.731,178.137 196.919,183.823 180.080 C 186.449 172.305,191.710 168.824,196.168 171.913 M300.432 217.084 C 300.414 217.351,300.018 217.925,299.551 218.360 L 298.702 219.151 299.585 218.920 C 300.546 218.669,300.994 217.922,300.669 217.113 C 300.521 216.743,300.454 216.735,300.432 217.084 M317.990 219.426 C 317.442 220.869,317.456 220.916,318.861 222.225 L 320.121 223.400 319.205 222.127 C 318.523 221.179,318.352 220.540,318.535 219.627 C 318.833 218.135,318.524 218.021,317.990 219.426 M365.891 235.200 C 365.331 235.640,364.632 235.999,364.337 235.999 C 364.042 235.998,362.180 236.545,360.200 237.214 C 354.765 239.050,354.229 239.200,353.095 239.200 C 352.519 239.200,351.936 239.380,351.800 239.600 C 351.454 240.160,348.660 240.100,348.080 239.520 C 347.707 239.147,347.600 239.280,347.600 240.120 C 347.600 241.244,345.598 241.768,345.000 240.800 C 344.544 240.062,343.736 240.390,343.768 241.300 C 343.804 242.307,342.245 242.805,341.474 242.034 C 340.706 241.266,339.734 241.531,339.768 242.500 C 339.793 243.212,339.549 243.428,338.601 243.536 C 337.942 243.611,337.287 243.859,337.147 244.086 C 337.006 244.314,336.195 244.523,335.345 244.550 C 334.385 244.581,333.602 244.865,333.277 245.300 C 332.990 245.685,332.235 246.000,331.601 246.000 C 330.966 246.000,330.336 246.180,330.200 246.400 C 329.681 247.240,328.734 246.837,329.031 245.903 C 329.284 245.106,329.242 245.067,328.658 245.552 C 326.578 247.278,328.720 247.886,332.229 246.567 C 333.753 245.993,335.689 245.383,336.532 245.210 C 337.375 245.037,338.266 244.694,338.512 244.448 C 338.758 244.202,339.532 244.000,340.231 244.000 C 340.930 244.000,341.710 243.749,341.965 243.442 C 342.220 243.135,343.007 242.789,343.714 242.673 C 344.421 242.557,345.990 242.160,347.200 241.790 C 348.410 241.419,350.174 240.982,351.120 240.819 C 352.065 240.655,353.046 240.314,353.300 240.060 C 353.553 239.807,354.242 239.600,354.831 239.600 C 355.924 239.600,357.548 239.032,362.114 237.055 C 362.946 236.695,364.040 236.400,364.544 236.400 C 365.048 236.400,365.883 235.950,366.400 235.400 C 367.531 234.197,367.288 234.101,365.891 235.200 M241.048 239.016 C 241.593 239.848,241.629 240.230,241.250 241.116 C 240.820 242.124,240.830 242.145,241.393 241.424 C 242.122 240.491,242.180 239.140,241.520 238.480 C 240.666 237.626,240.363 237.971,241.048 239.016 M269.067 239.867 C 268.138 240.795,271.806 243.200,274.150 243.200 C 274.700 243.200,276.353 243.479,277.822 243.820 C 279.292 244.160,280.567 244.366,280.657 244.276 C 280.836 244.097,275.762 242.805,274.800 242.785 C 274.470 242.778,273.480 242.425,272.600 242.000 C 271.720 241.575,270.775 241.221,270.500 241.214 C 270.045 241.201,269.829 240.682,269.953 239.900 C 270.011 239.528,269.427 239.506,269.067 239.867 M289.100 242.033 C 289.790 242.760,289.726 244.217,288.971 244.971 C 288.626 245.317,288.508 245.600,288.709 245.600 C 290.237 245.600,290.847 242.862,289.500 242.049 C 288.793 241.622,288.707 241.619,289.100 242.033 M374.100 242.412 C 373.346 242.716,373.211 243.051,373.267 244.487 L 373.334 246.200 373.493 244.670 C 373.625 243.400,373.869 243.045,374.926 242.585 C 376.315 241.981,375.564 241.824,374.100 242.412 M282.100 244.676 C 282.485 244.776,283.115 244.776,283.500 244.676 C 283.885 244.575,283.570 244.493,282.800 244.493 C 282.030 244.493,281.715 244.575,282.100 244.676 M251.584 257.381 C 251.860 257.713,251.951 258.355,251.796 258.881 L 251.526 259.800 252.198 258.883 C 252.880 257.951,252.496 256.800,251.502 256.800 C 251.273 256.800,251.308 257.048,251.584 257.381 M362.678 261.754 C 361.020 263.273,360.689 265.101,361.900 266.051 C 362.531 266.546,362.547 266.532,362.064 265.915 C 361.291 264.928,362.123 262.676,363.729 261.411 C 364.428 260.860,364.810 260.407,364.578 260.404 C 364.346 260.402,363.491 261.009,362.678 261.754 M253.793 283.589 C 254.314 284.432,252.705 285.927,250.353 286.785 C 247.085 287.977,247.523 288.146,250.973 287.025 C 253.702 286.138,254.304 285.585,254.372 283.900 C 254.387 283.515,254.209 283.200,253.976 283.200 C 253.743 283.200,253.661 283.375,253.793 283.589 M366.814 287.020 C 366.792 288.300,367.604 288.805,369.580 288.740 L 371.400 288.680 369.665 288.440 C 368.368 288.261,367.790 287.947,367.379 287.200 C 366.880 286.293,366.827 286.276,366.814 287.020 M139.264 313.220 C 139.229 314.001,138.984 314.856,138.720 315.120 C 138.347 315.493,138.349 315.600,138.733 315.600 C 139.414 315.600,139.686 314.719,139.492 313.138 L 139.328 311.800 139.264 313.220 M240.600 312.857 C 248.550 313.368,249.300 313.499,250.474 314.588 C 251.576 315.610,252.000 315.537,252.000 314.323 C 252.000 313.150,250.702 312.926,242.600 312.704 C 235.241 312.503,235.178 312.508,240.600 312.857 M162.034 314.471 C 162.015 315.061,162.283 315.826,162.629 316.171 C 163.416 316.958,163.863 316.999,163.221 316.226 C 162.959 315.910,162.592 315.145,162.407 314.526 L 162.069 313.400 162.034 314.471 " stroke="none" fill="#646464" fill-rule="evenodd"></path><path id="path4" d="M142.960 171.130 C 140.609 172.834,139.050 175.166,137.166 179.800 C 136.440 181.586,135.604 185.767,135.660 187.332 C 135.707 188.655,135.753 188.752,135.881 187.800 C 138.741 166.434,153.129 163.927,157.603 184.014 C 159.252 191.415,158.084 204.590,155.485 207.910 C 155.266 208.190,155.197 208.530,155.333 208.666 C 155.662 208.995,156.958 205.921,157.827 202.752 C 158.853 199.013,159.102 188.197,158.240 184.833 C 157.888 183.459,157.600 182.062,157.600 181.728 C 157.600 180.599,155.278 175.800,153.701 173.673 C 150.879 169.864,146.227 168.763,142.960 171.130 M188.732 171.116 C 186.096 173.062,182.356 179.199,182.421 181.474 C 182.432 181.873,182.714 181.480,183.047 180.600 C 188.860 165.240,199.605 167.247,203.408 184.403 C 204.065 187.364,204.093 198.136,203.454 201.400 C 203.294 202.216,203.398 202.088,203.778 201.000 C 204.730 198.283,204.596 187.148,203.563 183.089 C 200.836 172.369,194.244 167.048,188.732 171.116 M181.680 184.219 C 181.416 185.205,181.231 187.044,181.270 188.306 C 181.332 190.343,181.354 190.398,181.465 188.800 C 181.534 187.810,181.801 186.054,182.059 184.898 C 182.639 182.301,182.337 181.760,181.680 184.219 M135.314 192.600 C 135.317 193.700,135.395 194.103,135.487 193.495 C 135.579 192.886,135.577 191.986,135.482 191.495 C 135.387 191.003,135.311 191.500,135.314 192.600 M181.289 197.200 C 181.274 198.630,181.514 200.520,181.824 201.400 C 182.379 202.981,182.383 202.984,182.146 201.600 C 182.015 200.830,181.775 198.940,181.612 197.400 L 181.317 194.600 181.289 197.200 M135.650 198.049 C 135.382 205.817,141.728 215.600,147.034 215.600 C 149.847 215.600,155.200 211.622,155.200 209.533 C 155.200 209.316,154.615 209.900,153.900 210.831 C 146.931 219.911,138.291 214.008,135.998 198.600 C 135.735 196.835,135.694 196.770,135.650 198.049 M202.854 203.676 C 202.825 204.268,202.620 204.864,202.400 205.000 C 202.180 205.136,202.007 205.552,202.016 205.924 C 202.027 206.376,202.234 206.228,202.641 205.477 C 202.976 204.859,203.173 203.959,203.079 203.477 C 202.936 202.737,202.900 202.768,202.854 203.676 M182.414 203.924 C 182.388 205.587,185.600 211.498,187.462 213.215 C 192.159 217.544,197.911 215.793,201.181 209.039 C 202.449 206.419,202.139 206.336,200.695 208.908 C 195.190 218.720,187.494 217.005,183.152 205.000 C 182.690 203.721,182.424 203.333,182.414 203.924 M299.674 217.398 C 299.423 217.949,299.381 218.400,299.582 218.400 C 299.975 218.400,300.584 216.851,300.301 216.568 C 300.207 216.474,299.925 216.847,299.674 217.398 M318.667 219.067 C 318.037 219.696,318.490 221.282,319.645 222.494 L 320.891 223.800 319.826 222.446 C 319.008 221.406,318.819 220.825,319.012 219.946 C 319.263 218.802,319.170 218.564,318.667 219.067 M365.600 235.000 C 365.326 235.330,364.809 235.599,364.451 235.598 C 363.730 235.596,360.524 236.590,358.486 237.447 C 357.764 237.751,356.560 238.000,355.810 238.000 C 355.060 238.000,354.325 238.198,354.175 238.440 C 354.008 238.711,353.164 238.801,351.977 238.673 C 350.349 238.498,350.087 238.562,350.289 239.088 C 350.481 239.589,350.286 239.674,349.285 239.527 C 348.601 239.427,348.133 239.492,348.245 239.672 C 348.533 240.139,351.504 240.079,351.800 239.600 C 351.936 239.380,352.519 239.200,353.095 239.200 C 354.229 239.200,354.765 239.050,360.200 237.214 C 362.180 236.545,364.042 235.998,364.337 235.999 C 364.632 235.999,365.331 235.640,365.891 235.200 C 366.450 234.760,366.726 234.400,366.503 234.400 C 366.280 234.400,365.874 234.670,365.600 235.000 M240.194 238.301 C 241.359 240.593,241.595 240.937,241.598 240.344 C 241.599 239.984,241.226 239.264,240.770 238.744 C 240.313 238.225,240.054 238.026,240.194 238.301 M269.925 239.808 C 269.545 240.188,269.993 241.200,270.543 241.202 C 270.794 241.204,271.540 241.487,272.200 241.831 C 272.860 242.176,274.210 242.620,275.200 242.819 C 276.190 243.019,277.450 243.278,278.000 243.396 C 278.594 243.524,278.432 243.378,277.600 243.036 C 276.830 242.720,275.739 242.447,275.176 242.430 C 274.614 242.414,273.804 242.136,273.376 241.813 C 272.949 241.490,272.307 241.220,271.949 241.213 C 271.591 241.206,271.049 240.826,270.746 240.369 C 270.443 239.913,270.073 239.660,269.925 239.808 M346.920 240.155 C 346.744 240.461,346.240 240.800,345.800 240.909 C 345.272 241.040,345.442 241.123,346.300 241.154 C 347.349 241.191,347.600 241.045,347.600 240.400 C 347.600 239.463,347.367 239.379,346.920 240.155 M343.038 241.445 C 342.874 241.873,342.503 242.016,341.938 241.868 C 341.353 241.715,341.214 241.774,341.496 242.056 C 342.116 242.676,343.773 242.297,343.925 241.500 C 344.093 240.620,343.372 240.576,343.038 241.445 M339.460 242.589 C 339.273 243.075,338.864 243.156,337.610 242.955 C 336.323 242.749,336.000 242.820,336.000 243.306 C 336.000 244.074,335.009 244.468,333.823 244.170 C 333.126 243.995,332.857 244.138,332.692 244.770 C 332.401 245.884,329.620 245.999,329.566 244.900 C 329.547 244.515,329.373 244.731,329.179 245.380 C 328.751 246.814,328.986 247.126,330.013 246.485 C 330.440 246.218,331.231 246.000,331.772 246.000 C 332.312 246.000,332.990 245.685,333.277 245.300 C 333.606 244.860,334.389 244.580,335.384 244.547 C 336.256 244.518,337.036 244.293,337.118 244.047 C 337.200 243.801,337.797 243.600,338.446 243.600 C 339.515 243.600,340.430 242.697,339.899 242.165 C 339.789 242.055,339.591 242.246,339.460 242.589 M374.221 242.935 C 373.819 243.229,373.560 243.662,373.645 243.898 C 373.730 244.133,374.123 243.893,374.519 243.363 C 375.336 242.268,375.268 242.170,374.221 242.935 M250.934 257.251 C 251.464 257.559,251.606 257.971,251.444 258.739 C 251.232 259.748,251.243 259.757,251.668 258.910 C 252.142 257.962,251.573 256.787,250.651 256.812 C 250.403 256.819,250.530 257.016,250.934 257.251 M363.067 261.926 C 362.033 263.068,361.412 265.172,361.950 265.710 C 362.283 266.043,362.400 265.790,362.400 264.734 C 362.400 263.897,362.742 262.873,363.229 262.254 C 364.171 261.056,364.059 260.829,363.067 261.926 M253.427 283.725 C 253.553 284.053,253.117 284.735,252.391 285.346 C 251.702 285.926,251.341 286.400,251.588 286.400 C 252.680 286.400,254.376 283.879,253.605 283.403 C 253.386 283.268,253.306 283.412,253.427 283.725 M367.227 286.624 C 367.172 287.481,368.257 288.486,369.026 288.290 C 369.741 288.108,369.736 288.089,368.961 288.046 C 368.500 288.021,367.927 287.595,367.688 287.100 C 367.449 286.605,367.242 286.391,367.227 286.624 M138.860 313.251 C 138.819 314.248,138.518 314.909,137.900 315.363 L 137.000 316.023 137.923 315.585 C 139.038 315.056,139.314 314.430,139.090 312.934 C 138.942 311.948,138.912 311.990,138.860 313.251 M162.400 314.026 C 162.400 315.207,163.077 316.313,164.109 316.818 C 164.947 317.228,164.943 317.208,164.045 316.484 C 163.434 315.991,163.075 315.262,163.045 314.458 C 162.996 313.085,162.400 312.686,162.400 314.026 M245.000 313.569 C 247.434 313.877,249.790 314.596,250.700 315.307 C 250.975 315.522,251.194 315.541,251.187 315.349 C 251.149 314.270,248.957 313.457,245.832 313.362 C 242.718 313.269,242.688 313.276,245.000 313.569 " stroke="none" fill="#444444" fill-rule="evenodd"></path></g></svg>