<svg xmlns="http://www.w3.org/2000/svg" xmlns:xlink="http://www.w3.org/1999/xlink" width="601" zoomAndPan="magnify" viewBox="0 0 450.75 386.250002" height="515" preserveAspectRatio="xMidYMid meet" version="1.0"><defs><clipPath id="339a2eb818"><path d="M 189.027344 67.894531 L 264.730469 67.894531 L 264.730469 148.324219 L 189.027344 148.324219 Z M 189.027344 67.894531 " clip-rule="nonzero"/></clipPath><clipPath id="4e1e432938"><path d="M 226.878906 67.894531 C 205.976562 67.894531 189.027344 85.839844 189.027344 107.976562 C 189.027344 130.117188 205.976562 148.0625 226.878906 148.0625 C 247.78125 148.0625 264.730469 130.117188 264.730469 107.976562 C 264.730469 85.839844 247.78125 67.894531 226.878906 67.894531 Z M 226.878906 67.894531 " clip-rule="nonzero"/></clipPath><clipPath id="99391fcaec"><path d="M 74.6875 16.394531 L 375.601562 16.394531 L 375.601562 368.960938 L 74.6875 368.960938 Z M 74.6875 16.394531 " clip-rule="nonzero"/></clipPath></defs><g clip-path="url(#339a2eb818)"><g clip-path="url(#4e1e432938)"><path fill="#ffffff" d="M 189.027344 67.894531 L 264.730469 67.894531 L 264.730469 148.027344 L 189.027344 148.027344 Z M 189.027344 67.894531 " fill-opacity="1" fill-rule="nonzero"/></g></g><g clip-path="url(#99391fcaec)"><path fill="#ffffff" d="M 98.84375 316.175781 L 178.523438 316.175781 L 165.605469 340.804688 L 150.335938 340.804688 C 149.4375 340.851562 148.550781 340.980469 147.675781 341.195312 C 146.804688 341.410156 145.957031 341.707031 145.140625 342.082031 C 144.320312 342.457031 143.546875 342.90625 142.816406 343.429688 C 142.082031 343.953125 141.40625 344.542969 140.789062 345.195312 C 140.167969 345.847656 139.613281 346.550781 139.128906 347.308594 C 138.644531 348.066406 138.234375 348.863281 137.902344 349.699219 C 137.566406 350.535156 137.316406 351.394531 137.144531 352.277344 C 136.976562 353.160156 136.890625 354.054688 136.890625 354.953125 C 136.890625 355.851562 136.976562 356.746094 137.144531 357.628906 C 137.316406 358.511719 137.566406 359.371094 137.902344 360.207031 C 138.234375 361.042969 138.644531 361.839844 139.128906 362.597656 C 139.613281 363.355469 140.167969 364.058594 140.789062 364.710938 C 141.40625 365.363281 142.082031 365.953125 142.816406 366.476562 C 143.546875 367 144.320312 367.449219 145.140625 367.824219 C 145.957031 368.199219 146.804688 368.496094 147.675781 368.710938 C 148.550781 368.925781 149.4375 369.054688 150.335938 369.101562 L 300.191406 369.101562 C 301.117188 369.097656 302.035156 369.007812 302.945312 368.824219 C 303.851562 368.640625 304.734375 368.371094 305.589844 368.015625 C 306.449219 367.660156 307.261719 367.226562 308.03125 366.710938 C 308.800781 366.195312 309.515625 365.609375 310.171875 364.953125 C 310.828125 364.296875 311.410156 363.582031 311.925781 362.8125 C 312.441406 362.042969 312.878906 361.230469 313.234375 360.375 C 313.589844 359.515625 313.859375 358.632812 314.042969 357.726562 C 314.226562 356.816406 314.316406 355.898438 314.320312 354.972656 C 314.320312 354.042969 314.230469 353.125 314.050781 352.210938 C 313.867188 351.300781 313.601562 350.417969 313.246094 349.558594 C 312.890625 348.699219 312.457031 347.886719 311.941406 347.113281 C 311.425781 346.339844 310.839844 345.625 310.183594 344.96875 C 309.527344 344.308594 308.816406 343.722656 308.042969 343.203125 C 307.273438 342.6875 306.457031 342.25 305.601562 341.894531 C 304.742188 341.535156 303.859375 341.265625 302.949219 341.082031 C 302.039062 340.898438 301.117188 340.808594 300.191406 340.804688 L 284.921875 340.804688 L 272.003906 316.175781 L 351.683594 316.175781 C 352.472656 316.179688 353.261719 316.140625 354.046875 316.066406 C 354.832031 315.988281 355.613281 315.871094 356.390625 315.71875 C 357.164062 315.566406 357.929688 315.375 358.683594 315.144531 C 359.441406 314.914062 360.183594 314.648438 360.914062 314.347656 C 361.644531 314.042969 362.355469 313.707031 363.054688 313.332031 C 363.75 312.960938 364.425781 312.554688 365.082031 312.113281 C 365.738281 311.675781 366.371094 311.203125 366.980469 310.703125 C 367.589844 310.199219 368.175781 309.667969 368.730469 309.109375 C 369.289062 308.546875 369.816406 307.960938 370.316406 307.351562 C 370.816406 306.738281 371.285156 306.101562 371.722656 305.445312 C 372.15625 304.785156 372.5625 304.109375 372.929688 303.410156 C 373.300781 302.710938 373.636719 301.996094 373.933594 301.265625 C 374.234375 300.535156 374.496094 299.792969 374.722656 299.035156 C 374.949219 298.277344 375.136719 297.511719 375.285156 296.734375 C 375.4375 295.960938 375.546875 295.179688 375.621094 294.390625 C 375.695312 293.605469 375.726562 292.816406 375.722656 292.027344 L 375.722656 111.492188 C 375.722656 110.703125 375.683594 109.921875 375.605469 109.140625 C 375.527344 108.355469 375.410156 107.582031 375.253906 106.8125 C 375.101562 106.039062 374.910156 105.277344 374.679688 104.527344 C 374.453125 103.777344 374.1875 103.035156 373.886719 102.3125 C 373.585938 101.585938 373.25 100.875 372.878906 100.183594 C 372.507812 99.492188 372.101562 98.816406 371.667969 98.164062 C 371.230469 97.511719 370.761719 96.878906 370.261719 96.273438 C 369.765625 95.664062 369.238281 95.085938 368.679688 94.527344 C 368.125 93.972656 367.542969 93.445312 366.9375 92.949219 C 366.328125 92.449219 365.699219 91.980469 365.046875 91.542969 C 364.394531 91.105469 363.71875 90.703125 363.027344 90.332031 C 362.335938 89.960938 361.625 89.625 360.898438 89.324219 C 360.171875 89.023438 359.433594 88.757812 358.683594 88.53125 C 357.929688 88.300781 357.171875 88.109375 356.398438 87.953125 C 355.628906 87.800781 354.851562 87.683594 354.070312 87.605469 C 353.289062 87.527344 352.503906 87.488281 351.71875 87.488281 L 304.886719 87.488281 C 305.820312 77.835938 305.820312 68.183594 304.886719 58.53125 C 304.839844 58.140625 304.730469 57.769531 304.5625 57.414062 C 304.394531 57.058594 304.171875 56.742188 303.902344 56.457031 C 303.632812 56.171875 303.324219 55.9375 302.976562 55.753906 C 302.632812 55.566406 302.265625 55.441406 301.878906 55.375 C 261.507812 48.398438 228.105469 18.046875 227.777344 17.753906 C 227.4375 17.4375 227.050781 17.199219 226.621094 17.027344 C 226.191406 16.859375 225.746094 16.773438 225.28125 16.773438 C 224.820312 16.773438 224.371094 16.859375 223.941406 17.027344 C 223.511719 17.199219 223.125 17.4375 222.785156 17.753906 C 222.457031 18.046875 189.128906 48.398438 148.722656 55.375 C 148.335938 55.441406 147.96875 55.566406 147.621094 55.753906 C 147.277344 55.9375 146.96875 56.171875 146.695312 56.457031 C 146.425781 56.742188 146.207031 57.058594 146.039062 57.414062 C 145.871094 57.769531 145.761719 58.140625 145.710938 58.53125 C 144.78125 68.183594 144.78125 77.835938 145.710938 87.488281 L 98.84375 87.488281 C 98.054688 87.488281 97.269531 87.527344 96.488281 87.601562 C 95.703125 87.679688 94.925781 87.796875 94.15625 87.949219 C 93.382812 88.101562 92.621094 88.292969 91.867188 88.519531 C 91.113281 88.75 90.375 89.011719 89.644531 89.3125 C 88.917969 89.613281 88.207031 89.949219 87.515625 90.320312 C 86.820312 90.691406 86.144531 91.09375 85.488281 91.53125 C 84.835938 91.964844 84.203125 92.433594 83.59375 92.933594 C 82.984375 93.429688 82.402344 93.957031 81.84375 94.511719 C 81.285156 95.070312 80.757812 95.652344 80.257812 96.257812 C 79.757812 96.867188 79.289062 97.496094 78.851562 98.148438 C 78.410156 98.804688 78.003906 99.476562 77.632812 100.171875 C 77.261719 100.863281 76.921875 101.574219 76.621094 102.300781 C 76.316406 103.027344 76.050781 103.765625 75.820312 104.519531 C 75.589844 105.269531 75.398438 106.03125 75.242188 106.804688 C 75.085938 107.574219 74.96875 108.351562 74.890625 109.136719 C 74.808594 109.917969 74.769531 110.703125 74.765625 111.492188 L 74.765625 292.027344 C 74.761719 292.816406 74.796875 293.605469 74.871094 294.394531 C 74.945312 295.179688 75.058594 295.960938 75.210938 296.738281 C 75.363281 297.511719 75.550781 298.28125 75.777344 299.039062 C 76.003906 299.792969 76.269531 300.539062 76.570312 301.269531 C 76.867188 302 77.203125 302.714844 77.574219 303.414062 C 77.945312 304.113281 78.351562 304.789062 78.789062 305.449219 C 79.226562 306.105469 79.695312 306.742188 80.195312 307.351562 C 80.695312 307.964844 81.222656 308.550781 81.78125 309.109375 C 82.339844 309.671875 82.925781 310.203125 83.535156 310.703125 C 84.144531 311.207031 84.777344 311.675781 85.433594 312.117188 C 86.09375 312.554688 86.769531 312.960938 87.464844 313.335938 C 88.164062 313.707031 88.875 314.046875 89.605469 314.347656 C 90.335938 314.648438 91.082031 314.914062 91.835938 315.144531 C 92.59375 315.375 93.359375 315.566406 94.132812 315.71875 C 94.910156 315.871094 95.691406 315.988281 96.476562 316.066406 C 97.265625 316.140625 98.054688 316.179688 98.84375 316.175781 Z M 282.757812 348.144531 L 300.191406 348.144531 C 300.636719 348.144531 301.082031 348.1875 301.519531 348.277344 C 301.957031 348.363281 302.382812 348.492188 302.796875 348.664062 C 303.210938 348.835938 303.601562 349.046875 303.972656 349.296875 C 304.34375 349.546875 304.6875 349.828125 305.003906 350.148438 C 305.320312 350.464844 305.601562 350.808594 305.847656 351.183594 C 306.09375 351.554688 306.304688 351.949219 306.472656 352.363281 C 306.644531 352.777344 306.769531 353.203125 306.855469 353.640625 C 306.941406 354.082031 306.980469 354.523438 306.980469 354.972656 C 306.984375 355.867188 306.816406 356.730469 306.472656 357.558594 C 306.128906 358.386719 305.636719 359.113281 304.996094 359.742188 C 304.363281 360.386719 303.628906 360.886719 302.796875 361.234375 C 301.964844 361.585938 301.09375 361.761719 300.191406 361.761719 L 150.335938 361.761719 C 149.910156 361.730469 149.492188 361.660156 149.078125 361.550781 C 148.664062 361.4375 148.265625 361.292969 147.882812 361.105469 C 147.496094 360.921875 147.132812 360.703125 146.789062 360.449219 C 146.445312 360.195312 146.125 359.914062 145.835938 359.601562 C 145.542969 359.289062 145.285156 358.949219 145.058594 358.589844 C 144.832031 358.226562 144.636719 357.847656 144.480469 357.449219 C 144.328125 357.050781 144.207031 356.644531 144.128906 356.222656 C 144.050781 355.804688 144.007812 355.378906 144.007812 354.953125 C 144.007812 354.527344 144.050781 354.101562 144.128906 353.683594 C 144.207031 353.261719 144.328125 352.855469 144.480469 352.457031 C 144.636719 352.058594 144.832031 351.679688 145.058594 351.316406 C 145.285156 350.957031 145.542969 350.621094 145.835938 350.304688 C 146.125 349.992188 146.445312 349.710938 146.789062 349.457031 C 147.132812 349.203125 147.496094 348.984375 147.882812 348.800781 C 148.265625 348.613281 148.664062 348.46875 149.078125 348.355469 C 149.492188 348.246094 149.910156 348.175781 150.335938 348.144531 Z M 276.628906 340.804688 L 173.863281 340.804688 L 186.78125 316.175781 L 263.855469 316.175781 Z M 152.722656 62.089844 C 187.992188 55.117188 216.765625 32.726562 225.246094 25.386719 C 233.722656 32.726562 262.535156 55.191406 297.804688 62.089844 C 298.464844 71.675781 298.269531 81.242188 297.21875 90.789062 C 296.269531 99.757812 294.605469 108.589844 292.226562 117.289062 C 281.730469 154.6875 259.195312 181.152344 225.246094 195.90625 C 214.949219 191.476562 205.457031 185.726562 196.765625 178.65625 C 193.4375 175.902344 190.269531 172.980469 187.257812 169.882812 C 180.320312 162.464844 174.402344 154.308594 169.5 145.410156 C 164.597656 136.515625 160.867188 127.152344 158.300781 117.328125 C 155.917969 108.617188 154.253906 99.769531 153.308594 90.789062 C 152.257812 81.242188 152.0625 71.675781 152.722656 62.089844 Z M 152.722656 124.484375 L 153.824219 127.859375 C 154.261719 129.109375 154.703125 130.320312 155.179688 131.53125 L 156.390625 134.796875 L 157.933594 138.464844 C 158.375 139.496094 158.8125 140.558594 159.292969 141.585938 L 160.980469 145 C 161.492188 145.992188 161.96875 147.019531 162.519531 148.007812 C 163.070312 149 163.730469 150.210938 164.355469 151.3125 L 166.007812 154.175781 L 168.027344 157.332031 L 169.824219 160.046875 L 172.027344 163.09375 C 172.652344 163.972656 173.273438 164.855469 173.933594 165.699219 C 174.597656 166.542969 175.511719 167.644531 176.320312 168.597656 C 177.128906 169.554688 177.640625 170.25 178.339844 171.058594 L 180.871094 173.8125 L 183.039062 176.121094 L 185.753906 178.730469 L 188.027344 180.929688 L 190.929688 183.390625 C 191.734375 184.085938 192.507812 184.785156 193.3125 185.410156 C 194.121094 186.03125 195.371094 186.988281 196.398438 187.792969 C 197.425781 188.601562 198.011719 189.042969 198.855469 189.628906 C 199.699219 190.214844 201.058594 191.132812 202.160156 191.867188 C 203.261719 192.601562 203.8125 193.003906 204.691406 193.554688 L 208.363281 195.722656 L 210.859375 197.191406 L 215.003906 199.355469 L 217.207031 200.492188 C 219.371094 201.519531 221.574219 202.546875 223.8125 203.503906 C 224.765625 203.855469 225.722656 203.855469 226.675781 203.503906 C 228.914062 202.546875 231.117188 201.519531 233.28125 200.492188 L 235.042969 199.574219 C 236.585938 198.804688 238.164062 197.996094 239.667969 197.152344 L 241.761719 195.941406 L 245.761719 193.554688 C 246.53125 193.078125 247.265625 192.527344 248 192.050781 C 248.734375 191.574219 250.421875 190.472656 251.671875 189.628906 C 252.917969 188.785156 253.210938 188.492188 253.980469 187.902344 C 254.753906 187.316406 256.148438 186.289062 257.210938 185.410156 L 259.488281 183.5 L 262.496094 180.929688 L 264.699219 178.800781 C 265.617188 177.921875 266.570312 177.039062 267.453125 176.121094 C 268.332031 175.207031 268.882812 174.582031 269.617188 173.847656 C 270.351562 173.113281 271.34375 172.011719 272.148438 171.058594 L 274.203125 168.597656 C 275.011719 167.644531 275.820312 166.691406 276.554688 165.699219 C 277.289062 164.707031 277.875 163.9375 278.535156 163.058594 C 279.195312 162.175781 279.96875 161.113281 280.664062 160.085938 C 281.363281 159.054688 281.914062 158.210938 282.5 157.292969 C 283.085938 156.378906 283.859375 155.238281 284.480469 154.175781 C 285.105469 153.109375 285.65625 152.230469 286.207031 151.238281 C 286.757812 150.246094 287.417969 149.109375 288.003906 148.046875 C 288.59375 146.980469 289.070312 145.953125 289.582031 144.925781 C 290.097656 143.898438 290.683594 142.722656 291.199219 141.625 C 291.710938 140.523438 292.1875 139.457031 292.667969 138.355469 C 293.144531 137.253906 293.65625 136.082031 294.097656 134.941406 C 294.539062 133.804688 295.015625 132.667969 295.417969 131.53125 C 295.824219 130.390625 296.300781 129.21875 296.703125 127.859375 C 297.105469 126.5 297.472656 125.472656 297.878906 124.191406 C 298.28125 122.90625 298.390625 122.683594 298.613281 121.914062 L 338.101562 121.914062 C 338.515625 121.914062 338.914062 121.992188 339.296875 122.152344 C 339.679688 122.308594 340.015625 122.535156 340.308594 122.828125 C 340.601562 123.121094 340.828125 123.457031 340.984375 123.839844 C 341.144531 124.222656 341.222656 124.621094 341.222656 125.035156 L 341.222656 262.152344 C 341.222656 262.566406 341.144531 262.964844 340.984375 263.347656 C 340.828125 263.726562 340.601562 264.066406 340.308594 264.359375 C 340.015625 264.652344 339.679688 264.875 339.296875 265.035156 C 338.914062 265.191406 338.515625 265.273438 338.101562 265.273438 L 112.421875 265.273438 C 112.007812 265.273438 111.609375 265.191406 111.230469 265.035156 C 110.847656 264.875 110.507812 264.652344 110.21875 264.359375 C 109.925781 264.066406 109.699219 263.726562 109.539062 263.347656 C 109.382812 262.964844 109.304688 262.566406 109.304688 262.152344 L 109.304688 125.070312 C 109.304688 124.65625 109.382812 124.257812 109.539062 123.875 C 109.699219 123.496094 109.925781 123.15625 110.21875 122.863281 C 110.507812 122.570312 110.847656 122.347656 111.230469 122.1875 C 111.609375 122.03125 112.007812 121.949219 112.421875 121.949219 L 152.023438 121.949219 C 152.246094 122.796875 152.539062 123.566406 152.796875 124.375 Z M 82.105469 111.492188 C 82.109375 110.945312 82.136719 110.398438 82.191406 109.855469 C 82.246094 109.3125 82.328125 108.773438 82.433594 108.238281 C 82.542969 107.703125 82.675781 107.171875 82.835938 106.652344 C 82.996094 106.128906 83.179688 105.617188 83.390625 105.113281 C 83.597656 104.605469 83.832031 104.113281 84.089844 103.632812 C 84.347656 103.152344 84.628906 102.683594 84.933594 102.230469 C 85.238281 101.777344 85.5625 101.339844 85.910156 100.917969 C 86.257812 100.496094 86.625 100.09375 87.011719 99.707031 C 87.398438 99.320312 87.800781 98.953125 88.226562 98.609375 C 88.648438 98.261719 89.085938 97.9375 89.539062 97.636719 C 89.996094 97.332031 90.460938 97.050781 90.945312 96.792969 C 91.425781 96.539062 91.917969 96.304688 92.425781 96.097656 C 92.929688 95.886719 93.441406 95.703125 93.964844 95.546875 C 94.488281 95.386719 95.015625 95.253906 95.554688 95.148438 C 96.089844 95.042969 96.628906 94.960938 97.171875 94.910156 C 97.714844 94.855469 98.261719 94.828125 98.804688 94.828125 L 146.519531 94.828125 L 146.847656 97.066406 C 146.847656 97.984375 147.105469 98.902344 147.214844 99.820312 C 147.328125 100.738281 147.65625 102.570312 147.914062 103.929688 L 148.355469 106.460938 C 148.648438 107.96875 148.976562 109.398438 149.308594 110.867188 L 149.75 112.957031 C 149.75 113.507812 150.003906 114.058594 150.152344 114.609375 L 112.421875 114.609375 C 111.738281 114.613281 111.058594 114.683594 110.382812 114.816406 C 109.710938 114.953125 109.058594 115.152344 108.425781 115.417969 C 107.792969 115.679688 107.191406 116.003906 106.621094 116.382812 C 106.050781 116.765625 105.523438 117.199219 105.039062 117.683594 C 104.550781 118.171875 104.117188 118.699219 103.738281 119.269531 C 103.355469 119.839844 103.03125 120.441406 102.769531 121.074219 C 102.503906 121.707031 102.304688 122.359375 102.167969 123.03125 C 102.035156 123.703125 101.964844 124.382812 101.960938 125.070312 L 101.960938 262.152344 C 101.960938 262.839844 102.03125 263.519531 102.164062 264.191406 C 102.296875 264.867188 102.496094 265.519531 102.757812 266.15625 C 103.023438 266.789062 103.34375 267.390625 103.726562 267.964844 C 104.105469 268.535156 104.539062 269.0625 105.027344 269.546875 C 105.511719 270.035156 106.039062 270.46875 106.613281 270.847656 C 107.183594 271.230469 107.785156 271.554688 108.421875 271.816406 C 109.054688 272.078125 109.707031 272.277344 110.382812 272.410156 C 111.054688 272.546875 111.734375 272.613281 112.421875 272.613281 L 338.101562 272.613281 C 338.789062 272.613281 339.46875 272.546875 340.144531 272.410156 C 340.816406 272.277344 341.472656 272.078125 342.105469 271.816406 C 342.742188 271.554688 343.34375 271.230469 343.914062 270.847656 C 344.484375 270.46875 345.015625 270.035156 345.5 269.546875 C 345.984375 269.0625 346.417969 268.535156 346.800781 267.964844 C 347.183594 267.390625 347.503906 266.789062 347.765625 266.15625 C 348.03125 265.519531 348.226562 264.867188 348.363281 264.191406 C 348.496094 263.519531 348.5625 262.839844 348.5625 262.152344 L 348.5625 125.070312 C 348.5625 124.382812 348.492188 123.703125 348.355469 123.03125 C 348.21875 122.359375 348.019531 121.707031 347.757812 121.074219 C 347.492188 120.441406 347.171875 119.839844 346.789062 119.269531 C 346.40625 118.699219 345.972656 118.171875 345.488281 117.683594 C 345.003906 117.199219 344.476562 116.765625 343.90625 116.382812 C 343.335938 116.003906 342.734375 115.679688 342.101562 115.417969 C 341.46875 115.152344 340.8125 114.953125 340.140625 114.816406 C 339.46875 114.683594 338.789062 114.613281 338.101562 114.609375 L 300.484375 114.609375 C 300.484375 114.058594 300.777344 113.507812 300.886719 112.957031 C 300.996094 112.410156 301.179688 111.5625 301.328125 110.867188 C 301.65625 109.398438 301.988281 107.929688 302.28125 106.460938 L 302.722656 103.894531 C 302.980469 102.535156 303.199219 101.175781 303.417969 99.78125 C 303.640625 98.386719 303.675781 97.984375 303.785156 97.066406 L 304.117188 94.828125 L 351.828125 94.828125 C 352.371094 94.832031 352.914062 94.863281 353.453125 94.921875 C 353.996094 94.980469 354.53125 95.0625 355.0625 95.171875 C 355.59375 95.28125 356.121094 95.417969 356.636719 95.578125 C 357.15625 95.742188 357.667969 95.925781 358.167969 96.136719 C 358.667969 96.347656 359.15625 96.582031 359.632812 96.839844 C 360.113281 97.101562 360.574219 97.382812 361.027344 97.683594 C 361.476562 97.988281 361.910156 98.3125 362.328125 98.660156 C 362.746094 99.007812 363.148438 99.371094 363.53125 99.757812 C 363.914062 100.144531 364.277344 100.546875 364.621094 100.96875 C 364.964844 101.386719 365.285156 101.824219 365.585938 102.277344 C 365.886719 102.726562 366.164062 103.195312 366.421875 103.671875 C 366.675781 104.152344 366.90625 104.644531 367.113281 105.144531 C 367.324219 105.648438 367.503906 106.15625 367.664062 106.675781 C 367.820312 107.195312 367.953125 107.722656 368.058594 108.257812 C 368.164062 108.789062 368.246094 109.324219 368.300781 109.867188 C 368.351562 110.40625 368.382812 110.949219 368.382812 111.492188 L 368.382812 292.027344 C 368.382812 292.574219 368.355469 293.117188 368.300781 293.664062 C 368.25 294.207031 368.167969 294.746094 368.0625 295.28125 C 367.957031 295.816406 367.824219 296.347656 367.664062 296.867188 C 367.507812 297.390625 367.324219 297.90625 367.113281 298.410156 C 366.90625 298.914062 366.671875 299.40625 366.414062 299.890625 C 366.160156 300.371094 365.878906 300.839844 365.574219 301.292969 C 365.273438 301.75 364.949219 302.1875 364.601562 302.609375 C 364.253906 303.03125 363.890625 303.4375 363.503906 303.824219 C 363.117188 304.210938 362.714844 304.578125 362.292969 304.921875 C 361.871094 305.269531 361.433594 305.597656 360.980469 305.898438 C 360.527344 306.203125 360.058594 306.484375 359.578125 306.742188 C 359.097656 307 358.601562 307.234375 358.097656 307.445312 C 357.59375 307.65625 357.082031 307.839844 356.558594 308 C 356.035156 308.160156 355.507812 308.292969 354.972656 308.398438 C 354.4375 308.507812 353.898438 308.589844 353.355469 308.644531 C 352.808594 308.699219 352.265625 308.726562 351.71875 308.726562 L 98.84375 308.726562 C 98.296875 308.726562 97.75 308.703125 97.203125 308.648438 C 96.660156 308.597656 96.117188 308.519531 95.578125 308.414062 C 95.042969 308.308594 94.511719 308.175781 93.988281 308.015625 C 93.464844 307.859375 92.949219 307.675781 92.441406 307.464844 C 91.933594 307.257812 91.441406 307.023438 90.957031 306.765625 C 90.472656 306.507812 90.003906 306.230469 89.546875 305.925781 C 89.09375 305.621094 88.652344 305.296875 88.226562 304.949219 C 87.804688 304.601562 87.398438 304.234375 87.011719 303.847656 C 86.625 303.460938 86.253906 303.058594 85.90625 302.632812 C 85.558594 302.210938 85.234375 301.773438 84.929688 301.316406 C 84.625 300.863281 84.34375 300.394531 84.085938 299.910156 C 83.824219 299.425781 83.589844 298.933594 83.382812 298.425781 C 83.171875 297.921875 82.988281 297.40625 82.828125 296.882812 C 82.667969 296.359375 82.535156 295.828125 82.429688 295.289062 C 82.320312 294.753906 82.242188 294.210938 82.1875 293.667969 C 82.132812 293.121094 82.105469 292.574219 82.105469 292.027344 Z M 308.375 300.578125 C 309.09375 300.566406 309.808594 300.484375 310.511719 300.332031 C 311.214844 300.183594 311.898438 299.964844 312.558594 299.675781 C 313.21875 299.390625 313.847656 299.042969 314.441406 298.636719 C 315.035156 298.226562 315.582031 297.761719 316.082031 297.246094 C 316.585938 296.730469 317.035156 296.171875 317.425781 295.566406 C 317.816406 294.960938 318.148438 294.324219 318.414062 293.65625 C 318.683594 292.988281 318.882812 292.300781 319.015625 291.589844 C 319.148438 290.882812 319.207031 290.167969 319.199219 289.449219 C 319.191406 288.726562 319.113281 288.015625 318.96875 287.308594 C 318.820312 286.605469 318.605469 285.921875 318.324219 285.257812 C 318.039062 284.59375 317.695312 283.964844 317.289062 283.371094 C 316.886719 282.777344 316.425781 282.226562 315.910156 281.71875 C 315.398438 281.214844 314.839844 280.765625 314.238281 280.371094 C 313.636719 279.972656 313.003906 279.640625 312.335938 279.367188 C 311.667969 279.097656 310.980469 278.894531 310.273438 278.757812 C 309.566406 278.621094 308.851562 278.554688 308.132812 278.558594 C 307.410156 278.5625 306.699219 278.636719 305.992188 278.78125 C 305.285156 278.925781 304.601562 279.136719 303.9375 279.414062 C 303.273438 279.691406 302.640625 280.035156 302.042969 280.4375 C 301.445312 280.839844 300.894531 281.292969 300.382812 281.804688 C 299.875 282.316406 299.421875 282.871094 299.023438 283.472656 C 298.625 284.070312 298.289062 284.703125 298.011719 285.371094 C 297.738281 286.035156 297.53125 286.722656 297.390625 287.429688 C 297.25 288.136719 297.179688 288.847656 297.179688 289.570312 C 297.179688 290.300781 297.253906 291.023438 297.394531 291.738281 C 297.539062 292.457031 297.753906 293.152344 298.035156 293.824219 C 298.316406 294.5 298.664062 295.136719 299.074219 295.742188 C 299.484375 296.347656 299.949219 296.90625 300.46875 297.421875 C 300.992188 297.933594 301.558594 298.386719 302.167969 298.789062 C 302.78125 299.1875 303.425781 299.523438 304.105469 299.792969 C 304.78125 300.066406 305.480469 300.265625 306.199219 300.398438 C 306.917969 300.53125 307.644531 300.589844 308.375 300.578125 Z M 308.375 285.566406 C 308.855469 285.59375 309.3125 285.707031 309.75 285.910156 C 310.183594 286.113281 310.566406 286.394531 310.890625 286.75 C 311.21875 287.101562 311.464844 287.503906 311.632812 287.957031 C 311.800781 288.40625 311.875 288.875 311.859375 289.355469 C 311.84375 289.835938 311.738281 290.296875 311.539062 290.734375 C 311.34375 291.175781 311.070312 291.558594 310.722656 291.890625 C 310.375 292.222656 309.976562 292.476562 309.527344 292.652344 C 309.078125 292.828125 308.613281 292.910156 308.132812 292.902344 C 307.652344 292.894531 307.191406 292.796875 306.746094 292.609375 C 306.304688 292.417969 305.914062 292.152344 305.578125 291.808594 C 305.238281 291.46875 304.980469 291.074219 304.796875 290.628906 C 304.613281 290.183594 304.519531 289.71875 304.519531 289.238281 C 304.519531 288.988281 304.546875 288.742188 304.59375 288.5 C 304.644531 288.253906 304.71875 288.019531 304.816406 287.789062 C 304.914062 287.5625 305.035156 287.34375 305.175781 287.140625 C 305.320312 286.9375 305.480469 286.746094 305.660156 286.574219 C 305.839844 286.40625 306.035156 286.253906 306.246094 286.121094 C 306.457031 285.988281 306.679688 285.878906 306.914062 285.792969 C 307.148438 285.707031 307.386719 285.644531 307.632812 285.605469 C 307.878906 285.570312 308.125 285.554688 308.375 285.566406 Z M 337.367188 300.578125 C 338.09375 300.578125 338.808594 300.507812 339.515625 300.367188 C 340.226562 300.226562 340.914062 300.019531 341.582031 299.742188 C 342.25 299.464844 342.886719 299.125 343.484375 298.722656 C 344.085938 298.320312 344.644531 297.867188 345.15625 297.355469 C 345.664062 296.84375 346.121094 296.285156 346.523438 295.6875 C 346.925781 295.085938 347.265625 294.449219 347.542969 293.78125 C 347.816406 293.113281 348.027344 292.425781 348.167969 291.714844 C 348.308594 291.007812 348.378906 290.292969 348.378906 289.570312 C 348.378906 288.84375 348.308594 288.128906 348.167969 287.421875 C 348.027344 286.710938 347.816406 286.023438 347.542969 285.355469 C 347.265625 284.6875 346.925781 284.050781 346.523438 283.453125 C 346.121094 282.851562 345.664062 282.292969 345.15625 281.78125 C 344.644531 281.273438 344.085938 280.816406 343.484375 280.414062 C 342.886719 280.011719 342.25 279.671875 341.582031 279.394531 C 340.914062 279.121094 340.226562 278.910156 339.515625 278.769531 C 338.808594 278.628906 338.09375 278.558594 337.367188 278.558594 C 336.644531 278.558594 335.929688 278.628906 335.222656 278.769531 C 334.511719 278.910156 333.824219 279.121094 333.15625 279.394531 C 332.488281 279.671875 331.851562 280.011719 331.25 280.414062 C 330.652344 280.816406 330.09375 281.273438 329.582031 281.78125 C 329.070312 282.292969 328.617188 282.851562 328.214844 283.453125 C 327.8125 284.050781 327.472656 284.6875 327.195312 285.355469 C 326.921875 286.023438 326.710938 286.710938 326.570312 287.421875 C 326.429688 288.128906 326.359375 288.84375 326.359375 289.570312 C 326.371094 290.289062 326.453125 291 326.605469 291.703125 C 326.753906 292.40625 326.972656 293.085938 327.253906 293.75 C 327.535156 294.410156 327.878906 295.039062 328.28125 295.636719 C 328.683594 296.230469 329.136719 296.785156 329.644531 297.292969 C 330.152344 297.800781 330.707031 298.253906 331.300781 298.660156 C 331.898438 299.0625 332.527344 299.402344 333.1875 299.683594 C 333.851562 299.964844 334.53125 300.183594 335.234375 300.332031 C 335.9375 300.484375 336.648438 300.566406 337.367188 300.578125 Z M 337.367188 285.566406 C 337.855469 285.566406 338.324219 285.660156 338.773438 285.847656 C 339.222656 286.035156 339.621094 286.300781 339.964844 286.644531 C 340.308594 286.988281 340.574219 287.382812 340.761719 287.832031 C 340.945312 288.285156 341.039062 288.75 341.039062 289.238281 C 341.039062 289.726562 340.945312 290.191406 340.761719 290.644531 C 340.574219 291.09375 340.308594 291.488281 339.964844 291.832031 C 339.621094 292.175781 339.222656 292.441406 338.773438 292.628906 C 338.324219 292.816406 337.855469 292.910156 337.367188 292.910156 C 336.882812 292.910156 336.414062 292.816406 335.964844 292.628906 C 335.515625 292.441406 335.117188 292.175781 334.773438 291.832031 C 334.429688 291.488281 334.164062 291.09375 333.976562 290.644531 C 333.792969 290.191406 333.699219 289.726562 333.699219 289.238281 C 333.699219 288.75 333.792969 288.285156 333.976562 287.832031 C 334.164062 287.382812 334.429688 286.988281 334.773438 286.644531 C 335.117188 286.300781 335.515625 286.035156 335.964844 285.847656 C 336.414062 285.660156 336.882812 285.566406 337.367188 285.566406 Z M 225.246094 152.15625 C 226.671875 152.160156 228.097656 152.089844 229.519531 151.953125 C 230.941406 151.816406 232.351562 151.609375 233.753906 151.332031 C 235.15625 151.054688 236.539062 150.710938 237.90625 150.300781 C 239.273438 149.886719 240.617188 149.410156 241.9375 148.863281 C 243.257812 148.320312 244.550781 147.710938 245.808594 147.039062 C 247.070312 146.371094 248.296875 145.636719 249.484375 144.847656 C 250.671875 144.054688 251.820312 143.207031 252.925781 142.300781 C 254.03125 141.398438 255.089844 140.441406 256.101562 139.433594 C 257.113281 138.425781 258.074219 137.371094 258.980469 136.265625 C 259.886719 135.164062 260.738281 134.019531 261.535156 132.832031 C 262.332031 131.648438 263.066406 130.425781 263.742188 129.164062 C 264.414062 127.90625 265.027344 126.617188 265.578125 125.300781 C 266.125 123.980469 266.605469 122.636719 267.023438 121.273438 C 267.441406 119.90625 267.789062 118.523438 268.070312 117.121094 C 268.351562 115.722656 268.5625 114.3125 268.703125 112.890625 C 268.847656 111.46875 268.917969 110.042969 268.917969 108.617188 C 268.921875 107.1875 268.855469 105.761719 268.714844 104.339844 C 268.578125 102.917969 268.371094 101.507812 268.09375 100.105469 C 267.816406 98.707031 267.472656 97.320312 267.058594 95.953125 C 266.648438 94.585938 266.167969 93.242188 265.625 91.921875 C 265.078125 90.601562 264.46875 89.3125 263.796875 88.050781 C 263.125 86.789062 262.394531 85.566406 261.601562 84.378906 C 260.8125 83.1875 259.960938 82.042969 259.058594 80.9375 C 258.152344 79.832031 257.195312 78.773438 256.1875 77.761719 C 255.179688 76.75 254.125 75.792969 253.019531 74.882812 C 251.917969 73.976562 250.773438 73.125 249.585938 72.332031 C 248.398438 71.535156 247.175781 70.800781 245.917969 70.125 C 244.660156 69.453125 243.371094 68.839844 242.050781 68.292969 C 240.734375 67.742188 239.390625 67.261719 238.023438 66.84375 C 236.65625 66.429688 235.273438 66.082031 233.875 65.800781 C 232.472656 65.519531 231.0625 65.308594 229.640625 65.167969 C 228.21875 65.027344 226.796875 64.953125 225.367188 64.953125 C 223.9375 64.953125 222.515625 65.019531 221.09375 65.15625 C 219.671875 65.296875 218.257812 65.503906 216.859375 65.78125 C 215.457031 66.058594 214.074219 66.402344 212.707031 66.816406 C 211.339844 67.230469 209.996094 67.710938 208.675781 68.253906 C 207.355469 68.800781 206.0625 69.40625 204.804688 70.078125 C 203.542969 70.75 202.320312 71.484375 201.132812 72.277344 C 199.941406 73.070312 198.796875 73.917969 197.691406 74.824219 C 196.585938 75.726562 195.527344 76.683594 194.515625 77.691406 C 193.507812 78.703125 192.546875 79.757812 191.640625 80.863281 C 190.734375 81.964844 189.882812 83.109375 189.085938 84.296875 C 188.292969 85.484375 187.558594 86.707031 186.882812 87.964844 C 186.210938 89.222656 185.597656 90.511719 185.050781 91.832031 C 184.503906 93.152344 184.019531 94.492188 183.605469 95.859375 C 183.1875 97.226562 182.839844 98.609375 182.5625 100.011719 C 182.28125 101.410156 182.070312 102.824219 181.929688 104.242188 C 181.789062 105.664062 181.71875 107.089844 181.714844 108.519531 C 181.714844 109.945312 181.785156 111.367188 181.925781 112.789062 C 182.066406 114.207031 182.273438 115.617188 182.550781 117.019531 C 182.828125 118.417969 183.175781 119.800781 183.589844 121.164062 C 184.003906 122.53125 184.480469 123.875 185.027344 125.191406 C 185.574219 126.511719 186.179688 127.800781 186.851562 129.058594 C 187.523438 130.316406 188.257812 131.539062 189.046875 132.726562 C 189.839844 133.914062 190.6875 135.0625 191.589844 136.164062 C 192.496094 137.269531 193.449219 138.324219 194.457031 139.335938 C 195.464844 140.347656 196.519531 141.304688 197.621094 142.210938 C 198.722656 143.117188 199.867188 143.96875 201.054688 144.765625 C 202.238281 145.558594 203.460938 146.292969 204.71875 146.96875 C 205.972656 147.644531 207.261719 148.253906 208.578125 148.804688 C 209.894531 149.351562 211.238281 149.835938 212.601562 150.25 C 213.964844 150.667969 215.347656 151.019531 216.746094 151.300781 C 218.144531 151.582031 219.554688 151.792969 220.976562 151.9375 C 222.394531 152.078125 223.816406 152.152344 225.246094 152.15625 Z M 225.246094 72.292969 C 226.433594 72.289062 227.617188 72.347656 228.800781 72.460938 C 229.984375 72.574219 231.160156 72.746094 232.324219 72.976562 C 233.492188 73.207031 234.644531 73.492188 235.78125 73.835938 C 236.917969 74.179688 238.035156 74.574219 239.136719 75.027344 C 240.234375 75.480469 241.308594 75.988281 242.355469 76.546875 C 243.40625 77.105469 244.425781 77.710938 245.414062 78.371094 C 246.402344 79.03125 247.359375 79.734375 248.277344 80.488281 C 249.199219 81.238281 250.078125 82.035156 250.917969 82.875 C 251.761719 83.714844 252.558594 84.59375 253.316406 85.507812 C 254.070312 86.425781 254.777344 87.378906 255.441406 88.367188 C 256.101562 89.355469 256.714844 90.371094 257.273438 91.417969 C 257.835938 92.464844 258.34375 93.539062 258.800781 94.636719 C 259.257812 95.734375 259.660156 96.851562 260.003906 97.988281 C 260.351562 99.125 260.640625 100.273438 260.875 101.441406 C 261.109375 102.605469 261.285156 103.777344 261.402344 104.960938 C 261.519531 106.144531 261.578125 107.328125 261.578125 108.519531 C 261.582031 109.707031 261.523438 110.890625 261.410156 112.074219 C 261.292969 113.257812 261.121094 114.429688 260.890625 115.597656 C 260.660156 116.761719 260.371094 117.914062 260.027344 119.050781 C 259.683594 120.191406 259.285156 121.308594 258.828125 122.40625 C 258.375 123.503906 257.871094 124.578125 257.308594 125.625 C 256.75 126.675781 256.140625 127.691406 255.480469 128.679688 C 254.820312 129.667969 254.113281 130.625 253.363281 131.542969 C 252.609375 132.460938 251.8125 133.339844 250.972656 134.183594 C 250.132812 135.023438 249.253906 135.820312 248.335938 136.574219 C 247.417969 137.328125 246.464844 138.035156 245.476562 138.695312 C 244.488281 139.359375 243.46875 139.96875 242.421875 140.527344 C 241.375 141.089844 240.300781 141.597656 239.203125 142.050781 C 238.105469 142.507812 236.988281 142.90625 235.851562 143.253906 C 234.714844 143.597656 233.5625 143.886719 232.398438 144.117188 C 231.230469 144.351562 230.058594 144.523438 228.875 144.640625 C 227.691406 144.757812 226.507812 144.816406 225.316406 144.816406 C 224.128906 144.816406 222.945312 144.757812 221.761719 144.640625 C 220.578125 144.523438 219.40625 144.351562 218.238281 144.117188 C 217.074219 143.886719 215.921875 143.597656 214.785156 143.253906 C 213.648438 142.90625 212.53125 142.507812 211.433594 142.050781 C 210.335938 141.597656 209.261719 141.089844 208.214844 140.527344 C 207.167969 139.96875 206.148438 139.359375 205.160156 138.699219 C 204.171875 138.035156 203.21875 137.328125 202.300781 136.574219 C 201.382812 135.820312 200.503906 135.023438 199.664062 134.183594 C 198.824219 133.339844 198.027344 132.460938 197.273438 131.542969 C 196.519531 130.625 195.816406 129.667969 195.15625 128.679688 C 194.496094 127.691406 193.886719 126.675781 193.328125 125.625 C 192.765625 124.578125 192.261719 123.503906 191.804688 122.40625 C 191.351562 121.308594 190.953125 120.191406 190.609375 119.050781 C 190.265625 117.914062 189.976562 116.761719 189.746094 115.597656 C 189.515625 114.433594 189.34375 113.257812 189.226562 112.074219 C 189.113281 110.890625 189.054688 109.707031 189.054688 108.519531 C 189.058594 107.332031 189.121094 106.152344 189.242188 104.972656 C 189.359375 103.792969 189.535156 102.625 189.769531 101.464844 C 190.003906 100.300781 190.292969 99.152344 190.640625 98.019531 C 190.984375 96.886719 191.386719 95.773438 191.839844 94.679688 C 192.292969 93.585938 192.800781 92.519531 193.359375 91.472656 C 193.921875 90.429688 194.527344 89.414062 195.1875 88.429688 C 195.847656 87.445312 196.550781 86.496094 197.300781 85.578125 C 198.054688 84.664062 198.847656 83.785156 199.6875 82.949219 C 200.523438 82.109375 201.398438 81.316406 202.3125 80.5625 C 203.230469 79.808594 204.179688 79.105469 205.164062 78.445312 C 206.148438 77.785156 207.160156 77.175781 208.203125 76.613281 C 209.25 76.054688 210.316406 75.546875 211.410156 75.089844 C 212.503906 74.632812 213.617188 74.234375 214.75 73.886719 C 215.882812 73.539062 217.027344 73.25 218.191406 73.011719 C 219.351562 72.777344 220.519531 72.601562 221.699219 72.480469 C 222.878906 72.359375 224.058594 72.296875 225.246094 72.292969 Z M 206.378906 110.976562 C 206.035156 110.632812 205.769531 110.234375 205.582031 109.78125 C 205.394531 109.328125 205.300781 108.859375 205.300781 108.371094 C 205.300781 107.882812 205.394531 107.414062 205.582031 106.960938 C 205.769531 106.507812 206.035156 106.109375 206.378906 105.765625 C 206.726562 105.417969 207.125 105.152344 207.574219 104.964844 C 208.027344 104.78125 208.496094 104.6875 208.984375 104.6875 C 209.472656 104.6875 209.945312 104.78125 210.394531 104.964844 C 210.847656 105.152344 211.246094 105.417969 211.589844 105.765625 L 219.996094 114.207031 L 239.007812 95.160156 C 239.351562 94.8125 239.75 94.542969 240.203125 94.355469 C 240.652344 94.167969 241.125 94.074219 241.613281 94.074219 C 242.101562 94.074219 242.574219 94.167969 243.023438 94.355469 C 243.476562 94.542969 243.875 94.8125 244.21875 95.160156 C 244.5625 95.503906 244.824219 95.898438 245.007812 96.347656 C 245.195312 96.792969 245.285156 97.261719 245.285156 97.746094 C 245.285156 98.230469 245.195312 98.695312 245.007812 99.144531 C 244.824219 99.59375 244.5625 99.988281 244.21875 100.332031 L 222.566406 121.988281 C 222.222656 122.328125 221.824219 122.59375 221.378906 122.777344 C 220.929688 122.960938 220.460938 123.054688 219.976562 123.054688 C 219.492188 123.054688 219.027344 122.960938 218.578125 122.777344 C 218.128906 122.59375 217.734375 122.328125 217.390625 121.988281 Z M 206.378906 110.976562 " fill-opacity="1" fill-rule="nonzero"/></g></svg>