<svg xmlns="http://www.w3.org/2000/svg" xmlns:xlink="http://www.w3.org/1999/xlink" width="601" zoomAndPan="magnify" viewBox="0 0 450.75 386.250002" height="515" preserveAspectRatio="xMidYMid meet" version="1.0"><defs><clipPath id="5f61821d57"><path d="M 192.613281 127.476562 L 257.886719 127.476562 L 257.886719 192.75 L 192.613281 192.75 Z M 192.613281 127.476562 " clip-rule="nonzero"/></clipPath><clipPath id="e6e4ecb796"><path d="M 225.25 127.476562 C 207.226562 127.476562 192.613281 142.089844 192.613281 160.113281 C 192.613281 178.140625 207.226562 192.75 225.25 192.75 C 243.273438 192.75 257.886719 178.140625 257.886719 160.113281 C 257.886719 142.089844 243.273438 127.476562 225.25 127.476562 Z M 225.25 127.476562 " clip-rule="nonzero"/></clipPath><clipPath id="c86e48a774"><path d="M 88.429688 244 L 360 244 L 360 252 L 88.429688 252 Z M 88.429688 244 " clip-rule="nonzero"/></clipPath><clipPath id="549912c7f4"><path d="M 144 48.109375 L 305 48.109375 L 305 240 L 144 240 Z M 144 48.109375 " clip-rule="nonzero"/></clipPath></defs><g clip-path="url(#5f61821d57)"><g clip-path="url(#e6e4ecb796)"><path fill="#ffffff" d="M 192.613281 127.476562 L 257.886719 127.476562 L 257.886719 192.75 L 192.613281 192.75 Z M 192.613281 127.476562 " fill-opacity="1" fill-rule="nonzero"/></g></g><path fill="#60c2f6" d="M 350.835938 280.976562 L 98.109375 280.976562 C 92.984375 280.976562 89 276.992188 89 271.871094 L 89 119.890625 C 89 114.769531 92.984375 110.785156 98.109375 110.785156 L 148.199219 110.785156 C 150.476562 110.785156 151.613281 112.492188 151.613281 114.199219 L 151.613281 168.273438 C 152.183594 170.550781 155.597656 179.089844 164.703125 190.472656 C 173.8125 201.859375 192.027344 218.363281 224.472656 232.59375 C 284.238281 206.980469 296.191406 172.257812 297.332031 168.273438 L 297.332031 114.199219 C 297.332031 112.492188 298.46875 110.785156 300.746094 110.785156 L 350.835938 110.785156 C 355.957031 110.785156 359.941406 114.769531 359.941406 119.890625 L 359.941406 271.871094 C 359.941406 276.992188 355.957031 280.976562 350.835938 280.976562 Z M 98.109375 117.613281 C 96.96875 117.613281 95.832031 118.753906 95.832031 119.890625 L 95.832031 271.871094 C 95.832031 273.007812 96.96875 274.148438 98.109375 274.148438 L 350.835938 274.148438 C 351.972656 274.148438 353.113281 273.007812 353.113281 271.871094 L 353.113281 119.890625 C 353.113281 118.753906 351.972656 117.613281 350.835938 117.613281 L 304.160156 117.613281 L 304.160156 168.84375 C 304.160156 169.414062 303.589844 169.414062 303.589844 169.980469 C 303.589844 169.980469 301.316406 180.796875 289.929688 194.457031 C 280.253906 206.980469 260.902344 224.625 225.609375 239.425781 C 225.039062 239.996094 223.902344 239.996094 223.332031 239.425781 C 188.042969 224.625 168.691406 206.980469 159.011719 194.457031 C 147.628906 180.796875 145.351562 169.980469 145.351562 169.980469 C 145.351562 169.414062 144.78125 169.414062 144.78125 168.84375 L 144.78125 117.613281 Z M 98.109375 117.613281 " fill-opacity="1" fill-rule="evenodd"/><path fill="#60c2f6" d="M 246.101562 314.558594 L 202.84375 314.558594 C 201.132812 314.558594 199.425781 312.851562 199.425781 311.144531 L 199.425781 277.5625 C 199.425781 275.285156 201.132812 274.148438 202.84375 274.148438 L 246.101562 274.148438 C 247.808594 274.148438 249.515625 275.285156 249.515625 277.5625 L 249.515625 311.144531 C 249.515625 312.851562 247.808594 314.558594 246.101562 314.558594 Z M 206.257812 307.730469 L 242.6875 307.730469 L 242.6875 280.976562 L 206.257812 280.976562 Z M 206.257812 307.730469 " fill-opacity="1" fill-rule="evenodd"/><path fill="#60c2f6" d="M 295.054688 339.605469 L 153.890625 339.605469 C 152.183594 339.605469 150.476562 337.898438 150.476562 336.191406 L 150.476562 319.683594 C 150.476562 312.851562 155.597656 307.730469 162.429688 307.730469 L 286.515625 307.730469 C 293.347656 307.730469 298.46875 312.851562 298.46875 319.683594 L 298.46875 336.191406 C 298.46875 337.898438 296.761719 339.605469 295.054688 339.605469 Z M 157.304688 332.773438 L 291.636719 332.773438 L 291.636719 319.683594 C 291.636719 316.835938 289.363281 314.558594 286.515625 314.558594 L 162.429688 314.558594 C 159.582031 314.558594 157.304688 316.835938 157.304688 319.683594 Z M 157.304688 332.773438 " fill-opacity="1" fill-rule="evenodd"/><g clip-path="url(#c86e48a774)"><path fill="#60c2f6" d="M 161.289062 251.949219 C 93.554688 251.949219 92.414062 251.378906 91.277344 251.378906 C 89.570312 250.808594 88.429688 249.101562 89 247.394531 C 89.570312 245.6875 91.277344 244.546875 92.984375 244.546875 C 100.382812 245.117188 285.378906 245.117188 356.527344 244.546875 C 358.234375 244.546875 359.941406 246.253906 359.941406 247.964844 C 359.941406 250.238281 358.234375 251.378906 356.527344 251.378906 C 355.957031 251.378906 290.5 251.949219 225.609375 251.949219 C 199.425781 251.949219 178.367188 251.949219 161.289062 251.949219 Z M 92.984375 244.546875 Z M 92.984375 244.546875 " fill-opacity="1" fill-rule="evenodd"/></g><path fill="#60c2f6" d="M 252.363281 142.089844 C 251.222656 142.089844 250.085938 141.519531 249.515625 140.382812 C 243.824219 132.414062 234.71875 127.292969 224.472656 127.292969 C 214.226562 127.292969 205.117188 132.414062 199.425781 140.382812 C 198.289062 141.519531 197.148438 142.089844 195.441406 142.089844 C 194.304688 141.519531 193.164062 139.8125 193.164062 138.675781 L 193.164062 123.875 C 193.164062 106.800781 207.394531 92.570312 224.472656 92.570312 C 241.546875 92.570312 255.777344 106.800781 255.777344 123.875 L 255.777344 138.675781 C 255.777344 139.8125 254.640625 141.519531 253.5 142.089844 C 252.933594 142.089844 252.933594 142.089844 252.363281 142.089844 Z M 224.472656 99.398438 C 210.8125 99.398438 199.996094 110.214844 199.996094 123.875 L 199.996094 129.566406 C 206.828125 123.875 215.363281 120.460938 224.472656 120.460938 C 233.578125 120.460938 242.117188 123.875 248.949219 129.566406 L 248.949219 123.875 C 248.949219 110.214844 238.132812 99.398438 224.472656 99.398438 Z M 224.472656 99.398438 " fill-opacity="1" fill-rule="evenodd"/><path fill="#60c2f6" d="M 224.472656 195.597656 C 203.980469 195.597656 186.902344 178.519531 186.902344 158.027344 C 186.902344 137.535156 203.980469 120.460938 224.472656 120.460938 C 244.964844 120.460938 262.039062 137.535156 262.039062 158.027344 C 262.039062 178.519531 244.964844 195.597656 224.472656 195.597656 Z M 224.472656 127.292969 C 207.394531 127.292969 193.734375 140.953125 193.734375 158.027344 C 193.734375 174.535156 207.394531 188.765625 224.472656 188.765625 C 241.546875 188.765625 255.210938 174.535156 255.210938 158.027344 C 255.210938 140.953125 241.546875 127.292969 224.472656 127.292969 Z M 224.472656 127.292969 " fill-opacity="1" fill-rule="evenodd"/><path fill="#60c2f6" d="M 224.472656 179.660156 C 220.488281 179.660156 217.070312 176.242188 217.070312 171.6875 L 217.070312 160.304688 C 214.226562 158.027344 213.085938 155.183594 213.085938 151.765625 C 213.085938 145.507812 218.210938 140.382812 224.472656 140.382812 C 230.734375 140.382812 235.855469 145.507812 235.855469 151.765625 C 235.855469 155.183594 234.71875 158.027344 231.871094 160.304688 L 231.871094 171.6875 C 231.871094 176.242188 228.457031 179.660156 224.472656 179.660156 Z M 224.472656 147.214844 C 222.195312 147.214844 219.917969 148.921875 219.917969 151.765625 C 219.917969 153.476562 220.488281 154.613281 222.195312 155.75 C 222.765625 156.320312 223.902344 157.460938 223.902344 158.597656 L 223.902344 171.6875 C 223.902344 172.257812 223.902344 172.828125 224.472656 172.828125 C 225.039062 172.828125 225.039062 172.257812 225.039062 171.6875 L 225.039062 158.597656 C 225.039062 157.460938 226.179688 156.320312 226.75 155.75 C 228.457031 154.613281 229.027344 153.476562 229.027344 151.765625 C 229.027344 148.921875 226.75 147.214844 224.472656 147.214844 Z M 224.472656 147.214844 " fill-opacity="1" fill-rule="evenodd"/><path fill="#60c2f6" d="M 224.472656 222.347656 C 223.902344 222.347656 223.332031 222.347656 223.332031 222.347656 C 168.121094 199.011719 159.582031 166.566406 159.011719 164.859375 C 159.011719 164.859375 159.011719 164.859375 159.011719 164.289062 L 159.011719 92 C 159.011719 90.292969 160.152344 89.15625 161.289062 88.585938 L 223.332031 65.246094 C 223.902344 65.246094 225.039062 65.246094 225.609375 65.246094 L 287.652344 88.585938 C 288.792969 89.15625 289.929688 90.292969 289.929688 92 L 289.929688 164.289062 C 289.929688 164.859375 289.929688 164.859375 289.929688 164.859375 C 289.363281 166.566406 280.824219 199.011719 225.609375 222.347656 C 225.609375 222.347656 225.039062 222.347656 224.472656 222.347656 Z M 165.84375 163.71875 C 166.414062 165.429688 168.691406 172.257812 176.089844 181.367188 C 183.488281 191.042969 198.289062 204.132812 224.472656 215.519531 C 272.285156 195.027344 281.960938 167.136719 283.101562 163.71875 L 283.101562 94.277344 L 224.472656 72.078125 L 165.84375 94.277344 Z M 165.84375 163.71875 " fill-opacity="1" fill-rule="evenodd"/><g clip-path="url(#549912c7f4)"><path fill="#60c2f6" d="M 224.472656 239.425781 C 223.902344 239.425781 223.332031 239.425781 223.332031 239.425781 C 188.042969 224.625 168.691406 206.980469 159.011719 194.457031 C 147.628906 180.796875 145.351562 169.980469 145.351562 169.980469 C 145.351562 169.414062 144.78125 169.414062 144.78125 168.84375 L 144.78125 80.046875 C 144.78125 78.339844 145.921875 77.199219 147.058594 76.632812 L 223.332031 48.171875 C 223.902344 48.171875 225.039062 48.171875 225.609375 48.171875 L 301.882812 76.632812 C 303.023438 77.199219 304.160156 78.339844 304.160156 80.046875 L 304.160156 168.84375 C 304.160156 169.414062 303.589844 169.414062 303.589844 169.980469 C 303.589844 169.980469 301.316406 180.796875 289.929688 194.457031 C 280.253906 206.980469 260.902344 224.625 225.609375 239.425781 C 225.609375 239.425781 225.039062 239.425781 224.472656 239.425781 Z M 151.613281 168.273438 C 152.183594 170.550781 155.597656 179.089844 164.703125 190.472656 C 173.8125 201.859375 192.027344 218.363281 224.472656 232.59375 C 256.917969 218.363281 275.132812 201.859375 284.238281 190.472656 C 293.347656 179.089844 296.761719 170.550781 297.332031 168.273438 L 297.332031 82.324219 L 224.472656 55.003906 L 151.613281 82.324219 Z M 151.613281 168.273438 " fill-opacity="1" fill-rule="evenodd"/></g></svg>