<svg xmlns="http://www.w3.org/2000/svg" xmlns:xlink="http://www.w3.org/1999/xlink" width="601" zoomAndPan="magnify" viewBox="0 0 450.75 386.250002" height="515" preserveAspectRatio="xMidYMid meet" version="1.0"><defs><clipPath id="b24343e684"><path d="M 238 50.234375 L 241 50.234375 L 241 66 L 238 66 Z M 238 50.234375 " clip-rule="nonzero"/></clipPath><clipPath id="449af8f3bc"><path d="M 352 177 L 367.933594 177 L 367.933594 180 L 352 180 Z M 352 177 " clip-rule="nonzero"/></clipPath><clipPath id="5f91ba7b3f"><path d="M 352 205 L 367.933594 205 L 367.933594 209 L 352 209 Z M 352 205 " clip-rule="nonzero"/></clipPath><clipPath id="71dddb4ced"><path d="M 210 50.234375 L 213 50.234375 L 213 66 L 210 66 Z M 210 50.234375 " clip-rule="nonzero"/></clipPath><clipPath id="17ffff9711"><path d="M 339.214844 191.222656 L 367.925781 191.222656 L 367.925781 194.367188 L 339.214844 194.367188 Z M 339.214844 191.222656 " clip-rule="nonzero"/></clipPath><clipPath id="70f52d4455"><path d="M 223.722656 306.714844 L 226.867188 306.714844 L 226.867188 335.425781 L 223.722656 335.425781 Z M 223.722656 306.714844 " clip-rule="nonzero"/></clipPath><clipPath id="feab1d6037"><path d="M 82.734375 191.222656 L 111.371094 191.222656 L 111.371094 194.367188 L 82.734375 194.367188 Z M 82.734375 191.222656 " clip-rule="nonzero"/></clipPath><clipPath id="ab49a1a174"><path d="M 223.722656 50.234375 L 226.867188 50.234375 L 226.867188 78.875 L 223.722656 78.875 Z M 223.722656 50.234375 " clip-rule="nonzero"/></clipPath><clipPath id="bb603e321e"><path d="M 60 134.617188 L 145 134.617188 L 145 173 L 60 173 Z M 60 134.617188 " clip-rule="nonzero"/></clipPath><clipPath id="9078e103f8"><path d="M 116 234 L 201 234 L 201 272.351562 L 116 272.351562 Z M 116 234 " clip-rule="nonzero"/></clipPath><clipPath id="04c022adbc"><path d="M 185 134.617188 L 269 134.617188 L 269 173 L 185 173 Z M 185 134.617188 " clip-rule="nonzero"/></clipPath><clipPath id="6e0fe7b786"><path d="M 241 234 L 326 234 L 326 272.351562 L 241 272.351562 Z M 241 234 " clip-rule="nonzero"/></clipPath><clipPath id="9821ab19b8"><path d="M 309 134.617188 L 393.742188 134.617188 L 393.742188 173 L 309 173 Z M 309 134.617188 " clip-rule="nonzero"/></clipPath></defs><g clip-path="url(#b24343e684)"><path fill="#000000" d="M 239.875 50.972656 L 238.386719 65.152344 L 239.09375 65.226562 L 240.585938 51.046875 L 239.875 50.972656 " fill-opacity="1" fill-rule="nonzero"/></g><path fill="#000000" d="M 254.625 53.269531 L 251.660156 67.21875 L 252.359375 67.367188 L 255.320312 53.417969 L 254.625 53.269531 " fill-opacity="1" fill-rule="nonzero"/><path fill="#000000" d="M 264.644531 70.660156 L 265.324219 70.878906 L 269.730469 57.316406 L 269.050781 57.097656 L 264.644531 70.660156 " fill-opacity="1" fill-rule="nonzero"/><path fill="#000000" d="M 283.652344 62.703125 L 283 62.414062 L 277.199219 75.4375 L 277.851562 75.730469 L 283.652344 62.703125 " fill-opacity="1" fill-rule="nonzero"/><path fill="#000000" d="M 296.316406 69.15625 L 295.390625 68.621094 L 281.128906 93.316406 L 283.601562 94.742188 L 297.859375 70.046875 L 296.625 69.332031 L 296.316406 69.15625 " fill-opacity="1" fill-rule="nonzero"/><path fill="#000000" d="M 308.855469 77.253906 L 300.472656 88.789062 L 301.050781 89.207031 L 309.429688 77.671875 L 308.855469 77.253906 " fill-opacity="1" fill-rule="nonzero"/><path fill="#000000" d="M 321.007812 87.09375 L 320.476562 86.617188 L 310.933594 97.214844 L 311.464844 97.691406 L 321.007812 87.09375 " fill-opacity="1" fill-rule="nonzero"/><path fill="#000000" d="M 320.9375 107.214844 L 331.535156 97.675781 L 331.058594 97.144531 L 320.460938 106.6875 L 320.9375 107.214844 " fill-opacity="1" fill-rule="nonzero"/><path fill="#000000" d="M 329.363281 117.679688 L 340.898438 109.296875 L 340.480469 108.71875 L 328.941406 117.101562 L 329.363281 117.679688 " fill-opacity="1" fill-rule="nonzero"/><path fill="#000000" d="M 342.710938 140.953125 L 355.742188 135.152344 L 355.453125 134.5 L 342.421875 140.300781 L 342.710938 140.953125 " fill-opacity="1" fill-rule="nonzero"/><path fill="#000000" d="M 347.492188 153.507812 L 361.054688 149.101562 L 360.835938 148.421875 L 347.273438 152.828125 L 347.492188 153.507812 " fill-opacity="1" fill-rule="nonzero"/><path fill="#000000" d="M 350.933594 166.492188 L 364.882812 163.527344 L 364.734375 162.828125 L 350.785156 165.792969 L 350.933594 166.492188 " fill-opacity="1" fill-rule="nonzero"/><g clip-path="url(#449af8f3bc)"><path fill="#000000" d="M 352.996094 179.765625 L 367.179688 178.277344 L 367.105469 177.566406 L 352.921875 179.054688 L 352.996094 179.765625 " fill-opacity="1" fill-rule="nonzero"/></g><g clip-path="url(#5f91ba7b3f)"><path fill="#000000" d="M 352.921875 206.59375 L 367.105469 208.085938 L 367.179688 207.375 L 352.996094 205.886719 L 352.921875 206.59375 " fill-opacity="1" fill-rule="nonzero"/></g><path fill="#000000" d="M 350.785156 219.859375 L 364.734375 222.824219 L 364.882812 222.125 L 350.933594 219.160156 L 350.785156 219.859375 " fill-opacity="1" fill-rule="nonzero"/><path fill="#000000" d="M 347.273438 232.824219 L 360.835938 237.230469 L 361.054688 236.550781 L 347.492188 232.144531 L 347.273438 232.824219 " fill-opacity="1" fill-rule="nonzero"/><path fill="#000000" d="M 342.421875 245.351562 L 355.453125 251.152344 L 355.742188 250.5 L 342.710938 244.699219 L 342.421875 245.351562 " fill-opacity="1" fill-rule="nonzero"/><path fill="#000000" d="M 328.941406 268.550781 L 340.480469 276.929688 L 340.898438 276.355469 L 329.363281 267.972656 L 328.941406 268.550781 " fill-opacity="1" fill-rule="nonzero"/><path fill="#000000" d="M 320.460938 278.964844 L 331.058594 288.507812 L 331.535156 287.976562 L 320.9375 278.433594 L 320.460938 278.964844 " fill-opacity="1" fill-rule="nonzero"/><path fill="#000000" d="M 310.933594 288.4375 L 320.476562 299.035156 L 321.007812 298.558594 L 311.464844 287.960938 L 310.933594 288.4375 " fill-opacity="1" fill-rule="nonzero"/><path fill="#000000" d="M 300.472656 296.863281 L 308.855469 308.398438 L 309.429688 307.980469 L 301.050781 296.445312 L 300.472656 296.863281 " fill-opacity="1" fill-rule="nonzero"/><path fill="#000000" d="M 277.199219 310.214844 L 283 323.242188 L 283.652344 322.953125 L 277.851562 309.921875 L 277.199219 310.214844 " fill-opacity="1" fill-rule="nonzero"/><path fill="#000000" d="M 264.644531 314.992188 L 269.050781 328.554688 L 269.730469 328.335938 L 265.324219 314.773438 L 264.644531 314.992188 " fill-opacity="1" fill-rule="nonzero"/><path fill="#000000" d="M 251.660156 318.433594 L 254.625 332.382812 L 255.320312 332.234375 L 252.359375 318.285156 L 251.660156 318.433594 " fill-opacity="1" fill-rule="nonzero"/><path fill="#000000" d="M 238.386719 320.5 L 239.875 334.679688 L 240.585938 334.605469 L 239.09375 320.421875 L 238.386719 320.5 " fill-opacity="1" fill-rule="nonzero"/><path fill="#000000" d="M 210.066406 334.605469 L 210.773438 334.679688 L 212.265625 320.5 L 211.554688 320.421875 L 210.066406 334.605469 " fill-opacity="1" fill-rule="nonzero"/><path fill="#000000" d="M 195.328125 332.234375 L 196.027344 332.382812 L 198.992188 318.433594 L 198.292969 318.285156 L 195.328125 332.234375 " fill-opacity="1" fill-rule="nonzero"/><path fill="#000000" d="M 185.328125 314.773438 L 180.921875 328.335938 L 181.597656 328.554688 L 186.003906 314.992188 L 185.328125 314.773438 " fill-opacity="1" fill-rule="nonzero"/><path fill="#000000" d="M 172.800781 309.921875 L 167 322.953125 L 167.652344 323.242188 L 173.453125 310.214844 L 172.800781 309.921875 " fill-opacity="1" fill-rule="nonzero"/><path fill="#000000" d="M 141.21875 307.980469 L 141.796875 308.398438 L 150.179688 296.863281 L 149.601562 296.445312 L 141.21875 307.980469 " fill-opacity="1" fill-rule="nonzero"/><path fill="#000000" d="M 129.644531 298.558594 L 130.171875 299.035156 L 139.714844 288.4375 L 139.1875 287.960938 L 129.644531 298.558594 " fill-opacity="1" fill-rule="nonzero"/><path fill="#000000" d="M 129.714844 278.433594 L 119.117188 287.976562 L 119.59375 288.507812 L 130.191406 278.964844 L 129.714844 278.433594 " fill-opacity="1" fill-rule="nonzero"/><path fill="#000000" d="M 121.289062 267.972656 L 109.75 276.355469 L 110.171875 276.929688 L 121.707031 268.550781 L 121.289062 267.972656 " fill-opacity="1" fill-rule="nonzero"/><path fill="#000000" d="M 107.9375 244.699219 L 94.910156 250.5 L 95.199219 251.152344 L 108.226562 245.351562 L 107.9375 244.699219 " fill-opacity="1" fill-rule="nonzero"/><path fill="#000000" d="M 103.160156 232.144531 L 89.597656 236.550781 L 89.816406 237.230469 L 103.378906 232.824219 L 103.160156 232.144531 " fill-opacity="1" fill-rule="nonzero"/><path fill="#000000" d="M 99.71875 219.160156 L 85.769531 222.125 L 85.917969 222.824219 L 99.867188 219.859375 L 99.71875 219.160156 " fill-opacity="1" fill-rule="nonzero"/><path fill="#000000" d="M 97.652344 205.886719 L 83.472656 207.375 L 83.546875 208.085938 L 97.726562 206.59375 L 97.652344 205.886719 " fill-opacity="1" fill-rule="nonzero"/><path fill="#000000" d="M 97.726562 179.054688 L 83.546875 177.566406 L 83.472656 178.277344 L 97.652344 179.765625 L 97.726562 179.054688 " fill-opacity="1" fill-rule="nonzero"/><path fill="#000000" d="M 99.867188 165.792969 L 85.917969 162.828125 L 85.769531 163.527344 L 99.71875 166.492188 L 99.867188 165.792969 " fill-opacity="1" fill-rule="nonzero"/><path fill="#000000" d="M 103.378906 152.828125 L 89.816406 148.421875 L 89.597656 149.101562 L 103.160156 153.507812 L 103.378906 152.828125 " fill-opacity="1" fill-rule="nonzero"/><path fill="#000000" d="M 108.226562 140.300781 L 95.199219 134.5 L 94.910156 135.152344 L 107.9375 140.953125 L 108.226562 140.300781 " fill-opacity="1" fill-rule="nonzero"/><path fill="#000000" d="M 121.707031 117.101562 L 110.171875 108.71875 L 109.75 109.296875 L 121.289062 117.679688 L 121.707031 117.101562 " fill-opacity="1" fill-rule="nonzero"/><path fill="#000000" d="M 130.191406 106.6875 L 119.59375 97.144531 L 119.117188 97.675781 L 129.714844 107.214844 L 130.191406 106.6875 " fill-opacity="1" fill-rule="nonzero"/><path fill="#000000" d="M 129.644531 87.09375 L 139.1875 97.691406 L 139.714844 97.214844 L 130.171875 86.617188 L 129.644531 87.09375 " fill-opacity="1" fill-rule="nonzero"/><path fill="#000000" d="M 141.21875 77.671875 L 149.601562 89.207031 L 150.179688 88.789062 L 141.796875 77.253906 L 141.21875 77.671875 " fill-opacity="1" fill-rule="nonzero"/><path fill="#000000" d="M 167 62.703125 L 172.800781 75.730469 L 173.453125 75.4375 L 167.652344 62.414062 L 167 62.703125 " fill-opacity="1" fill-rule="nonzero"/><path fill="#000000" d="M 180.921875 57.316406 L 185.328125 70.878906 L 186.003906 70.660156 L 181.597656 57.097656 L 180.921875 57.316406 " fill-opacity="1" fill-rule="nonzero"/><path fill="#000000" d="M 195.328125 53.417969 L 198.292969 67.367188 L 198.992188 67.21875 L 196.027344 53.269531 L 195.328125 53.417969 " fill-opacity="1" fill-rule="nonzero"/><g clip-path="url(#71dddb4ced)"><path fill="#000000" d="M 210.066406 51.046875 L 211.554688 65.226562 L 212.265625 65.152344 L 210.773438 50.972656 L 210.066406 51.046875 " fill-opacity="1" fill-rule="nonzero"/></g><path fill="#000000" d="M 323.40625 134.550781 L 324.832031 137.023438 L 349.53125 122.761719 L 348.820312 121.527344 L 348.640625 121.21875 L 348.105469 120.292969 L 323.40625 134.550781 " fill-opacity="1" fill-rule="nonzero"/><g clip-path="url(#17ffff9711)"><path fill="#000000" d="M 339.40625 191.398438 L 339.40625 194.25 L 367.925781 194.25 L 367.925781 191.398438 L 339.40625 191.398438 " fill-opacity="1" fill-rule="nonzero"/></g><path fill="#000000" d="M 324.832031 248.628906 L 323.40625 251.101562 L 348.105469 265.359375 L 348.820312 264.125 L 348.996094 263.816406 L 349.53125 262.890625 L 324.832031 248.628906 " fill-opacity="1" fill-rule="nonzero"/><path fill="#000000" d="M 281.128906 292.335938 L 295.390625 317.03125 L 296.316406 316.496094 L 296.625 316.320312 L 297.859375 315.605469 L 283.601562 290.90625 L 281.128906 292.335938 " fill-opacity="1" fill-rule="nonzero"/><g clip-path="url(#70f52d4455)"><path fill="#000000" d="M 223.898438 306.90625 L 223.898438 335.425781 L 226.75 335.425781 L 226.75 306.90625 L 223.898438 306.90625 " fill-opacity="1" fill-rule="nonzero"/></g><path fill="#000000" d="M 167.050781 290.90625 L 152.792969 315.605469 L 153.71875 316.140625 L 154.027344 316.320312 L 155.261719 317.03125 L 169.519531 292.335938 L 167.050781 290.90625 " fill-opacity="1" fill-rule="nonzero"/><path fill="#000000" d="M 125.816406 248.628906 L 101.121094 262.890625 L 101.652344 263.816406 L 101.832031 264.125 L 102.546875 265.359375 L 127.242188 251.101562 L 125.816406 248.628906 " fill-opacity="1" fill-rule="nonzero"/><g clip-path="url(#feab1d6037)"><path fill="#000000" d="M 111.246094 191.398438 L 82.726562 191.398438 L 82.726562 194.25 L 111.246094 194.25 L 111.246094 191.398438 " fill-opacity="1" fill-rule="nonzero"/></g><path fill="#000000" d="M 127.242188 134.550781 L 102.546875 120.292969 L 102.011719 121.21875 L 101.832031 121.527344 L 101.121094 122.761719 L 125.816406 137.023438 L 127.242188 134.550781 " fill-opacity="1" fill-rule="nonzero"/><path fill="#000000" d="M 167.050781 94.742188 L 169.519531 93.316406 L 155.261719 68.621094 L 154.027344 69.332031 L 153.71875 69.511719 L 152.792969 70.046875 L 167.050781 94.742188 " fill-opacity="1" fill-rule="nonzero"/><g clip-path="url(#ab49a1a174)"><path fill="#000000" d="M 224.96875 50.226562 L 223.898438 50.226562 L 223.898438 78.746094 L 226.75 78.746094 L 226.75 50.226562 L 224.96875 50.226562 " fill-opacity="1" fill-rule="nonzero"/></g><path fill="#ffffff" d="M 142.609375 171.398438 C 142.335938 162.507812 142.070312 153.621094 141.800781 144.730469 C 141.75 143.148438 141.6875 141.5 140.949219 140.097656 C 139.152344 136.703125 134.511719 136.332031 130.667969 136.410156 C 107.816406 136.855469 84.964844 137.300781 62.113281 137.746094 L 59.90625 140.328125 C 59.539062 147.890625 59.175781 155.453125 58.804688 163.015625 C 58.6875 165.523438 58.636719 168.265625 60.183594 170.242188 C 62.023438 172.589844 65.382812 172.945312 68.363281 173.089844 C 75.820312 173.445312 83.285156 173.628906 90.753906 173.621094 C 93.703125 173.621094 96.160156 183.222656 99.109375 183.167969 C 101.6875 183.117188 104.757812 173.40625 107.328125 173.3125 C 117.390625 172.945312 130.089844 172.421875 140.101562 171.398438 Z M 142.609375 171.398438 " fill-opacity="1" fill-rule="nonzero"/><path fill="#ffffff" d="M 118.558594 235.570312 C 118.832031 244.464844 119.097656 253.347656 119.367188 262.242188 C 119.417969 263.820312 119.480469 265.472656 120.21875 266.871094 C 122.015625 270.269531 126.65625 270.636719 130.5 270.5625 C 153.351562 270.117188 176.203125 269.671875 199.054688 269.222656 L 201.261719 266.640625 C 201.628906 259.078125 201.992188 251.515625 202.363281 243.953125 C 202.480469 241.449219 202.527344 238.703125 200.984375 236.726562 C 199.144531 234.378906 195.785156 234.027344 192.804688 233.878906 C 185.347656 233.523438 177.882812 233.34375 170.414062 233.351562 C 167.464844 233.351562 165.007812 223.746094 162.058594 223.804688 C 159.480469 223.851562 156.410156 233.566406 153.839844 233.65625 C 143.777344 234.027344 131.078125 234.546875 121.066406 235.570312 Z M 118.558594 235.570312 " fill-opacity="1" fill-rule="nonzero"/><path fill="#ffffff" d="M 267.207031 171.398438 C 266.9375 162.507812 266.671875 153.621094 266.398438 144.730469 C 266.351562 143.148438 266.289062 141.5 265.550781 140.097656 C 263.753906 136.703125 259.113281 136.332031 255.265625 136.410156 C 232.417969 136.855469 209.566406 137.300781 186.714844 137.746094 L 184.507812 140.328125 C 184.136719 147.890625 183.773438 155.453125 183.40625 163.015625 C 183.289062 165.523438 183.238281 168.265625 184.785156 170.242188 C 186.625 172.589844 189.980469 172.945312 192.964844 173.089844 C 200.417969 173.445312 207.886719 173.628906 215.355469 173.621094 C 218.300781 173.621094 220.761719 183.222656 223.707031 183.167969 C 226.285156 183.117188 229.359375 173.40625 231.929688 173.3125 C 241.988281 172.945312 254.6875 172.421875 264.699219 171.398438 Z M 267.207031 171.398438 " fill-opacity="1" fill-rule="nonzero"/><path fill="#ffffff" d="M 323.636719 269.21875 C 300.789062 269.664062 277.9375 270.109375 255.085938 270.554688 C 251.242188 270.632812 246.601562 270.261719 244.804688 266.863281 C 244.066406 265.464844 244.003906 263.8125 243.953125 262.234375 C 243.683594 253.339844 243.417969 244.457031 243.144531 235.5625 L 245.644531 235.5625 C 255.65625 234.539062 268.359375 234.019531 278.417969 233.648438 C 280.996094 233.558594 284.066406 223.84375 286.636719 223.796875 C 289.585938 223.742188 292.039062 233.34375 294.992188 233.34375 C 302.460938 233.335938 309.921875 233.515625 317.382812 233.871094 C 320.363281 234.011719 323.722656 234.375 325.5625 236.71875 C 327.109375 238.691406 327.058594 241.441406 326.941406 243.949219 C 326.570312 251.511719 326.210938 259.070312 325.839844 266.632812 Z M 323.636719 269.21875 " fill-opacity="1" fill-rule="nonzero"/><path fill="#ffffff" d="M 391.800781 171.398438 C 391.53125 162.507812 391.265625 153.621094 390.992188 144.730469 C 390.945312 143.148438 390.882812 141.5 390.144531 140.097656 C 388.34375 136.703125 383.707031 136.332031 379.859375 136.410156 C 357.007812 136.855469 334.160156 137.300781 311.308594 137.746094 L 309.097656 140.328125 C 308.730469 147.890625 308.367188 155.453125 308 163.015625 C 307.878906 165.523438 307.832031 168.265625 309.378906 170.242188 C 311.21875 172.589844 314.574219 172.945312 317.558594 173.089844 C 325.011719 173.445312 332.480469 173.628906 339.949219 173.621094 C 342.894531 173.621094 345.355469 183.222656 348.300781 183.167969 C 350.878906 183.117188 353.949219 173.40625 356.523438 173.3125 C 366.582031 172.945312 379.28125 172.421875 389.292969 171.398438 Z M 391.800781 171.398438 " fill-opacity="1" fill-rule="nonzero"/><path fill="#ffffff" d="M 96.542969 213.992188 C 111.277344 216.714844 117.898438 195.09375 103.363281 191.433594 C 88.234375 187.617188 79.875 210.910156 96.542969 213.992188 Z M 96.542969 213.992188 " fill-opacity="1" fill-rule="nonzero"/><path fill="#ffffff" d="M 158.847656 213.992188 C 173.582031 216.714844 180.199219 195.09375 165.667969 191.433594 C 150.53125 187.617188 142.167969 210.910156 158.847656 213.992188 Z M 158.847656 213.992188 " fill-opacity="1" fill-rule="nonzero"/><path fill="#ffffff" d="M 221.144531 213.992188 C 235.878906 216.714844 242.496094 195.09375 227.964844 191.433594 C 212.824219 187.617188 204.464844 210.910156 221.144531 213.992188 Z M 221.144531 213.992188 " fill-opacity="1" fill-rule="nonzero"/><path fill="#ffffff" d="M 283.441406 213.992188 C 298.175781 216.714844 304.792969 195.09375 290.261719 191.433594 C 275.121094 187.617188 266.769531 210.910156 283.441406 213.992188 Z M 283.441406 213.992188 " fill-opacity="1" fill-rule="nonzero"/><path fill="#ffffff" d="M 345.738281 213.992188 C 360.472656 216.714844 367.089844 195.09375 352.558594 191.433594 C 337.425781 187.617188 329.066406 210.910156 345.738281 213.992188 Z M 345.738281 213.992188 " fill-opacity="1" fill-rule="nonzero"/><path fill="#000000" d="M 58.351562 140.328125 C 58.089844 145.828125 57.816406 151.332031 57.550781 156.832031 C 57.425781 159.386719 57.230469 161.957031 57.203125 164.519531 C 57.175781 166.679688 57.425781 169.003906 58.6875 170.828125 C 61.363281 174.691406 66.59375 174.59375 70.789062 174.777344 C 76.179688 175.007812 81.582031 175.136719 86.980469 175.179688 C 88.242188 175.1875 89.507812 175.171875 90.769531 175.195312 C 91.007812 175.199219 90.617188 175.027344 90.753906 175.195312 C 90.910156 175.390625 90.511719 175.117188 90.777344 175.207031 C 90.839844 175.230469 91.152344 175.464844 90.851562 175.230469 C 90.992188 175.332031 91.117188 175.457031 91.242188 175.582031 C 91.996094 176.351562 92.628906 177.511719 93.261719 178.632812 C 94.449219 180.714844 95.863281 184.140625 98.503906 184.671875 C 101.304688 185.234375 103.058594 181.675781 104.199219 179.714844 C 104.941406 178.4375 105.65625 177.152344 106.5 175.9375 C 106.675781 175.6875 106.972656 175.3125 107.371094 174.949219 C 107.648438 174.691406 107.21875 175.199219 107.417969 174.914062 C 107.609375 174.65625 107.65625 175.027344 107.40625 174.894531 C 107.371094 174.875 108.0625 174.824219 107.34375 174.878906 C 107.613281 174.859375 107.902344 174.859375 108.171875 174.851562 C 118.824219 174.460938 129.503906 174.046875 140.113281 172.972656 C 140.957031 172.890625 141.683594 172.3125 141.683594 171.40625 C 141.683594 170.625 140.964844 169.753906 140.113281 169.839844 C 130.835938 170.777344 121.5 171.203125 112.179688 171.574219 C 111.125 171.613281 110.066406 171.65625 109.015625 171.691406 C 108.199219 171.71875 107.273438 171.644531 106.484375 171.914062 C 105.261719 172.339844 104.410156 173.472656 103.699219 174.496094 C 102.890625 175.660156 102.207031 176.914062 101.5 178.140625 C 101.15625 178.722656 100.816406 179.308594 100.445312 179.878906 C 100.035156 180.515625 99.894531 180.742188 99.464844 181.203125 C 99.378906 181.292969 98.816406 181.800781 99.136719 181.53125 C 99.101562 181.558594 98.957031 181.667969 98.914062 181.664062 C 98.761719 181.640625 99.226562 181.507812 98.976562 181.628906 C 98.699219 181.761719 99.261719 181.425781 99.023438 181.605469 C 99.464844 181.273438 99.109375 181.886719 99.039062 181.585938 C 99.046875 181.628906 99.308594 181.761719 99.019531 181.558594 C 98.960938 181.523438 98.667969 181.285156 98.941406 181.515625 C 98.054688 180.765625 97.5625 179.832031 96.90625 178.703125 C 96.183594 177.457031 95.519531 176.167969 94.710938 174.972656 C 93.972656 173.878906 93.082031 172.714844 91.792969 172.253906 C 91.027344 171.984375 90.191406 172.066406 89.398438 172.066406 C 88.015625 172.066406 86.636719 172.054688 85.257812 172.039062 C 82.617188 172.011719 79.976562 171.957031 77.335938 171.878906 C 74.695312 171.804688 72.058594 171.707031 69.417969 171.585938 C 67.464844 171.496094 65.429688 171.46875 63.578125 170.773438 C 61.59375 170.027344 60.589844 168.375 60.402344 166.308594 C 60.15625 163.640625 60.5 160.882812 60.632812 158.222656 C 60.917969 152.265625 61.210938 146.308594 61.496094 140.351562 C 61.585938 138.316406 58.449219 138.324219 58.351562 140.328125 Z M 58.351562 140.328125 " fill-opacity="1" fill-rule="nonzero"/><g clip-path="url(#bb603e321e)"><path fill="#000000" d="M 62.121094 139.320312 C 77.261719 139.027344 92.390625 138.726562 107.53125 138.433594 C 115.070312 138.289062 122.605469 138.140625 130.152344 137.996094 C 132.5625 137.949219 135.265625 137.863281 137.488281 138.941406 C 138.46875 139.421875 139.300781 140.140625 139.730469 141.164062 C 140.351562 142.632812 140.226562 144.386719 140.273438 145.949219 C 140.53125 154.4375 140.789062 162.917969 141.039062 171.40625 C 141.105469 173.417969 144.238281 173.425781 144.175781 171.40625 C 143.9375 163.613281 143.703125 155.820312 143.472656 148.03125 C 143.367188 144.660156 143.757812 140.710938 141.375 137.988281 C 139.542969 135.894531 136.671875 135.195312 134.019531 134.953125 C 130.617188 134.632812 127.128906 134.925781 123.722656 134.988281 C 119.835938 135.066406 115.953125 135.140625 112.066406 135.21875 C 104.234375 135.371094 96.40625 135.523438 88.582031 135.675781 C 79.769531 135.851562 70.949219 136.019531 62.136719 136.191406 C 60.109375 136.222656 60.101562 139.355469 62.121094 139.320312 Z M 62.121094 139.320312 " fill-opacity="1" fill-rule="nonzero"/></g><path fill="#000000" d="M 202.820312 266.640625 C 203.085938 261.140625 203.359375 255.640625 203.621094 250.136719 C 203.75 247.582031 203.945312 245.011719 203.972656 242.449219 C 204 240.292969 203.75 237.964844 202.488281 236.140625 C 199.8125 232.277344 194.582031 232.375 190.386719 232.195312 C 184.992188 231.964844 179.59375 231.832031 174.195312 231.789062 C 172.933594 231.785156 171.667969 231.796875 170.40625 231.777344 C 170.167969 231.769531 170.558594 231.945312 170.417969 231.777344 C 170.265625 231.582031 170.664062 231.851562 170.398438 231.761719 C 170.335938 231.742188 170.023438 231.503906 170.320312 231.742188 C 170.183594 231.636719 170.058594 231.511719 169.933594 231.386719 C 169.179688 230.621094 168.546875 229.457031 167.910156 228.335938 C 166.726562 226.253906 165.3125 222.828125 162.671875 222.300781 C 159.871094 221.734375 158.117188 225.292969 156.972656 227.257812 C 156.234375 228.53125 155.519531 229.820312 154.675781 231.03125 C 154.5 231.28125 154.199219 231.65625 153.804688 232.019531 C 153.523438 232.277344 153.957031 231.769531 153.753906 232.054688 C 153.566406 232.3125 153.519531 231.945312 153.769531 232.074219 C 153.804688 232.097656 153.113281 232.144531 153.832031 232.089844 C 153.558594 232.109375 153.273438 232.109375 153.003906 232.117188 C 142.351562 232.507812 131.671875 232.925781 121.058594 233.996094 C 120.21875 234.082031 119.492188 234.660156 119.492188 235.5625 C 119.492188 236.34375 120.210938 237.214844 121.058594 237.132812 C 130.339844 236.191406 139.675781 235.765625 148.996094 235.398438 C 150.050781 235.355469 151.109375 235.3125 152.160156 235.277344 C 152.976562 235.25 153.902344 235.328125 154.6875 235.054688 C 155.914062 234.632812 156.765625 233.496094 157.476562 232.472656 C 158.285156 231.308594 158.964844 230.054688 159.675781 228.832031 C 160.019531 228.246094 160.359375 227.660156 160.730469 227.089844 C 161.140625 226.457031 161.28125 226.226562 161.710938 225.765625 C 161.792969 225.675781 162.359375 225.167969 162.039062 225.441406 C 162.074219 225.410156 162.21875 225.300781 162.261719 225.308594 C 162.414062 225.328125 161.949219 225.460938 162.199219 225.34375 C 162.476562 225.210938 161.914062 225.542969 162.148438 225.363281 C 161.710938 225.699219 162.066406 225.085938 162.136719 225.382812 C 162.128906 225.34375 161.863281 225.210938 162.15625 225.410156 C 162.210938 225.445312 162.503906 225.683594 162.234375 225.453125 C 163.117188 226.207031 163.613281 227.140625 164.269531 228.265625 C 164.992188 229.511719 165.65625 230.800781 166.460938 232 C 167.199219 233.09375 168.09375 234.253906 169.382812 234.714844 C 170.148438 234.988281 170.984375 234.902344 171.777344 234.902344 C 173.15625 234.902344 174.535156 234.917969 175.917969 234.929688 C 178.558594 234.957031 181.195312 235.015625 183.835938 235.089844 C 186.476562 235.167969 189.117188 235.265625 191.757812 235.382812 C 193.710938 235.472656 195.742188 235.5 197.597656 236.199219 C 199.582031 236.941406 200.585938 238.59375 200.773438 240.660156 C 201.015625 243.328125 200.675781 246.085938 200.542969 248.746094 C 200.257812 254.707031 199.964844 260.660156 199.679688 266.621094 C 199.589844 268.652344 202.722656 268.648438 202.820312 266.640625 Z M 202.820312 266.640625 " fill-opacity="1" fill-rule="nonzero"/><g clip-path="url(#9078e103f8)"><path fill="#000000" d="M 199.046875 267.652344 C 183.90625 267.941406 168.777344 268.242188 153.636719 268.535156 C 146.097656 268.679688 138.5625 268.828125 131.015625 268.972656 C 128.605469 269.023438 125.902344 269.105469 123.679688 268.027344 C 122.699219 267.546875 121.867188 266.828125 121.4375 265.804688 C 120.816406 264.335938 120.941406 262.582031 120.894531 261.023438 C 120.636719 252.535156 120.378906 244.050781 120.125 235.5625 C 120.0625 233.550781 116.929688 233.546875 116.992188 235.5625 C 117.230469 243.355469 117.464844 251.148438 117.695312 258.941406 C 117.800781 262.308594 117.410156 266.257812 119.792969 268.980469 C 121.625 271.078125 124.496094 271.773438 127.148438 272.015625 C 130.550781 272.335938 134.039062 272.042969 137.445312 271.980469 C 141.332031 271.90625 145.214844 271.828125 149.101562 271.753906 C 156.933594 271.597656 164.761719 271.445312 172.585938 271.292969 C 181.398438 271.117188 190.21875 270.953125 199.03125 270.777344 C 201.058594 270.75 201.066406 267.617188 199.046875 267.652344 Z M 199.046875 267.652344 " fill-opacity="1" fill-rule="nonzero"/></g><path fill="#000000" d="M 182.945312 140.328125 C 182.679688 145.828125 182.410156 151.332031 182.144531 156.832031 C 182.019531 159.386719 181.824219 161.957031 181.796875 164.519531 C 181.769531 166.679688 182.019531 169.003906 183.28125 170.828125 C 185.957031 174.691406 191.1875 174.59375 195.382812 174.777344 C 200.773438 175.007812 206.171875 175.136719 211.570312 175.179688 C 212.832031 175.1875 214.101562 175.171875 215.363281 175.195312 C 215.597656 175.199219 215.207031 175.027344 215.347656 175.195312 C 215.5 175.390625 215.105469 175.117188 215.367188 175.207031 C 215.429688 175.230469 215.746094 175.464844 215.445312 175.230469 C 215.585938 175.332031 215.710938 175.457031 215.835938 175.582031 C 216.589844 176.351562 217.222656 177.511719 217.855469 178.632812 C 219.039062 180.714844 220.453125 184.140625 223.09375 184.671875 C 225.894531 185.234375 227.652344 181.675781 228.792969 179.714844 C 229.53125 178.4375 230.25 177.152344 231.09375 175.9375 C 231.265625 175.6875 231.566406 175.3125 231.964844 174.949219 C 232.242188 174.691406 231.808594 175.199219 232.011719 174.914062 C 232.199219 174.65625 232.25 175.027344 232 174.894531 C 231.964844 174.875 232.652344 174.824219 231.9375 174.878906 C 232.207031 174.859375 232.492188 174.859375 232.765625 174.851562 C 243.417969 174.460938 254.097656 174.046875 264.707031 172.972656 C 265.550781 172.890625 266.273438 172.3125 266.273438 171.40625 C 266.273438 170.625 265.558594 169.753906 264.707031 169.839844 C 255.425781 170.777344 246.09375 171.203125 236.769531 171.574219 C 235.71875 171.613281 234.660156 171.65625 233.609375 171.691406 C 232.792969 171.71875 231.867188 171.644531 231.078125 171.914062 C 229.851562 172.339844 229.003906 173.472656 228.292969 174.496094 C 227.484375 175.660156 226.800781 176.914062 226.089844 178.140625 C 225.75 178.722656 225.40625 179.308594 225.039062 179.878906 C 224.628906 180.515625 224.488281 180.742188 224.054688 181.203125 C 223.972656 181.292969 223.410156 181.800781 223.730469 181.53125 C 223.695312 181.558594 223.546875 181.667969 223.507812 181.664062 C 223.351562 181.640625 223.820312 181.507812 223.570312 181.628906 C 223.289062 181.761719 223.855469 181.425781 223.617188 181.605469 C 224.054688 181.273438 223.699219 181.886719 223.632812 181.585938 C 223.636719 181.628906 223.902344 181.761719 223.609375 181.558594 C 223.554688 181.523438 223.261719 181.285156 223.535156 181.515625 C 222.648438 180.765625 222.15625 179.832031 221.5 178.703125 C 220.773438 177.457031 220.113281 176.167969 219.304688 174.972656 C 218.566406 173.878906 217.675781 172.714844 216.386719 172.253906 C 215.621094 171.984375 214.785156 172.066406 213.988281 172.066406 C 212.609375 172.066406 211.230469 172.054688 209.851562 172.039062 C 207.210938 172.011719 204.570312 171.957031 201.929688 171.878906 C 199.289062 171.804688 196.648438 171.707031 194.007812 171.585938 C 192.058594 171.496094 190.023438 171.46875 188.171875 170.773438 C 186.183594 170.027344 185.183594 168.375 184.992188 166.308594 C 184.75 163.640625 185.089844 160.882812 185.222656 158.222656 C 185.507812 152.265625 185.800781 146.308594 186.085938 140.351562 C 186.179688 138.316406 183.042969 138.324219 182.945312 140.328125 Z M 182.945312 140.328125 " fill-opacity="1" fill-rule="nonzero"/><g clip-path="url(#04c022adbc)"><path fill="#000000" d="M 186.722656 139.320312 C 201.859375 139.027344 216.992188 138.726562 232.128906 138.433594 C 239.667969 138.289062 247.207031 138.140625 254.75 137.996094 C 257.164062 137.949219 259.867188 137.863281 262.085938 138.941406 C 263.070312 139.421875 263.898438 140.140625 264.332031 141.164062 C 264.949219 142.632812 264.824219 144.386719 264.875 145.949219 C 265.132812 154.4375 265.390625 162.917969 265.640625 171.40625 C 265.703125 173.417969 268.839844 173.425781 268.777344 171.40625 C 268.539062 163.613281 268.300781 155.820312 268.070312 148.03125 C 267.96875 144.660156 268.359375 140.710938 265.976562 137.988281 C 264.144531 135.894531 261.273438 135.195312 258.617188 134.953125 C 255.21875 134.632812 251.726562 134.925781 248.320312 134.988281 C 244.433594 135.066406 240.554688 135.140625 236.667969 135.21875 C 228.835938 135.371094 221.003906 135.523438 213.179688 135.675781 C 204.367188 135.851562 195.546875 136.019531 186.734375 136.191406 C 184.707031 136.222656 184.703125 139.355469 186.722656 139.320312 Z M 186.722656 139.320312 " fill-opacity="1" fill-rule="nonzero"/></g><path fill="#000000" d="M 327.414062 266.640625 C 327.679688 261.140625 327.949219 255.640625 328.214844 250.136719 C 328.339844 247.582031 328.535156 245.011719 328.5625 242.449219 C 328.59375 240.292969 328.339844 237.964844 327.082031 236.140625 C 324.40625 232.277344 319.171875 232.375 314.980469 232.195312 C 309.585938 231.964844 304.1875 231.832031 298.789062 231.789062 C 297.527344 231.785156 296.257812 231.796875 295 231.777344 C 294.761719 231.769531 295.152344 231.945312 295.011719 231.777344 C 294.859375 231.582031 295.257812 231.851562 294.992188 231.761719 C 294.929688 231.742188 294.617188 231.503906 294.914062 231.742188 C 294.777344 231.636719 294.648438 231.511719 294.523438 231.386719 C 293.773438 230.621094 293.136719 229.457031 292.503906 228.335938 C 291.320312 226.253906 289.90625 222.828125 287.265625 222.300781 C 284.464844 221.734375 282.710938 225.292969 281.566406 227.257812 C 280.828125 228.53125 280.109375 229.820312 279.269531 231.03125 C 279.09375 231.28125 278.792969 231.65625 278.398438 232.019531 C 278.117188 232.277344 278.550781 231.769531 278.347656 232.054688 C 278.160156 232.3125 278.109375 231.945312 278.363281 232.074219 C 278.398438 232.097656 277.707031 232.144531 278.425781 232.089844 C 278.152344 232.109375 277.867188 232.109375 277.59375 232.117188 C 266.945312 232.507812 256.261719 232.925781 245.652344 233.996094 C 244.808594 234.082031 244.085938 234.660156 244.085938 235.5625 C 244.085938 236.34375 244.804688 237.214844 245.652344 237.132812 C 254.933594 236.191406 264.269531 235.765625 273.589844 235.398438 C 274.640625 235.355469 275.699219 235.3125 276.753906 235.277344 C 277.566406 235.25 278.496094 235.328125 279.28125 235.054688 C 280.507812 234.632812 281.359375 233.496094 282.066406 232.472656 C 282.875 231.308594 283.558594 230.054688 284.269531 228.832031 C 284.609375 228.246094 284.953125 227.660156 285.320312 227.089844 C 285.734375 226.457031 285.871094 226.226562 286.304688 225.765625 C 286.386719 225.675781 286.953125 225.167969 286.632812 225.441406 C 286.667969 225.410156 286.8125 225.300781 286.855469 225.308594 C 287.007812 225.328125 286.539062 225.460938 286.792969 225.34375 C 287.070312 225.210938 286.507812 225.542969 286.742188 225.363281 C 286.304688 225.699219 286.660156 225.085938 286.730469 225.382812 C 286.722656 225.34375 286.457031 225.210938 286.75 225.410156 C 286.804688 225.445312 287.097656 225.683594 286.828125 225.453125 C 287.710938 226.207031 288.207031 227.140625 288.859375 228.265625 C 289.585938 229.511719 290.246094 230.800781 291.054688 232 C 291.792969 233.09375 292.683594 234.253906 293.972656 234.714844 C 294.742188 234.988281 295.578125 234.902344 296.371094 234.902344 C 297.75 234.902344 299.128906 234.917969 300.507812 234.929688 C 303.148438 234.957031 305.789062 235.015625 308.429688 235.089844 C 311.070312 235.167969 313.710938 235.265625 316.351562 235.382812 C 318.300781 235.472656 320.335938 235.5 322.191406 236.199219 C 324.175781 236.941406 325.179688 238.59375 325.367188 240.660156 C 325.609375 243.328125 325.269531 246.085938 325.136719 248.746094 C 324.851562 254.707031 324.558594 260.660156 324.273438 266.621094 C 324.183594 268.652344 327.316406 268.648438 327.414062 266.640625 Z M 327.414062 266.640625 " fill-opacity="1" fill-rule="nonzero"/><g clip-path="url(#6e0fe7b786)"><path fill="#000000" d="M 323.636719 267.652344 C 308.5 267.941406 293.367188 268.242188 278.230469 268.535156 C 270.691406 268.679688 263.152344 268.828125 255.609375 268.972656 C 253.199219 269.023438 250.496094 269.105469 248.273438 268.027344 C 247.289062 267.546875 246.460938 266.828125 246.03125 265.804688 C 245.410156 264.335938 245.535156 262.582031 245.484375 261.023438 C 245.226562 252.535156 244.96875 244.050781 244.71875 235.5625 C 244.65625 233.550781 241.523438 233.546875 241.585938 235.5625 C 241.820312 243.355469 242.058594 251.148438 242.289062 258.941406 C 242.394531 262.308594 242.003906 266.257812 244.386719 268.980469 C 246.21875 271.078125 249.085938 271.773438 251.742188 272.015625 C 255.140625 272.335938 258.632812 272.042969 262.039062 271.980469 C 265.925781 271.90625 269.808594 271.828125 273.695312 271.753906 C 281.523438 271.597656 289.355469 271.445312 297.179688 271.292969 C 305.992188 271.117188 314.8125 270.953125 323.625 270.777344 C 325.660156 270.75 325.664062 267.617188 323.636719 267.652344 Z M 323.636719 267.652344 " fill-opacity="1" fill-rule="nonzero"/></g><path fill="#000000" d="M 307.539062 140.328125 C 307.273438 145.828125 307.003906 151.332031 306.738281 156.832031 C 306.613281 159.386719 306.417969 161.957031 306.390625 164.519531 C 306.359375 166.679688 306.613281 169.003906 307.871094 170.828125 C 310.546875 174.691406 315.78125 174.59375 319.972656 174.777344 C 325.367188 175.007812 330.765625 175.136719 336.164062 175.179688 C 337.425781 175.1875 338.695312 175.171875 339.953125 175.195312 C 340.191406 175.199219 339.800781 175.027344 339.941406 175.195312 C 340.09375 175.390625 339.695312 175.117188 339.960938 175.207031 C 340.023438 175.230469 340.335938 175.464844 340.039062 175.230469 C 340.175781 175.332031 340.304688 175.457031 340.429688 175.582031 C 341.179688 176.351562 341.816406 177.511719 342.449219 178.632812 C 343.632812 180.714844 345.046875 184.140625 347.6875 184.671875 C 350.488281 185.234375 352.242188 181.675781 353.386719 179.714844 C 354.125 178.4375 354.84375 177.152344 355.6875 175.9375 C 355.859375 175.6875 356.160156 175.3125 356.554688 174.949219 C 356.835938 174.691406 356.402344 175.199219 356.605469 174.914062 C 356.792969 174.65625 356.84375 175.027344 356.589844 174.894531 C 356.554688 174.875 357.246094 174.824219 356.527344 174.878906 C 356.800781 174.859375 357.085938 174.859375 357.359375 174.851562 C 368.007812 174.460938 378.691406 174.046875 389.300781 172.972656 C 390.144531 172.890625 390.867188 172.3125 390.867188 171.40625 C 390.867188 170.625 390.148438 169.753906 389.300781 169.839844 C 380.019531 170.777344 370.683594 171.203125 361.363281 171.574219 C 360.3125 171.613281 359.253906 171.65625 358.199219 171.691406 C 357.386719 171.71875 356.457031 171.644531 355.671875 171.914062 C 354.445312 172.339844 353.59375 173.472656 352.886719 174.496094 C 352.078125 175.660156 351.394531 176.914062 350.683594 178.140625 C 350.34375 178.722656 350 179.308594 349.632812 179.878906 C 349.21875 180.515625 349.082031 180.742188 348.648438 181.203125 C 348.566406 181.292969 348 181.800781 348.320312 181.53125 C 348.285156 181.558594 348.140625 181.667969 348.097656 181.664062 C 347.945312 181.640625 348.414062 181.507812 348.160156 181.628906 C 347.882812 181.761719 348.445312 181.425781 348.210938 181.605469 C 348.648438 181.273438 348.292969 181.886719 348.222656 181.585938 C 348.230469 181.628906 348.496094 181.761719 348.203125 181.558594 C 348.148438 181.523438 347.855469 181.285156 348.125 181.515625 C 347.242188 180.765625 346.746094 179.832031 346.09375 178.703125 C 345.367188 177.457031 344.707031 176.167969 343.898438 174.972656 C 343.160156 173.878906 342.269531 172.714844 340.980469 172.253906 C 340.210938 171.984375 339.375 172.066406 338.582031 172.066406 C 337.203125 172.066406 335.824219 172.054688 334.445312 172.039062 C 331.804688 172.011719 329.164062 171.957031 326.523438 171.878906 C 323.882812 171.804688 321.242188 171.707031 318.601562 171.585938 C 316.652344 171.496094 314.617188 171.46875 312.761719 170.773438 C 310.777344 170.027344 309.773438 168.375 309.585938 166.308594 C 309.34375 163.640625 309.683594 160.882812 309.816406 158.222656 C 310.101562 152.265625 310.394531 146.308594 310.679688 140.351562 C 310.777344 138.316406 307.636719 138.324219 307.539062 140.328125 Z M 307.539062 140.328125 " fill-opacity="1" fill-rule="nonzero"/><g clip-path="url(#9821ab19b8)"><path fill="#000000" d="M 311.316406 139.320312 C 326.453125 139.027344 341.585938 138.726562 356.722656 138.433594 C 364.261719 138.289062 371.800781 138.140625 379.34375 137.996094 C 381.753906 137.949219 384.457031 137.863281 386.679688 138.941406 C 387.664062 139.421875 388.492188 140.140625 388.921875 141.164062 C 389.542969 142.632812 389.417969 144.386719 389.46875 145.949219 C 389.726562 154.4375 389.984375 162.917969 390.234375 171.40625 C 390.296875 173.417969 393.429688 173.425781 393.367188 171.40625 C 393.132812 163.613281 392.894531 155.820312 392.664062 148.03125 C 392.558594 144.660156 392.949219 140.710938 390.566406 137.988281 C 388.734375 135.894531 385.867188 135.195312 383.210938 134.953125 C 379.8125 134.632812 376.320312 134.925781 372.914062 134.988281 C 369.027344 135.066406 365.144531 135.140625 361.257812 135.21875 C 353.429688 135.371094 345.597656 135.523438 337.773438 135.675781 C 328.960938 135.851562 320.140625 136.019531 311.328125 136.191406 C 309.300781 136.222656 309.292969 139.355469 311.316406 139.320312 Z M 311.316406 139.320312 " fill-opacity="1" fill-rule="nonzero"/></g><path fill="#000000" d="M 96.132812 215.503906 C 99.246094 216.0625 102.367188 215.761719 105.21875 214.339844 C 107.613281 213.144531 109.621094 211.160156 110.980469 208.859375 C 113.683594 204.285156 113.917969 198.207031 110.464844 193.960938 C 106.722656 189.363281 99.589844 188.332031 94.363281 190.707031 C 89.605469 192.867188 86.378906 197.746094 85.863281 202.886719 C 85.597656 205.558594 86.234375 208.402344 87.816406 210.59375 C 89.800781 213.324219 92.859375 214.878906 96.132812 215.503906 C 96.960938 215.664062 97.828125 215.273438 98.0625 214.410156 C 98.273438 213.644531 97.804688 212.640625 96.96875 212.480469 C 95.644531 212.230469 94.390625 211.855469 93.320312 211.292969 C 92.238281 210.71875 91.652344 210.289062 90.824219 209.363281 C 90.726562 209.25 90.636719 209.148438 90.546875 209.027344 C 90.714844 209.238281 90.558594 209.042969 90.53125 209.007812 C 90.363281 208.777344 90.210938 208.539062 90.066406 208.296875 C 89.945312 208.09375 89.835938 207.894531 89.730469 207.683594 C 89.683594 207.578125 89.632812 207.476562 89.585938 207.371094 C 89.535156 207.265625 89.550781 207.289062 89.605469 207.425781 C 89.570312 207.34375 89.535156 207.253906 89.507812 207.167969 C 89.109375 206.027344 89 205.441406 88.964844 204.445312 C 88.949219 203.972656 88.964844 203.5 89 203.03125 C 89.011719 202.894531 89.027344 202.746094 89.042969 202.609375 C 88.992188 202.96875 89.0625 202.496094 89.070312 202.453125 C 89.125 202.167969 89.171875 201.882812 89.242188 201.605469 C 89.527344 200.429688 89.792969 199.761719 90.28125 198.820312 C 90.511719 198.382812 90.769531 197.949219 91.046875 197.539062 C 91.1875 197.328125 91.332031 197.128906 91.480469 196.925781 C 91.292969 197.167969 91.597656 196.78125 91.605469 196.773438 C 91.714844 196.640625 91.828125 196.5 91.945312 196.367188 C 92.292969 195.972656 92.671875 195.597656 93.066406 195.246094 C 93.578125 194.796875 93.640625 194.753906 94.195312 194.378906 C 96.121094 193.101562 98.082031 192.539062 100.339844 192.589844 C 102.605469 192.636719 105.316406 193.457031 106.960938 194.859375 C 107.90625 195.664062 108.367188 196.207031 108.917969 197.226562 C 109.035156 197.441406 109.148438 197.664062 109.246094 197.886719 C 109.441406 198.324219 109.148438 197.609375 109.3125 198.054688 C 109.347656 198.144531 109.382812 198.234375 109.410156 198.332031 C 109.605469 198.890625 109.738281 199.460938 109.835938 200.039062 C 109.890625 200.351562 109.851562 200.128906 109.84375 200.058594 C 109.863281 200.207031 109.878906 200.351562 109.886719 200.5 C 109.90625 200.742188 109.921875 200.992188 109.921875 201.242188 C 109.925781 201.515625 109.921875 201.792969 109.90625 202.066406 C 109.898438 202.191406 109.890625 202.316406 109.878906 202.441406 C 109.871094 202.496094 109.800781 203.09375 109.851562 202.773438 C 109.710938 203.792969 109.363281 205.023438 109.027344 205.816406 C 108.121094 207.992188 106.527344 209.925781 104.550781 211.136719 C 102.285156 212.53125 99.636719 212.96875 96.960938 212.496094 C 96.125 212.351562 95.277344 212.71875 95.03125 213.589844 C 94.832031 214.335938 95.289062 215.351562 96.132812 215.503906 Z M 96.132812 215.503906 " fill-opacity="1" fill-rule="nonzero"/><path fill="#000000" d="M 158.429688 215.503906 C 161.542969 216.0625 164.664062 215.761719 167.515625 214.339844 C 169.910156 213.144531 171.917969 211.160156 173.277344 208.859375 C 175.980469 204.285156 176.214844 198.207031 172.761719 193.960938 C 169.019531 189.363281 161.886719 188.332031 156.660156 190.707031 C 151.902344 192.867188 148.675781 197.746094 148.160156 202.886719 C 147.894531 205.558594 148.53125 208.402344 150.113281 210.59375 C 152.097656 213.324219 155.164062 214.878906 158.429688 215.503906 C 159.257812 215.664062 160.121094 215.273438 160.359375 214.410156 C 160.570312 213.644531 160.101562 212.640625 159.265625 212.480469 C 157.941406 212.230469 156.6875 211.855469 155.617188 211.292969 C 154.535156 210.71875 153.949219 210.289062 153.121094 209.363281 C 153.023438 209.25 152.933594 209.148438 152.84375 209.027344 C 153.011719 209.238281 152.855469 209.042969 152.828125 209.007812 C 152.660156 208.777344 152.507812 208.539062 152.363281 208.296875 C 152.242188 208.09375 152.132812 207.894531 152.027344 207.683594 C 151.980469 207.578125 151.929688 207.476562 151.882812 207.371094 C 151.832031 207.265625 151.847656 207.289062 151.902344 207.425781 C 151.867188 207.34375 151.832031 207.253906 151.804688 207.167969 C 151.40625 206.027344 151.296875 205.441406 151.261719 204.445312 C 151.246094 203.972656 151.261719 203.5 151.296875 203.03125 C 151.308594 202.894531 151.324219 202.746094 151.335938 202.609375 C 151.289062 202.96875 151.359375 202.496094 151.367188 202.453125 C 151.421875 202.167969 151.46875 201.882812 151.539062 201.605469 C 151.824219 200.429688 152.089844 199.761719 152.578125 198.820312 C 152.808594 198.382812 153.066406 197.949219 153.34375 197.539062 C 153.484375 197.328125 153.628906 197.128906 153.777344 196.925781 C 153.589844 197.167969 153.894531 196.78125 153.902344 196.773438 C 154.011719 196.640625 154.125 196.5 154.242188 196.367188 C 154.589844 195.972656 154.96875 195.597656 155.363281 195.246094 C 155.875 194.796875 155.9375 194.753906 156.492188 194.378906 C 158.414062 193.101562 160.378906 192.539062 162.636719 192.589844 C 164.902344 192.636719 167.613281 193.457031 169.257812 194.859375 C 170.203125 195.664062 170.664062 196.207031 171.214844 197.226562 C 171.332031 197.441406 171.445312 197.664062 171.542969 197.886719 C 171.738281 198.324219 171.445312 197.609375 171.609375 198.054688 C 171.644531 198.144531 171.679688 198.234375 171.707031 198.332031 C 171.902344 198.890625 172.035156 199.460938 172.132812 200.039062 C 172.1875 200.351562 172.148438 200.128906 172.140625 200.058594 C 172.160156 200.207031 172.175781 200.351562 172.183594 200.5 C 172.203125 200.742188 172.21875 200.992188 172.21875 201.242188 C 172.222656 201.515625 172.21875 201.792969 172.203125 202.066406 C 172.195312 202.191406 172.1875 202.316406 172.175781 202.441406 C 172.167969 202.496094 172.097656 203.09375 172.148438 202.773438 C 172.007812 203.792969 171.660156 205.023438 171.324219 205.816406 C 170.417969 207.992188 168.824219 209.925781 166.847656 211.136719 C 164.582031 212.53125 161.933594 212.96875 159.257812 212.496094 C 158.421875 212.351562 157.574219 212.71875 157.328125 213.589844 C 157.128906 214.335938 157.59375 215.351562 158.429688 215.503906 Z M 158.429688 215.503906 " fill-opacity="1" fill-rule="nonzero"/><path fill="#000000" d="M 220.726562 215.503906 C 223.839844 216.0625 226.960938 215.761719 229.8125 214.339844 C 232.207031 213.144531 234.214844 211.160156 235.574219 208.859375 C 238.277344 204.285156 238.511719 198.207031 235.058594 193.960938 C 231.316406 189.363281 224.183594 188.332031 218.957031 190.707031 C 214.199219 192.867188 210.972656 197.746094 210.457031 202.886719 C 210.191406 205.558594 210.828125 208.402344 212.40625 210.59375 C 214.394531 213.324219 217.457031 214.878906 220.726562 215.503906 C 221.554688 215.664062 222.417969 215.273438 222.65625 214.410156 C 222.863281 213.644531 222.398438 212.640625 221.5625 212.480469 C 220.238281 212.230469 218.984375 211.855469 217.910156 211.292969 C 216.832031 210.71875 216.246094 210.289062 215.417969 209.363281 C 215.320312 209.25 215.230469 209.148438 215.140625 209.027344 C 215.304688 209.238281 215.152344 209.042969 215.125 209.007812 C 214.957031 208.777344 214.804688 208.539062 214.660156 208.296875 C 214.539062 208.09375 214.429688 207.894531 214.324219 207.683594 C 214.273438 207.578125 214.226562 207.476562 214.175781 207.371094 C 214.128906 207.265625 214.144531 207.289062 214.199219 207.425781 C 214.164062 207.34375 214.128906 207.253906 214.101562 207.167969 C 213.703125 206.027344 213.59375 205.441406 213.558594 204.445312 C 213.542969 203.972656 213.558594 203.5 213.59375 203.03125 C 213.605469 202.894531 213.621094 202.746094 213.632812 202.609375 C 213.585938 202.96875 213.65625 202.496094 213.660156 202.453125 C 213.71875 202.167969 213.765625 201.882812 213.835938 201.605469 C 214.121094 200.429688 214.386719 199.761719 214.875 198.820312 C 215.105469 198.382812 215.363281 197.949219 215.640625 197.539062 C 215.78125 197.328125 215.925781 197.128906 216.074219 196.925781 C 215.882812 197.167969 216.191406 196.78125 216.199219 196.773438 C 216.308594 196.640625 216.421875 196.5 216.539062 196.367188 C 216.886719 195.972656 217.265625 195.597656 217.660156 195.246094 C 218.167969 194.796875 218.230469 194.753906 218.789062 194.378906 C 220.710938 193.101562 222.675781 192.539062 224.933594 192.589844 C 227.199219 192.636719 229.910156 193.457031 231.550781 194.859375 C 232.5 195.664062 232.960938 196.207031 233.511719 197.226562 C 233.628906 197.441406 233.738281 197.664062 233.835938 197.886719 C 234.03125 198.324219 233.738281 197.609375 233.90625 198.054688 C 233.941406 198.144531 233.976562 198.234375 234.003906 198.332031 C 234.199219 198.890625 234.332031 199.460938 234.429688 200.039062 C 234.484375 200.351562 234.445312 200.128906 234.4375 200.058594 C 234.457031 200.207031 234.472656 200.351562 234.480469 200.5 C 234.5 200.742188 234.511719 200.992188 234.511719 201.242188 C 234.519531 201.515625 234.511719 201.792969 234.5 202.066406 C 234.492188 202.191406 234.484375 202.316406 234.472656 202.441406 C 234.464844 202.496094 234.394531 203.09375 234.445312 202.773438 C 234.304688 203.792969 233.957031 205.023438 233.621094 205.816406 C 232.714844 207.992188 231.121094 209.925781 229.140625 211.136719 C 226.878906 212.53125 224.230469 212.96875 221.554688 212.496094 C 220.71875 212.351562 219.871094 212.71875 219.625 213.589844 C 219.421875 214.335938 219.890625 215.351562 220.726562 215.503906 Z M 220.726562 215.503906 " fill-opacity="1" fill-rule="nonzero"/><path fill="#000000" d="M 283.023438 215.503906 C 286.136719 216.0625 289.257812 215.761719 292.105469 214.339844 C 294.503906 213.144531 296.511719 211.160156 297.867188 208.859375 C 300.570312 204.285156 300.808594 198.207031 297.351562 193.960938 C 293.613281 189.363281 286.476562 188.332031 281.253906 190.707031 C 276.496094 192.867188 273.269531 197.746094 272.753906 202.886719 C 272.488281 205.558594 273.121094 208.402344 274.703125 210.59375 C 276.691406 213.324219 279.753906 214.878906 283.023438 215.503906 C 283.851562 215.664062 284.714844 215.273438 284.953125 214.410156 C 285.160156 213.644531 284.695312 212.640625 283.859375 212.480469 C 282.535156 212.230469 281.28125 211.855469 280.207031 211.292969 C 279.128906 210.71875 278.542969 210.289062 277.714844 209.363281 C 277.617188 209.25 277.527344 209.148438 277.433594 209.027344 C 277.601562 209.238281 277.449219 209.042969 277.421875 209.007812 C 277.253906 208.777344 277.101562 208.539062 276.953125 208.296875 C 276.835938 208.09375 276.726562 207.894531 276.621094 207.683594 C 276.570312 207.578125 276.523438 207.476562 276.472656 207.371094 C 276.425781 207.265625 276.4375 207.289062 276.496094 207.425781 C 276.460938 207.34375 276.425781 207.253906 276.398438 207.167969 C 276 206.027344 275.890625 205.441406 275.855469 204.445312 C 275.839844 203.972656 275.855469 203.5 275.890625 203.03125 C 275.902344 202.894531 275.917969 202.746094 275.929688 202.609375 C 275.882812 202.96875 275.953125 202.496094 275.957031 202.453125 C 276.015625 202.167969 276.0625 201.882812 276.132812 201.605469 C 276.417969 200.429688 276.683594 199.761719 277.171875 198.820312 C 277.402344 198.382812 277.660156 197.949219 277.9375 197.539062 C 278.078125 197.328125 278.222656 197.128906 278.367188 196.925781 C 278.179688 197.167969 278.488281 196.78125 278.496094 196.773438 C 278.605469 196.640625 278.71875 196.5 278.835938 196.367188 C 279.183594 195.972656 279.558594 195.597656 279.957031 195.246094 C 280.464844 194.796875 280.527344 194.753906 281.085938 194.378906 C 283.007812 193.101562 284.972656 192.539062 287.230469 192.589844 C 289.496094 192.636719 292.203125 193.457031 293.847656 194.859375 C 294.796875 195.664062 295.257812 196.207031 295.804688 197.226562 C 295.925781 197.441406 296.035156 197.664062 296.132812 197.886719 C 296.328125 198.324219 296.035156 197.609375 296.203125 198.054688 C 296.238281 198.144531 296.273438 198.234375 296.300781 198.332031 C 296.496094 198.890625 296.628906 199.460938 296.726562 200.039062 C 296.78125 200.351562 296.738281 200.128906 296.734375 200.058594 C 296.753906 200.207031 296.769531 200.351562 296.773438 200.5 C 296.796875 200.742188 296.808594 200.992188 296.808594 201.242188 C 296.816406 201.515625 296.808594 201.792969 296.796875 202.066406 C 296.789062 202.191406 296.78125 202.316406 296.769531 202.441406 C 296.761719 202.496094 296.691406 203.09375 296.738281 202.773438 C 296.601562 203.792969 296.253906 205.023438 295.917969 205.816406 C 295.011719 207.992188 293.417969 209.925781 291.4375 211.136719 C 289.175781 212.53125 286.527344 212.96875 283.851562 212.496094 C 283.015625 212.351562 282.164062 212.71875 281.921875 213.589844 C 281.71875 214.335938 282.1875 215.351562 283.023438 215.503906 Z M 283.023438 215.503906 " fill-opacity="1" fill-rule="nonzero"/><path fill="#000000" d="M 345.324219 215.503906 C 348.441406 216.0625 351.5625 215.761719 354.410156 214.339844 C 356.808594 213.144531 358.8125 211.160156 360.171875 208.859375 C 362.875 204.285156 363.113281 198.207031 359.65625 193.960938 C 355.914062 189.363281 348.78125 188.332031 343.554688 190.707031 C 338.796875 192.867188 335.574219 197.746094 335.058594 202.886719 C 334.792969 205.558594 335.425781 208.402344 337.007812 210.59375 C 338.992188 213.324219 342.050781 214.878906 345.324219 215.503906 C 346.15625 215.664062 347.019531 215.273438 347.253906 214.410156 C 347.464844 213.644531 347 212.640625 346.160156 212.480469 C 344.839844 212.230469 343.585938 211.855469 342.511719 211.292969 C 341.433594 210.71875 340.847656 210.289062 340.015625 209.363281 C 339.917969 209.25 339.828125 209.148438 339.738281 209.027344 C 339.90625 209.238281 339.753906 209.042969 339.726562 209.007812 C 339.558594 208.777344 339.40625 208.539062 339.257812 208.296875 C 339.140625 208.09375 339.027344 207.894531 338.921875 207.683594 C 338.875 207.578125 338.824219 207.476562 338.777344 207.371094 C 338.730469 207.265625 338.742188 207.289062 338.796875 207.425781 C 338.761719 207.34375 338.730469 207.253906 338.699219 207.167969 C 338.304688 206.027344 338.191406 205.441406 338.15625 204.445312 C 338.144531 203.972656 338.15625 203.5 338.191406 203.03125 C 338.207031 202.894531 338.21875 202.746094 338.234375 202.609375 C 338.183594 202.96875 338.253906 202.496094 338.261719 202.453125 C 338.316406 202.167969 338.367188 201.882812 338.4375 201.605469 C 338.722656 200.429688 338.984375 199.761719 339.472656 198.820312 C 339.703125 198.382812 339.960938 197.949219 340.242188 197.539062 C 340.378906 197.328125 340.527344 197.128906 340.671875 196.925781 C 340.484375 197.167969 340.789062 196.78125 340.796875 196.773438 C 340.910156 196.640625 341.019531 196.5 341.140625 196.367188 C 341.488281 195.972656 341.863281 195.597656 342.261719 195.246094 C 342.769531 194.796875 342.832031 194.753906 343.390625 194.378906 C 345.3125 193.101562 347.277344 192.539062 349.535156 192.589844 C 351.796875 192.636719 354.507812 193.457031 356.152344 194.859375 C 357.101562 195.664062 357.558594 196.207031 358.109375 197.226562 C 358.226562 197.441406 358.339844 197.664062 358.4375 197.886719 C 358.632812 198.324219 358.339844 197.609375 358.507812 198.054688 C 358.542969 198.144531 358.578125 198.234375 358.605469 198.332031 C 358.800781 198.890625 358.933594 199.460938 359.03125 200.039062 C 359.085938 200.351562 359.042969 200.128906 359.035156 200.058594 C 359.058594 200.207031 359.070312 200.351562 359.078125 200.5 C 359.097656 200.742188 359.113281 200.992188 359.113281 201.242188 C 359.121094 201.515625 359.113281 201.792969 359.097656 202.066406 C 359.09375 202.191406 359.085938 202.316406 359.070312 202.441406 C 359.0625 202.496094 358.996094 203.09375 359.042969 202.773438 C 358.902344 203.792969 358.554688 205.023438 358.222656 205.816406 C 357.316406 207.992188 355.71875 209.925781 353.742188 211.136719 C 351.476562 212.53125 348.832031 212.96875 346.15625 212.496094 C 345.320312 212.351562 344.46875 212.71875 344.226562 213.589844 C 344.023438 214.335938 344.484375 215.351562 345.324219 215.503906 Z M 345.324219 215.503906 " fill-opacity="1" fill-rule="nonzero"/><path fill="#000000" d="M 113.425781 205.171875 C 124.648438 204.988281 135.871094 204.816406 147.09375 204.632812 C 149.109375 204.597656 149.117188 201.464844 147.09375 201.5 C 135.871094 201.683594 124.648438 201.855469 113.425781 202.039062 C 111.40625 202.070312 111.398438 205.207031 113.425781 205.171875 Z M 113.425781 205.171875 " fill-opacity="1" fill-rule="nonzero"/><path fill="#000000" d="M 175.046875 204.816406 C 187.292969 204.605469 199.546875 204.398438 211.796875 204.179688 C 213.808594 204.144531 213.816406 201.011719 211.796875 201.046875 C 199.546875 201.257812 187.292969 201.464844 175.046875 201.679688 C 173.03125 201.714844 173.023438 204.847656 175.046875 204.816406 Z M 175.046875 204.816406 " fill-opacity="1" fill-rule="nonzero"/><path fill="#000000" d="M 236.804688 204.816406 C 249.054688 204.605469 261.308594 204.398438 273.554688 204.179688 C 275.566406 204.144531 275.574219 201.011719 273.554688 201.046875 C 261.308594 201.257812 249.054688 201.464844 236.804688 201.679688 C 234.792969 201.714844 234.785156 204.847656 236.804688 204.816406 Z M 236.804688 204.816406 " fill-opacity="1" fill-rule="nonzero"/><path fill="#000000" d="M 298.566406 204.816406 C 310.8125 204.605469 323.066406 204.398438 335.316406 204.179688 C 337.328125 204.144531 337.335938 201.011719 335.316406 201.046875 C 323.066406 201.257812 310.8125 201.464844 298.566406 201.679688 C 296.550781 201.714844 296.546875 204.847656 298.566406 204.816406 Z M 298.566406 204.816406 " fill-opacity="1" fill-rule="nonzero"/><path fill="#ffffff" d="M 158.730469 200.816406 C 159.1875 200.21875 159.664062 199.632812 160.21875 199.125 C 160.367188 199 160.394531 198.980469 160.3125 199.050781 C 160.402344 198.988281 160.492188 198.925781 160.582031 198.867188 C 160.625 198.847656 161.015625 198.636719 160.796875 198.734375 C 160.945312 198.667969 161.113281 198.632812 161.265625 198.589844 C 161.601562 198.492188 161.175781 198.582031 161.488281 198.5625 C 161.683594 198.574219 161.703125 198.570312 161.550781 198.546875 C 161.648438 198.570312 161.746094 198.589844 161.84375 198.617188 C 162.136719 198.6875 161.703125 198.507812 161.976562 198.6875 C 162.316406 198.917969 161.800781 198.476562 162.101562 198.777344 C 162.15625 198.832031 162.394531 199.089844 162.226562 198.875 C 162.34375 199.019531 162.429688 199.195312 162.519531 199.355469 C 162.394531 199.117188 162.546875 199.417969 162.566406 199.507812 C 162.609375 199.648438 162.636719 199.78125 162.664062 199.925781 C 162.601562 199.585938 162.660156 200.101562 162.660156 200.191406 C 162.652344 200.671875 162.429688 201.339844 162.136719 201.855469 C 161.738281 202.566406 161.535156 202.835938 161 203.40625 C 160.765625 203.664062 160.511719 203.910156 160.25 204.140625 C 160.128906 204.242188 160.003906 204.347656 159.878906 204.453125 C 159.734375 204.570312 159.710938 204.585938 159.816406 204.5 C 159.753906 204.550781 159.683594 204.597656 159.621094 204.640625 C 159.023438 205.058594 158.386719 205.414062 157.726562 205.707031 C 157.015625 206.019531 156.8125 207.015625 157.085938 207.664062 C 157.40625 208.429688 158.152344 208.699219 158.929688 208.566406 C 160.929688 208.226562 163.390625 208.183594 165.382812 208.464844 C 166.191406 208.574219 167.101562 208.269531 167.3125 207.371094 C 167.480469 206.632812 167.089844 205.566406 166.21875 205.441406 C 163.496094 205.058594 160.8125 205.085938 158.09375 205.546875 C 158.5 206.5 158.902344 207.453125 159.300781 208.40625 C 162.011719 207.203125 164.484375 204.855469 165.464844 202.023438 C 165.980469 200.539062 165.898438 198.796875 165.046875 197.453125 C 164.09375 195.957031 162.503906 195.226562 160.75 195.492188 C 158.902344 195.769531 157.59375 197.191406 156.507812 198.589844 C 156.003906 199.238281 155.832031 200.183594 156.507812 200.804688 C 157.070312 201.332031 158.191406 201.507812 158.730469 200.816406 Z M 158.730469 200.816406 " fill-opacity="1" fill-rule="nonzero"/><path fill="#ffffff" d="M 221.304688 197.835938 C 223.117188 197.878906 224.925781 197.925781 226.738281 197.96875 C 226.371094 197.078125 226 196.1875 225.632812 195.296875 C 224.300781 196.730469 222.96875 198.15625 221.640625 199.589844 C 221.164062 200.101562 221.03125 200.871094 221.394531 201.492188 C 221.722656 202.054688 222.523438 202.453125 223.164062 202.210938 C 223.289062 202.160156 223.414062 202.125 223.546875 202.085938 C 223.910156 201.964844 223.277344 202.070312 223.660156 202.0625 C 223.792969 202.054688 223.925781 202.0625 224.054688 202.0625 C 224.34375 202.0625 223.953125 202.007812 224.105469 202.070312 C 224.203125 202.113281 224.328125 202.121094 224.433594 202.152344 C 224.550781 202.1875 224.792969 202.3125 224.558594 202.1875 C 224.675781 202.25 224.789062 202.320312 224.90625 202.382812 C 225.21875 202.542969 224.761719 202.210938 225.019531 202.460938 C 225.09375 202.535156 225.179688 202.613281 225.253906 202.695312 C 225.332031 202.78125 225.316406 202.761719 225.21875 202.632812 C 225.261719 202.691406 225.296875 202.746094 225.332031 202.800781 C 225.386719 202.898438 225.441406 202.996094 225.492188 203.09375 C 225.34375 202.792969 225.5 203.144531 225.519531 203.21875 C 225.546875 203.316406 225.554688 203.65625 225.554688 203.324219 C 225.554688 203.457031 225.554688 203.59375 225.5625 203.722656 C 225.574219 204.007812 225.617188 203.609375 225.566406 203.769531 C 225.527344 203.894531 225.503906 204.035156 225.476562 204.160156 C 225.441406 204.292969 225.378906 204.429688 225.46875 204.222656 C 225.414062 204.339844 225.351562 204.464844 225.28125 204.578125 C 225.253906 204.625 225.003906 204.9375 225.21875 204.695312 C 225.144531 204.777344 225.066406 204.855469 224.988281 204.9375 C 224.941406 204.988281 224.890625 205.03125 224.84375 205.070312 C 224.96875 204.972656 224.984375 204.960938 224.890625 205.023438 C 224.789062 205.085938 224.683594 205.15625 224.570312 205.203125 C 224.773438 205.105469 224.375 205.265625 224.328125 205.28125 C 224.320312 205.28125 223.839844 205.371094 224.097656 205.335938 C 223.796875 205.371094 223.484375 205.355469 223.1875 205.328125 C 223.074219 205.316406 223.074219 205.324219 223.179688 205.328125 C 223.09375 205.316406 223.011719 205.300781 222.929688 205.28125 C 222.789062 205.253906 222.640625 205.226562 222.503906 205.191406 C 221.828125 205.023438 221.171875 204.785156 220.515625 204.535156 C 219.75 204.242188 218.761719 204.863281 218.585938 205.628906 C 218.386719 206.527344 218.859375 207.246094 219.679688 207.558594 C 221.402344 208.21875 223.3125 208.789062 225.15625 208.296875 C 226.84375 207.835938 228.195312 206.445312 228.5625 204.730469 C 228.925781 203.058594 228.464844 201.277344 227.136719 200.15625 C 225.839844 199.0625 223.972656 198.582031 222.34375 199.1875 C 222.851562 200.058594 223.359375 200.933594 223.867188 201.804688 C 225.199219 200.371094 226.53125 198.945312 227.859375 197.507812 C 228.785156 196.515625 228.132812 194.871094 226.753906 194.835938 C 224.941406 194.792969 223.128906 194.746094 221.320312 194.703125 C 220.496094 194.683594 219.714844 195.441406 219.75 196.269531 C 219.777344 197.132812 220.425781 197.808594 221.304688 197.835938 Z M 221.304688 197.835938 " fill-opacity="1" fill-rule="nonzero"/><path fill="#ffffff" d="M 282.019531 197.417969 C 281.199219 199.625 280.605469 201.910156 280.257812 204.242188 C 280.179688 204.757812 280.207031 205.183594 280.535156 205.609375 C 280.808594 205.957031 281.296875 206.285156 281.769531 206.226562 C 284.722656 205.859375 287.683594 205.496094 290.636719 205.128906 C 291.445312 205.03125 292.246094 204.480469 292.203125 203.5625 C 292.171875 202.800781 291.507812 201.890625 290.636719 201.992188 C 287.683594 202.363281 284.722656 202.726562 281.769531 203.09375 C 282.269531 203.753906 282.777344 204.417969 283.28125 205.078125 C 283.636719 202.746094 284.222656 200.460938 285.042969 198.253906 C 285.328125 197.480469 284.722656 196.507812 283.949219 196.324219 C 283.058594 196.125 282.324219 196.597656 282.019531 197.417969 Z M 282.019531 197.417969 " fill-opacity="1" fill-rule="nonzero"/><path fill="#ffffff" d="M 284.996094 199.28125 C 284.863281 202.546875 285.300781 205.851562 286.296875 208.972656 C 286.546875 209.753906 287.398438 210.335938 288.226562 210.066406 C 289.007812 209.816406 289.585938 208.972656 289.320312 208.136719 C 288.875 206.730469 288.492188 205.109375 288.316406 203.765625 C 288.136719 202.421875 288.074219 200.757812 288.136719 199.28125 C 288.171875 198.457031 287.390625 197.679688 286.570312 197.714844 C 285.683594 197.746094 285.027344 198.394531 284.996094 199.28125 Z M 284.996094 199.28125 " fill-opacity="1" fill-rule="nonzero"/><path fill="#ffffff" d="M 346.226562 210.425781 C 348.1875 210.253906 350.175781 209.890625 351.6875 208.527344 C 353.113281 207.246094 353.785156 205.140625 353.011719 203.339844 C 352.277344 201.652344 350.417969 200.582031 348.601562 200.636719 C 346.71875 200.683594 344.976562 201.765625 343.84375 203.226562 C 344.714844 203.457031 345.589844 203.6875 346.460938 203.917969 C 346.191406 202.042969 345.917969 200.175781 345.652344 198.304688 C 345.152344 198.964844 344.644531 199.628906 344.140625 200.289062 C 346.949219 200.164062 349.765625 200.359375 352.570312 200.234375 C 353.386719 200.199219 354.179688 199.535156 354.140625 198.667969 C 354.105469 197.851562 353.449219 197.058594 352.570312 197.097656 C 349.765625 197.226562 346.949219 197.03125 344.140625 197.15625 C 343.027344 197.203125 342.484375 198.109375 342.628906 199.140625 C 342.902344 201.011719 343.171875 202.878906 343.4375 204.753906 C 343.597656 205.859375 345.375 206.324219 346.058594 205.441406 C 346.253906 205.191406 346.453125 204.953125 346.683594 204.730469 C 346.796875 204.621094 346.914062 204.515625 347.03125 204.410156 C 346.84375 204.570312 347.199219 204.300781 347.222656 204.277344 C 347.351562 204.195312 347.484375 204.113281 347.625 204.042969 C 347.660156 204.027344 348.007812 203.867188 347.863281 203.921875 C 347.757812 203.964844 348.125 203.847656 348.1875 203.832031 C 348.316406 203.796875 348.441406 203.769531 348.566406 203.757812 C 348.273438 203.792969 348.683594 203.769531 348.738281 203.769531 C 348.824219 203.769531 349.1875 203.855469 348.886719 203.769531 C 349.023438 203.804688 349.164062 203.839844 349.296875 203.875 C 349.660156 203.972656 349.121094 203.742188 349.445312 203.9375 C 349.5625 204.007812 349.6875 204.078125 349.804688 204.152344 C 349.625 204.035156 349.777344 204.132812 349.867188 204.214844 C 349.910156 204.25 350.160156 204.558594 350.0625 204.417969 C 349.910156 204.203125 350.257812 204.785156 350.140625 204.542969 C 350.054688 204.367188 350.1875 204.710938 350.203125 204.753906 C 350.308594 205.066406 350.238281 204.625 350.222656 204.917969 C 350.214844 204.988281 350.140625 205.378906 350.214844 205.085938 C 350.183594 205.234375 350.148438 205.371094 350.089844 205.511719 C 350.183594 205.261719 350.027344 205.621094 349.992188 205.679688 C 349.964844 205.726562 349.730469 206.074219 349.890625 205.859375 C 349.8125 205.957031 349.722656 206.054688 349.632812 206.144531 C 349.589844 206.1875 349.296875 206.445312 349.386719 206.375 C 349.511719 206.277344 349.1875 206.5 349.15625 206.519531 C 349.011719 206.609375 348.863281 206.6875 348.710938 206.757812 C 348.441406 206.890625 348.734375 206.769531 348.460938 206.855469 C 348.300781 206.902344 348.140625 206.960938 347.980469 207 C 347.652344 207.089844 347.320312 207.15625 346.984375 207.210938 C 346.929688 207.21875 346.871094 207.222656 346.816406 207.238281 C 346.921875 207.222656 346.921875 207.222656 346.808594 207.238281 C 346.613281 207.257812 346.414062 207.28125 346.21875 207.292969 C 345.402344 207.363281 344.609375 207.960938 344.648438 208.859375 C 344.699219 209.648438 345.355469 210.503906 346.226562 210.425781 Z M 346.226562 210.425781 " fill-opacity="1" fill-rule="nonzero"/><path fill="#ffffff" d="M 95.839844 200.84375 C 98.46875 200.582031 100.664062 198.894531 101.457031 196.355469 C 100.433594 196.214844 99.402344 196.074219 98.378906 195.9375 C 98.1875 200.003906 97.804688 204.054688 97.617188 208.128906 C 97.574219 208.976562 98.363281 209.695312 99.183594 209.695312 C 100.070312 209.695312 100.710938 208.976562 100.753906 208.128906 C 100.941406 204.0625 101.324219 200.007812 101.511719 195.9375 C 101.597656 194.117188 98.949219 193.875 98.433594 195.519531 C 98.25 196.101562 97.910156 196.613281 97.351562 197.0625 C 97.289062 197.113281 97.199219 197.175781 97.027344 197.28125 C 96.878906 197.371094 96.71875 197.460938 96.558594 197.523438 C 96.726562 197.453125 96.316406 197.601562 96.28125 197.605469 C 96.167969 197.640625 96.058594 197.667969 95.9375 197.691406 C 95.742188 197.726562 95.707031 197.734375 95.835938 197.710938 C 94.992188 197.796875 94.265625 198.375 94.265625 199.277344 C 94.273438 200.058594 94.992188 200.929688 95.839844 200.84375 Z M 95.839844 200.84375 " fill-opacity="1" fill-rule="nonzero"/><path fill="#ffffff" d="M 95.832031 210.351562 C 98.132812 210.175781 100.433594 209.996094 102.730469 209.820312 C 103.546875 209.757812 104.339844 209.144531 104.296875 208.253906 C 104.261719 207.460938 103.609375 206.617188 102.730469 206.6875 C 100.433594 206.863281 98.132812 207.042969 95.832031 207.21875 C 95.019531 207.28125 94.222656 207.890625 94.265625 208.785156 C 94.300781 209.578125 94.964844 210.421875 95.832031 210.351562 Z M 95.832031 210.351562 " fill-opacity="1" fill-rule="nonzero"/><path fill="#000000" d="M 71.570312 151.335938 C 84.929688 149.464844 98.453125 148.769531 111.933594 149.191406 C 113.953125 149.253906 113.949219 146.121094 111.933594 146.058594 C 98.160156 145.628906 84.382812 146.40625 70.734375 148.316406 C 69.898438 148.433594 69.4375 149.503906 69.640625 150.242188 C 69.890625 151.140625 70.726562 151.457031 71.570312 151.335938 Z M 71.570312 151.335938 " fill-opacity="1" fill-rule="nonzero"/><path fill="#000000" d="M 71.152344 160.578125 C 86.867188 160.613281 102.578125 160.640625 118.292969 160.675781 C 122.761719 160.683594 127.226562 160.695312 131.691406 160.703125 C 133.710938 160.710938 133.710938 157.578125 131.691406 157.570312 C 115.976562 157.535156 100.265625 157.507812 84.546875 157.472656 C 80.082031 157.464844 75.617188 157.453125 71.152344 157.445312 C 69.136719 157.445312 69.128906 160.570312 71.152344 160.578125 Z M 71.152344 160.578125 " fill-opacity="1" fill-rule="nonzero"/><path fill="#000000" d="M 256.355469 249.558594 C 269.714844 247.6875 283.238281 246.992188 296.71875 247.414062 C 298.738281 247.476562 298.734375 244.34375 296.71875 244.28125 C 282.945312 243.851562 269.164062 244.628906 255.519531 246.539062 C 254.683594 246.65625 254.222656 247.730469 254.425781 248.46875 C 254.667969 249.371094 255.511719 249.679688 256.355469 249.558594 Z M 256.355469 249.558594 " fill-opacity="1" fill-rule="nonzero"/><path fill="#000000" d="M 255.9375 258.800781 C 271.652344 258.835938 287.363281 258.863281 303.078125 258.898438 C 307.546875 258.90625 312.011719 258.917969 316.476562 258.925781 C 318.496094 258.933594 318.496094 255.796875 316.476562 255.792969 C 300.761719 255.757812 285.050781 255.730469 269.332031 255.695312 C 264.867188 255.6875 260.402344 255.671875 255.9375 255.667969 C 253.914062 255.667969 253.914062 258.800781 255.9375 258.800781 Z M 255.9375 258.800781 " fill-opacity="1" fill-rule="nonzero"/><path fill="#000000" d="M 132.953125 243.953125 C 140.394531 243.851562 147.839844 243.738281 155.28125 243.632812 C 157.292969 243.605469 157.300781 240.472656 155.28125 240.5 C 147.839844 240.605469 140.394531 240.71875 132.953125 240.820312 C 130.9375 240.847656 130.933594 243.984375 132.953125 243.953125 Z M 132.953125 243.953125 " fill-opacity="1" fill-rule="nonzero"/><path fill="#000000" d="M 134.375 254.21875 C 147.339844 252.902344 160.351562 252.164062 173.378906 251.996094 C 175.394531 251.96875 175.402344 248.835938 173.378906 248.863281 C 160.351562 249.03125 147.332031 249.769531 134.375 251.085938 C 133.53125 251.167969 132.804688 251.746094 132.804688 252.652344 C 132.804688 253.433594 133.523438 254.300781 134.375 254.21875 Z M 134.375 254.21875 " fill-opacity="1" fill-rule="nonzero"/><path fill="#000000" d="M 132.960938 263.828125 C 146.292969 263.425781 159.628906 263.019531 172.960938 262.609375 C 176.789062 262.492188 180.613281 262.378906 184.445312 262.261719 C 186.457031 262.199219 186.464844 259.066406 184.445312 259.128906 C 171.109375 259.53125 157.773438 259.9375 144.441406 260.347656 C 140.617188 260.464844 136.792969 260.578125 132.960938 260.695312 C 130.945312 260.757812 130.933594 263.890625 132.960938 263.828125 Z M 132.960938 263.828125 " fill-opacity="1" fill-rule="nonzero"/><path fill="#000000" d="M 195.773438 145.851562 C 203.210938 145.746094 210.660156 145.632812 218.101562 145.53125 C 220.113281 145.503906 220.121094 142.367188 218.101562 142.394531 C 210.660156 142.5 203.210938 142.613281 195.773438 142.714844 C 193.757812 142.75 193.75 145.886719 195.773438 145.851562 Z M 195.773438 145.851562 " fill-opacity="1" fill-rule="nonzero"/><path fill="#000000" d="M 195.773438 155.960938 C 208.738281 154.644531 221.75 153.90625 234.777344 153.738281 C 236.792969 153.710938 236.796875 150.578125 234.777344 150.605469 C 221.75 150.773438 208.730469 151.511719 195.773438 152.828125 C 194.929688 152.910156 194.203125 153.488281 194.203125 154.394531 C 194.203125 155.175781 194.929688 156.046875 195.773438 155.960938 Z M 195.773438 155.960938 " fill-opacity="1" fill-rule="nonzero"/><path fill="#000000" d="M 195.773438 165.570312 C 209.105469 165.167969 222.441406 164.761719 235.773438 164.351562 C 239.597656 164.234375 243.425781 164.121094 247.253906 164.003906 C 249.269531 163.941406 249.277344 160.808594 247.253906 160.871094 C 233.921875 161.273438 220.585938 161.675781 207.253906 162.089844 C 203.429688 162.207031 199.601562 162.316406 195.773438 162.4375 C 193.757812 162.492188 193.75 165.625 195.773438 165.570312 Z M 195.773438 165.570312 " fill-opacity="1" fill-rule="nonzero"/><path fill="#000000" d="M 332.304688 159.714844 C 343.394531 159.40625 354.496094 159.101562 365.585938 158.800781 C 367.597656 158.746094 367.605469 155.613281 365.585938 155.667969 C 365.046875 155.679688 364.511719 155.695312 363.984375 155.710938 C 361.96875 155.757812 361.960938 158.898438 363.984375 158.84375 C 364.519531 158.828125 365.054688 158.816406 365.585938 158.800781 C 365.585938 157.757812 365.585938 156.710938 365.585938 155.667969 C 354.496094 155.972656 343.394531 156.28125 332.304688 156.578125 C 330.292969 156.636719 330.285156 159.769531 332.304688 159.714844 Z M 332.304688 159.714844 " fill-opacity="1" fill-rule="nonzero"/></svg>